<?xml version="1.0" encoding="utf-8"?>
<!-- Generator: Adobe Illustrator 19.1.0, SVG Export Plug-In . SVG Version: 6.00 Build 0)  -->
<svg version="1.1" id="Icon" xmlns="http://www.w3.org/2000/svg" xmlns:xlink="http://www.w3.org/1999/xlink" x="0px" y="0px"
	 width="24px" height="24px" viewBox="0 0 24 24" enable-background="new 0 0 24 24" xml:space="preserve">
<g>
	<path d="M18,18H5.867C4.247,18,3,19.38,3,21v2h18v-2C21,19.38,19.62,18,18,18z"/>
	<g>
		<path d="M12,1C7.581,1,4,4.581,4,9c0,4.419,3.581,8,8,8s8-3.581,8-8C20,4.581,16.419,1,12,1z M11,13L7.5,9.5L9,8l2,2l4-4l1.5,1.5
			L11,13z"/>
	</g>
</g>
</svg>
