<?xml version="1.0" encoding="utf-8"?>
<!-- Generator: Adobe Illustrator 17.1.0, SVG Export Plug-In . SVG Version: 6.00 Build 0)  -->
<!DOCTYPE svg PUBLIC "-//W3C//DTD SVG 1.1//EN" "http://www.w3.org/Graphics/SVG/1.1/DTD/svg11.dtd">
<svg version="1.1" id="Layer_1" xmlns="http://www.w3.org/2000/svg" xmlns:xlink="http://www.w3.org/1999/xlink" x="0px" y="0px"
	 width="128px" height="128px" viewBox="0 0 128 128" enable-background="new 0 0 128 128" xml:space="preserve">
<path d="M16,54.857V52h-4v-4H4v32h8v-4h4v-2.857l8,2.286V88c0,4.418,3.582,8,8,8h16c4.418,0,8-3.582,8-8v-3.429L124,104V24
	L16,54.857z M52,88c0,2.205-1.795,4-4,4H32c-2.205,0-4-1.795-4-4V76.571l24,6.857V88z M120,98.697L16,68.982v-9.965l104-29.715
	V98.697z"/>
</svg>
