<?xml version="1.0" encoding="utf-8"?>
<!-- Generator: Adobe Illustrator 17.1.0, SVG Export Plug-In . SVG Version: 6.00 Build 0)  -->
<!DOCTYPE svg PUBLIC "-//W3C//DTD SVG 1.1//EN" "http://www.w3.org/Graphics/SVG/1.1/DTD/svg11.dtd">
<svg version="1.1" id="Layer_1" xmlns="http://www.w3.org/2000/svg" xmlns:xlink="http://www.w3.org/1999/xlink" x="0px" y="0px"
	 width="64px" height="64px" viewBox="0 0 64 64" enable-background="new 0 0 64 64" xml:space="preserve">
<g>
	<path d="M28.32,31.429c-0.213,0-0.357-0.06-0.43-0.18c-0.074-0.12-0.11-0.32-0.11-0.6v-5.32c0-0.546-0.12-1.01-0.36-1.39
		c-0.24-0.38-0.557-0.691-0.95-0.93c-0.393-0.24-0.837-0.413-1.33-0.52c-0.494-0.107-0.994-0.16-1.5-0.16
		c-0.574,0-1.134,0.054-1.68,0.16c-0.547,0.107-1.037,0.293-1.47,0.56c-0.433,0.267-0.79,0.62-1.07,1.06
		c-0.28,0.44-0.44,0.993-0.48,1.66h2.28c0.053-0.56,0.287-0.973,0.7-1.24c0.413-0.267,0.94-0.4,1.58-0.4
		c0.227,0,0.466,0.017,0.72,0.05c0.253,0.034,0.483,0.1,0.691,0.2c0.206,0.1,0.38,0.243,0.52,0.43c0.14,0.187,0.21,0.427,0.21,0.72
		c0,0.333-0.083,0.583-0.25,0.75c-0.167,0.167-0.394,0.29-0.68,0.37c-0.287,0.08-0.617,0.137-0.99,0.17
		c-0.373,0.033-0.767,0.09-1.18,0.17c-0.48,0.053-0.957,0.13-1.43,0.23c-0.473,0.1-0.9,0.263-1.28,0.49
		c-0.38,0.227-0.687,0.54-0.92,0.94c-0.234,0.4-0.35,0.92-0.35,1.56c0,0.507,0.096,0.95,0.29,1.33c0.193,0.38,0.453,0.693,0.78,0.94
		c0.327,0.247,0.703,0.434,1.13,0.56c0.427,0.127,0.873,0.19,1.34,0.19c0.613,0,1.25-0.1,1.91-0.3c0.66-0.2,1.217-0.52,1.67-0.96
		c0.093,0.467,0.293,0.793,0.6,0.98c0.307,0.187,0.693,0.28,1.16,0.28c0.093,0,0.207-0.007,0.34-0.02
		c0.133-0.013,0.267-0.033,0.4-0.06c0.133-0.027,0.263-0.057,0.39-0.09c0.127-0.033,0.23-0.063,0.31-0.09v-1.58
		c-0.12,0.027-0.227,0.04-0.32,0.04C28.466,31.429,28.387,31.429,28.32,31.429z M25.5,29.469c0,0.36-0.087,0.664-0.26,0.91
		c-0.173,0.247-0.39,0.45-0.65,0.61c-0.26,0.16-0.537,0.273-0.83,0.34c-0.294,0.067-0.567,0.1-0.82,0.1c-0.2,0-0.423-0.02-0.67-0.06
		c-0.247-0.04-0.474-0.11-0.68-0.21c-0.207-0.1-0.383-0.236-0.53-0.41c-0.147-0.173-0.22-0.386-0.22-0.64
		c0-0.293,0.05-0.543,0.15-0.75c0.1-0.207,0.237-0.373,0.41-0.5c0.173-0.127,0.373-0.227,0.6-0.3c0.227-0.073,0.46-0.13,0.7-0.17
		c0.507-0.093,1.013-0.163,1.52-0.21c0.507-0.046,0.933-0.183,1.28-0.41V29.469z"/>
	<path d="M39.34,23.94c-0.4-0.5-0.903-0.894-1.51-1.18c-0.607-0.287-1.317-0.43-2.13-0.43c-0.667,0-1.287,0.13-1.86,0.39
		c-0.573,0.26-1.02,0.69-1.34,1.29h-0.04v-1.4H30.3v14.16h2.28v-5.16h0.04c0.173,0.28,0.39,0.523,0.65,0.73
		c0.26,0.206,0.543,0.377,0.85,0.51c0.307,0.133,0.627,0.23,0.96,0.29c0.333,0.06,0.667,0.09,1,0.09c0.76,0,1.42-0.15,1.98-0.45
		c0.56-0.3,1.023-0.7,1.39-1.2c0.366-0.5,0.64-1.077,0.82-1.73c0.18-0.653,0.27-1.327,0.27-2.02c0-0.76-0.1-1.473-0.3-2.14
		C40.04,25.022,39.74,24.44,39.34,23.94z M38.11,29.119c-0.1,0.434-0.267,0.82-0.5,1.16c-0.233,0.34-0.53,0.617-0.89,0.83
		c-0.36,0.213-0.8,0.32-1.32,0.32c-0.467,0-0.877-0.093-1.23-0.28c-0.354-0.187-0.657-0.44-0.91-0.76
		c-0.253-0.32-0.444-0.703-0.57-1.15c-0.127-0.447-0.19-0.93-0.19-1.45c0-1.107,0.243-1.993,0.73-2.66s1.21-1,2.17-1
		c0.467,0,0.88,0.103,1.24,0.31c0.36,0.206,0.66,0.48,0.9,0.82c0.24,0.34,0.42,0.73,0.54,1.17c0.12,0.44,0.18,0.894,0.18,1.36
		C38.26,28.243,38.21,28.686,38.11,29.119z"/>
	<rect x="42.519" y="18.669" width="2.28" height="2.16"/>
	<rect x="42.519" y="22.609" width="2.28" height="10.34"/>
	<path d="M6,6v44v8h52v-8V6H6z M8,8h48v40H8V8z"/>
</g>
</svg>
