<?xml version="1.0" encoding="utf-8"?>
<!-- Generator: Adobe Illustrator 19.1.0, SVG Export Plug-In . SVG Version: 6.00 Build 0)  -->
<svg version="1.1" id="Icon" xmlns="http://www.w3.org/2000/svg" xmlns:xlink="http://www.w3.org/1999/xlink" x="0px" y="0px"
	 width="24px" height="24px" viewBox="0 0 24 24" enable-background="new 0 0 24 24" xml:space="preserve">
<g>
	<polygon points="22,10 22,8 19,8 19,10 17,10 17,8 14,8 14,10 1,10 1,16 23,16 23,10 	"/>
	<polygon points="11,3 10,3 10,1 7,1 7,3 5,3 5,1 2,1 2,3 1,3 1,9 11,9 	"/>
	<rect x="12" y="17" width="11" height="6"/>
	<rect x="1" y="17" width="10" height="6"/>
</g>
</svg>
