<svg xmlns="http://www.w3.org/2000/svg" viewBox="0 0 64 64"><path d="M28.32 31.43c-.213 0-.357-.06-.43-.18-.074-.12-.11-.32-.11-.6v-5.32c0-.547-.12-1.01-.36-1.39-.24-.38-.557-.692-.95-.93-.393-.24-.837-.414-1.33-.52-.494-.108-.994-.16-1.5-.16-.574 0-1.134.053-1.68.16-.547.106-1.037.292-1.47.56-.433.266-.79.62-1.07 1.06-.28.44-.44.992-.48 1.66h2.28c.053-.56.287-.974.7-1.24.413-.268.94-.4 1.58-.4.227 0 .466.016.72.05.253.033.483.1.69.2.208.1.38.242.52.43.14.186.21.426.21.72 0 .332-.082.582-.25.75-.166.166-.392.29-.68.37-.286.08-.616.136-.99.17-.372.032-.766.09-1.18.17-.48.052-.956.13-1.43.23-.472.1-.9.262-1.28.49-.38.226-.686.54-.92.94-.233.4-.35.92-.35 1.56 0 .506.097.95.29 1.33.194.38.454.692.78.94.328.246.704.433 1.13.56.428.126.874.19 1.34.19.614 0 1.25-.1 1.91-.3.66-.2 1.218-.52 1.67-.96.094.466.294.792.6.98.308.186.694.28 1.16.28.094 0 .208-.008.34-.02.134-.014.268-.034.4-.06.134-.028.264-.058.39-.09.128-.034.23-.064.31-.09v-1.58c-.12.026-.226.04-.32.04h-.24zm-2.82-1.96c0 .36-.087.663-.26.91-.173.246-.39.45-.65.61-.26.16-.537.272-.83.34-.293.066-.567.1-.82.1-.2 0-.423-.02-.67-.06-.247-.04-.474-.11-.68-.21-.207-.1-.383-.237-.53-.41-.147-.174-.22-.387-.22-.64 0-.294.05-.544.15-.75.1-.208.237-.374.41-.5.173-.128.373-.228.6-.3.227-.074.46-.13.7-.17.507-.094 1.013-.164 1.52-.21.507-.047.933-.184 1.28-.41v1.7zM39.34 23.94c-.4-.5-.903-.894-1.51-1.18-.607-.287-1.317-.43-2.13-.43-.667 0-1.287.13-1.86.39-.573.26-1.02.69-1.34 1.29h-.04v-1.4H30.3v14.16h2.28v-5.16h.04c.173.28.39.523.65.73.26.206.543.377.85.51.307.133.627.23.96.29.333.06.667.09 1 .09.76 0 1.42-.15 1.98-.45.56-.3 1.023-.7 1.39-1.2.366-.5.64-1.077.82-1.73.18-.653.27-1.327.27-2.02 0-.76-.1-1.473-.3-2.14-.2-.668-.5-1.25-.9-1.75zm-1.23 5.18c-.1.433-.267.82-.5 1.16-.233.34-.53.616-.89.83-.36.212-.8.32-1.32.32-.467 0-.877-.094-1.23-.28-.354-.188-.657-.44-.91-.76s-.444-.704-.57-1.15c-.127-.448-.19-.93-.19-1.45 0-1.108.243-1.994.73-2.66.487-.668 1.21-1 2.17-1 .467 0 .88.102 1.24.31.36.205.66.48.9.82.24.34.42.73.54 1.17.12.44.18.893.18 1.36 0 .453-.05.896-.15 1.33zM42.52 18.67h2.28v2.16h-2.28zM42.52 22.61h2.28v10.34h-2.28z"/><path d="M6 6v52h52V6H6zm2 2h48v40H8V8z"/></svg>