<svg xmlns="http://www.w3.org/2000/svg" viewBox="0 0 32 32"><path d="M14.16 15.715c-.107 0-.18-.03-.215-.09-.037-.06-.055-.16-.055-.3v-2.66c0-.274-.06-.505-.18-.695-.12-.19-.278-.345-.475-.465-.197-.12-.418-.207-.665-.26-.247-.053-.497-.08-.75-.08-.287 0-.566.027-.84.08-.274.053-.52.146-.735.28-.217.134-.395.31-.535.53-.14.22-.22.497-.24.83h1.14c.027-.28.144-.487.35-.62s.47-.2.79-.2c.113 0 .233.01.36.025.126.017.242.05.345.1.103.05.19.122.26.215s.105.213.105.36c0 .167-.042.292-.125.375-.083.083-.197.145-.34.185-.144.04-.31.068-.495.085-.187.017-.383.045-.59.085-.24.027-.48.065-.715.115-.237.05-.45.132-.64.245-.19.114-.344.27-.46.47-.117.2-.175.46-.175.78 0 .253.048.475.145.665.097.19.227.347.39.47.163.124.352.217.565.28.213.063.436.095.67.095.307 0 .625-.05.955-.15.33-.1.608-.26.835-.48.047.234.146.397.3.49.153.093.346.14.58.14.047 0 .104-.003.17-.01.066-.007.133-.017.2-.03.067-.014.132-.028.195-.045.063-.017.115-.032.155-.045v-.79c-.06.013-.113.02-.16.02h-.12zm-1.41-.98c0 .18-.044.33-.13.454-.087.122-.195.224-.325.304-.13.08-.27.137-.415.17-.147.034-.283.05-.41.05-.1 0-.21-.01-.335-.03-.123-.02-.236-.055-.34-.105s-.192-.12-.265-.206c-.073-.086-.11-.193-.11-.32 0-.146.025-.27.075-.375.05-.105.118-.187.205-.25.086-.064.186-.114.3-.15.113-.038.23-.066.35-.086.253-.047.506-.082.76-.105.253-.024.467-.093.64-.206v.85zM19.67 11.97c-.2-.25-.452-.447-.755-.59-.303-.143-.66-.215-1.065-.215-.333 0-.644.065-.93.195-.287.13-.51.345-.67.645h-.02v-.7h-1.08v7.08h1.14v-2.58h.02c.086.14.195.262.325.365.13.104.27.19.425.255.153.066.313.115.48.145.166.03.333.045.5.045.38 0 .71-.075.99-.225.28-.15.512-.35.695-.6.183-.25.32-.538.41-.865.09-.327.135-.664.135-1.01 0-.38-.05-.736-.15-1.07-.1-.334-.25-.625-.45-.875zm-.615 2.59c-.05.217-.134.41-.25.58-.117.17-.265.31-.445.415-.18.106-.4.16-.66.16-.233 0-.438-.047-.615-.14-.177-.093-.33-.22-.455-.38-.126-.16-.222-.352-.285-.575-.064-.223-.095-.465-.095-.725 0-.553.122-.997.365-1.33.243-.333.605-.5 1.085-.5.233 0 .44.052.62.155.18.104.33.24.45.41.12.17.21.365.27.585.06.22.09.446.09.68 0 .226-.025.448-.075.665zM21.26 9.335h1.14v1.08h-1.14zM21.26 11.305h1.14v5.17h-1.14z"/><path d="M3 3v26h26V3H3zm2 2h22v18H5V5z"/></svg>