<?xml version="1.0" encoding="iso-8859-1"?>
<!-- Generator: Adobe Illustrator 20.0.0, SVG Export Plug-In . SVG Version: 6.00 Build 0)  -->
<svg version="1.1" id="Layer_1" xmlns="http://www.w3.org/2000/svg" xmlns:xlink="http://www.w3.org/1999/xlink" x="0px" y="0px"
	 viewBox="0 0 24 24" style="enable-background:new 0 0 24 24;" xml:space="preserve">
<path d="M19.387,12.532l-1.413-1.413c-0.668,0.755-1.473,1.383-2.367,1.864l-1.936-5.809C14.248,6.627,14.613,5.858,14.613,5
	c0-1.304-0.837-2.403-2-2.816V1h-2v1.184c-1.163,0.413-2,1.512-2,2.816c0,0.858,0.365,1.627,0.942,2.174L4.613,22l2,1l2.444-7.332
	C9.876,15.878,10.729,16,11.613,16c0.884,0,1.737-0.122,2.557-0.329L16.613,23l2-1l-2.366-7.099
	C17.435,14.309,18.504,13.508,19.387,12.532z M11.613,4c0.552,0,1,0.448,1,1c0,0.552-0.448,1-1,1s-1-0.448-1-1
	C10.613,4.448,11.06,4,11.613,4z M11.613,14c-0.663,0-1.304-0.088-1.922-0.235L11.613,8l1.925,5.775
	C12.919,13.919,12.275,14,11.613,14z"/>
</svg>
