<svg xmlns="http://www.w3.org/2000/svg" viewBox="0 0 128 128"><path d="M99.33 67.44l-5.658-5.655c-4.07 4.072-8.834 7.243-14.188 9.455L70.252 44.7c4.95-2.72 8.307-7.98 8.307-14.028 0-7.452-5.104-13.696-12-15.476V6.67h-8v8.525c-6.898 1.78-12 8.023-12 15.476 0 6.048 3.356 11.31 8.306 14.03L28.67 120.013l3.778 1.314 14.32-41.173c5.12 1.627 10.453 2.452 15.79 2.452 5.338 0 10.674-.825 15.79-2.452l14.322 41.173 3.778-1.314-14.334-41.21C88.616 76.18 94.4 72.37 99.33 67.44zM62.56 26.67c2.208 0 4 1.792 4 4s-1.792 4-4 4-4-1.79-4-4 1.79-4 4-4zM49.397 72.6l9.198-26.443c1.27.324 2.593.515 3.964.515 1.37 0 2.694-.19 3.964-.515L75.72 72.6c-8.54 2.67-17.783 2.67-26.322 0z"/></svg>