<?xml version="1.0" encoding="iso-8859-1"?>
<!-- Generator: Adobe Illustrator 20.0.0, SVG Export Plug-In . SVG Version: 6.00 Build 0)  -->
<svg version="1.1" id="Layer_1" xmlns="http://www.w3.org/2000/svg" xmlns:xlink="http://www.w3.org/1999/xlink" x="0px" y="0px"
	 viewBox="0 0 128 128" style="enable-background:new 0 0 128 128;" xml:space="preserve">
<path d="M99.33,67.441l-5.658-5.656c-4.07,4.072-8.834,7.243-14.188,9.455L70.252,44.7c4.95-2.721,8.307-7.981,8.307-14.028
	c0-7.452-5.103-13.696-12-15.476V6.671h-8v8.524c-6.897,1.779-12,8.023-12,15.476c0,6.047,3.357,11.308,8.307,14.028L28.67,120.014
	l3.778,1.314l14.321-41.173c5.119,1.627,10.452,2.452,15.79,2.452c5.337,0,10.673-0.825,15.79-2.452l14.321,41.173l3.778-1.314
	L82.114,78.803C88.616,76.182,94.4,72.372,99.33,67.441z M62.559,26.671c2.209,0,4,1.791,4,4s-1.791,4-4,4s-4-1.791-4-4
	S60.35,26.671,62.559,26.671z M49.398,72.6l9.198-26.443c1.27,0.324,2.593,0.515,3.964,0.515c1.371,0,2.694-0.191,3.964-0.515
	L75.721,72.6C67.181,75.269,57.937,75.269,49.398,72.6z"/>
</svg>
