<?xml version="1.0" encoding="utf-8"?>
<!-- Generator: Adobe Illustrator 19.1.0, SVG Export Plug-In . SVG Version: 6.00 Build 0)  -->
<svg version="1.1" id="Icon" xmlns="http://www.w3.org/2000/svg" xmlns:xlink="http://www.w3.org/1999/xlink" x="0px" y="0px"
	 width="24px" height="24px" viewBox="0 0 24 24" enable-background="new 0 0 24 24" xml:space="preserve">
<path d="M20,12.532l-1.413-1.413c-0.668,0.755-1.473,1.383-2.367,1.864l-1.936-5.809C14.861,6.627,15.225,5.858,15.225,5
	c0-1.304-0.837-2.403-2-2.816V1h-2v1.184c-1.163,0.413-2,1.512-2,2.816c0,0.858,0.365,1.627,0.942,2.174L5.225,22l2,1l2.444-7.332
	C10.488,15.878,11.342,16,12.225,16c0.884,0,1.737-0.122,2.557-0.329L17.225,23l2-1l-2.366-7.099
	C18.048,14.309,19.116,13.508,20,12.532z M12.225,4c0.552,0,1,0.448,1,1c0,0.552-0.448,1-1,1s-1-0.448-1-1
	C11.225,4.448,11.673,4,12.225,4z M12.225,14c-0.663,0-1.304-0.088-1.922-0.235L12.225,8l1.925,5.775
	C13.531,13.919,12.888,14,12.225,14z"/>
</svg>
