<?xml version="1.0" encoding="utf-8"?>
<!-- Generator: Adobe Illustrator 17.1.0, SVG Export Plug-In . SVG Version: 6.00 Build 0)  -->
<!DOCTYPE svg PUBLIC "-//W3C//DTD SVG 1.1//EN" "http://www.w3.org/Graphics/SVG/1.1/DTD/svg11.dtd">
<svg version="1.1" id="Layer_1" xmlns="http://www.w3.org/2000/svg" xmlns:xlink="http://www.w3.org/1999/xlink" x="0px" y="0px"
	 width="32px" height="32px" viewBox="0 0 32 32" enable-background="new 0 0 32 32" xml:space="preserve">
<path d="M25.192,16.192l-1.414-1.414c-0.938,0.938-2.029,1.677-3.242,2.221l-2.32-6.671C19.291,9.61,20,8.389,20,7
	c0-1.861-1.278-3.412-3-3.858V1h-2v2.142C13.278,3.588,12,5.139,12,7c0,1.389,0.709,2.61,1.784,3.328L7.056,29.671l1.889,0.657
	l3.747-10.773c1.082,0.283,2.195,0.428,3.309,0.428c1.114,0,2.227-0.145,3.309-0.428l3.747,10.773l1.889-0.657l-3.75-10.783
	C22.692,18.239,24.04,17.345,25.192,16.192z M16,6c0.552,0,1,0.448,1,1s-0.448,1-1,1c-0.552,0-1-0.448-1-1S15.448,6,16,6z
	 M13.351,17.66l2.328-6.692C15.787,10.977,15.89,11,16,11c0.11,0,0.213-0.023,0.321-0.032l2.328,6.692
	C16.913,18.089,15.087,18.089,13.351,17.66z"/>
</svg>
