<?xml version="1.0" encoding="iso-8859-1"?>
<!-- Generator: Adobe Illustrator 20.0.0, SVG Export Plug-In . SVG Version: 6.00 Build 0)  -->
<svg version="1.1" id="Layer_1" xmlns="http://www.w3.org/2000/svg" xmlns:xlink="http://www.w3.org/1999/xlink" x="0px" y="0px"
	 viewBox="0 0 64 64" style="enable-background:new 0 0 64 64;" xml:space="preserve">
<path d="M49.311,33.013l-1.414-1.414c-2.143,2.144-4.652,3.811-7.472,4.968L35.479,22.35c2.475-1.36,4.154-3.991,4.154-7.014
	c0-3.726-2.552-6.848-6-7.738V3.336h-4v4.262c-3.448,0.89-6,4.012-6,7.738c0,3.023,1.679,5.654,4.154,7.014L14.689,60.007
	l1.889,0.657l7.494-21.544c2.453,0.777,5.005,1.184,7.562,1.184c2.557,0,5.109-0.407,7.562-1.184l7.494,21.544l1.889-0.657
	l-7.496-21.55C44.189,37.197,46.954,35.372,49.311,33.013z M31.633,13.336c1.104,0,2,0.896,2,2s-0.896,2-2,2c-1.105,0-2-0.895-2-2
	S30.529,13.336,31.633,13.336z M24.729,37.231l4.923-14.153c0.635,0.162,1.296,0.258,1.982,0.258c0.685,0,1.347-0.096,1.982-0.258
	l4.923,14.153C34.057,38.638,29.209,38.638,24.729,37.231z"/>
</svg>
