<?xml version="1.0" encoding="iso-8859-1"?>
<!-- Generator: Adobe Illustrator 20.0.0, SVG Export Plug-In . SVG Version: 6.00 Build 0)  -->
<svg version="1.1" id="Layer_1" xmlns="http://www.w3.org/2000/svg" xmlns:xlink="http://www.w3.org/1999/xlink" x="0px" y="0px"
	 viewBox="0 0 32 32" style="enable-background:new 0 0 32 32;" xml:space="preserve">
<path d="M25.068,16.528l-1.414-1.414c-0.938,0.938-2.029,1.677-3.242,2.221l-2.32-6.671c1.075-0.717,1.784-1.939,1.784-3.328
	c0-1.861-1.278-3.412-3-3.858V1.336h-2v2.142c-1.722,0.446-3,1.997-3,3.858c0,1.389,0.709,2.61,1.784,3.328L6.932,30.007
	l1.889,0.657l3.747-10.773c1.082,0.283,2.195,0.428,3.309,0.428c1.114,0,2.227-0.145,3.309-0.428l3.747,10.773l1.889-0.657
	l-3.75-10.783C22.568,18.575,23.916,17.681,25.068,16.528z M15.876,6.336c0.552,0,1,0.448,1,1s-0.448,1-1,1c-0.552,0-1-0.448-1-1
	S15.324,6.336,15.876,6.336z M13.227,17.996l2.328-6.692c0.108,0.009,0.211,0.032,0.321,0.032c0.11,0,0.213-0.023,0.321-0.032
	l2.328,6.692C16.789,18.425,14.963,18.425,13.227,17.996z"/>
</svg>
