<svg xmlns="http://www.w3.org/2000/svg" viewBox="0 0 24 24"><path d="M19.387 12.532l-1.413-1.413c-.668.754-1.473 1.382-2.367 1.863l-1.936-5.81c.578-.546.943-1.315.943-2.173 0-1.304-.837-2.403-2-2.816V1h-2v1.184c-1.163.413-2 1.512-2 2.816 0 .858.365 1.627.942 2.174L4.613 22l2 1 2.444-7.332c.82.21 1.672.332 2.556.332.884 0 1.737-.122 2.557-.33L16.613 23l2-1-2.366-7.1c1.188-.59 2.257-1.392 3.14-2.368zM11.613 4c.552 0 1 .448 1 1s-.448 1-1 1-1-.448-1-1 .447-1 1-1zm0 10c-.663 0-1.304-.088-1.922-.235L11.614 8l1.925 5.775c-.62.144-1.263.225-1.925.225z"/></svg>