<svg xmlns="http://www.w3.org/2000/svg" viewBox="0 0 32 32"><path d="M25.068 16.528l-1.414-1.414c-.938.938-2.03 1.677-3.242 2.22l-2.32-6.67c1.075-.717 1.784-1.94 1.784-3.328 0-1.86-1.278-3.412-3-3.858V1.336h-2v2.142c-1.722.446-3 1.997-3 3.858 0 1.39.71 2.61 1.784 3.328L6.932 30.007l1.89.657 3.746-10.773c1.082.284 2.195.43 3.31.43 1.113 0 2.226-.146 3.308-.43l3.747 10.774 1.89-.657-3.75-10.783c1.495-.65 2.843-1.543 3.995-2.696zM15.876 6.336c.552 0 1 .448 1 1s-.448 1-1 1-1-.448-1-1 .448-1 1-1zm-2.65 11.66l2.33-6.692c.107.01.21.032.32.032.11 0 .213-.023.32-.032l2.33 6.692c-1.737.43-3.563.43-5.3 0z"/></svg>