<svg xmlns="http://www.w3.org/2000/svg" viewBox="0 0 64 64"><path d="M49.31 33.013L47.898 31.6c-2.143 2.143-4.652 3.81-7.472 4.967L35.48 22.35c2.474-1.36 4.153-3.99 4.153-7.014 0-3.726-2.552-6.848-6-7.738V3.336h-4v4.262c-3.448.89-6 4.012-6 7.738 0 3.023 1.68 5.654 4.154 7.014L14.69 60.007l1.888.657 7.494-21.544c2.453.777 5.005 1.184 7.562 1.184 2.557 0 5.11-.407 7.562-1.184l7.494 21.544 1.89-.657-7.497-21.55c3.106-1.26 5.87-3.085 8.228-5.444zM31.634 13.336c1.104 0 2 .896 2 2s-.896 2-2 2c-1.105 0-2-.895-2-2s.896-2 2-2zM24.73 37.23L29.65 23.08c.635.162 1.296.258 1.982.258.685 0 1.347-.096 1.982-.258L38.54 37.23c-4.483 1.408-9.33 1.408-13.81 0z"/></svg>