<?xml version="1.0" encoding="iso-8859-1"?>
<!-- Generator: Adobe Illustrator 20.0.0, SVG Export Plug-In . SVG Version: 6.00 Build 0)  -->
<svg version="1.1" id="Layer_1" xmlns="http://www.w3.org/2000/svg" xmlns:xlink="http://www.w3.org/1999/xlink" x="0px" y="0px"
	 viewBox="0 0 64 64" style="enable-background:new 0 0 64 64;" xml:space="preserve">
<g>
	<path d="M6,6v44v8h52v-8V6H6z M8,8h48v40H8V8z"/>
	<path d="M26,18v4v11.538C24.937,32.585,23.538,32,22,32c-3.311,0-6,2.688-6,6s2.689,6,6,6c3.31,0,6-2.688,6-6V21.637l18-3.273
		v11.175C44.937,28.585,43.538,28,42,28c-3.311,0-6,2.688-6,6s2.689,6,6,6c3.31,0,6-2.688,6-6V18v-4v-2l-22,4V18z M22,42
		c-2.205,0-4-1.795-4-4s1.795-4,4-4s4,1.795,4,4S24.205,42,22,42z M42,38c-2.205,0-4-1.795-4-4s1.795-4,4-4s4,1.795,4,4
		S44.205,38,42,38z"/>
</g>
</svg>
