<svg xmlns="http://www.w3.org/2000/svg" viewBox="0 0 24 24"><path d="M8.026 11.5c-.017.13-.026.265-.026.4v1.6h8v-1.6c0-.135-.01-.27-.026-.4H8.026zM8 16.1c0 .135.01.27.026.4h7.948c.017-.13.026-.265.026-.4v-1.6H8v1.6zM6.356 11.144l-1.19 3.36c-.084.19-.2.364-.35.514-.153.154-.332.273-.535.357-.2.083-.41.125-.636.125-.215 0-.426-.042-.625-.125-.204-.084-.384-.205-.537-.358-.154-.154-.274-.334-.357-.536-.084-.2-.126-.412-.126-.63 0-.217.042-.43.126-.63.084-.203.204-.383.357-.536.148-.148.32-.265.516-.35l3.356-1.19M8 9.5l-5.364 1.902c-.312.13-.606.32-.86.574-.254.254-.444.547-.574.86-.134.325-.202.67-.202 1.014 0 .346.068.69.202 1.014.13.314.32.606.574.86.254.254.548.445.86.574.322.134.665.202 1.008.202H3.653c.343 0 .686-.068 1.01-.202.312-.13.605-.32.858-.574s.445-.546.574-.86L8 9.5zM17.644 11.144L21 12.334c.196.086.37.203.517.35.153.153.274.334.357.535.084.2.126.413.126.63 0 .217-.042.43-.126.632-.083.2-.203.38-.357.535-.153.153-.333.273-.534.357-.2.083-.412.125-.638.125-.214 0-.425-.043-.628-.128-.2-.082-.38-.202-.533-.356-.15-.15-.267-.322-.35-.515l-1.19-3.356M16 9.5l1.902 5.364c.13.314.32.606.574.86s.546.445.86.574c.322.134.665.202 1.008.202H20.353c.343 0 .687-.068 1.01-.2.31-.13.605-.32.858-.575.254-.254.444-.546.574-.86.136-.324.204-.67.204-1.015 0-.345-.068-.69-.202-1.014-.13-.312-.32-.605-.574-.86-.254-.253-.548-.443-.86-.573L16 9.5zM9.5 5.5c.276 0 .5.224.5.5s-.224.5-.5.5S9 6.276 9 6s.224-.5.5-.5m0-1C8.672 4.5 8 5.17 8 6s.672 1.5 1.5 1.5S11 6.83 11 6s-.672-1.5-1.5-1.5zM14.5 5.5c.276 0 .5.224.5.5s-.224.5-.5.5-.5-.224-.5-.5.224-.5.5-.5m0-1c-.828 0-1.5.67-1.5 1.5s.672 1.5 1.5 1.5S16 6.83 16 6s-.672-1.5-1.5-1.5z"/><g><path d="M8.555 17.5c.693 1.19 1.968 2 3.445 2s2.752-.81 3.445-2h-6.89zM15.445 10.5c-.693-1.19-1.968-2-3.445-2s-2.752.81-3.445 2h6.89z"/></g></svg>