<?xml version="1.0" encoding="utf-8"?>
<!-- Generator: Adobe Illustrator 19.1.0, SVG Export Plug-In . SVG Version: 6.00 Build 0)  -->
<svg version="1.1" id="Icon" xmlns="http://www.w3.org/2000/svg" xmlns:xlink="http://www.w3.org/1999/xlink" x="0px" y="0px"
	 width="16px" height="16px" viewBox="0 0 16 16" enable-background="new 0 0 16 16" xml:space="preserve">
<g>
	<path d="M5.582,7h4.837C9.897,6.299,9.009,5.691,8,5.691S6.103,6.299,5.582,7z"/>
	<rect x="5" y="8" width="6" height="1"/>
	<rect x="5" y="10" width="6" height="1"/>
	<path d="M8,13.164c1.009,0,1.897-0.462,2.418-1.164H5.582C6.103,12.701,6.991,13.164,8,13.164z"/>
	<g>
		<path d="M1.19,7.011C0.963,7.106,0.749,7.244,0.564,7.429C0.379,7.613,0.241,7.827,0.147,8.054C0.049,8.29,0,8.54,0,8.791
			c0,0.252,0.049,0.502,0.147,0.737c0.094,0.228,0.233,0.441,0.417,0.626c0.185,0.185,0.398,0.323,0.625,0.418
			c0.234,0.097,0.484,0.146,0.734,0.146c0.001,0,0.003,0,0.004,0c0.001,0,0.003,0,0.004,0c0.249,0,0.499-0.049,0.734-0.147
			c0.228-0.094,0.44-0.232,0.625-0.417c0.185-0.185,0.323-0.397,0.418-0.626l1.626-4.144L1.19,7.011z"/>
	</g>
	<g>
		<path d="M15.853,8.335c-0.094-0.227-0.233-0.44-0.417-0.625c-0.185-0.184-0.398-0.323-0.625-0.418l-4.144-1.626l1.626,4.144
			c0.094,0.228,0.233,0.441,0.418,0.626s0.397,0.323,0.625,0.417C13.57,10.951,13.82,11,14.069,11c0.001,0,0.003,0,0.004,0
			c0.001,0,0.003,0,0.004,0c0.25,0,0.5-0.049,0.734-0.146c0.227-0.094,0.44-0.233,0.625-0.418c0.185-0.185,0.323-0.397,0.417-0.626
			C15.951,9.575,16,9.324,16,9.073C16,8.822,15.951,8.571,15.853,8.335z"/>
	</g>
	<g>
		<path d="M6,4c0.552,0,1-0.447,1-1S6.552,2,6,2S5,2.447,5,3S5.448,4,6,4z"/>
	</g>
	<g>
		<path d="M10,4c0.552,0,1-0.447,1-1s-0.448-1-1-1S9,2.447,9,3S9.448,4,10,4z"/>
	</g>
</g>
</svg>
