<svg xmlns="http://www.w3.org/2000/svg" viewBox="0 0 64 64"><path d="M23.687 27h16.627c-1.793-2.41-4.846-4-8.313-4s-6.52 1.59-8.313 4zM22.065 31c-.042.328-.065.662-.065 1v3h20v-3c0-.338-.023-.672-.065-1h-19.87zM22 42c0 .338.023.672.065 1h19.87c.042-.328.065-.662.065-1v-3H22v3zM32 51c3.468 0 6.52-1.59 8.313-4H23.687c1.792 2.41 4.845 4 8.313 4zM6.46 29.1c-.85.353-1.65.872-2.344 1.565-.693.693-1.212 1.492-1.565 2.344-.365.883-.55 1.823-.55 2.763 0 .943.185 1.883.55 2.767.354.854.873 1.652 1.566 2.345.692.693 1.493 1.212 2.344 1.566.88.364 1.815.55 2.752.55h.03c.936 0 1.87-.186 2.75-.55.855-.354 1.652-.873 2.345-1.565.692-.692 1.213-1.49 1.566-2.345L22 23 6.46 29.1zm7.595 8.675c-.264.637-.646 1.207-1.133 1.695-.487.486-1.057.867-1.696 1.13-.637.266-1.305.4-2.014.4-.682 0-1.35-.134-1.982-.395-.644-.27-1.215-.65-1.7-1.136-.486-.486-.866-1.057-1.13-1.696-.267-.64-.4-1.312-.4-2.003 0-.685.133-1.356.398-1.996.266-.64.647-1.21 1.132-1.696.485-.485 1.057-.866 1.66-1.117l11.273-4.424-4.408 11.24zM61.45 33.008c-.355-.852-.873-1.65-1.566-2.344-.692-.692-1.493-1.212-2.345-1.566L42 23l6.098 15.54c.354.854.874 1.652 1.566 2.345.692.692 1.49 1.212 2.344 1.564.88.364 1.815.55 2.75.55h.031c.936 0 1.872-.186 2.75-.55.852-.353 1.652-.872 2.345-1.565.693-.692 1.212-1.49 1.565-2.345.366-.884.552-1.823.55-2.767 0-.94-.185-1.88-.55-2.765zm-1.85 4.767c-.263.64-.644 1.21-1.13 1.696-.484.484-1.056.866-1.693 1.133-.64.263-1.307.397-2.018.397-.68 0-1.35-.134-1.988-.4-.637-.262-1.206-.643-1.693-1.13-.488-.487-.87-1.058-1.12-1.66l-4.423-11.274 11.236 4.41c.64.266 1.212.647 1.697 1.132.486.486.867 1.057 1.13 1.694.267.642.4 1.313.4 2.003 0 .687-.133 1.36-.4 2zM27 21c2.21 0 4-1.79 4-4s-1.79-4-4-4-4 1.79-4 4 1.79 4 4 4zm0-6c1.103 0 2 .896 2 2s-.897 2-2 2-2-.896-2-2 .897-2 2-2zM37 21c2.21 0 4-1.79 4-4s-1.79-4-4-4-4 1.79-4 4 1.79 4 4 4zm0-6c1.103 0 2 .896 2 2s-.897 2-2 2-2-.896-2-2 .897-2 2-2z"/></svg>