<?xml version="1.0" encoding="iso-8859-1"?>
<!-- Generator: Adobe Illustrator 20.0.0, SVG Export Plug-In . SVG Version: 6.00 Build 0)  -->
<svg version="1.1" id="Layer_1" xmlns="http://www.w3.org/2000/svg" xmlns:xlink="http://www.w3.org/1999/xlink" x="0px" y="0px"
	 viewBox="0 0 32 32" style="enable-background:new 0 0 32 32;" xml:space="preserve">
<g>
	<path d="M11.843,13.5h8.313c-0.896-1.205-2.423-2-4.157-2S12.74,12.295,11.843,13.5z"/>
	<path d="M11.033,15.5C11.012,15.664,11,15.831,11,16v1.5h10V16c0-0.169-0.012-0.336-0.033-0.5H11.033z"/>
	<path d="M11,21c0,0.169,0.012,0.336,0.033,0.5h9.935C20.988,21.336,21,21.169,21,21v-1.5H11V21z"/>
	<path d="M16,25.5c1.734,0,3.26-0.795,4.157-2h-8.313C12.74,24.705,14.266,25.5,16,25.5z"/>
	<path d="M3.23,14.549c-0.426,0.178-0.826,0.438-1.172,0.783c-0.347,0.347-0.606,0.746-0.783,1.172
		C1.092,16.946,0.999,17.416,1,17.887c-0.001,0.472,0.092,0.941,0.275,1.383c0.177,0.428,0.436,0.826,0.783,1.173
		c0.346,0.347,0.747,0.606,1.172,0.783C3.669,21.407,4.138,21.5,4.606,21.5c0.002,0,0.005,0,0.007,0c0.002,0,0.005,0,0.007,0
		c0.468,0,0.936-0.093,1.375-0.275c0.427-0.176,0.826-0.435,1.172-0.782c0.346-0.347,0.606-0.745,0.783-1.173L11,11.5L3.23,14.549z
		 M7.027,18.887c-0.132,0.319-0.323,0.606-0.566,0.849c-0.244,0.243-0.528,0.434-0.848,0.565C5.294,20.434,4.961,20.5,4.606,20.5
		c-0.341,0-0.675-0.066-0.991-0.197c-0.322-0.135-0.607-0.324-0.85-0.568c-0.243-0.242-0.433-0.527-0.565-0.848
		C2.067,18.567,1.999,18.23,2,17.886c-0.001-0.343,0.067-0.679,0.199-0.999c0.132-0.319,0.323-0.604,0.566-0.848
		c0.243-0.242,0.528-0.434,0.831-0.559l5.636-2.213L7.027,18.887z"/>
	<path d="M30.725,16.504c-0.177-0.426-0.436-0.825-0.783-1.172c-0.346-0.346-0.747-0.605-1.172-0.783L21,11.5l3.049,7.77
		c0.177,0.428,0.437,0.826,0.783,1.173c0.346,0.347,0.745,0.606,1.172,0.782c0.44,0.183,0.908,0.275,1.375,0.275
		c0.002,0,0.005,0,0.007,0c0.002,0,0.005,0,0.007,0c0.468,0,0.937-0.093,1.376-0.274c0.425-0.177,0.826-0.436,1.172-0.783
		c0.347-0.347,0.606-0.745,0.783-1.173C30.908,18.828,31,18.358,31,17.887C31,17.416,30.908,16.946,30.725,16.504z M29.801,18.888
		c-0.132,0.319-0.323,0.605-0.566,0.849c-0.242,0.242-0.527,0.432-0.846,0.565c-0.319,0.133-0.653,0.199-1.009,0.199
		c-0.34,0-0.674-0.066-0.994-0.199c-0.318-0.132-0.603-0.322-0.847-0.565c-0.244-0.243-0.434-0.529-0.56-0.831l-2.211-5.637
		l5.618,2.205c0.32,0.133,0.606,0.324,0.849,0.566c0.243,0.243,0.434,0.528,0.566,0.848c0.132,0.32,0.2,0.656,0.199,1.001
		C30,18.23,29.933,18.567,29.801,18.888z"/>
	<path d="M13.5,10.5c1.104,0,2-0.894,2-2s-0.896-2-2-2s-2,0.894-2,2S12.396,10.5,13.5,10.5z M13.5,7.5c0.551,0,1,0.449,1,1
		s-0.449,1-1,1s-1-0.449-1-1S12.949,7.5,13.5,7.5z"/>
	<path d="M18.5,10.5c1.104,0,2-0.894,2-2s-0.896-2-2-2s-2,0.894-2,2S17.396,10.5,18.5,10.5z M18.5,7.5c0.551,0,1,0.449,1,1
		s-0.449,1-1,1s-1-0.449-1-1S17.949,7.5,18.5,7.5z"/>
</g>
</svg>
