<svg xmlns="http://www.w3.org/2000/svg" viewBox="0 0 16 16"><path d="M5.582 7.418h4.837c-.523-.7-1.41-1.31-2.42-1.31s-1.897.61-2.418 1.31zM5 8.418h6v1H5zM5 10.418h6v1H5zM8 13.582c1.01 0 1.897-.462 2.418-1.164H5.582c.52.7 1.41 1.164 2.418 1.164zM1.19 7.43c-.227.094-.44.232-.626.417-.185.185-.323.398-.417.625C.05 8.708 0 8.958 0 9.21c0 .25.05.5.147.736.094.228.233.44.417.626.185.185.398.323.625.418.233.097.483.146.733.146h.008c.25 0 .5-.05.735-.147.228-.095.44-.233.625-.418.185-.185.323-.397.418-.626l1.626-4.144L1.19 7.43zM15.853 8.754c-.094-.227-.233-.44-.417-.625-.185-.185-.398-.324-.625-.42l-4.143-1.625 1.626 4.144c.094.227.233.44.418.625.186.185.398.323.626.417.235.097.484.147.734.147h.008c.25 0 .5-.05.734-.147.227-.094.44-.233.625-.418.185-.185.323-.397.417-.626.097-.237.146-.487.146-.74 0-.25-.05-.5-.147-.736zM6 4.418c.552 0 1-.447 1-1s-.448-1-1-1-1 .447-1 1 .448 1 1 1zM10 4.418c.552 0 1-.447 1-1s-.448-1-1-1-1 .447-1 1 .448 1 1 1z"/></svg>