<?xml version="1.0" encoding="iso-8859-1"?>
<!-- Generator: Adobe Illustrator 20.0.0, SVG Export Plug-In . SVG Version: 6.00 Build 0)  -->
<svg version="1.1" id="Layer_1" xmlns="http://www.w3.org/2000/svg" xmlns:xlink="http://www.w3.org/1999/xlink" x="0px" y="0px"
	 viewBox="0 0 24 24" style="enable-background:new 0 0 24 24;" xml:space="preserve">
<g>
	<g>
		<path d="M8.026,11.5C8.009,11.631,8,11.765,8,11.9v1.6h8v-1.6c0-0.135-0.009-0.269-0.026-0.4H8.026z"/>
		<path d="M8,16.1c0,0.135,0.009,0.269,0.026,0.4h7.948C15.991,16.369,16,16.235,16,16.1v-1.6H8V16.1z"/>
		<path d="M6.356,11.144l-1.191,3.359c-0.083,0.192-0.2,0.365-0.349,0.515c-0.153,0.154-0.332,0.273-0.535,0.357
			C4.08,15.458,3.869,15.5,3.644,15.5c-0.215,0-0.426-0.042-0.625-0.125c-0.203-0.084-0.383-0.205-0.536-0.358
			c-0.154-0.154-0.274-0.334-0.357-0.536C2.042,14.28,2,14.068,2,13.849c0-0.216,0.042-0.428,0.126-0.63
			c0.084-0.202,0.204-0.382,0.357-0.535c0.148-0.148,0.321-0.265,0.516-0.35L6.356,11.144 M8,9.5l-5.364,1.902
			c-0.312,0.13-0.606,0.321-0.86,0.574c-0.254,0.254-0.444,0.547-0.574,0.859C1.068,13.161,1,13.505,1,13.85
			c0,0.346,0.068,0.69,0.202,1.014c0.13,0.314,0.32,0.606,0.574,0.86c0.254,0.254,0.548,0.445,0.859,0.574
			C2.958,16.432,3.301,16.5,3.644,16.5c0.002,0,0.004,0,0.005,0c0.002,0,0.004,0,0.005,0c0.343,0,0.686-0.068,1.009-0.202
			c0.313-0.129,0.606-0.319,0.859-0.574s0.445-0.546,0.574-0.86L8,9.5L8,9.5z"/>
		<path d="M17.644,11.144l3.357,1.191c0.195,0.085,0.368,0.202,0.516,0.349c0.153,0.153,0.274,0.334,0.357,0.535
			C21.958,13.421,22,13.633,22,13.851c0,0.216-0.042,0.428-0.126,0.631c-0.083,0.201-0.203,0.381-0.357,0.535
			c-0.153,0.153-0.333,0.273-0.534,0.357c-0.201,0.083-0.412,0.125-0.638,0.125c-0.214,0-0.425-0.042-0.628-0.127
			c-0.2-0.082-0.379-0.202-0.533-0.356c-0.149-0.149-0.267-0.322-0.349-0.515L17.644,11.144 M16,9.5l1.902,5.364
			c0.13,0.314,0.32,0.606,0.574,0.86s0.546,0.445,0.859,0.574c0.323,0.134,0.666,0.202,1.009,0.202c0.002,0,0.004,0,0.005,0
			c0.002,0,0.004,0,0.005,0c0.343,0,0.687-0.068,1.009-0.201c0.312-0.13,0.606-0.32,0.859-0.574c0.254-0.254,0.444-0.546,0.574-0.86
			C22.932,14.541,23,14.196,23,13.85c0-0.345-0.068-0.69-0.202-1.014c-0.13-0.312-0.32-0.605-0.574-0.859
			c-0.254-0.254-0.548-0.444-0.86-0.574L16,9.5L16,9.5z"/>
		<path d="M9.5,5.5C9.776,5.5,10,5.724,10,6S9.776,6.5,9.5,6.5S9,6.276,9,6S9.224,5.5,9.5,5.5 M9.5,4.5C8.672,4.5,8,5.171,8,6
			s0.672,1.5,1.5,1.5S11,6.829,11,6S10.328,4.5,9.5,4.5L9.5,4.5z"/>
		<path d="M14.5,5.5C14.776,5.5,15,5.724,15,6s-0.224,0.5-0.5,0.5S14,6.276,14,6S14.224,5.5,14.5,5.5 M14.5,4.5
			C13.672,4.5,13,5.171,13,6s0.672,1.5,1.5,1.5S16,6.829,16,6S15.328,4.5,14.5,4.5L14.5,4.5z"/>
	</g>
	<g>
		<path d="M8.555,17.5c0.693,1.191,1.968,2,3.445,2s2.752-0.809,3.445-2H8.555z"/>
		<path d="M15.445,10.5c-0.693-1.191-1.968-2-3.445-2s-2.752,0.809-3.445,2H15.445z"/>
	</g>
</g>
</svg>
