<?xml version="1.0" encoding="iso-8859-1"?>
<!-- Generator: Adobe Illustrator 20.0.0, SVG Export Plug-In . SVG Version: 6.00 Build 0)  -->
<svg version="1.1" id="Layer_1" xmlns="http://www.w3.org/2000/svg" xmlns:xlink="http://www.w3.org/1999/xlink" x="0px" y="0px"
	 viewBox="0 0 16 16" style="enable-background:new 0 0 16 16;" xml:space="preserve">
<g>
	<path d="M5.582,7.418h4.837C9.897,6.717,9.009,6.109,8,6.109S6.103,6.717,5.582,7.418z"/>
	<rect x="5" y="8.418" width="6" height="1"/>
	<rect x="5" y="10.418" width="6" height="1"/>
	<path d="M8,13.582c1.009,0,1.897-0.462,2.418-1.164H5.582C6.103,13.119,6.991,13.582,8,13.582z"/>
	<g>
		<path d="M1.19,7.429C0.963,7.524,0.749,7.662,0.564,7.847C0.379,8.032,0.241,8.245,0.147,8.472C0.049,8.708,0,8.958,0,9.209
			c0,0.252,0.049,0.502,0.147,0.737c0.094,0.228,0.233,0.441,0.417,0.626c0.185,0.185,0.398,0.323,0.625,0.418
			c0.234,0.097,0.484,0.146,0.734,0.146c0.001,0,0.003,0,0.004,0c0.001,0,0.003,0,0.004,0c0.249,0,0.499-0.049,0.734-0.147
			c0.228-0.094,0.44-0.232,0.625-0.417c0.185-0.185,0.323-0.397,0.418-0.626l1.626-4.144L1.19,7.429z"/>
	</g>
	<g>
		<path d="M15.853,8.754c-0.094-0.227-0.233-0.44-0.417-0.625c-0.185-0.184-0.398-0.323-0.625-0.418l-4.144-1.626l1.626,4.144
			c0.094,0.228,0.233,0.441,0.418,0.626c0.185,0.185,0.397,0.323,0.625,0.417c0.235,0.097,0.484,0.147,0.734,0.147
			c0.001,0,0.003,0,0.004,0c0.001,0,0.003,0,0.004,0c0.25,0,0.5-0.049,0.734-0.146c0.227-0.094,0.44-0.233,0.625-0.418
			c0.185-0.185,0.323-0.397,0.417-0.626C15.951,9.993,16,9.743,16,9.491C16,9.24,15.951,8.99,15.853,8.754z"/>
	</g>
	<g>
		<path d="M6,4.418c0.552,0,1-0.447,1-1s-0.448-1-1-1s-1,0.447-1,1S5.448,4.418,6,4.418z"/>
	</g>
	<g>
		<path d="M10,4.418c0.552,0,1-0.447,1-1s-0.448-1-1-1s-1,0.447-1,1S9.448,4.418,10,4.418z"/>
	</g>
</g>
</svg>
