<svg xmlns="http://www.w3.org/2000/svg" viewBox="0 0 128 128"><path d="M47.373 54h33.254C77.04 49.178 70.935 46 64 46c-6.936 0-13.04 3.178-16.627 8zM44.13 62c-.083.656-.13 1.324-.13 2v6h40v-6c0-.676-.047-1.344-.13-2H44.13zM44 84c0 .676.047 1.344.13 2h39.74c.083-.656.13-1.324.13-2v-6H44v6zM64 102c6.935 0 13.04-3.178 16.627-8H47.373c3.586 4.822 9.69 8 16.627 8zM12.922 58.197c-1.703.707-3.305 1.746-4.69 3.13-1.386 1.388-2.423 2.985-3.13 4.69-.733 1.77-1.104 3.65-1.102 5.53-.002 1.887.37 3.766 1.102 5.533.707 1.71 1.744 3.305 3.13 4.69 1.386 1.386 2.987 2.423 4.69 3.132C14.677 85.63 16.55 86 18.423 86H18.482c1.87 0 3.742-.37 5.502-1.102 1.707-.705 3.303-1.744 4.688-3.13 1.385-1.384 2.426-2.98 3.133-4.688L44 46 12.922 58.197zM28.096 75.58c-.528 1.264-1.286 2.395-2.253 3.36-.974.975-2.113 1.735-3.392 2.264-1.272.528-2.607.796-3.968.796h-.06c-1.362 0-2.7-.268-3.964-.79-1.287-.536-2.43-1.3-3.4-2.27-.97-.972-1.732-2.11-2.262-3.392-.53-1.278-.798-2.624-.796-4.005-.002-1.37.267-2.716.796-3.994.53-1.28 1.293-2.42 2.265-3.393.963-.962 2.094-1.72 3.362-2.25l22.505-8.834-8.83 22.508zM122.898 66.016c-.707-1.703-1.744-3.3-3.13-4.688-1.386-1.385-2.987-2.424-4.69-3.13L84 46l12.195 31.08c.707 1.707 1.748 3.305 3.133 4.69 1.385 1.384 2.98 2.423 4.688 3.128 1.76.73 3.63 1.102 5.502 1.102H109.576c1.873 0 3.746-.37 5.504-1.098 1.7-.71 3.303-1.746 4.688-3.133 1.387-1.386 2.424-2.98 3.13-4.69.733-1.768 1.105-3.646 1.103-5.533.002-1.88-.37-3.762-1.102-5.53zm-3.696 9.535c-.528 1.28-1.29 2.42-2.265 3.394-.967.968-2.11 1.73-3.385 2.262-1.275.527-2.613.795-3.976.795h-.06c-1.36 0-2.695-.267-3.974-.798-1.272-.525-2.412-1.286-3.386-2.26-.967-.967-1.725-2.098-2.253-3.36l-8.83-22.51 22.504 8.834c1.268.532 2.4 1.29 3.36 2.25.973.974 1.735 2.114 2.265 3.39.53 1.282.8 2.627.797 4.006 0 1.372-.267 2.718-.798 4zM54 42c4.418 0 8-3.58 8-8s-3.582-8-8-8-8 3.58-8 8 3.582 8 8 8zm0-12c2.206 0 4 1.795 4 4s-1.794 4-4 4-4-1.795-4-4 1.794-4 4-4zM74 42c4.418 0 8-3.58 8-8s-3.582-8-8-8-8 3.58-8 8 3.582 8 8 8zm0-12c2.206 0 4 1.795 4 4s-1.794 4-4 4-4-1.795-4-4 1.794-4 4-4z"/></svg>