<svg xmlns="http://www.w3.org/2000/svg" viewBox="0 0 32 32"><path d="M11.843 13.5h8.313c-.896-1.205-2.423-2-4.157-2s-3.26.795-4.157 2zM11.033 15.5c-.02.164-.033.33-.033.5v1.5h10V16c0-.17-.012-.336-.033-.5h-9.934zM11 21c0 .17.012.336.033.5h9.935c.02-.164.032-.33.032-.5v-1.5H11V21zM16 25.5c1.734 0 3.26-.795 4.157-2h-8.313c.896 1.205 2.422 2 4.156 2zM3.23 14.55c-.426.177-.826.437-1.172.782-.347.347-.606.746-.783 1.172-.183.442-.276.912-.275 1.383 0 .472.092.94.275 1.383.177.428.436.826.783 1.173.346.347.747.606 1.172.783.44.18.908.274 1.376.274h.014c.468 0 .936-.093 1.375-.275.427-.176.826-.435 1.172-.782.346-.347.606-.745.783-1.173L11 11.5l-7.77 3.05zm3.797 4.337c-.132.32-.323.606-.566.85-.243.242-.527.433-.847.564-.32.134-.652.2-1.007.2-.34 0-.675-.066-.99-.197-.323-.135-.608-.324-.85-.568-.244-.242-.434-.527-.566-.848-.133-.32-.2-.657-.2-1 0-.344.067-.68.2-1 .13-.32.322-.604.565-.848.243-.243.528-.435.83-.56l5.637-2.213-2.205 5.62zM30.725 16.504c-.177-.426-.436-.825-.783-1.172-.346-.346-.747-.605-1.172-.783L21 11.5l3.05 7.77c.176.428.436.826.782 1.173.346.347.745.606 1.172.782.44.183.908.275 1.375.275H27.392c.468 0 .937-.093 1.376-.274.424-.177.825-.436 1.17-.783.348-.347.607-.745.784-1.173.184-.442.276-.912.276-1.383 0-.47-.092-.94-.275-1.383zm-.924 2.384c-.13.32-.322.605-.565.85-.242.24-.527.43-.846.564-.32.133-.654.2-1.01.2-.34 0-.674-.067-.994-.2-.318-.132-.603-.322-.847-.565-.245-.243-.435-.53-.56-.83l-2.212-5.638 5.618 2.204c.32.133.606.324.85.566.242.243.433.528.565.848.133.32.2.656.2 1 0 .342-.067.68-.2 1zM13.5 10.5c1.104 0 2-.894 2-2s-.896-2-2-2-2 .894-2 2 .896 2 2 2zm0-3c.55 0 1 .45 1 1s-.45 1-1 1-1-.45-1-1 .45-1 1-1zM18.5 10.5c1.104 0 2-.894 2-2s-.896-2-2-2-2 .894-2 2 .896 2 2 2zm0-3c.55 0 1 .45 1 1s-.45 1-1 1-1-.45-1-1 .45-1 1-1z"/></svg>