<?xml version="1.0" encoding="utf-8"?>
<!-- Generator: Adobe Illustrator 19.1.0, SVG Export Plug-In . SVG Version: 6.00 Build 0)  -->
<svg version="1.1" id="Icon" xmlns="http://www.w3.org/2000/svg" xmlns:xlink="http://www.w3.org/1999/xlink" x="0px" y="0px"
	 width="24px" height="24px" viewBox="0 0 24 24" enable-background="new 0 0 24 24" xml:space="preserve">
<g>
	<path d="M8.026,12C8.009,12.131,8,12.265,8,12.4V14h8v-1.6c0-0.135-0.009-0.269-0.026-0.4H8.026z"/>
	<path d="M8,16.6c0,0.135,0.009,0.269,0.026,0.4h7.948C15.991,16.869,16,16.735,16,16.6V15H8V16.6z"/>
	<path d="M6.356,11.644l-1.191,3.359c-0.083,0.192-0.2,0.365-0.349,0.515c-0.153,0.154-0.332,0.273-0.535,0.357
		C4.08,15.958,3.869,16,3.644,16c-0.215,0-0.426-0.042-0.625-0.125c-0.203-0.084-0.383-0.205-0.536-0.358
		c-0.154-0.154-0.274-0.334-0.357-0.536C2.042,14.78,2,14.568,2,14.349c0-0.216,0.042-0.428,0.126-0.63
		c0.084-0.202,0.204-0.382,0.357-0.535c0.148-0.148,0.321-0.265,0.516-0.35L6.356,11.644 M8,10l-5.364,1.902
		c-0.312,0.13-0.606,0.321-0.86,0.574c-0.254,0.254-0.444,0.547-0.574,0.859C1.068,13.661,1,14.005,1,14.35
		c0,0.346,0.068,0.69,0.202,1.014c0.13,0.314,0.32,0.606,0.574,0.86c0.254,0.254,0.548,0.445,0.859,0.574
		C2.958,16.932,3.301,17,3.644,17c0.002,0,0.004,0,0.005,0c0.002,0,0.004,0,0.005,0c0.343,0,0.686-0.068,1.009-0.202
		c0.313-0.129,0.606-0.319,0.859-0.574s0.445-0.546,0.574-0.86L8,10L8,10z"/>
	<path d="M17.644,11.644l3.357,1.191c0.195,0.085,0.368,0.202,0.516,0.349c0.153,0.153,0.274,0.334,0.357,0.535
		C21.958,13.921,22,14.133,22,14.351c0,0.216-0.042,0.428-0.126,0.631c-0.083,0.201-0.203,0.381-0.357,0.535
		c-0.153,0.153-0.333,0.273-0.534,0.357C20.781,15.958,20.57,16,20.345,16c-0.214,0-0.425-0.042-0.628-0.127
		c-0.2-0.082-0.379-0.202-0.533-0.356c-0.149-0.149-0.267-0.322-0.349-0.515L17.644,11.644 M16,10l1.902,5.364
		c0.13,0.314,0.32,0.606,0.574,0.86s0.546,0.445,0.859,0.574C19.659,16.932,20.002,17,20.345,17c0.002,0,0.004,0,0.005,0
		c0.002,0,0.004,0,0.005,0c0.343,0,0.687-0.068,1.009-0.201c0.312-0.13,0.606-0.32,0.859-0.574c0.254-0.254,0.444-0.546,0.574-0.86
		C22.932,15.041,23,14.696,23,14.35c0-0.345-0.068-0.69-0.202-1.014c-0.13-0.312-0.32-0.605-0.574-0.859
		c-0.254-0.254-0.548-0.444-0.86-0.574L16,10L16,10z"/>
	<path d="M9.5,6C9.776,6,10,6.224,10,6.5S9.776,7,9.5,7S9,6.776,9,6.5S9.224,6,9.5,6 M9.5,5C8.672,5,8,5.671,8,6.5S8.672,8,9.5,8
		S11,7.329,11,6.5S10.328,5,9.5,5L9.5,5z"/>
	<path d="M14.5,6C14.776,6,15,6.224,15,6.5S14.776,7,14.5,7S14,6.776,14,6.5S14.224,6,14.5,6 M14.5,5C13.672,5,13,5.671,13,6.5
		S13.672,8,14.5,8S16,7.329,16,6.5S15.328,5,14.5,5L14.5,5z"/>
</g>
<g>
	<path d="M8.555,18c0.693,1.191,1.968,2,3.445,2s2.752-0.809,3.445-2H8.555z"/>
	<path d="M15.445,11C14.752,9.809,13.477,9,12,9s-2.752,0.809-3.445,2H15.445z"/>
</g>
</svg>
