<?xml version="1.0" encoding="iso-8859-1"?>
<!-- Generator: Adobe Illustrator 20.0.0, SVG Export Plug-In . SVG Version: 6.00 Build 0)  -->
<svg version="1.1" id="Layer_1" xmlns="http://www.w3.org/2000/svg" xmlns:xlink="http://www.w3.org/1999/xlink" x="0px" y="0px"
	 viewBox="0 0 64 64" style="enable-background:new 0 0 64 64;" xml:space="preserve">
<path d="M62.044,31.956c0,1.824-1.395,3.219-3.219,3.219s-3.219-1.395-3.219-3.219s1.395-3.219,3.219-3.219
	S62.044,30.132,62.044,31.956z M53.46,42.686c-4.185,0-7.511,3.326-7.511,7.511s3.326,7.511,7.511,7.511s7.511-3.326,7.511-7.511
	S57.645,42.686,53.46,42.686z M31.893,48.695C31.034,56.206,24.704,62,16.978,62C8.716,62,1.956,55.24,1.956,46.978
	c0-4.292,1.824-8.155,4.614-10.837c-1.502-3.219-2.468-6.867-2.468-10.623c0-12.983,10.623-23.606,23.606-23.606
	s23.606,10.623,23.606,23.606C51.314,37.106,42.945,46.763,31.893,48.695z M48.095,25.518c0-11.267-9.121-20.387-20.387-20.387
	S7.321,14.251,7.321,25.518c0,3.112,0.751,6.009,1.931,8.584c2.253-1.395,4.936-2.146,7.726-2.146
	c7.833,0,14.164,5.902,14.915,13.52C41.121,43.544,48.095,35.282,48.095,25.518z"/>
</svg>
