<?xml version="1.0" encoding="iso-8859-1"?>
<!-- Generator: Adobe Illustrator 20.0.0, SVG Export Plug-In . SVG Version: 6.00 Build 0)  -->
<svg version="1.1" id="Layer_1" xmlns="http://www.w3.org/2000/svg" xmlns:xlink="http://www.w3.org/1999/xlink" x="0px" y="0px"
	 viewBox="0 0 24 24" style="enable-background:new 0 0 24 24;" xml:space="preserve">
<path d="M22.984,12.016c0,0.667-0.51,1.177-1.177,1.177c-0.667,0-1.177-0.51-1.177-1.177s0.51-1.177,1.177-1.177
	C22.474,10.839,22.984,11.349,22.984,12.016z M19.846,15.939c-1.53,0-2.746,1.216-2.746,2.746s1.216,2.746,2.746,2.746
	s2.746-1.216,2.746-2.746S21.376,15.939,19.846,15.939z M11.961,18.136C11.647,20.882,9.332,23,6.508,23
	c-3.021,0-5.492-2.471-5.492-5.492c0-1.569,0.667-2.981,1.687-3.962C2.153,12.369,1.8,11.035,1.8,9.662
	c0-4.747,3.884-8.631,8.631-8.631s8.631,3.884,8.631,8.631C19.061,13.899,16.001,17.429,11.961,18.136z M17.884,9.662
	c0-4.119-3.335-7.454-7.454-7.454S2.977,5.543,2.977,9.662c0,1.138,0.275,2.197,0.706,3.138c0.824-0.51,1.805-0.785,2.825-0.785
	c2.864,0,5.178,2.158,5.453,4.943C15.335,16.252,17.884,13.232,17.884,9.662z"/>
</svg>
