<?xml version="1.0" encoding="iso-8859-1"?>
<!-- Generator: Adobe Illustrator 20.0.0, SVG Export Plug-In . SVG Version: 6.00 Build 0)  -->
<svg version="1.1" id="Layer_1" xmlns="http://www.w3.org/2000/svg" xmlns:xlink="http://www.w3.org/1999/xlink" x="0px" y="0px"
	 viewBox="0 0 32 32" style="enable-background:new 0 0 32 32;" xml:space="preserve">
<path d="M31,16c0,0.911-0.696,1.607-1.607,1.607c-0.911,0-1.607-0.696-1.607-1.607s0.696-1.607,1.607-1.607
	C30.304,14.393,31,15.089,31,16z M26.714,21.357c-2.089,0-3.75,1.661-3.75,3.75s1.661,3.75,3.75,3.75s3.75-1.661,3.75-3.75
	S28.804,21.357,26.714,21.357z M15.946,24.357C15.518,28.107,12.357,31,8.5,31C4.375,31,1,27.625,1,23.5
	c0-2.143,0.911-4.071,2.304-5.411c-0.75-1.607-1.232-3.429-1.232-5.304C2.071,6.304,7.375,1,13.857,1s11.786,5.304,11.786,11.786
	C25.643,18.571,21.464,23.393,15.946,24.357z M24.036,12.786c0-5.625-4.554-10.179-10.179-10.179S3.679,7.161,3.679,12.786
	c0,1.554,0.375,3,0.964,4.286C5.768,16.375,7.107,16,8.5,16c3.911,0,7.071,2.946,7.446,6.75
	C20.554,21.786,24.036,17.661,24.036,12.786z"/>
</svg>
