<?xml version="1.0" encoding="iso-8859-1"?>
<!-- Generator: Adobe Illustrator 20.0.0, SVG Export Plug-In . SVG Version: 6.00 Build 0)  -->
<svg version="1.1" id="Layer_1" xmlns="http://www.w3.org/2000/svg" xmlns:xlink="http://www.w3.org/1999/xlink" x="0px" y="0px"
	 viewBox="0 0 128 128" style="enable-background:new 0 0 128 128;" xml:space="preserve">
<path d="M124.088,64.122c0,3.648-2.79,6.438-6.438,6.438s-6.438-2.79-6.438-6.438c0-3.648,2.79-6.438,6.438-6.438
	S124.088,60.474,124.088,64.122z M106.92,85.582c-8.369,0-15.022,6.653-15.022,15.022s6.653,15.022,15.022,15.022
	s15.022-6.653,15.022-15.022S115.29,85.582,106.92,85.582z M63.785,97.6c-1.717,15.022-14.378,26.611-29.83,26.611
	c-16.524,0-30.044-13.52-30.044-30.044c0-8.584,3.648-16.31,9.228-21.675c-3.004-6.438-4.936-13.734-4.936-21.246
	c0-25.967,21.246-47.212,47.212-47.212s47.212,21.246,47.212,47.212C102.628,74.423,85.889,93.737,63.785,97.6z M96.19,51.246
	c0-22.533-18.241-40.774-40.774-40.774S14.642,28.713,14.642,51.246c0,6.223,1.502,12.018,3.863,17.168
	c4.507-2.79,9.872-4.292,15.451-4.292c15.666,0,28.327,11.803,29.83,27.04C82.241,87.299,96.19,70.775,96.19,51.246z"/>
</svg>
