<?xml version="1.0" encoding="iso-8859-1"?>
<!-- Generator: Adobe Illustrator 20.0.0, SVG Export Plug-In . SVG Version: 6.00 Build 0)  -->
<svg version="1.1" id="Layer_1" xmlns="http://www.w3.org/2000/svg" xmlns:xlink="http://www.w3.org/1999/xlink" x="0px" y="0px"
	 viewBox="0 0 16 16" style="enable-background:new 0 0 16 16;" xml:space="preserve">
<path d="M15.989,8.011c0,0.485-0.371,0.856-0.856,0.856c-0.485,0-0.856-0.371-0.856-0.856s0.371-0.856,0.856-0.856
	C15.618,7.155,15.989,7.526,15.989,8.011z M13.707,10.864c-1.113,0-1.997,0.885-1.997,1.997s0.885,1.997,1.997,1.997
	s1.997-0.885,1.997-1.997S14.819,10.864,13.707,10.864z M7.971,12.462C7.743,14.459,6.06,16,4.005,16
	c-2.197,0-3.995-1.798-3.995-3.995c0-1.141,0.485-2.168,1.227-2.882C0.838,8.268,0.581,7.297,0.581,6.299
	c0-3.452,2.825-6.277,6.277-6.277s6.277,2.825,6.277,6.277C13.136,9.38,10.91,11.948,7.971,12.462z M12.28,6.299
	c0-2.996-2.425-5.421-5.421-5.421S1.437,3.303,1.437,6.299c0,0.827,0.2,1.598,0.514,2.283C2.55,8.211,3.264,8.011,4.005,8.011
	c2.083,0,3.766,1.569,3.966,3.595C10.425,11.092,12.28,8.895,12.28,6.299z"/>
</svg>
