<svg xmlns="http://www.w3.org/2000/svg" viewBox="0 0 128 128"><path d="M67.57 71.53c-1.38 1.212-2.89 2.343-4.54 3.392-1.647 1.06-3.226 2.143-4.745 3.262-3.16 2.156-5.652 4.688-7.48 7.598C48.977 88.692 48.04 92.104 48 96h31.934v-6.86H57.152c.312-1.03.887-2 1.742-2.92.836-.923 1.832-1.804 2.96-2.66 1.146-.85 2.376-1.7 3.712-2.552 1.34-.85 2.676-1.746 4.016-2.685 1.332-.94 2.63-1.955 3.875-3.033 1.238-1.078 2.355-2.252 3.332-3.523.983-1.28 1.765-2.674 2.343-4.2.578-1.524.867-3.233.867-5.112 0-1.52-.246-3.127-.73-4.807-.493-1.682-1.333-3.232-2.513-4.678-1.176-1.43-2.726-2.62-4.64-3.56-1.91-.94-4.302-1.41-7.15-1.41-2.624 0-4.937.462-6.913 1.378-1.984.918-3.66 2.184-5.047 3.795-1.38 1.617-2.414 3.53-3.102 5.75-.692 2.217-1.04 4.633-1.04 7.225h7.614c.05-1.652.214-3.2.5-4.64.296-1.43.737-2.675 1.34-3.728.597-1.055 1.4-1.885 2.405-2.488 1-.598 2.254-.912 3.773-.912 1.648 0 2.98.283 4.008.844 1.024.562 1.828 1.26 2.406 2.086.578.832.97 1.723 1.172 2.69.195.966.297 1.874.297 2.72-.042 1.834-.507 3.465-1.405 4.875-.885 1.41-2.018 2.723-3.405 3.934z"/><path d="M4 16v96h120V16H4zm116 92H8V36h112v72z"/></svg>