<svg xmlns="http://www.w3.org/2000/svg" viewBox="0 0 64 64"><path d="M33.785 35.765c-.69.607-1.445 1.172-2.27 1.696-.824.53-1.613 1.072-2.373 1.632-1.58 1.078-2.826 2.344-3.74 3.8C24.488 44.346 24.02 46.05 24 48h15.967v-3.43h-11.39c.155-.516.442-1 .87-1.46.418-.462.916-.902 1.48-1.33.572-.426 1.188-.85 1.855-1.276.67-.426 1.338-.873 2.008-1.343.666-.47 1.314-.976 1.938-1.516.62-.54 1.178-1.126 1.666-1.762.492-.64.883-1.337 1.172-2.1.29-.76.434-1.615.434-2.554 0-.76-.123-1.563-.365-2.403-.246-.84-.666-1.616-1.256-2.34-.59-.714-1.364-1.31-2.32-1.78-.956-.47-2.152-.705-3.576-.705-1.313 0-2.47.23-3.457.69-.992.46-1.83 1.092-2.523 1.897-.69.81-1.207 1.765-1.55 2.875-.347 1.108-.52 2.316-.52 3.612h3.806c.025-.826.108-1.6.25-2.32.15-.715.37-1.337.67-1.863.3-.526.7-.94 1.203-1.243.5-.3 1.127-.456 1.887-.456.824 0 1.49.143 2.004.423.512.28.914.63 1.203 1.043.29.416.484.86.586 1.346.098.482.148.937.148 1.36-.02.916-.253 1.73-.702 2.437-.443.703-1.01 1.36-1.703 1.965z"/><path d="M2 8v48h60V8H2zm58 46H4V18h56v36z"/></svg>