<svg xmlns="http://www.w3.org/2000/svg" viewBox="0 0 32 32"><path d="M16.893 17.882c-.345.303-.723.586-1.135.848-.412.265-.807.536-1.187.815-.79.54-1.412 1.172-1.87 1.9-.456.728-.69 1.58-.7 2.555h7.983v-1.715h-5.695c.078-.257.222-.5.436-.73.21-.23.458-.45.74-.665.286-.213.594-.425.928-.638.335-.213.67-.437 1.004-.67.333-.236.657-.49.97-.76.308-.27.588-.562.832-.88.246-.32.44-.67.586-1.05.144-.38.216-.81.216-1.278 0-.38-.062-.782-.183-1.202-.123-.42-.333-.808-.628-1.17-.295-.356-.683-.654-1.16-.89C17.55 12.12 16.953 12 16.24 12c-.656 0-1.234.116-1.73.345-.495.23-.914.546-1.26.95-.346.403-.605.88-.776 1.437-.173.554-.26 1.158-.26 1.806h1.903c.012-.413.053-.8.124-1.16.074-.358.185-.668.335-.932.148-.264.35-.47.6-.622.25-.15.564-.228.943-.228.412 0 .745.07 1.002.21.256.142.457.316.6.522.145.208.243.43.294.673.048.242.073.47.073.68-.01.46-.127.867-.352 1.22-.218.35-.5.68-.847.982z"/><path d="M1 4v24h30V4H1zm28 22H3V10h26v16z"/></svg>