<?xml version="1.0" encoding="utf-8"?>
<!-- Generator: Adobe Illustrator 17.1.0, SVG Export Plug-In . SVG Version: 6.00 Build 0)  -->
<!DOCTYPE svg PUBLIC "-//W3C//DTD SVG 1.1//EN" "http://www.w3.org/Graphics/SVG/1.1/DTD/svg11.dtd">
<svg version="1.1" id="Layer_1" xmlns="http://www.w3.org/2000/svg" xmlns:xlink="http://www.w3.org/1999/xlink" x="0px" y="0px"
	 width="32px" height="32px" viewBox="0 0 32 32" enable-background="new 0 0 32 32" xml:space="preserve">
<g>
	<path d="M11,6V4H5v2H1v20h30V6H11z M29,24H3V8h26V24z"/>
	<path d="M21,22.5c3.592,0,6.5-2.908,6.5-6.5S24.592,9.5,21,9.5c-3.587,0-6.5,2.908-6.5,6.5S17.413,22.5,21,22.5z M21,10.5
		c3.033,0,5.5,2.467,5.5,5.5s-2.467,5.5-5.5,5.5c-3.033,0-5.5-2.467-5.5-5.5S17.967,10.5,21,10.5z"/>
	<path d="M21,19.5c1.934,0,3.5-1.566,3.5-3.5s-1.566-3.5-3.5-3.5c-1.932,0-3.5,1.566-3.5,3.5S19.068,19.5,21,19.5z M21,15
		c0.552,0,1,0.447,1,1s-0.448,1-1,1c-0.552,0-1-0.447-1-1S20.448,15,21,15z"/>
</g>
</svg>
