<?xml version="1.0" encoding="iso-8859-1"?>
<!-- Generator: Adobe Illustrator 20.0.0, SVG Export Plug-In . SVG Version: 6.00 Build 0)  -->
<svg version="1.1" id="Layer_1" xmlns="http://www.w3.org/2000/svg" xmlns:xlink="http://www.w3.org/1999/xlink" x="0px" y="0px"
	 viewBox="0 0 24 24" style="enable-background:new 0 0 24 24;" xml:space="preserve">
<g>
	<path d="M8,4.5v-1H4v1H1v16h22v-16H8z M16,18c-3.035,0-5.5-2.461-5.5-5.5S12.965,7,16,7c3.039,0,5.5,2.461,5.5,5.5S19.039,18,16,18
		z"/>
	<path d="M16,8.5c-2.206,0-4,1.794-4,4s1.794,4,4,4s4-1.794,4-4S18.206,8.5,16,8.5z M16,14.5c-1.104,0-2-0.895-2-2s0.896-2,2-2
		c1.105,0,2,0.895,2,2S17.105,14.5,16,14.5z"/>
</g>
</svg>
