<?xml version="1.0" encoding="utf-8"?>
<!-- Generator: Adobe Illustrator 19.1.0, SVG Export Plug-In . SVG Version: 6.00 Build 0)  -->
<svg version="1.1" id="Icon" xmlns="http://www.w3.org/2000/svg" xmlns:xlink="http://www.w3.org/1999/xlink" x="0px" y="0px"
	 width="24px" height="24px" viewBox="0 0 24 24" enable-background="new 0 0 24 24" xml:space="preserve">
<path d="M8,5V4H4v1H1v16h22V5H8z M16,18.5c-3.035,0-5.5-2.461-5.5-5.5s2.465-5.5,5.5-5.5c3.039,0,5.5,2.461,5.5,5.5
	S19.039,18.5,16,18.5z"/>
<path d="M16,9c-2.206,0-4,1.794-4,4s1.794,4,4,4s4-1.794,4-4S18.206,9,16,9z M16,15c-1.104,0-2-0.895-2-2s0.896-2,2-2
	c1.105,0,2,0.895,2,2S17.105,15,16,15z"/>
</svg>
