<?xml version="1.0" encoding="utf-8"?>
<!-- Generator: Adobe Illustrator 17.1.0, SVG Export Plug-In . SVG Version: 6.00 Build 0)  -->
<!DOCTYPE svg PUBLIC "-//W3C//DTD SVG 1.1//EN" "http://www.w3.org/Graphics/SVG/1.1/DTD/svg11.dtd">
<svg version="1.1" id="Layer_1" xmlns="http://www.w3.org/2000/svg" xmlns:xlink="http://www.w3.org/1999/xlink" x="0px" y="0px"
	 width="128px" height="128px" viewBox="0 0 128 128" enable-background="new 0 0 128 128" xml:space="preserve">
<path d="M84,12c-8,0-16,4-20,8c-4-4-12-8-20-8H12v96h32c8,0,16,4,20,8c4-4,12-8,20-8h32V12H84z M64,110.769
	C59.129,107.188,51.684,104,44,104H16V16h28c6.79,0,13.778,3.435,17.172,6.829L64,25.657V110.769z M104,80H76v-4h28V80z M104,68H76
	v-4h28V68z M104,56H76v-4h28V56z M104,44H76v-4h28V44z"/>
</svg>
