<?xml version="1.0" encoding="utf-8"?>
<!-- Generator: Adobe Illustrator 17.1.0, SVG Export Plug-In . SVG Version: 6.00 Build 0)  -->
<!DOCTYPE svg PUBLIC "-//W3C//DTD SVG 1.1//EN" "http://www.w3.org/Graphics/SVG/1.1/DTD/svg11.dtd">
<svg version="1.1" id="Layer_1" xmlns="http://www.w3.org/2000/svg" xmlns:xlink="http://www.w3.org/1999/xlink" x="0px" y="0px"
	 width="64px" height="64px" viewBox="0 0 64 64" enable-background="new 0 0 64 64" xml:space="preserve">
<path d="M42,6c-4,0-8,2-10,4c-2-2-6-4-10-4H6v48h16c4,0,8,2,10,4c2-2,6-4,10-4h16V6H42z M32,55.384C29.565,53.594,25.842,52,22,52H8
	V8h14c3.396,0,6.889,1.718,8.586,3.414L32,12.829V55.384z M52,40H38v-2h14V40z M52,34H38v-2h14V34z M52,28H38v-2h14V28z M52,22H38
	v-2h14V22z"/>
</svg>
