<?xml version="1.0" encoding="utf-8"?>
<!-- Generator: Adobe Illustrator 17.1.0, SVG Export Plug-In . SVG Version: 6.00 Build 0)  -->
<!DOCTYPE svg PUBLIC "-//W3C//DTD SVG 1.1//EN" "http://www.w3.org/Graphics/SVG/1.1/DTD/svg11.dtd">
<svg version="1.1" id="Layer_1" xmlns="http://www.w3.org/2000/svg" xmlns:xlink="http://www.w3.org/1999/xlink" x="0px" y="0px"
	 width="32px" height="32px" viewBox="0 0 32 32" enable-background="new 0 0 32 32" xml:space="preserve">
<path d="M21,3c-2,0-4,1-5,2c-1-1-3-2-5-2H3v24h8c2,0,4,1,5,2c1-1,3-2,5-2h8V3H21z M16,26.484C14.657,25.649,12.869,25,11,25H5V5h6
	c1.359,0,2.891,0.719,3.586,1.414L16,7.829V26.484z M26,20h-7v-1h7V20z M26,17h-7v-1h7V17z M26,14h-7v-1h7V14z M26,11h-7v-1h7V11z"
	/>
</svg>
