<?xml version="1.0" encoding="utf-8"?>
<!-- Generator: Adobe Illustrator 19.1.0, SVG Export Plug-In . SVG Version: 6.00 Build 0)  -->
<svg version="1.1" id="Icon" xmlns="http://www.w3.org/2000/svg" xmlns:xlink="http://www.w3.org/1999/xlink" x="0px" y="0px"
	 width="16px" height="16px" viewBox="0 0 16 16" enable-background="new 0 0 16 16" xml:space="preserve">
<path d="M10,0C8.479,0,8,1,8,1S7.5,0,5,0C3.292,0,0,0,0,0v14h5c0,0,3,0.031,3,2c0-1.969,3-2,3-2h5V0C16,0,11.708,0,10,0z M5,12H2V2
	h3c0,0,3,0.031,3,2v9C8,13,7.5,12,5,12z"/>
</svg>
