<svg xmlns="http://www.w3.org/2000/svg" viewBox="0 0 24 24"><path d="M18.363 3.578C16.735 1.985 14.485 1 12 1c-2.485 0-4.735.985-6.363 2.578C4.007 5.17 3 7.57 3 10s1.008 4.43 2.637 6.02C7.265 17.615 9.515 18.6 12 18.6V23l6.363-6.61C19.993 14.702 21 12.57 21 10c0-2.43-1.008-4.83-2.637-6.422zM7.5 12c-1.106 0-2-.898-2-2 0-1.105.894-2 2-2 1.102 0 2 .895 2 2 0 1.102-.898 2-2 2zm9 0c-1.103 0-2-.898-2-2 0-1.105.897-2 2-2 1.105 0 2 .895 2 2 0 1.102-.895 2-2 2zM12 12c-1.103 0-2-.898-2-2 0-1.105.897-2 2-2 1.105 0 2 .895 2 2 0 1.102-.895 2-2 2z"/></svg>