<svg xmlns="http://www.w3.org/2000/svg" viewBox="0 0 64 64"><path d="M48.97 9.03C44.626 4.687 38.626 2 32 2S19.373 4.687 15.03 9.03C10.688 13.373 8 19.373 8 26s2.687 12.627 7.03 16.97C19.374 47.313 25.374 50 32 50v12l16.97-18.032C53.31 39.37 56 33.018 56 26c0-6.627-2.688-12.627-7.03-16.97zM47.51 42.597L34 56.957V48h-2c-5.877 0-11.4-2.29-15.555-6.445C12.29 37.4 10 31.875 10 26s2.29-11.4 6.445-15.556C20.6 6.29 26.123 4 32 4s11.4 2.29 15.555 6.445C51.71 14.6 54 20.125 54 26c0 6.274-2.303 12.168-6.488 16.597z"/><circle cx="32" cy="26" r="3"/><circle cx="42" cy="26" r="3"/><circle cx="22" cy="26" r="3"/></svg>