<svg xmlns="http://www.w3.org/2000/svg" viewBox="0 0 32 32"><path d="M26.446 12.604C26.003 8.287 22.416 5 18 5c-4.162 0-7.69 3.083-8.374 7.086C9.253 12.03 8.876 12 8.5 12 4.364 12 1 15.364 1 19.5S4.364 27 8.5 27h15c4.136 0 7.5-3.364 7.5-7.5 0-3.036-1.804-5.727-4.554-6.896zM23.5 25h-15C5.467 25 3 22.533 3 19.5S5.467 14 8.5 14c.575 0 1.146.092 1.7.27l1.276.417.032-1.344C11.592 9.846 14.504 7 18 7c3.552 0 6.403 2.784 6.49 6.338l.018.71.676.218C27.466 15 29 17.103 29 19.5c0 3.033-2.467 5.5-5.5 5.5z"/></svg>