<svg xmlns="http://www.w3.org/2000/svg" viewBox="0 0 128 128"><path d="M105.81 50.42C104.02 33.327 89.567 20 72 20c-16.856 0-30.81 12.28-33.496 28.374C37.03 48.15 35.534 48 34 48 17.432 48 4 61.432 4 78s13.432 30 30 30h60c16.568 0 30-13.432 30-30 0-12.374-7.496-22.993-18.19-27.58zM94 102H34c-13.233 0-24-10.767-24-24s10.767-24 24-24c1.077 0 2.224.098 3.607.307l5.842.883.972-5.828C46.682 35.825 58.28 26 72 26c14.378 0 26.347 10.768 27.84 25.045l.368 3.503 3.236 1.388C112.287 59.726 118 68.388 118 78c0 13.233-10.767 24-24 24z"/></svg>