<?xml version="1.0" encoding="utf-8"?>
<!-- Generator: Adobe Illustrator 17.1.0, SVG Export Plug-In . SVG Version: 6.00 Build 0)  -->
<!DOCTYPE svg PUBLIC "-//W3C//DTD SVG 1.1//EN" "http://www.w3.org/Graphics/SVG/1.1/DTD/svg11.dtd">
<svg version="1.1" id="Layer_1" xmlns="http://www.w3.org/2000/svg" xmlns:xlink="http://www.w3.org/1999/xlink" x="0px" y="0px"
	 width="128px" height="128px" viewBox="0 0 128 128" enable-background="new 0 0 128 128" xml:space="preserve">
<path d="M105.809,50.421C104.02,33.326,89.568,20,72,20c-16.856,0-30.811,12.28-33.496,28.374C37.031,48.151,35.535,48,34,48
	C17.432,48,4,61.432,4,78s13.432,30,30,30h60c16.568,0,30-13.432,30-30C124,65.626,116.504,55.007,105.809,50.421z M94,102H34
	c-13.233,0-24-10.767-24-24s10.767-24,24-24c1.077,0,2.224,0.098,3.607,0.307l5.842,0.883l0.973-5.828
	C46.681,35.825,58.279,26,72,26c14.378,0,26.347,10.768,27.841,25.045l0.367,3.503l3.236,1.388C112.287,59.727,118,68.388,118,78
	C118,91.233,107.233,102,94,102z"/>
</svg>
