<svg xmlns="http://www.w3.org/2000/svg" viewBox="0 0 64 64"><path d="M52.904 25.21C52.01 16.664 44.784 10 36 10c-8.428 0-15.405 6.14-16.748 14.188C18.516 24.076 17.768 24 17 24 8.716 24 2 30.716 2 39s6.716 15 15 15h30c8.284 0 15-6.716 15-15 0-6.188-3.748-11.496-9.096-13.79zM47 50H17c-6.065 0-11-4.935-11-11s4.935-11 11-11c.487 0 1.013.045 1.654.143l3.895.588.647-3.884C24.247 18.56 29.63 14 36 14c6.675 0 12.232 4.998 12.926 11.627l.245 2.334 2.16.927C55.38 30.625 58 34.594 58 39c0 6.065-4.935 11-11 11z"/></svg>