<?xml version="1.0" encoding="utf-8"?>
<!-- Generator: Adobe Illustrator 17.1.0, SVG Export Plug-In . SVG Version: 6.00 Build 0)  -->
<!DOCTYPE svg PUBLIC "-//W3C//DTD SVG 1.1//EN" "http://www.w3.org/Graphics/SVG/1.1/DTD/svg11.dtd">
<svg version="1.1" id="Layer_1" xmlns="http://www.w3.org/2000/svg" xmlns:xlink="http://www.w3.org/1999/xlink" x="0px" y="0px"
	 width="128px" height="128px" viewBox="0 0 128 128" enable-background="new 0 0 128 128" xml:space="preserve">
<g>
	<g>
		<g>
			<path d="M64,24c-22.088,0-40,17.912-40,40c0,22.092,17.912,40,40,40c22.092,0,40-17.908,40-40C104,41.912,86.092,24,64,24z
				 M72,72L40,88l16-32l32-16L72,72z"/>
		</g>
	</g>
	<g>
		<g>
			<path d="M64,8C33.072,8,8,33.072,8,64s25.072,56,56,56s56-25.072,56-56S94.928,8,64,8z M64,116c-28.673,0-52-23.327-52-52
				s23.327-52,52-52s52,23.327,52,52S92.673,116,64,116z"/>
		</g>
	</g>
	<g>
		<circle cx="64" cy="64" r="4"/>
	</g>
</g>
</svg>
