<?xml version="1.0" encoding="utf-8"?>
<!-- Generator: Adobe Illustrator 17.1.0, SVG Export Plug-In . SVG Version: 6.00 Build 0)  -->
<!DOCTYPE svg PUBLIC "-//W3C//DTD SVG 1.1//EN" "http://www.w3.org/Graphics/SVG/1.1/DTD/svg11.dtd">
<svg version="1.1" id="Layer_1" xmlns="http://www.w3.org/2000/svg" xmlns:xlink="http://www.w3.org/1999/xlink" x="0px" y="0px"
	 width="32px" height="32px" viewBox="0 0 32 32" enable-background="new 0 0 32 32" xml:space="preserve">
<g>
	<g>
		<g>
			<path d="M16,6C10.478,6,6,10.479,6,16c0,5.523,4.478,10,10,10c5.523,0,10-4.477,10-10C26,10.479,21.523,6,16,6z M18,18l-8,4l4-8
				l8-4L18,18z"/>
		</g>
	</g>
	<g>
		<g>
			<path d="M16,2C8.268,2,2,8.268,2,16s6.268,14,14,14s14-6.268,14-14S23.732,2,16,2z M16,28C9.383,28,4,22.617,4,16S9.383,4,16,4
				s12,5.383,12,12S22.617,28,16,28z"/>
		</g>
	</g>
	<g>
		<circle cx="16" cy="16" r="1"/>
	</g>
</g>
</svg>
