<?xml version="1.0" encoding="utf-8"?>
<!-- Generator: Adobe Illustrator 17.1.0, SVG Export Plug-In . SVG Version: 6.00 Build 0)  -->
<!DOCTYPE svg PUBLIC "-//W3C//DTD SVG 1.1//EN" "http://www.w3.org/Graphics/SVG/1.1/DTD/svg11.dtd">
<svg version="1.1" id="Layer_1" xmlns="http://www.w3.org/2000/svg" xmlns:xlink="http://www.w3.org/1999/xlink" x="0px" y="0px"
	 width="64px" height="64px" viewBox="0 0 64 64" enable-background="new 0 0 64 64" xml:space="preserve">
<g>
	<path d="M24.93,43.07C23.04,41.182,22,38.671,22,36c0-5.514,4.486-10,10-10s10,4.486,10,10c0,2.671-1.04,5.182-2.93,7.07
		l2.828,2.829C44.543,43.255,46,39.74,46,36c0-7.72-6.28-14-14-14s-14,6.28-14,14c0,3.74,1.457,7.255,4.102,9.899L24.93,43.07z"/>
	<polygon points="30,50 34,50 32,32 	"/>
	<path d="M2,8v8v40h60V16V8H2z M60,54H4V18h56V54z"/>
</g>
</svg>
