<?xml version="1.0" encoding="utf-8"?>
<!-- Generator: Adobe Illustrator 17.1.0, SVG Export Plug-In . SVG Version: 6.00 Build 0)  -->
<!DOCTYPE svg PUBLIC "-//W3C//DTD SVG 1.1//EN" "http://www.w3.org/Graphics/SVG/1.1/DTD/svg11.dtd">
<svg version="1.1" id="Layer_1" xmlns="http://www.w3.org/2000/svg" xmlns:xlink="http://www.w3.org/1999/xlink" x="0px" y="0px"
	 width="128px" height="128px" viewBox="0 0 128 128" enable-background="new 0 0 128 128" xml:space="preserve">
<g>
	<path d="M49.859,86.14C46.081,82.363,44,77.342,44,72c0-11.028,8.972-20,20-20s20,8.972,20,20c0,5.342-2.081,10.363-5.859,14.14
		l5.656,5.658C89.087,86.51,92,79.479,92,72c0-15.439-12.561-28-28-28S36,56.561,36,72c0,7.479,2.913,14.51,8.203,19.798
		L49.859,86.14z"/>
	<polygon points="60,100 68,100 64,64 	"/>
	<path d="M4,16v16v80h120V32V16H4z M120,108H8V36h112V108z"/>
</g>
</svg>
