<?xml version="1.0" encoding="utf-8"?>
<!-- Generator: Adobe Illustrator 19.1.0, SVG Export Plug-In . SVG Version: 6.00 Build 0)  -->
<svg version="1.1" id="Icon" xmlns="http://www.w3.org/2000/svg" xmlns:xlink="http://www.w3.org/1999/xlink" x="0px" y="0px"
	 width="16px" height="16px" viewBox="0 0 16 16" enable-background="new 0 0 16 16" xml:space="preserve">
<path d="M5,16L8,6l2.984,10H5z"/>
<path d="M3.361,11.799C2.511,10.764,2,9.441,2,8c0-1.654,0.673-3.154,1.759-4.241C4.846,2.673,6.346,2,8,2
	c1.654,0,3.154,0.673,4.241,1.759S14,6.346,14,8c0,1.441-0.511,2.764-1.361,3.799l1.267,1.583C15.203,11.961,16,10.076,16,8
	c0-2.209-0.895-4.209-2.343-5.657S10.209,0,8,0C5.791,0,3.791,0.895,2.343,2.343C0.895,3.791,0,5.791,0,8
	c0,2.076,0.797,3.961,2.094,5.383L3.361,11.799z"/>
</svg>
