<?xml version="1.0" encoding="utf-8"?>
<!-- Generator: Adobe Illustrator 17.1.0, SVG Export Plug-In . SVG Version: 6.00 Build 0)  -->
<!DOCTYPE svg PUBLIC "-//W3C//DTD SVG 1.1//EN" "http://www.w3.org/Graphics/SVG/1.1/DTD/svg11.dtd">
<svg version="1.1" id="Layer_1" xmlns="http://www.w3.org/2000/svg" xmlns:xlink="http://www.w3.org/1999/xlink" x="0px" y="0px"
	 width="32px" height="32px" viewBox="0 0 32 32" enable-background="new 0 0 32 32" xml:space="preserve">
<g>
	<path d="M12.465,21.535C11.521,20.591,11,19.335,11,18c0-2.757,2.243-5,5-5s5,2.243,5,5c0,1.335-0.521,2.591-1.465,3.535
		l1.414,1.414C22.271,21.627,23,19.87,23,18c0-3.86-3.141-7-7-7s-7,3.14-7,7c0,1.87,0.729,3.627,2.051,4.949L12.465,21.535z"/>
	<polygon points="15,25 17,25 16,16 	"/>
	<path d="M1,4v4v20h30V8V4H1z M29,26H3V10h26V26z"/>
</g>
</svg>
