<?xml version="1.0" encoding="iso-8859-1"?>
<!-- Generator: Adobe Illustrator 20.0.0, SVG Export Plug-In . SVG Version: 6.00 Build 0)  -->
<svg version="1.1" id="Layer_1" xmlns="http://www.w3.org/2000/svg" xmlns:xlink="http://www.w3.org/1999/xlink" x="0px" y="0px"
	 viewBox="0 0 128 128" style="enable-background:new 0 0 128 128;" xml:space="preserve">
<path d="M49.989,33.976v-12.01H3.952v84.067h120.095V33.976H49.989z M118.043,100.029H9.957V45.986h108.086V100.029z M31.975,90.021
	H25.97V55.994h6.005V90.021z M74.008,90.021h-6.005V55.994h6.005V90.021z M49.989,90.021c6.605,0,12.01-4.203,12.01-17.214
	c0-12.81-5.604-17.014-12.01-17.014s-12.01,4.203-12.01,17.014C37.979,86.018,43.384,90.021,49.989,90.021z M49.989,61.398
	c5.404,0,5.404,8.006,5.404,11.409c0,3.603,0,11.809-5.404,11.809s-5.404-8.006-5.404-11.809
	C44.585,69.404,44.585,61.398,49.989,61.398z M92.022,90.021c6.605,0,12.01-4.203,12.01-17.214c0-12.81-5.604-16.813-12.01-16.813
	c-6.405,0-12.01,4.203-12.01,16.813C80.013,85.817,85.617,90.021,92.022,90.021z M92.022,61.398c5.404,0,5.404,8.006,5.404,11.409
	c0,3.603,0,11.609-5.404,11.609s-5.404-8.006-5.404-11.609C86.818,69.404,86.618,61.398,92.022,61.398z"/>
</svg>
