<?xml version="1.0" encoding="utf-8"?>
<!-- Generator: Adobe Illustrator 17.1.0, SVG Export Plug-In . SVG Version: 6.00 Build 0)  -->
<!DOCTYPE svg PUBLIC "-//W3C//DTD SVG 1.1//EN" "http://www.w3.org/Graphics/SVG/1.1/DTD/svg11.dtd">
<svg version="1.1" id="Layer_1" xmlns="http://www.w3.org/2000/svg" xmlns:xlink="http://www.w3.org/1999/xlink" x="0px" y="0px"
	 width="32px" height="32px" viewBox="0 0 32 32" enable-background="new 0 0 32 32" xml:space="preserve">
<g>
	<rect x="1" y="9" width="2" height="14"/>
	<path d="M14.061,11.354c-0.365-0.685-0.875-1.25-1.529-1.692C11.877,9.221,11.033,9,10.001,9C8.967,9,8.123,9.221,7.47,9.663
		c-0.655,0.442-1.165,1.007-1.529,1.692c-0.365,0.687-0.613,1.44-0.744,2.26C5.065,14.436,5,15.231,5,16s0.065,1.564,0.196,2.384
		c0.131,0.821,0.379,1.574,0.744,2.26c0.364,0.687,0.874,1.25,1.529,1.692C8.123,22.779,8.967,23,10.001,23
		c1.032,0,1.876-0.221,2.53-0.664c0.654-0.442,1.164-1.006,1.529-1.692c0.364-0.685,0.612-1.439,0.743-2.26
		C14.936,17.564,15,16.769,15,16s-0.064-1.564-0.196-2.385C14.673,12.795,14.425,12.042,14.061,11.354z M12.521,18
		c-0.083,0.627-0.225,1.176-0.424,1.644c-0.199,0.468-0.471,0.84-0.816,1.115c-0.344,0.276-0.771,0.413-1.279,0.413
		c-0.524,0-0.956-0.138-1.292-0.413c-0.338-0.275-0.607-0.647-0.807-1.115c-0.2-0.468-0.341-1.017-0.423-1.644
		c-0.083-0.628-0.124-1.295-0.124-2c0-0.705,0.041-1.369,0.124-1.991c0.082-0.622,0.223-1.17,0.423-1.645
		c0.199-0.474,0.469-0.849,0.807-1.125c0.336-0.276,0.768-0.413,1.292-0.413c0.509,0,0.935,0.138,1.279,0.413
		c0.346,0.275,0.617,0.651,0.816,1.125c0.199,0.475,0.341,1.023,0.424,1.645c0.083,0.622,0.124,1.286,0.124,1.991
		C12.644,16.705,12.604,17.372,12.521,18z"/>
	<path d="M30.804,13.615c-0.131-0.82-0.379-1.573-0.743-2.26c-0.365-0.685-0.875-1.25-1.529-1.692C27.877,9.221,27.033,9,26.001,9
		c-1.034,0-1.878,0.221-2.531,0.663c-0.655,0.442-1.165,1.007-1.529,1.692c-0.365,0.687-0.613,1.44-0.744,2.26
		C21.065,14.436,21,15.231,21,16s0.065,1.564,0.196,2.384c0.131,0.821,0.379,1.574,0.744,2.26c0.364,0.687,0.874,1.25,1.529,1.692
		C24.123,22.779,24.967,23,26.001,23c1.032,0,1.876-0.221,2.53-0.664c0.654-0.442,1.164-1.006,1.529-1.692
		c0.364-0.685,0.612-1.439,0.743-2.26C30.935,17.564,31,16.769,31,16S30.935,14.436,30.804,13.615z M28.521,18
		c-0.083,0.627-0.225,1.176-0.424,1.644c-0.199,0.468-0.471,0.84-0.816,1.115c-0.344,0.276-0.771,0.413-1.279,0.413
		c-0.524,0-0.956-0.138-1.292-0.413c-0.338-0.275-0.607-0.647-0.807-1.115c-0.2-0.468-0.341-1.017-0.423-1.644
		c-0.083-0.628-0.124-1.295-0.124-2c0-0.705,0.041-1.369,0.124-1.991c0.082-0.622,0.223-1.17,0.423-1.645
		c0.199-0.474,0.469-0.849,0.807-1.125c0.336-0.276,0.768-0.413,1.292-0.413c0.509,0,0.936,0.138,1.279,0.413
		c0.346,0.275,0.617,0.651,0.816,1.125c0.199,0.475,0.341,1.023,0.424,1.645c0.083,0.622,0.124,1.286,0.124,1.991
		C28.645,16.705,28.604,17.372,28.521,18z"/>
	<rect x="17" y="9" width="2" height="14"/>
</g>
</svg>
