<?xml version="1.0" encoding="iso-8859-1"?>
<!-- Generator: Adobe Illustrator 20.0.0, SVG Export Plug-In . SVG Version: 6.00 Build 0)  -->
<svg version="1.1" id="Layer_1" xmlns="http://www.w3.org/2000/svg" xmlns:xlink="http://www.w3.org/1999/xlink" x="0px" y="0px"
	 viewBox="0 0 24 24" style="enable-background:new 0 0 24 24;" xml:space="preserve">
<path d="M20.055,9.087c0-4.467-3.625-8.055-8.055-8.055S3.945,4.656,3.945,9.087c0,3.076,1.867,5.785,4.394,7.14L7.606,23L12,20.071
	L16.394,23l-0.732-6.774C18.224,14.872,20.055,12.162,20.055,9.087z M12,16.409c-4.064,0-7.323-3.295-7.323-7.323
	c0-4.064,3.295-7.323,7.323-7.323s7.323,3.295,7.323,7.323C19.323,13.151,16.064,16.409,12,16.409z M15.295,6.084l1.098,1.098
	l-4.943,4.943L8.705,9.379l1.098-1.098l1.648,1.648L15.295,6.084z"/>
</svg>
