<?xml version="1.0" encoding="iso-8859-1"?>
<!-- Generator: Adobe Illustrator 20.0.0, SVG Export Plug-In . SVG Version: 6.00 Build 0)  -->
<svg version="1.1" id="Layer_1" xmlns="http://www.w3.org/2000/svg" xmlns:xlink="http://www.w3.org/1999/xlink" x="0px" y="0px"
	 viewBox="0 0 16 16" style="enable-background:new 0 0 16 16;" xml:space="preserve">
<path d="M13.849,5.898c0-3.243-2.632-5.849-5.849-5.849S2.151,2.681,2.151,5.898c0,2.233,1.356,4.2,3.19,5.184L4.81,16L8,13.873
	L11.19,16l-0.532-4.918C12.519,10.098,13.849,8.131,13.849,5.898z M8,11.215c-2.951,0-5.317-2.393-5.317-5.317
	c0-2.951,2.393-5.317,5.317-5.317s5.317,2.393,5.317,5.317C13.317,8.849,10.951,11.215,8,11.215z M10.393,3.718l0.798,0.798
	L7.601,8.105L5.607,6.111l0.798-0.798l1.196,1.196L10.393,3.718z"/>
</svg>
