<?xml version="1.0" encoding="utf-8"?>
<!-- Generator: Adobe Illustrator 17.1.0, SVG Export Plug-In . SVG Version: 6.00 Build 0)  -->
<!DOCTYPE svg PUBLIC "-//W3C//DTD SVG 1.1//EN" "http://www.w3.org/Graphics/SVG/1.1/DTD/svg11.dtd">
<svg version="1.1" id="Layer_1" xmlns="http://www.w3.org/2000/svg" xmlns:xlink="http://www.w3.org/1999/xlink" x="0px" y="0px"
	 width="128px" height="128px" viewBox="0 0 128 128" enable-background="new 0 0 128 128" xml:space="preserve">
<g>
	<rect x="4" y="36" width="8" height="56"/>
	<path d="M56.242,45.418c-1.461-2.74-3.5-4.998-6.117-6.768C47.508,36.885,44.133,36,40.004,36c-4.137,0-7.512,0.885-10.125,2.65
		c-2.621,1.77-4.66,4.027-6.117,6.768c-1.461,2.748-2.453,5.762-2.976,9.041C20.262,57.744,20,60.926,20,64
		c0,3.074,0.262,6.256,0.785,9.537c0.523,3.283,1.516,6.297,2.976,9.039c1.457,2.746,3.496,5,6.117,6.77
		C32.492,91.115,35.867,92,40.004,92c4.129,0,7.504-0.885,10.121-2.654c2.617-1.77,4.656-4.023,6.117-6.77
		c1.457-2.742,2.449-5.756,2.973-9.039C59.742,70.256,60,67.074,60,64c0-3.074-0.258-6.256-0.785-9.541
		C58.691,51.18,57.699,48.166,56.242,45.418z M50.082,72.002c-0.332,2.51-0.898,4.703-1.695,6.576
		c-0.797,1.871-1.883,3.359-3.266,4.461c-1.375,1.104-3.082,1.654-5.117,1.654c-2.098,0-3.824-0.551-5.168-1.654
		c-1.351-1.102-2.43-2.59-3.226-4.461c-0.801-1.873-1.363-4.066-1.691-6.576c-0.332-2.514-0.496-5.182-0.496-8.002
		c0-2.82,0.164-5.475,0.496-7.963c0.328-2.486,0.891-4.678,1.691-6.578c0.797-1.895,1.875-3.396,3.226-4.498
		c1.344-1.104,3.07-1.654,5.168-1.654c2.035,0,3.742,0.551,5.117,1.654c1.383,1.102,2.469,2.604,3.266,4.498
		c0.797,1.9,1.363,4.092,1.695,6.578c0.332,2.488,0.496,5.143,0.496,7.963C50.578,66.82,50.414,69.488,50.082,72.002z"/>
	<path d="M123.215,54.459c-0.523-3.279-1.516-6.293-2.973-9.041c-1.461-2.74-3.5-4.998-6.117-6.768
		c-2.617-1.766-5.992-2.65-10.121-2.65c-4.137,0-7.512,0.885-10.125,2.65c-2.621,1.77-4.66,4.027-6.117,6.768
		c-1.461,2.748-2.453,5.762-2.977,9.041C84.262,57.744,84,60.926,84,64c0,3.074,0.262,6.256,0.785,9.537
		c0.523,3.283,1.516,6.297,2.977,9.039c1.457,2.746,3.496,5,6.117,6.77C96.492,91.115,99.867,92,104.004,92
		c4.129,0,7.504-0.885,10.121-2.654c2.617-1.77,4.656-4.023,6.117-6.77c1.457-2.742,2.449-5.756,2.973-9.039
		C123.742,70.256,124,67.074,124,64C124,60.926,123.742,57.744,123.215,54.459z M114.082,72.002
		c-0.332,2.51-0.898,4.703-1.695,6.576c-0.797,1.871-1.883,3.359-3.266,4.461c-1.375,1.104-3.082,1.654-5.117,1.654
		c-2.098,0-3.824-0.551-5.168-1.654c-1.352-1.102-2.43-2.59-3.227-4.461c-0.801-1.873-1.363-4.066-1.691-6.576
		c-0.332-2.514-0.496-5.182-0.496-8.002c0-2.82,0.164-5.475,0.496-7.963c0.328-2.486,0.891-4.678,1.691-6.578
		c0.797-1.895,1.875-3.396,3.227-4.498c1.344-1.104,3.07-1.654,5.168-1.654c2.035,0,3.742,0.551,5.117,1.654
		c1.383,1.102,2.469,2.604,3.266,4.498c0.797,1.9,1.363,4.092,1.695,6.578c0.332,2.488,0.496,5.143,0.496,7.963
		C114.578,66.82,114.414,69.488,114.082,72.002z"/>
	<rect x="68" y="36" width="8" height="56"/>
</g>
</svg>
