<?xml version="1.0" encoding="iso-8859-1"?>
<!-- Generator: Adobe Illustrator 20.0.0, SVG Export Plug-In . SVG Version: 6.00 Build 0)  -->
<svg version="1.1" id="Layer_1" xmlns="http://www.w3.org/2000/svg" xmlns:xlink="http://www.w3.org/1999/xlink" x="0px" y="0px"
	 viewBox="0 0 24 24" style="enable-background:new 0 0 24 24;" xml:space="preserve">
<path d="M9.437,6.461V4.264H1.016v15.378h21.969V6.461H9.437z M21.886,18.544H2.114V8.658h19.772V18.544z M6.142,16.713H5.043
	v-6.224h1.098V16.713z M13.831,16.713h-1.098v-6.224h1.098V16.713z M9.437,16.713c1.208,0,2.197-0.769,2.197-3.149
	c0-2.343-1.025-3.112-2.197-3.112S7.24,11.221,7.24,13.564C7.24,15.981,8.229,16.713,9.437,16.713z M9.437,11.477
	c0.989,0,0.989,1.465,0.989,2.087c0,0.659,0,2.16-0.989,2.16s-0.989-1.465-0.989-2.16C8.448,12.942,8.448,11.477,9.437,11.477z
	 M17.126,16.713c1.208,0,2.197-0.769,2.197-3.149c0-2.343-1.025-3.076-2.197-3.076s-2.197,0.769-2.197,3.076
	C14.929,15.944,15.954,16.713,17.126,16.713z M17.126,11.477c0.989,0,0.989,1.465,0.989,2.087c0,0.659,0,2.124-0.989,2.124
	s-0.989-1.465-0.989-2.124C16.174,12.942,16.137,11.477,17.126,11.477z"/>
</svg>
