<?xml version="1.0" encoding="iso-8859-1"?>
<!-- Generator: Adobe Illustrator 20.0.0, SVG Export Plug-In . SVG Version: 6.00 Build 0)  -->
<svg version="1.1" id="Layer_1" xmlns="http://www.w3.org/2000/svg" xmlns:xlink="http://www.w3.org/1999/xlink" x="0px" y="0px"
	 viewBox="0 0 64 64" style="enable-background:new 0 0 64 64;" xml:space="preserve">
<path d="M25.036,16.988v-6.005H2.018v42.033h60.048V16.988H25.036z M59.063,50.014H5.02V22.993h54.043V50.014z M16.029,45.01h-3.002
	V27.997h3.002V45.01z M37.046,45.01h-3.002V27.997h3.002V45.01z M25.036,45.01c3.303,0,6.005-2.102,6.005-8.607
	c0-6.405-2.802-8.507-6.005-8.507s-6.005,2.102-6.005,8.507C19.031,43.009,21.734,45.01,25.036,45.01z M25.036,30.699
	c2.702,0,2.702,4.003,2.702,5.705c0,1.801,0,5.905-2.702,5.905s-2.702-4.003-2.702-5.905C22.334,34.702,22.334,30.699,25.036,30.699
	z M46.053,45.01c3.303,0,6.005-2.102,6.005-8.607c0-6.405-2.802-8.407-6.005-8.407c-3.203,0-6.005,2.102-6.005,8.407
	C40.048,42.909,42.85,45.01,46.053,45.01z M46.053,30.699c2.702,0,2.702,4.003,2.702,5.705c0,1.801,0,5.805-2.702,5.805
	s-2.702-4.003-2.702-5.805C43.451,34.702,43.351,30.699,46.053,30.699z"/>
</svg>
