<?xml version="1.0" encoding="utf-8"?>
<!-- Generator: Adobe Illustrator 17.1.0, SVG Export Plug-In . SVG Version: 6.00 Build 0)  -->
<!DOCTYPE svg PUBLIC "-//W3C//DTD SVG 1.1//EN" "http://www.w3.org/Graphics/SVG/1.1/DTD/svg11.dtd">
<svg version="1.1" id="Layer_1" xmlns="http://www.w3.org/2000/svg" xmlns:xlink="http://www.w3.org/1999/xlink" x="0px" y="0px"
	 width="64px" height="64px" viewBox="0 0 64 64" enable-background="new 0 0 64 64" xml:space="preserve">
<g>
	<rect x="2" y="18" width="4" height="28"/>
	<path d="M28.121,22.709c-0.73-1.37-1.75-2.499-3.059-3.384C23.754,18.442,22.066,18,20.002,18c-2.068,0-3.756,0.442-5.063,1.325
		c-1.311,0.885-2.33,2.014-3.059,3.384c-0.731,1.374-1.227,2.881-1.488,4.521C10.131,28.872,10,30.463,10,32
		c0,1.537,0.131,3.128,0.393,4.769c0.262,1.642,0.758,3.148,1.488,4.52c0.728,1.373,1.748,2.5,3.059,3.385
		C16.246,45.558,17.934,46,20.002,46c2.064,0,3.752-0.442,5.06-1.327c1.309-0.885,2.328-2.012,3.059-3.385
		c0.729-1.371,1.225-2.878,1.486-4.52C29.871,35.128,30,33.537,30,32c0-1.537-0.129-3.128-0.393-4.771
		C29.346,25.59,28.85,24.083,28.121,22.709z M25.041,36.001c-0.166,1.255-0.449,2.352-0.848,3.288
		c-0.398,0.936-0.941,1.68-1.633,2.23c-0.688,0.552-1.541,0.827-2.558,0.827c-1.049,0-1.912-0.275-2.584-0.827
		c-0.676-0.551-1.215-1.295-1.613-2.23c-0.4-0.937-0.682-2.033-0.846-3.288c-0.166-1.257-0.248-2.591-0.248-4.001
		c0-1.41,0.082-2.737,0.248-3.981c0.164-1.243,0.445-2.339,0.846-3.289c0.398-0.947,0.938-1.698,1.613-2.249
		c0.672-0.552,1.535-0.827,2.584-0.827c1.017,0,1.871,0.275,2.558,0.827c0.692,0.551,1.234,1.302,1.633,2.249
		c0.398,0.95,0.682,2.046,0.848,3.289c0.166,1.244,0.248,2.571,0.248,3.981C25.289,33.41,25.207,34.744,25.041,36.001z"/>
	<path d="M61.607,27.229c-0.262-1.64-0.758-3.146-1.486-4.521c-0.731-1.37-1.75-2.499-3.059-3.384
		C55.754,18.442,54.066,18,52.002,18c-2.068,0-3.756,0.442-5.062,1.325c-1.311,0.885-2.33,2.014-3.059,3.384
		c-0.731,1.374-1.227,2.881-1.488,4.521C42.131,28.872,42,30.463,42,32c0,1.537,0.131,3.128,0.393,4.769
		c0.262,1.642,0.758,3.148,1.488,4.52c0.729,1.373,1.748,2.5,3.059,3.385C48.246,45.558,49.934,46,52.002,46
		c2.064,0,3.752-0.442,5.061-1.327c1.309-0.885,2.328-2.012,3.059-3.385c0.729-1.371,1.225-2.878,1.486-4.52
		C61.871,35.128,62,33.537,62,32C62,30.463,61.871,28.872,61.607,27.229z M57.041,36.001c-0.166,1.255-0.449,2.352-0.848,3.288
		c-0.399,0.936-0.941,1.68-1.633,2.23c-0.688,0.552-1.541,0.827-2.559,0.827c-1.049,0-1.912-0.275-2.584-0.827
		c-0.676-0.551-1.215-1.295-1.613-2.23c-0.4-0.937-0.682-2.033-0.846-3.288c-0.166-1.257-0.248-2.591-0.248-4.001
		c0-1.41,0.082-2.737,0.248-3.981c0.164-1.243,0.445-2.339,0.846-3.289c0.398-0.947,0.938-1.698,1.613-2.249
		c0.672-0.552,1.535-0.827,2.584-0.827c1.018,0,1.871,0.275,2.559,0.827c0.691,0.551,1.234,1.302,1.633,2.249
		c0.398,0.95,0.682,2.046,0.848,3.289c0.166,1.244,0.248,2.571,0.248,3.981C57.289,33.41,57.207,34.744,57.041,36.001z"/>
	<rect x="34" y="18" width="4" height="28"/>
</g>
</svg>
