<?xml version="1.0" encoding="iso-8859-1"?>
<!-- Generator: Adobe Illustrator 20.0.0, SVG Export Plug-In . SVG Version: 6.00 Build 0)  -->
<svg version="1.1" id="Layer_1" xmlns="http://www.w3.org/2000/svg" xmlns:xlink="http://www.w3.org/1999/xlink" x="0px" y="0px"
	 viewBox="0 0 64 64" style="enable-background:new 0 0 64 64;" xml:space="preserve">
<path d="M54.029,24.157c0-12.216-9.913-22.029-22.029-22.029S9.971,12.041,9.971,24.157c0,8.411,5.107,15.821,12.016,19.525
	l-2.003,18.524L32,54.196l12.016,8.01l-2.003-18.524C49.022,39.977,54.029,32.568,54.029,24.157z M32,44.183
	c-11.114,0-20.026-9.012-20.026-20.026c0-11.114,9.012-20.026,20.026-20.026s20.026,9.012,20.026,20.026
	C52.026,35.271,43.114,44.183,32,44.183z M41.012,15.946l3.004,3.004L30.498,32.468l-7.51-7.51l3.004-3.004l4.506,4.506
	L41.012,15.946z"/>
</svg>
