<svg xmlns="http://www.w3.org/2000/svg" viewBox="0 0 32 32"><path d="M1 9h2v14H1zM14.06 11.354c-.365-.685-.875-1.25-1.53-1.692C11.878 9.222 11.034 9 10 9c-1.033 0-1.877.22-2.53.663-.655.442-1.165 1.007-1.53 1.692-.364.687-.612 1.44-.743 2.26C5.065 14.435 5 15.23 5 16s.065 1.564.196 2.384c.13.82.38 1.574.744 2.26.364.687.874 1.25 1.53 1.692.653.443 1.497.664 2.53.664 1.033 0 1.877-.22 2.53-.664.655-.442 1.165-1.006 1.53-1.692.364-.685.612-1.44.743-2.26.132-.82.197-1.615.197-2.384s-.065-1.564-.196-2.385c-.13-.82-.38-1.573-.744-2.26zM12.52 18c-.082.627-.224 1.176-.423 1.644-.2.468-.47.84-.816 1.115-.343.275-.77.412-1.278.412-.524 0-.956-.138-1.292-.413-.338-.276-.607-.648-.807-1.116-.2-.468-.34-1.017-.423-1.644-.083-.628-.124-1.295-.124-2 0-.705.04-1.37.124-1.99.082-.623.223-1.17.423-1.646.2-.474.47-.85.807-1.125.336-.277.768-.414 1.292-.414.51 0 .935.138 1.28.413.345.274.616.65.815 1.124.2.475.34 1.023.424 1.645.084.62.125 1.285.125 1.99 0 .705-.04 1.372-.124 2zM30.804 13.615c-.13-.82-.38-1.573-.743-2.26-.364-.685-.874-1.25-1.528-1.692-.655-.442-1.5-.663-2.53-.663-1.035 0-1.88.22-2.532.663-.655.442-1.165 1.007-1.53 1.692-.364.687-.612 1.44-.743 2.26C21.065 14.435 21 15.23 21 16s.065 1.564.196 2.384c.13.82.38 1.574.744 2.26.364.687.874 1.25 1.53 1.692.653.443 1.497.664 2.53.664 1.033 0 1.877-.22 2.53-.664.655-.442 1.165-1.006 1.53-1.692.364-.685.612-1.44.743-2.26.132-.82.197-1.615.197-2.384s-.065-1.564-.196-2.385zM28.52 18c-.082.627-.224 1.176-.423 1.644-.2.468-.47.84-.816 1.115-.343.275-.77.412-1.278.412-.524 0-.956-.138-1.292-.413-.338-.276-.607-.648-.807-1.116-.2-.468-.34-1.017-.423-1.644-.083-.628-.124-1.295-.124-2 0-.705.04-1.37.124-1.99.082-.623.223-1.17.423-1.646.2-.474.47-.85.807-1.125.336-.277.768-.414 1.292-.414.51 0 .935.138 1.28.413.345.274.616.65.815 1.124.2.475.34 1.023.424 1.645.084.62.125 1.285.125 1.99 0 .705-.04 1.372-.124 2zM17 9h2v14h-2z"/></svg>