<svg xmlns="http://www.w3.org/2000/svg" viewBox="0 0 64 64"><path d="M2 18h4v28H2zM28.12 22.71c-.73-1.37-1.75-2.5-3.058-3.385-1.308-.883-2.996-1.325-5.06-1.325-2.068 0-3.756.442-5.063 1.325-1.312.885-2.33 2.014-3.06 3.384-.73 1.373-1.227 2.88-1.488 4.52C10.132 28.872 10 30.463 10 32c0 1.537.13 3.128.393 4.77.262 1.64.758 3.147 1.488 4.52.73 1.372 1.75 2.5 3.06 3.384 1.306.884 2.994 1.326 5.062 1.326 2.064 0 3.752-.442 5.06-1.327 1.31-.885 2.328-2.012 3.06-3.385.728-1.37 1.224-2.878 1.485-4.52.264-1.64.393-3.23.393-4.768 0-1.537-.13-3.128-.393-4.77-.26-1.64-.757-3.147-1.486-4.52zM25.04 36c-.165 1.256-.448 2.353-.847 3.29-.398.935-.94 1.68-1.633 2.23-.687.55-1.54.826-2.558.826-1.05 0-1.912-.275-2.584-.827-.676-.552-1.215-1.296-1.613-2.23-.4-.938-.682-2.034-.846-3.29-.167-1.256-.25-2.59-.25-4 0-1.41.083-2.737.25-3.98.163-1.244.444-2.34.845-3.29.398-.947.938-1.698 1.613-2.25.672-.55 1.535-.826 2.584-.826 1.017 0 1.87.275 2.558.827.692.552 1.234 1.303 1.633 2.25.398.95.682 2.046.848 3.29.167 1.243.25 2.57.25 3.98 0 1.41-.083 2.744-.25 4zM61.607 27.23c-.262-1.64-.758-3.147-1.486-4.522-.73-1.37-1.75-2.5-3.058-3.384-1.308-.882-2.996-1.324-5.06-1.324-2.068 0-3.756.442-5.063 1.325-1.312.885-2.33 2.014-3.06 3.384-.73 1.373-1.227 2.88-1.488 4.52C42.132 28.872 42 30.463 42 32c0 1.537.13 3.128.393 4.77.262 1.64.758 3.147 1.488 4.52.73 1.372 1.75 2.5 3.06 3.384 1.306.884 2.994 1.326 5.062 1.326 2.064 0 3.752-.442 5.06-1.327 1.31-.885 2.328-2.012 3.06-3.385.728-1.37 1.224-2.878 1.485-4.52.264-1.64.393-3.23.393-4.768 0-1.537-.13-3.128-.393-4.77zM57.04 36c-.165 1.256-.448 2.353-.847 3.29-.398.935-.94 1.68-1.633 2.23-.687.55-1.54.826-2.558.826-1.05 0-1.912-.275-2.584-.827-.676-.552-1.215-1.296-1.613-2.23-.4-.938-.682-2.034-.846-3.29-.167-1.256-.25-2.59-.25-4 0-1.41.083-2.737.25-3.98.163-1.244.444-2.34.845-3.29.398-.947.938-1.698 1.613-2.25.672-.55 1.535-.826 2.584-.826 1.017 0 1.87.275 2.558.827.692.552 1.234 1.303 1.633 2.25.398.95.682 2.046.848 3.29.167 1.243.25 2.57.25 3.98 0 1.41-.083 2.744-.25 4zM34 18h4v28h-4z"/></svg>