<svg xmlns="http://www.w3.org/2000/svg" viewBox="0 0 128 128"><path d="M4 36h8v56H4zM56.242 45.418c-1.46-2.74-3.5-4.998-6.117-6.768-2.617-1.765-5.992-2.65-10.12-2.65-4.138 0-7.513.885-10.126 2.65-2.622 1.77-4.66 4.027-6.118 6.768-1.46 2.748-2.453 5.762-2.977 9.04C20.262 57.745 20 60.927 20 64s.262 6.256.785 9.537c.523 3.283 1.516 6.297 2.977 9.04 1.457 2.745 3.496 5 6.117 6.77C32.49 91.114 35.866 92 40.003 92c4.13 0 7.504-.885 10.12-2.654 2.618-1.77 4.657-4.023 6.118-6.77 1.457-2.742 2.45-5.756 2.973-9.04.527-3.28.785-6.462.785-9.536s-.258-6.256-.785-9.54c-.524-3.28-1.516-6.294-2.973-9.042zm-6.16 26.584c-.332 2.51-.898 4.703-1.695 6.576-.797 1.87-1.883 3.36-3.266 4.46-1.374 1.105-3.08 1.655-5.116 1.655-2.098 0-3.824-.55-5.168-1.654-1.35-1.103-2.43-2.59-3.226-4.462-.8-1.873-1.363-4.066-1.69-6.576-.333-2.514-.497-5.182-.497-8.002 0-2.82.164-5.475.496-7.963.327-2.486.89-4.678 1.69-6.578.797-1.896 1.875-3.397 3.226-4.5 1.344-1.103 3.07-1.653 5.168-1.653 2.035 0 3.742.55 5.117 1.654 1.384 1.103 2.47 2.605 3.267 4.5.797 1.9 1.363 4.09 1.695 6.577.332 2.488.496 5.143.496 7.963 0 2.82-.164 5.488-.496 8.002zM123.215 54.46c-.523-3.28-1.516-6.294-2.973-9.042-1.46-2.74-3.5-4.998-6.117-6.768-2.617-1.766-5.992-2.65-10.12-2.65-4.138 0-7.513.885-10.126 2.65-2.622 1.77-4.66 4.027-6.118 6.768-1.46 2.748-2.453 5.762-2.977 9.04C84.262 57.745 84 60.927 84 64s.262 6.256.785 9.537c.523 3.283 1.516 6.297 2.977 9.04 1.457 2.745 3.496 5 6.117 6.77C96.49 91.114 99.866 92 104.003 92c4.13 0 7.504-.885 10.12-2.654 2.618-1.77 4.657-4.023 6.118-6.77 1.457-2.742 2.45-5.756 2.973-9.04.527-3.28.785-6.462.785-9.536s-.258-6.256-.785-9.54zM114.082 72c-.332 2.51-.898 4.703-1.695 6.576-.797 1.87-1.883 3.36-3.266 4.46-1.374 1.105-3.08 1.655-5.116 1.655-2.098 0-3.824-.55-5.168-1.654-1.35-1.103-2.43-2.59-3.226-4.462-.8-1.873-1.363-4.066-1.69-6.576-.333-2.514-.497-5.182-.497-8.002 0-2.82.164-5.475.496-7.963.327-2.486.89-4.678 1.69-6.578.797-1.896 1.875-3.397 3.226-4.5 1.344-1.103 3.07-1.653 5.168-1.653 2.035 0 3.742.55 5.117 1.654 1.384 1.103 2.47 2.605 3.267 4.5.797 1.9 1.363 4.09 1.695 6.577.332 2.488.496 5.143.496 7.963 0 2.82-.164 5.488-.496 8.002zM68 36h8v56h-8z"/></svg>