<?xml version="1.0" encoding="iso-8859-1"?>
<!-- Generator: Adobe Illustrator 20.0.0, SVG Export Plug-In . SVG Version: 6.00 Build 0)  -->
<svg version="1.1" id="Layer_1" xmlns="http://www.w3.org/2000/svg" xmlns:xlink="http://www.w3.org/1999/xlink" x="0px" y="0px"
	 viewBox="0 0 128 128" style="enable-background:new 0 0 128 128;" xml:space="preserve">
<path d="M107.892,47.342c0-24.418-19.815-44.032-44.032-44.032S19.827,23.124,19.827,47.342c0,16.812,10.208,31.623,24.018,39.029
	l-4.003,37.027l24.018-16.012l24.018,16.012l-4.003-37.027C97.885,78.965,107.892,64.154,107.892,47.342z M63.86,87.371
	c-22.216,0-40.029-18.013-40.029-40.029c0-22.216,18.013-40.029,40.029-40.029s40.029,18.013,40.029,40.029
	C103.889,69.558,86.076,87.371,63.86,87.371z M81.873,30.93l6.004,6.004l-27.02,27.02L45.846,48.943l6.004-6.004l9.007,9.007
	L81.873,30.93z"/>
</svg>
