<?xml version="1.0" encoding="iso-8859-1"?>
<!-- Generator: Adobe Illustrator 20.0.0, SVG Export Plug-In . SVG Version: 6.00 Build 0)  -->
<svg version="1.1" id="Layer_1" xmlns="http://www.w3.org/2000/svg" xmlns:xlink="http://www.w3.org/1999/xlink" x="0px" y="0px"
	 viewBox="0 0 16 16" style="enable-background:new 0 0 16 16;" xml:space="preserve">
<path d="M6.129,3.956V2.357H0V13.55h15.989V3.956H6.129z M15.19,12.75H0.799V5.555h14.39V12.75z M3.731,11.418H2.931v-4.53h0.799
	V11.418z M9.327,11.418H8.528v-4.53h0.799V11.418z M6.129,11.418c0.879,0,1.599-0.56,1.599-2.292c0-1.706-0.746-2.265-1.599-2.265
	S4.53,7.42,4.53,9.126C4.53,10.885,5.25,11.418,6.129,11.418z M6.129,7.607c0.72,0,0.72,1.066,0.72,1.519c0,0.48,0,1.572-0.72,1.572
	S5.41,9.632,5.41,9.126C5.41,8.673,5.41,7.607,6.129,7.607z M11.725,11.418c0.879,0,1.599-0.56,1.599-2.292
	c0-1.706-0.746-2.238-1.599-2.238c-0.853,0-1.599,0.56-1.599,2.238C10.127,10.858,10.873,11.418,11.725,11.418z M11.725,7.607
	c0.72,0,0.72,1.066,0.72,1.519c0,0.48,0,1.546-0.72,1.546c-0.72,0-0.72-1.066-0.72-1.546C11.033,8.673,11.006,7.607,11.725,7.607z"
	/>
</svg>
