<?xml version="1.0" encoding="iso-8859-1"?>
<!-- Generator: Adobe Illustrator 20.0.0, SVG Export Plug-In . SVG Version: 6.00 Build 0)  -->
<svg version="1.1" id="Layer_1" xmlns="http://www.w3.org/2000/svg" xmlns:xlink="http://www.w3.org/1999/xlink" x="0px" y="0px"
	 viewBox="0 0 32 32" style="enable-background:new 0 0 32 32;" xml:space="preserve">
<path d="M26.962,12.066c0-6.079-4.933-10.962-10.962-10.962S5.038,6.037,5.038,12.066c0,4.185,2.541,7.873,5.979,9.716L10.021,31
	L16,27.014L21.979,31l-0.997-9.218C24.471,19.938,26.962,16.251,26.962,12.066z M16,22.031c-5.531,0-9.965-4.484-9.965-9.965
	C6.035,6.535,10.519,2.1,16,2.1s9.965,4.484,9.965,9.965C25.965,17.597,21.531,22.031,16,22.031z M20.484,7.98l1.495,1.495
	l-6.727,6.727l-3.737-3.737l1.495-1.495l2.242,2.242L20.484,7.98z"/>
</svg>
