<?xml version="1.0" encoding="iso-8859-1"?>
<!-- Generator: Adobe Illustrator 20.0.0, SVG Export Plug-In . SVG Version: 6.00 Build 0)  -->
<svg version="1.1" id="Layer_1" xmlns="http://www.w3.org/2000/svg" xmlns:xlink="http://www.w3.org/1999/xlink" x="0px" y="0px"
	 viewBox="0 0 32 32" style="enable-background:new 0 0 32 32;" xml:space="preserve">
<path d="M12.494,8.54V5.574H1.126v20.758H30.78V8.54H12.494z M29.298,24.849H2.609V11.505h26.689V24.849z M8.046,22.378H6.563
	v-8.402h1.483V22.378z M18.424,22.378h-1.483v-8.402h1.483V22.378z M12.494,22.378c1.631,0,2.965-1.038,2.965-4.25
	c0-3.163-1.384-4.201-2.965-4.201s-2.965,1.038-2.965,4.201C9.528,21.39,10.863,22.378,12.494,22.378z M12.494,15.311
	c1.334,0,1.334,1.977,1.334,2.817c0,0.89,0,2.916-1.334,2.916s-1.334-1.977-1.334-2.916C11.159,17.288,11.159,15.311,12.494,15.311z
	 M22.873,22.378c1.631,0,2.965-1.038,2.965-4.25c0-3.163-1.384-4.152-2.965-4.152s-2.965,1.038-2.965,4.152
	C19.907,21.34,21.291,22.378,22.873,22.378z M22.873,15.311c1.334,0,1.334,1.977,1.334,2.817c0,0.89,0,2.867-1.334,2.867
	c-1.334,0-1.334-1.977-1.334-2.867C21.588,17.288,21.538,15.311,22.873,15.311z"/>
</svg>
