<svg xmlns="http://www.w3.org/2000/svg" viewBox="0 0 16 16"><path d="M13 10c-1.304 0-2.403.837-2.816 2H5.816c-.038-.106-.094-.2-.142-.3l6.016-6.017c.396.197.837.317 1.31.317 1.657 0 3-1.343 3-3s-1.343-3-3-3c-1.304 0-2.403.837-2.816 2H5.816C5.403.837 4.304 0 3 0 1.343 0 0 1.343 0 3s1.343 3 3 3c1.304 0 2.403-.837 2.816-2h4.367c.03.086.078.163.116.245L4.254 10.29C3.873 10.107 3.45 10 3 10c-1.657 0-3 1.343-3 3s1.343 3 3 3c1.304 0 2.403-.837 2.816-2h4.367c.413 1.163 1.512 2 2.816 2 1.656 0 3-1.343 3-3s-1.343-3-3-3zM3 4.5c-.827 0-1.5-.673-1.5-1.5S2.173 1.5 3 1.5s1.5.673 1.5 1.5S3.827 4.5 3 4.5zm10-3c.827 0 1.5.673 1.5 1.5s-.673 1.5-1.5 1.5-1.5-.673-1.5-1.5.673-1.5 1.5-1.5zm-10 13c-.827 0-1.5-.673-1.5-1.5s.673-1.5 1.5-1.5 1.5.673 1.5 1.5-.673 1.5-1.5 1.5z"/></svg>