<?xml version="1.0" encoding="utf-8"?>
<!-- Generator: Adobe Illustrator 19.1.0, SVG Export Plug-In . SVG Version: 6.00 Build 0)  -->
<svg version="1.1" id="Icon" xmlns="http://www.w3.org/2000/svg" xmlns:xlink="http://www.w3.org/1999/xlink" x="0px" y="0px"
	 width="24px" height="24px" viewBox="0 0 24 24" enable-background="new 0 0 24 24" xml:space="preserve">
<path d="M18,14c-1.862,0-3.413,1.278-3.859,3H9.859c-0.098-0.379-0.248-0.734-0.446-1.06l6.527-6.527C16.543,9.778,17.243,10,18,10
	c2.209,0,4-1.791,4-4c0-2.209-1.791-4-4-4c-1.862,0-3.412,1.278-3.859,3H9.859C9.413,3.278,7.862,2,6,2C3.791,2,2,3.791,2,6
	c0,2.209,1.791,4,4,4c1.862,0,3.412-1.278,3.859-3h4.283c0.091,0.349,0.228,0.677,0.404,0.982l-6.509,6.592
	C7.438,14.218,6.747,14,6,14c-2.209,0-4,1.791-4,4c0,2.209,1.791,4,4,4c1.862,0,3.412-1.278,3.859-3h4.283
	c0.446,1.722,1.997,3,3.859,3c2.209,0,4-1.791,4-4C22,15.791,20.209,14,18,14z M6,8C4.897,8,4,7.103,4,6c0-1.103,0.897-2,2-2
	c1.103,0,2,0.897,2,2C8,7.103,7.103,8,6,8z M18,4c1.103,0,2,0.897,2,2c0,1.103-0.897,2-2,2c-1.103,0-2-0.897-2-2
	C16,4.897,16.897,4,18,4z M6,20c-1.103,0-2-0.897-2-2c0-1.103,0.897-2,2-2c1.103,0,2,0.897,2,2C8,19.103,7.103,20,6,20z"/>
</svg>
