<svg xmlns="http://www.w3.org/2000/svg" viewBox="0 0 32 32"><path d="M24 19c-2.42 0-4.436 1.718-4.9 4h-6.2c-.13-.638-.384-1.23-.73-1.754l9.077-9.077c.79.522 1.734.83 2.753.83 2.762 0 5-2.238 5-5s-2.238-5-5-5c-2.42 0-4.436 1.718-4.9 4h-6.2c-.465-2.282-2.48-4-4.9-4-2.762 0-5 2.238-5 5s2.238 5 5 5c2.42 0 4.435-1.718 4.9-4h6.2c.13.638.384 1.23.73 1.754l-9.077 9.077C9.963 19.31 9.02 19 8 19c-2.762 0-5 2.238-5 5s2.238 5 5 5c2.42 0 4.435-1.718 4.9-4h6.2c.464 2.282 2.48 4 4.9 4 2.76 0 5-2.238 5-5s-2.238-5-5-5zm0-14c1.657 0 3 1.343 3 3s-1.343 3-3 3-3-1.343-3-3 1.343-3 3-3zM8 11c-1.657 0-3-1.343-3-3s1.343-3 3-3 3 1.343 3 3-1.343 3-3 3zm0 16c-1.657 0-3-1.343-3-3s1.343-3 3-3 3 1.343 3 3-1.343 3-3 3z"/></svg>