<?xml version="1.0" encoding="utf-8"?>
<!-- Generator: Adobe Illustrator 17.1.0, SVG Export Plug-In . SVG Version: 6.00 Build 0)  -->
<!DOCTYPE svg PUBLIC "-//W3C//DTD SVG 1.1//EN" "http://www.w3.org/Graphics/SVG/1.1/DTD/svg11.dtd">
<svg version="1.1" id="Layer_1" xmlns="http://www.w3.org/2000/svg" xmlns:xlink="http://www.w3.org/1999/xlink" x="0px" y="0px"
	 width="32px" height="32px" viewBox="0 0 32 32" enable-background="new 0 0 32 32" xml:space="preserve">
<g>
	<g>
		<g>
			<path d="M24,19c-2.419,0-4.435,1.718-4.899,4h-6.201c-0.13-0.638-0.384-1.23-0.731-1.754l9.078-9.077
				C22.036,12.692,22.981,13,24,13c2.762,0,5-2.238,5-5s-2.238-5-5-5c-2.419,0-4.435,1.718-4.899,4h-6.201
				C12.436,4.718,10.419,3,8,3C5.238,3,3,5.238,3,8s2.238,5,5,5c2.419,0,4.436-1.718,4.899-4h6.201
				c0.13,0.638,0.384,1.23,0.731,1.754l-9.078,9.077C9.964,19.308,9.019,19,8,19c-2.762,0-5,2.238-5,5s2.238,5,5,5
				c2.419,0,4.436-1.718,4.899-4h6.201c0.464,2.282,2.481,4,4.899,4c2.762,0,5-2.238,5-5S26.762,19,24,19z M24,5
				c1.657,0,3,1.343,3,3s-1.343,3-3,3s-3-1.343-3-3S22.343,5,24,5z M8,11c-1.657,0-3-1.343-3-3s1.343-3,3-3s3,1.343,3,3
				S9.657,11,8,11z M8,27c-1.657,0-3-1.343-3-3s1.343-3,3-3s3,1.343,3,3S9.657,27,8,27z"/>
		</g>
	</g>
</g>
</svg>
