<svg xmlns="http://www.w3.org/2000/svg" viewBox="0 0 128 128"><path d="M96 76c-10.37 0-18.895 7.893-19.898 18H51.898c-.398-4.022-1.99-7.692-4.414-10.655l35.86-35.86C86.793 50.304 91.196 52 96 52c11.047 0 20-8.953 20-20s-8.953-20-20-20c-10.37 0-18.895 7.893-19.898 18H51.898C50.894 19.893 42.37 12 32 12c-11.047 0-20 8.953-20 20s8.953 20 20 20c10.37 0 18.894-7.893 19.898-18H76.1c.4 4.022 1.99 7.692 4.415 10.655l-35.86 35.862C41.208 77.695 36.804 76 32 76c-11.047 0-20 8.953-20 20s8.953 20 20 20c10.37 0 18.894-7.893 19.898-18H76.1c1.005 10.107 9.528 18 19.9 18 11.046 0 20-8.953 20-20s-8.953-20-20-20zM32 48c-8.836 0-16-7.164-16-16s7.164-16 16-16 16 7.164 16 16-7.164 16-16 16zm48-16c0-8.836 7.164-16 16-16s16 7.164 16 16-7.164 16-16 16-16-7.164-16-16zm-48 80c-8.836 0-16-7.164-16-16s7.164-16 16-16 16 7.164 16 16-7.164 16-16 16z"/></svg>