<svg xmlns="http://www.w3.org/2000/svg" viewBox="0 0 64 64"><path d="M48 38c-5.186 0-9.447 3.946-9.95 9h-12.1c-.2-2.01-.996-3.846-2.208-5.328l17.93-17.93C43.396 25.15 45.6 26 48 26c5.523 0 10-4.477 10-10S53.523 6 48 6c-5.186 0-9.447 3.946-9.95 9h-12.1c-.503-5.054-4.765-9-9.95-9-5.523 0-10 4.477-10 10s4.477 10 10 10c5.185 0 9.447-3.946 9.95-9h12.1c.2 2.01.996 3.846 2.208 5.328l-17.93 17.93C20.603 38.85 18.4 38 16 38c-5.523 0-10 4.477-10 10s4.477 10 10 10c5.185 0 9.447-3.946 9.95-9h12.1c.503 5.054 4.765 9 9.95 9 5.523 0 10-4.477 10-10s-4.477-10-10-10zM16 24c-4.418 0-8-3.582-8-8s3.582-8 8-8 8 3.582 8 8-3.582 8-8 8zm24-8c0-4.418 3.582-8 8-8s8 3.582 8 8-3.582 8-8 8-8-3.582-8-8zM16 56c-4.418 0-8-3.582-8-8s3.582-8 8-8 8 3.582 8 8-3.582 8-8 8z"/></svg>