<svg xmlns="http://www.w3.org/2000/svg" viewBox="0 0 24 24"><path d="M18 14c-1.862 0-3.413 1.278-3.86 3H9.86c-.1-.38-.25-.734-.447-1.06l6.527-6.527c.603.365 1.303.587 2.06.587 2.21 0 4-1.79 4-4s-1.79-4-4-4c-1.862 0-3.412 1.278-3.86 3H9.86C9.412 3.278 7.86 2 6 2 3.79 2 2 3.79 2 6s1.79 4 4 4c1.862 0 3.412-1.278 3.86-3h4.282c.09.35.228.677.404.982l-6.51 6.592C7.44 14.218 6.747 14 6 14c-2.21 0-4 1.79-4 4s1.79 4 4 4c1.862 0 3.412-1.278 3.86-3h4.282c.446 1.722 1.997 3 3.86 3 2.208 0 4-1.79 4-4C22 15.79 20.208 14 18 14zM6 8c-1.103 0-2-.897-2-2s.897-2 2-2 2 .897 2 2-.897 2-2 2zm12-4c1.103 0 2 .897 2 2s-.897 2-2 2-2-.897-2-2 .897-2 2-2zM6 20c-1.103 0-2-.897-2-2s.897-2 2-2 2 .897 2 2-.897 2-2 2z"/></svg>