<?xml version="1.0" encoding="utf-8"?>
<!-- Generator: Adobe Illustrator 17.1.0, SVG Export Plug-In . SVG Version: 6.00 Build 0)  -->
<!DOCTYPE svg PUBLIC "-//W3C//DTD SVG 1.1//EN" "http://www.w3.org/Graphics/SVG/1.1/DTD/svg11.dtd">
<svg version="1.1" id="Layer_1" xmlns="http://www.w3.org/2000/svg" xmlns:xlink="http://www.w3.org/1999/xlink" x="0px" y="0px"
	 width="32px" height="32px" viewBox="0 0 32 32" enable-background="new 0 0 32 32" xml:space="preserve">
<g>
	<g>
		<path d="M27.484,4.515C25.313,2.343,22.313,1,19,1s-6.314,1.343-8.484,3.515C8.344,6.687,7,9.686,7,13
			c0,1.045,0.148,2.054,0.398,3.02C7.267,16.011,7.135,16,7,16c-1.656,0-3.156,0.672-4.242,1.758C1.672,18.843,1,20.343,1,22
			c0,1.754,0.672,3.343,1.758,4.492L7,31v-3c1.656,0,3.156-0.672,4.242-1.758c0.795-0.794,1.363-1.812,1.614-2.948
			C14.654,24.37,16.752,25,19,25v6l8.484-9.016C29.656,19.685,31,16.508,31,13C31,9.686,29.656,6.687,27.484,4.515z M26.027,20.613
			L21,25.956V25v-2h-2c-2.24,0-4.361-0.74-6.104-2.09c-0.225-1.219-0.812-2.311-1.654-3.152c-0.451-0.451-0.977-0.825-1.552-1.115
			C9.242,15.497,9,14.268,9,13c0-2.671,1.041-5.182,2.93-7.071S16.329,3,19,3s5.182,1.04,7.07,2.93C27.959,7.818,29,10.329,29,13
			C29,15.881,27.945,18.583,26.027,20.613z"/>
	</g>
	<g>
		<circle cx="19" cy="13" r="1.5"/>
	</g>
	<g>
		<circle cx="24" cy="13" r="1.5"/>
	</g>
	<g>
		<circle cx="14" cy="13" r="1.5"/>
	</g>
</g>
</svg>
