<svg xmlns="http://www.w3.org/2000/svg" viewBox="0 0 32 32"><path d="M27.484 4.515C25.314 2.343 22.314 1 19 1s-6.314 1.343-8.484 3.515C8.344 6.687 7 9.685 7 13c0 1.045.148 2.054.398 3.02-.13-.01-.263-.02-.398-.02-1.656 0-3.156.672-4.242 1.758C1.672 18.843 1 20.343 1 22c0 1.754.672 3.343 1.758 4.492L7 31v-3c1.656 0 3.156-.672 4.242-1.758.795-.794 1.363-1.812 1.614-2.948C14.654 24.37 16.752 25 19 25v6l8.484-9.016C29.656 19.684 31 16.508 31 13c0-3.314-1.344-6.313-3.516-8.485zm-1.457 16.098L21 25.956V23h-2c-2.24 0-4.36-.74-6.104-2.09-.225-1.22-.812-2.31-1.654-3.152-.45-.45-.977-.825-1.552-1.115C9.242 15.497 9 14.268 9 13c0-2.67 1.04-5.182 2.93-7.07C13.818 4.04 16.33 3 19 3s5.182 1.04 7.07 2.93C27.96 7.818 29 10.33 29 13c0 2.88-1.055 5.583-2.973 7.613z"/><circle cx="19" cy="13" r="1.5"/><circle cx="24" cy="13" r="1.5"/><circle cx="14" cy="13" r="1.5"/></svg>