<?xml version="1.0" encoding="iso-8859-1"?>
<!-- Generator: Adobe Illustrator 20.0.0, SVG Export Plug-In . SVG Version: 6.00 Build 0)  -->
<svg version="1.1" id="Layer_1" xmlns="http://www.w3.org/2000/svg" xmlns:xlink="http://www.w3.org/1999/xlink" x="0px" y="0px"
	 viewBox="0 0 16 16" style="enable-background:new 0 0 16 16;" xml:space="preserve">
<path d="M14.096,1.904C12.827,0.635,11.163,0,9.5,0C7.837,0,6.173,0.635,4.904,1.904C3.728,3.079,3.105,4.593,3.018,6.131
	C2.334,6.3,1.683,6.637,1.149,7.172c-1.562,1.562-1.502,4.036,0,5.657C1.931,13.672,3.977,16,3.977,16c0,0,0-2,0-2
	c1.023,0,2.047-0.39,2.828-1.171c0,0,0,0,0,0l0,0c0.1-0.1,0.175-0.214,0.262-0.321C7.691,12.758,8.34,12.925,9,12.976V16
	l5.096-4.904C16.635,8.558,16.635,4.442,14.096,1.904z M12.682,9.682C11.832,10.532,10.702,11,9.5,11c-0.553,0-1.087-0.11-1.59-0.3
	c0.22-1.243-0.144-2.568-1.104-3.528C6.297,6.663,5.681,6.337,5.033,6.16C5.114,5.088,5.55,4.086,6.318,3.318
	C7.168,2.468,8.298,2,9.5,2c1.202,0,2.332,0.468,3.182,1.318C13.532,4.168,14,5.298,14,6.5C14,7.702,13.532,8.832,12.682,9.682z"/>
</svg>
