<svg xmlns="http://www.w3.org/2000/svg" viewBox="0 0 24 24"><path d="M20.363 3.578C18.735 1.985 16.485 1 14 1s-4.735.985-6.363 2.578C6.007 5.17 5 7.57 5 10c0 .372.03.73.077 1.082-1.02.17-1.938.638-2.64 1.324C1.55 13.274 1 14.584 1 15.91c0 1.402.55 2.564 1.438 3.484L6 23v-2.4c1.356 0 2.492-.537 3.38-1.406.37-.36.662-.77.9-1.208C11.413 18.596 12.67 19 14 19v4l6.363-6.61C21.993 14.702 23 12.57 23 10c0-2.43-1.008-4.83-2.637-6.422zm-1.44 11.424L16 18.038V17h-2c-1.13 0-2.23-.26-3.218-.746.01-.116.036-.224.036-.345 0-1.326-.55-2.636-1.438-3.504-.618-.605-1.407-1.034-2.284-1.25C7.036 10.77 7 10.382 7 10c0-1.852.78-3.765 2.035-4.992C10.36 3.713 12.122 3 14 3s3.64.713 4.965 2.008C20.22 6.235 21 8.148 21 10c0 1.892-.698 3.574-2.078 5.002z"/></svg>