<?xml version="1.0" encoding="utf-8"?>
<!-- Generator: Adobe Illustrator 17.1.0, SVG Export Plug-In . SVG Version: 6.00 Build 0)  -->
<!DOCTYPE svg PUBLIC "-//W3C//DTD SVG 1.1//EN" "http://www.w3.org/Graphics/SVG/1.1/DTD/svg11.dtd">
<svg version="1.1" id="Layer_1" xmlns="http://www.w3.org/2000/svg" xmlns:xlink="http://www.w3.org/1999/xlink" x="0px" y="0px"
	 width="64px" height="64px" viewBox="0 0 64 64" enable-background="new 0 0 64 64" xml:space="preserve">
<g>
	<g>
		<path d="M54.969,9.03C50.627,4.687,44.627,2,38,2S25.373,4.687,21.031,9.03C16.688,13.373,14,19.373,14,26
			c0,2.086,0.268,4.109,0.768,6.039C14.513,32.022,14.259,32,14,32c-3.312,0-6.312,1.344-8.484,3.516C3.344,37.687,2,40.687,2,44
			c0,3.508,1.344,6.686,3.516,8.984L14,62v-6c3.312,0,6.312-1.344,8.484-3.516c1.583-1.583,2.719-3.609,3.222-5.873
			C29.303,48.762,33.506,50,38,50v12l16.969-18.032C59.312,39.37,62,33.017,62,26C62,19.373,59.312,13.373,54.969,9.03z
			 M53.512,42.597L40,56.956V50v-2h-2c-4.337,0-8.478-1.254-12.021-3.578C25.983,44.281,26,44.143,26,44
			c0-3.313-1.344-6.313-3.516-8.484c-1.507-1.507-3.417-2.601-5.549-3.139C16.32,30.335,16,28.192,16,26
			c0-5.875,2.289-11.4,6.445-15.556C26.6,6.289,32.123,4,38,4s11.4,2.289,15.555,6.445C57.711,14.6,60,20.125,60,26
			C60,32.274,57.697,38.168,53.512,42.597z"/>
	</g>
	<g>
		<circle cx="38" cy="26" r="3"/>
	</g>
	<g>
		<circle cx="48" cy="26" r="3"/>
	</g>
	<g>
		<circle cx="28" cy="26" r="3"/>
	</g>
</g>
</svg>
