<svg xmlns="http://www.w3.org/2000/svg" viewBox="0 0 128 128"><path d="M109.937 18.06C101.254 9.373 89.254 4 76 4 62.746 4 50.746 9.373 42.062 18.06 33.375 26.746 28 38.746 28 52c0 4.163.53 8.202 1.528 12.054C29.022 64.02 28.514 64 28 64c-6.625 0-12.625 2.688-16.97 7.03C6.688 75.374 4 81.374 4 88c0 7.016 2.687 13.37 7.03 17.97L28 124v-12c6.625 0 12.625-2.688 16.97-7.03 3.165-3.166 5.445-7.214 6.452-11.742C58.612 97.525 67.016 100 76 100v24l33.937-36.064C118.625 78.74 124 66.033 124 52c0-13.254-5.375-25.254-14.063-33.94zm-2.913 67.134L80 113.914V96h-4c-8.663 0-16.94-2.495-24.02-7.13.008-.29.02-.58.02-.87 0-6.627-2.688-12.627-7.03-16.97-3.02-3.017-6.837-5.232-11.108-6.306C32.637 60.65 32 56.374 32 52c0-11.75 4.578-22.8 12.892-31.112C53.2 12.578 64.247 8 76 8s22.8 4.577 31.11 12.89C115.42 29.2 120 40.25 120 52c0 12.55-4.606 24.336-12.976 33.194z"/><circle cx="76" cy="52" r="6"/><circle cx="96" cy="52" r="6"/><circle cx="56" cy="52" r="6"/></svg>