<?xml version="1.0" encoding="utf-8"?>
<!-- Generator: Adobe Illustrator 19.1.0, SVG Export Plug-In . SVG Version: 6.00 Build 0)  -->
<svg version="1.1" id="Icon" xmlns="http://www.w3.org/2000/svg" xmlns:xlink="http://www.w3.org/1999/xlink" x="0px" y="0px"
	 width="16px" height="16px" viewBox="0 0 16 16" enable-background="new 0 0 16 16" xml:space="preserve">
<path d="M6.806,7.172c1.562,1.562,1.562,4.095,0,5.657l0,0c0,0,0,0,0,0C6.024,13.61,5.001,14,3.978,14c0,0,0,2,0,2
	c0,0-2.047-2.328-2.828-3.172c-1.502-1.62-1.562-4.095,0-5.657S5.244,5.61,6.806,7.172z"/>
<path d="M14.096,1.904C12.827,0.635,11.164,0,9.5,0C7.837,0,6.173,0.635,4.904,1.904c-2.538,2.538-2.538,6.654,0,9.192
	c1.142,1.142,2.603,1.765,4.096,1.88V16l5.096-4.904C16.635,8.558,16.635,4.442,14.096,1.904z M5,6.5
	c0-1.202,0.468-2.332,1.318-3.182C7.168,2.468,8.298,2,9.5,2c1.202,0,2.332,0.468,3.182,1.318C13.532,4.168,14,5.298,14,6.5
	c0,1.202-0.468,2.332-1.318,3.182C11.832,10.532,10.702,11,9.5,11c-1.202,0-2.332-0.468-3.182-1.318C5.468,8.832,5,7.702,5,6.5z"/>
</svg>
