<?xml version="1.0" encoding="utf-8"?>
<!-- Generator: Adobe Illustrator 19.1.0, SVG Export Plug-In . SVG Version: 6.00 Build 0)  -->
<svg version="1.1" id="Icon" xmlns="http://www.w3.org/2000/svg" xmlns:xlink="http://www.w3.org/1999/xlink" x="0px" y="0px"
	 width="24px" height="24px" viewBox="0 0 24 24" enable-background="new 0 0 24 24" xml:space="preserve">
<g>
	<path d="M20.363,3.578C18.735,1.985,16.485,1,14,1S9.265,1.985,7.637,3.578C6.008,5.17,5,7.57,5,10c0,0.372,0.031,0.73,0.077,1.082
		c-1.021,0.171-1.938,0.638-2.639,1.324C1.55,13.274,1,14.584,1,15.909c0,1.403,0.55,2.565,1.438,3.485L6,23v-2.4
		c1.356,0,2.492-0.537,3.38-1.406c0.369-0.361,0.662-0.77,0.899-1.208C11.414,18.597,12.671,19,14,19v4l6.363-6.611
		C21.992,14.703,23,12.572,23,10C23,7.57,21.992,5.17,20.363,3.578z M18.922,15.002L16,18.038V17h-2
		c-1.131,0-2.231-0.26-3.218-0.746c0.009-0.116,0.036-0.224,0.036-0.345c0-1.325-0.55-2.635-1.438-3.503
		c-0.618-0.605-1.407-1.034-2.284-1.249C7.036,10.769,7,10.381,7,10c0-1.852,0.78-3.765,2.035-4.992C10.359,3.713,12.122,3,14,3
		s3.641,0.713,4.965,2.008C20.22,6.235,21,8.148,21,10C21,11.892,20.302,13.574,18.922,15.002z"/>
</g>
</svg>
