<svg xmlns="http://www.w3.org/2000/svg" viewBox="0 0 16 16"><path d="M14.096 1.904C12.826.634 11.163 0 9.5 0 7.837 0 6.173.635 4.904 1.904c-1.176 1.175-1.8 2.69-1.886 4.227-.684.17-1.335.507-1.87 1.042-1.56 1.562-1.5 4.036 0 5.657.783.842 2.83 3.17 2.83 3.17v-2c1.022 0 2.046-.39 2.827-1.17.1-.1.175-.215.262-.322.624.25 1.273.417 1.933.468V16l5.096-4.904c2.54-2.538 2.54-6.654 0-9.192zm-1.414 7.778c-.85.85-1.98 1.318-3.182 1.318-.553 0-1.087-.11-1.59-.3.22-1.243-.144-2.568-1.104-3.528-.51-.51-1.125-.835-1.773-1.012.08-1.072.517-2.074 1.285-2.842C7.168 2.468 8.298 2 9.5 2s2.332.468 3.182 1.318C13.532 4.168 14 5.298 14 6.5s-.468 2.332-1.318 3.182z"/></svg>