<svg xmlns="http://www.w3.org/2000/svg" viewBox="0 0 64 64"><path d="M54.97 9.03C50.626 4.687 44.626 2 38 2S25.373 4.687 21.03 9.03C16.688 13.373 14 19.373 14 26c0 2.086.268 4.11.768 6.04-.255-.018-.51-.04-.768-.04-3.313 0-6.313 1.344-8.484 3.516C3.344 37.686 2 40.686 2 44c0 3.508 1.344 6.686 3.516 8.984L14 62v-6c3.312 0 6.312-1.344 8.484-3.516 1.583-1.583 2.72-3.61 3.222-5.873C29.303 48.763 33.506 50 38 50v12l16.97-18.032C59.31 39.37 62 33.018 62 26c0-6.627-2.688-12.627-7.03-16.97zM53.51 42.597L40 56.957V48h-2c-4.337 0-8.478-1.254-12.02-3.578.003-.14.02-.28.02-.422 0-3.313-1.344-6.313-3.516-8.484-1.507-1.507-3.417-2.6-5.55-3.14C16.32 30.337 16 28.193 16 26c0-5.875 2.29-11.4 6.445-15.556C26.6 6.29 32.123 4 38 4s11.4 2.29 15.555 6.445C57.71 14.6 60 20.125 60 26c0 6.274-2.303 12.168-6.488 16.597z"/><circle cx="38" cy="26" r="3"/><circle cx="48" cy="26" r="3"/><circle cx="28" cy="26" r="3"/></svg>