<?xml version="1.0" encoding="iso-8859-1"?>
<!-- Generator: Adobe Illustrator 20.0.0, SVG Export Plug-In . SVG Version: 6.00 Build 0)  -->
<svg version="1.1" id="Layer_1" xmlns="http://www.w3.org/2000/svg" xmlns:xlink="http://www.w3.org/1999/xlink" x="0px" y="0px"
	 viewBox="0 0 32 32" style="enable-background:new 0 0 32 32;" xml:space="preserve">
<path d="M31,15.5h-1.09c-0.478-2.836-2.941-5-5.91-5c-1.176,0-2.27,0.344-3.196,0.93l-0.136-0.136C19.378,10.137,17.721,9.5,16,9.5
	c-1.721,0-3.378,0.637-4.707,1.831l-0.098,0.098C10.269,10.844,9.176,10.5,8,10.5c-2.97,0-5.433,2.164-5.91,5H1v2h1.09
	c0.478,2.836,2.941,5,5.91,5c3.31,0,6-2.687,6-6c0-1.413-0.492-2.709-1.31-3.734C13.609,11.951,14.783,11.5,16,11.5
	c1.227,0,2.41,0.455,3.293,1.245l0.018,0.019C18.492,13.789,18,15.086,18,16.5c0,3.313,2.689,6,6,6c2.97,0,5.433-2.164,5.91-5H31
	V15.5z M8,20.5c-2.205,0-4-1.795-4-4s1.795-4,4-4c2.205,0,4,1.795,4,4S10.205,20.5,8,20.5z M24,20.5c-2.205,0-4-1.795-4-4
	s1.795-4,4-4c2.205,0,4,1.795,4,4S26.205,20.5,24,20.5z"/>
</svg>
