<?xml version="1.0" encoding="utf-8"?>
<!-- Generator: Adobe Illustrator 19.1.0, SVG Export Plug-In . SVG Version: 6.00 Build 0)  -->
<svg version="1.1" id="Icon" xmlns="http://www.w3.org/2000/svg" xmlns:xlink="http://www.w3.org/1999/xlink" x="0px" y="0px"
	 width="16px" height="16px" viewBox="0 0 16 16" enable-background="new 0 0 16 16" xml:space="preserve">
<path d="M12.5,5c-1.274,0-2.378,0.688-2.99,1.706C9.076,6.419,8.558,6.25,8,6.25S6.924,6.419,6.49,6.706C5.878,5.688,4.774,5,3.5,5
	C1.567,5,0,6.567,0,8.5S1.567,12,3.5,12S7,10.433,7,8.5c0-0.063-0.015-0.121-0.018-0.184C7.206,7.983,7.568,7.75,8,7.75
	c0.431,0,0.794,0.233,1.018,0.566C9.015,8.379,9,8.437,9,8.5c0,1.933,1.567,3.5,3.5,3.5S16,10.433,16,8.5S14.433,5,12.5,5z
	 M4.959,9.859C4.907,9.914,4.85,9.964,4.793,10.013c-0.035,0.03-0.069,0.06-0.106,0.087c-0.051,0.038-0.104,0.072-0.158,0.105
	c-0.052,0.032-0.106,0.061-0.161,0.088c-0.049,0.024-0.097,0.047-0.148,0.067c-0.071,0.028-0.145,0.049-0.22,0.068
	c-0.042,0.011-0.083,0.025-0.126,0.033C3.752,10.485,3.628,10.5,3.5,10.5c-1.103,0-2-0.897-2-2s0.897-2,2-2
	c0.128,0,0.253,0.015,0.375,0.038C3.918,6.546,3.958,6.56,4,6.571c0.076,0.02,0.151,0.041,0.223,0.069
	c0.05,0.02,0.097,0.043,0.145,0.066c0.058,0.028,0.114,0.058,0.168,0.091C4.589,6.83,4.639,6.864,4.688,6.9
	c0.041,0.031,0.08,0.064,0.119,0.098C4.86,7.045,4.912,7.091,4.96,7.143c0.023,0.025,0.043,0.052,0.064,0.078
	c0.194,0.231,0.338,0.503,0.412,0.805v0l0,0C5.474,8.178,5.5,8.336,5.5,8.5c0,0.509-0.197,0.968-0.511,1.322
	C4.979,9.834,4.97,9.847,4.959,9.859z M12.5,10.5c-0.128,0-0.252-0.015-0.373-0.038c-0.043-0.008-0.084-0.022-0.126-0.033
	c-0.075-0.02-0.149-0.041-0.22-0.068c-0.051-0.02-0.099-0.043-0.148-0.067c-0.055-0.027-0.109-0.056-0.161-0.088
	c-0.055-0.033-0.107-0.068-0.158-0.105c-0.037-0.028-0.071-0.058-0.106-0.088c-0.058-0.049-0.114-0.099-0.166-0.154
	c-0.011-0.012-0.02-0.026-0.031-0.038C10.697,9.468,10.5,9.008,10.5,8.5c0-0.164,0.026-0.322,0.063-0.475v0
	c0.074-0.302,0.218-0.573,0.412-0.804c0.022-0.026,0.042-0.054,0.065-0.079c0.048-0.051,0.1-0.098,0.153-0.144
	c0.039-0.034,0.078-0.068,0.12-0.099c0.049-0.036,0.099-0.07,0.151-0.102c0.054-0.034,0.11-0.063,0.168-0.091
	c0.048-0.023,0.095-0.047,0.145-0.066C11.849,6.612,11.924,6.591,12,6.571c0.042-0.011,0.082-0.025,0.125-0.033
	C12.247,6.515,12.372,6.5,12.5,6.5c1.103,0,2,0.897,2,2S13.603,10.5,12.5,10.5z"/>
</svg>
