<?xml version="1.0" encoding="utf-8"?>
<!-- Generator: Adobe Illustrator 17.1.0, SVG Export Plug-In . SVG Version: 6.00 Build 0)  -->
<!DOCTYPE svg PUBLIC "-//W3C//DTD SVG 1.1//EN" "http://www.w3.org/Graphics/SVG/1.1/DTD/svg11.dtd">
<svg version="1.1" id="Layer_1" xmlns="http://www.w3.org/2000/svg" xmlns:xlink="http://www.w3.org/1999/xlink" x="0px" y="0px"
	 width="32px" height="32px" viewBox="0 0 32 32" enable-background="new 0 0 32 32" xml:space="preserve">
<path d="M31,15h-1.09c-0.478-2.836-2.941-5-5.91-5c-1.176,0-2.27,0.344-3.196,0.93l-0.136-0.136C19.378,9.637,17.721,9,16,9
	s-3.378,0.637-4.707,1.831l-0.098,0.098C10.269,10.344,9.176,10,8,10c-2.97,0-5.433,2.164-5.91,5H1v2h1.09
	C2.567,19.836,5.03,22,8,22c3.311,0,6-2.687,6-6c0-1.413-0.492-2.709-1.31-3.734C13.609,11.451,14.783,11,16,11
	c1.227,0,2.41,0.455,3.293,1.245l0.019,0.019C18.492,13.289,18,14.586,18,16c0,3.313,2.69,6,6,6c2.97,0,5.433-2.164,5.91-5H31V15z
	 M8,20c-2.205,0-4-1.795-4-4s1.795-4,4-4s4,1.795,4,4S10.205,20,8,20z M24,20c-2.205,0-4-1.795-4-4s1.795-4,4-4s4,1.795,4,4
	S26.205,20,24,20z"/>
</svg>
