<svg xmlns="http://www.w3.org/2000/svg" viewBox="0 0 24 24"><path d="M23 10.5h-1.276c-.62-1.744-2.268-3-4.224-3-1.698 0-3.16.952-3.925 2.34-.483-.212-1.012-.34-1.575-.34s-1.092.128-1.575.34C9.66 8.452 8.198 7.5 6.5 7.5c-1.956 0-3.605 1.256-4.224 3H1v2h1.05c.252 2.247 2.136 4 4.45 4 2.485 0 4.5-2.015 4.5-4.5 0-.073-.018-.14-.02-.212.297-.18.645-.288 1.02-.288s.723.107 1.02.288c-.002.072-.02.14-.02.212 0 2.485 2.015 4.5 4.5 4.5 2.314 0 4.198-1.753 4.45-4H23v-2zm-16.5 4C5.122 14.5 4 13.378 4 12c0-1.38 1.122-2.5 2.5-2.5C7.88 9.5 9 10.62 9 12c0 1.378-1.12 2.5-2.5 2.5zm11 0c-1.378 0-2.5-1.122-2.5-2.5 0-1.38 1.122-2.5 2.5-2.5 1.38 0 2.5 1.12 2.5 2.5 0 1.378-1.12 2.5-2.5 2.5z"/></svg>