<?xml version="1.0" encoding="utf-8"?>
<!-- Generator: Adobe Illustrator 17.1.0, SVG Export Plug-In . SVG Version: 6.00 Build 0)  -->
<!DOCTYPE svg PUBLIC "-//W3C//DTD SVG 1.1//EN" "http://www.w3.org/Graphics/SVG/1.1/DTD/svg11.dtd">
<svg version="1.1" id="Layer_1" xmlns="http://www.w3.org/2000/svg" xmlns:xlink="http://www.w3.org/1999/xlink" x="0px" y="0px"
	 width="64px" height="64px" viewBox="0 0 64 64" enable-background="new 0 0 64 64" xml:space="preserve">
<path d="M62,30h-2.18C58.865,24.327,53.938,20,48,20c-2.713,0-5.21,0.913-7.221,2.435l-0.111-0.103C38.272,20.184,35.194,19,32,19
	s-6.272,1.184-8.679,3.342l-0.101,0.093C21.21,20.913,18.713,20,16,20c-5.939,0-10.865,4.327-11.82,10H2v4h2.18
	C5.135,39.673,10.061,44,16,44c6.621,0,12-5.373,12-12c0-3.185-1.252-6.074-3.279-8.223C26.741,21.987,29.321,21,32,21
	c2.684,0,5.269,0.99,7.279,2.776C37.252,25.925,36,28.813,36,32c0,6.627,5.379,12,12,12c5.938,0,10.865-4.327,11.82-10H62V30z
	 M16,40c-4.411,0-8-3.589-8-8s3.589-8,8-8s8,3.589,8,8S20.411,40,16,40z M48,40c-4.411,0-8-3.589-8-8s3.589-8,8-8s8,3.589,8,8
	S52.411,40,48,40z"/>
</svg>
