<svg xmlns="http://www.w3.org/2000/svg" viewBox="0 0 32 32"><path d="M31 15.5h-1.09c-.478-2.836-2.94-5-5.91-5-1.176 0-2.27.344-3.196.93l-.136-.136C19.378 10.137 17.72 9.5 16 9.5c-1.72 0-3.378.637-4.707 1.83l-.098.1c-.926-.586-2.02-.93-3.195-.93-2.97 0-5.433 2.164-5.91 5H1v2h1.09c.478 2.836 2.94 5 5.91 5 3.31 0 6-2.687 6-6 0-1.413-.492-2.71-1.31-3.734.92-.815 2.093-1.266 3.31-1.266 1.227 0 2.41.455 3.293 1.245l.018.02C18.493 13.788 18 15.084 18 16.5c0 3.313 2.69 6 6 6 2.97 0 5.433-2.164 5.91-5H31v-2zm-23 5c-2.205 0-4-1.795-4-4s1.795-4 4-4 4 1.795 4 4-1.795 4-4 4zm16 0c-2.205 0-4-1.795-4-4s1.795-4 4-4 4 1.795 4 4-1.795 4-4 4z"/></svg>