<?xml version="1.0" encoding="iso-8859-1"?>
<!-- Generator: Adobe Illustrator 20.0.0, SVG Export Plug-In . SVG Version: 6.00 Build 0)  -->
<svg version="1.1" id="Layer_1" xmlns="http://www.w3.org/2000/svg" xmlns:xlink="http://www.w3.org/1999/xlink" x="0px" y="0px"
	 viewBox="0 0 24 24" style="enable-background:new 0 0 24 24;" xml:space="preserve">
<path d="M23,10.5h-1.276c-0.62-1.744-2.268-3-4.224-3c-1.698,0-3.159,0.952-3.925,2.34C13.092,9.628,12.563,9.5,12,9.5
	s-1.092,0.128-1.575,0.34C9.659,8.452,8.198,7.5,6.5,7.5c-1.956,0-3.605,1.256-4.224,3H1v2h1.05c0.252,2.247,2.136,4,4.45,4
	c2.485,0,4.5-2.015,4.5-4.5c0-0.073-0.018-0.14-0.021-0.212C11.277,11.607,11.625,11.5,12,11.5c0.375,0,0.723,0.107,1.021,0.288
	C13.018,11.86,13,11.927,13,12c0,2.485,2.015,4.5,4.5,4.5c2.314,0,4.198-1.753,4.45-4H23V10.5z M6.5,14.5C5.122,14.5,4,13.378,4,12
	c0-1.379,1.122-2.5,2.5-2.5C7.879,9.5,9,10.621,9,12C9,13.378,7.879,14.5,6.5,14.5z M17.5,14.5c-1.378,0-2.5-1.122-2.5-2.5
	c0-1.379,1.122-2.5,2.5-2.5c1.379,0,2.5,1.121,2.5,2.5C20,13.378,18.879,14.5,17.5,14.5z"/>
</svg>
