<?xml version="1.0" encoding="iso-8859-1"?>
<!-- Generator: Adobe Illustrator 20.0.0, SVG Export Plug-In . SVG Version: 6.00 Build 0)  -->
<svg version="1.1" id="Layer_1" xmlns="http://www.w3.org/2000/svg" xmlns:xlink="http://www.w3.org/1999/xlink" x="0px" y="0px"
	 viewBox="0 0 64 64" style="enable-background:new 0 0 64 64;" xml:space="preserve">
<path d="M62,30.5h-2.18c-0.955-5.673-5.882-10-11.82-10c-2.713,0-5.21,0.913-7.221,2.435l-0.111-0.103
	C38.272,20.684,35.194,19.5,32,19.5c-3.194,0-6.273,1.184-8.679,3.342l-0.101,0.093C21.21,21.413,18.713,20.5,16,20.5
	c-5.939,0-10.865,4.327-11.82,10H2v4h2.18c0.955,5.673,5.882,10,11.82,10c6.621,0,12-5.373,12-12c0-3.185-1.252-6.074-3.279-8.223
	C26.741,22.487,29.321,21.5,32,21.5c2.684,0,5.269,0.99,7.279,2.776C37.252,26.425,36,29.313,36,32.5c0,6.627,5.379,12,12,12
	c5.938,0,10.865-4.327,11.82-10H62V30.5z M16,40.5c-4.411,0-8-3.589-8-8s3.589-8,8-8c4.411,0,8,3.589,8,8S20.411,40.5,16,40.5z
	 M48,40.5c-4.411,0-8-3.589-8-8s3.589-8,8-8c4.411,0,8,3.589,8,8S52.411,40.5,48,40.5z"/>
</svg>
