<?xml version="1.0" encoding="iso-8859-1"?>
<!-- Generator: Adobe Illustrator 20.0.0, SVG Export Plug-In . SVG Version: 6.00 Build 0)  -->
<svg version="1.1" id="Layer_1" xmlns="http://www.w3.org/2000/svg" xmlns:xlink="http://www.w3.org/1999/xlink" x="0px" y="0px"
	 viewBox="0 0 128 128" style="enable-background:new 0 0 128 128;" xml:space="preserve">
<path d="M124,61h-4.339C117.754,49.65,107.88,41,96,41c-5.424,0-10.43,1.805-14.451,4.844l-0.213-0.18
	C76.545,41.367,70.389,39,64,39c-6.389,0-12.545,2.367-17.293,6.627l-0.257,0.217C42.429,42.805,37.424,41,32,41
	c-11.88,0-21.754,8.65-23.661,20H4v8h4.339C10.246,80.35,20.12,89,32,89c13.242,0,24-10.746,24-24c0-6.372-2.491-12.16-6.545-16.457
	C53.493,44.971,58.65,43,64,43c5.332,0,10.471,1.959,14.543,5.545C74.49,52.842,72,58.629,72,65c0,13.254,10.758,24,24,24
	c11.88,0,21.754-8.65,23.661-20H124V61z M32,81c-8.822,0-16-7.178-16-16s7.178-16,16-16c8.822,0,16,7.178,16,16S40.822,81,32,81z
	 M96,81c-8.822,0-16-7.178-16-16s7.178-16,16-16c8.822,0,16,7.178,16,16S104.822,81,96,81z"/>
</svg>
