<?xml version="1.0" encoding="utf-8"?>
<!-- Generator: Adobe Illustrator 19.1.0, SVG Export Plug-In . SVG Version: 6.00 Build 0)  -->
<svg version="1.1" id="Icon" xmlns="http://www.w3.org/2000/svg" xmlns:xlink="http://www.w3.org/1999/xlink" x="0px" y="0px"
	 width="24px" height="24px" viewBox="0 0 24 24" enable-background="new 0 0 24 24" xml:space="preserve">
<path d="M23,11h-1.276c-0.62-1.744-2.268-3-4.224-3c-1.698,0-3.159,0.952-3.925,2.34C13.092,10.128,12.563,10,12,10
	s-1.092,0.128-1.575,0.34C9.659,8.952,8.198,8,6.5,8c-1.956,0-3.605,1.256-4.224,3H1v2h1.05c0.252,2.247,2.136,4,4.45,4
	c2.485,0,4.5-2.015,4.5-4.5c0-0.073-0.018-0.14-0.021-0.212C11.277,12.107,11.625,12,12,12c0.375,0,0.723,0.107,1.021,0.288
	C13.018,12.36,13,12.427,13,12.5c0,2.485,2.015,4.5,4.5,4.5c2.314,0,4.198-1.753,4.45-4H23V11z M6.5,15C5.122,15,4,13.878,4,12.5
	C4,11.121,5.122,10,6.5,10C7.879,10,9,11.121,9,12.5C9,13.878,7.879,15,6.5,15z M17.5,15c-1.378,0-2.5-1.122-2.5-2.5
	c0-1.379,1.122-2.5,2.5-2.5c1.379,0,2.5,1.121,2.5,2.5C20,13.878,18.879,15,17.5,15z"/>
</svg>
