<svg xmlns="http://www.w3.org/2000/svg" viewBox="0 0 64 64"><path d="M62 30.5h-2.18c-.955-5.673-5.882-10-11.82-10-2.713 0-5.21.913-7.22 2.435l-.112-.103C38.272 20.684 35.194 19.5 32 19.5c-3.194 0-6.273 1.184-8.68 3.342l-.1.093C21.21 21.413 18.713 20.5 16 20.5c-5.94 0-10.865 4.327-11.82 10H2v4h2.18c.955 5.673 5.882 10 11.82 10 6.62 0 12-5.373 12-12 0-3.185-1.252-6.074-3.28-8.223 2.02-1.79 4.6-2.777 7.28-2.777 2.684 0 5.27.99 7.28 2.776C37.25 26.426 36 29.313 36 32.5c0 6.627 5.38 12 12 12 5.938 0 10.865-4.327 11.82-10H62v-4zm-46 10c-4.41 0-8-3.59-8-8s3.59-8 8-8 8 3.59 8 8-3.59 8-8 8zm32 0c-4.41 0-8-3.59-8-8s3.59-8 8-8 8 3.59 8 8-3.59 8-8 8z"/></svg>