<svg xmlns="http://www.w3.org/2000/svg" viewBox="0 0 128 128"><path d="M124 61h-4.34C117.755 49.65 107.88 41 96 41c-5.424 0-10.43 1.805-14.45 4.844l-.214-.18C76.546 41.367 70.39 39 64 39c-6.39 0-12.545 2.367-17.293 6.627l-.257.217C42.43 42.804 37.424 41 32 41c-11.88 0-21.754 8.65-23.66 20H4v8h4.34C10.245 80.35 20.12 89 32 89c13.242 0 24-10.746 24-24 0-6.372-2.49-12.16-6.545-16.457C53.493 44.97 58.65 43 64 43c5.332 0 10.47 1.96 14.543 5.545C74.49 52.842 72 58.63 72 65c0 13.254 10.758 24 24 24 11.88 0 21.754-8.65 23.66-20H124v-8zM32 81c-8.822 0-16-7.178-16-16s7.178-16 16-16 16 7.178 16 16-7.178 16-16 16zm64 0c-8.822 0-16-7.178-16-16s7.178-16 16-16 16 7.178 16 16-7.178 16-16 16z"/></svg>