<svg xmlns="http://www.w3.org/2000/svg" viewBox="0 0 16 16"><path d="M12.5 4.5c-1.274 0-2.378.688-2.99 1.706C9.076 5.92 8.558 5.75 8 5.75s-1.076.17-1.51.456C5.878 5.188 4.774 4.5 3.5 4.5 1.567 4.5 0 6.067 0 8s1.567 3.5 3.5 3.5S7 9.933 7 8c0-.063-.015-.12-.018-.184.224-.333.586-.566 1.018-.566.43 0 .794.233 1.018.566C9.015 7.88 9 7.936 9 8c0 1.933 1.567 3.5 3.5 3.5S16 9.933 16 8s-1.567-3.5-3.5-3.5zM4.96 9.36c-.053.054-.11.104-.167.153-.035.03-.07.06-.106.087-.05.04-.104.073-.158.106-.054.032-.107.06-.163.088-.05.024-.097.047-.148.067-.072.03-.146.05-.22.07-.043.01-.084.024-.127.032-.12.023-.245.038-.373.038-1.103 0-2-.897-2-2s.897-2 2-2c.128 0 .253.015.375.038.043.008.083.022.125.033.076.02.15.042.223.07.05.02.097.043.145.066.058.028.114.058.168.09.053.034.103.068.152.104.04.03.08.064.12.098.052.047.104.093.152.145.023.025.043.052.064.078.194.232.338.504.412.806.038.152.064.31.064.474 0 .51-.197.968-.51 1.322l-.03.037zm7.54.64c-.128 0-.252-.015-.373-.038-.043-.008-.084-.022-.126-.033-.074-.02-.148-.042-.22-.07-.05-.02-.098-.042-.147-.066-.055-.027-.11-.056-.16-.088-.056-.033-.108-.068-.16-.105-.036-.027-.07-.057-.105-.087-.058-.05-.114-.1-.166-.154l-.03-.04C10.696 8.97 10.5 8.51 10.5 8c0-.164.026-.322.063-.475.074-.302.218-.573.412-.804.022-.025.042-.053.065-.078.048-.05.1-.098.153-.144.04-.034.078-.068.12-.1.05-.035.1-.07.15-.1.055-.035.11-.064.17-.092.047-.023.094-.047.144-.066.072-.028.147-.05.223-.07.042-.01.082-.024.125-.032.122-.023.247-.038.375-.038 1.103 0 2 .897 2 2s-.897 2-2 2z"/></svg>