<?xml version="1.0" encoding="utf-8"?>
<!-- Generator: Adobe Illustrator 17.1.0, SVG Export Plug-In . SVG Version: 6.00 Build 0)  -->
<!DOCTYPE svg PUBLIC "-//W3C//DTD SVG 1.1//EN" "http://www.w3.org/Graphics/SVG/1.1/DTD/svg11.dtd">
<svg version="1.1" id="Layer_1" xmlns="http://www.w3.org/2000/svg" xmlns:xlink="http://www.w3.org/1999/xlink" x="0px" y="0px"
	 width="32px" height="32px" viewBox="0 0 32 32" enable-background="new 0 0 32 32" xml:space="preserve">
<g>
	<path d="M8,23c2.762,0,5-2.238,5-5s-2.238-5-5-5s-5,2.238-5,5S5.238,23,8,23z M8,15c1.654,0,3,1.346,3,3s-1.346,3-3,3s-3-1.346-3-3
		S6.346,15,8,15z"/>
	<path d="M19,18c0,2.762,2.238,5,5,5s5-2.238,5-5s-2.238-5-5-5S19,15.238,19,18z M24,15c1.654,0,3,1.346,3,3s-1.346,3-3,3
		s-3-1.346-3-3S22.346,15,24,15z"/>
	<path d="M21,7c0-2.762-2.238-5-5-5s-5,2.238-5,5s2.238,5,5,5S21,9.762,21,7z M16,10c-1.654,0-3-1.346-3-3s1.346-3,3-3s3,1.346,3,3
		S17.654,10,16,10z"/>
	<path d="M12,25H4c-1.105,0-2,0.896-2,2v3h12v-3C14,25.896,13.104,25,12,25z"/>
	<path d="M28,25h-8c-1.104,0-2,0.896-2,2v3h12v-3C30,25.896,29.104,25,28,25z"/>
</g>
</svg>
