<svg xmlns="http://www.w3.org/2000/svg" viewBox="0 0 128 128"><path d="M32 92c11.047 0 20-8.953 20-20s-8.953-20-20-20-20 8.953-20 20 8.953 20 20 20zm0-36c8.822 0 16 7.178 16 16s-7.178 16-16 16-16-7.178-16-16 7.178-16 16-16zM76 72c0 11.047 8.953 20 20 20s20-8.953 20-20-8.953-20-20-20-20 8.953-20 20zm20-16c8.822 0 16 7.178 16 16s-7.178 16-16 16-16-7.178-16-16 7.178-16 16-16zM84 28c0-11.047-8.953-20-20-20s-20 8.953-20 20 8.953 20 20 20 20-8.953 20-20zM64 44c-8.822 0-16-7.178-16-16s7.178-16 16-16 16 7.178 16 16-7.178 16-16 16zM48 100H16c-4.418 0-8 3.582-8 8v12h48v-12c0-4.418-3.582-8-8-8zM112 100H80c-4.418 0-8 3.582-8 8v12h48v-12c0-4.418-3.582-8-8-8z"/></svg>