<?xml version="1.0" encoding="iso-8859-1"?>
<!-- Generator: Adobe Illustrator 20.0.0, SVG Export Plug-In . SVG Version: 6.00 Build 0)  -->
<svg version="1.1" id="Layer_1" xmlns="http://www.w3.org/2000/svg" xmlns:xlink="http://www.w3.org/1999/xlink" x="0px" y="0px"
	 viewBox="0 0 64 64" style="enable-background:new 0 0 64 64;" xml:space="preserve">
<g>
	<path d="M16,46c5.523,0,10-4.477,10-10s-4.477-10-10-10c-5.523,0-10,4.477-10,10S10.477,46,16,46z M16,28c4.411,0,8,3.589,8,8
		s-3.589,8-8,8s-8-3.589-8-8S11.589,28,16,28z"/>
	<path d="M38,36c0,5.523,4.477,10,10,10c5.523,0,10-4.477,10-10s-4.477-10-10-10C42.477,26,38,30.477,38,36z M48,28
		c4.411,0,8,3.589,8,8s-3.589,8-8,8s-8-3.589-8-8S43.589,28,48,28z"/>
	<path d="M42,14c0-5.523-4.477-10-10-10c-5.523,0-10,4.477-10,10s4.477,10,10,10C37.523,24,42,19.523,42,14z M32,22
		c-4.411,0-8-3.589-8-8s3.589-8,8-8s8,3.589,8,8S36.411,22,32,22z"/>
	<path d="M24,50H8c-2.209,0-4,1.791-4,4v6h24v-6C28,51.791,26.209,50,24,50z"/>
	<path d="M56,50H40c-2.209,0-4,1.791-4,4v6h24v-6C60,51.791,58.209,50,56,50z"/>
</g>
</svg>
