<?xml version="1.0" encoding="utf-8"?>
<!-- Generator: Adobe Illustrator 19.1.0, SVG Export Plug-In . SVG Version: 6.00 Build 0)  -->
<svg version="1.1" id="Icon" xmlns="http://www.w3.org/2000/svg" xmlns:xlink="http://www.w3.org/1999/xlink" x="0px" y="0px"
	 width="16px" height="16px" viewBox="0 0 16 16" enable-background="new 0 0 16 16" xml:space="preserve">
<path d="M15,13h-4c-0.552,0-1,0.448-1,1v2h6v-2C16,13.448,15.552,13,15,13z"/>
<path d="M5,13H1c-0.552,0-1,0.448-1,1v2h6v-2C6,13.448,5.552,13,5,13z"/>
<path d="M5,3c0,1.657,1.343,3,3,3s3-1.343,3-3S9.657,0,8,0S5,1.343,5,3z"/>
<path d="M0,9c0,1.657,1.343,3,3,3s3-1.343,3-3S4.657,6,3,6S0,7.343,0,9z"/>
<path d="M10,9c0,1.657,1.343,3,3,3s3-1.343,3-3s-1.343-3-3-3S10,7.343,10,9z"/>
</svg>
