<?xml version="1.0" encoding="utf-8"?>
<!-- Generator: Adobe Illustrator 19.1.0, SVG Export Plug-In . SVG Version: 6.00 Build 0)  -->
<svg version="1.1" id="Icon" xmlns="http://www.w3.org/2000/svg" xmlns:xlink="http://www.w3.org/1999/xlink" x="0px" y="0px"
	 width="24px" height="24px" viewBox="0 0 24 24" enable-background="new 0 0 24 24" xml:space="preserve">
<g>
	<path d="M14,14c0,2.209,1.791,4,4,4s4-1.791,4-4s-1.791-4-4-4S14,11.791,14,14z"/>
	<path d="M9.5,19h-7C1.672,19,1,19.672,1,20.5V23h10v-2.5C11,19.672,10.328,19,9.5,19z"/>
	<path d="M21.5,19h-7c-0.828,0-1.5,0.672-1.5,1.5V23h10v-2.5C23,19.672,22.328,19,21.5,19z"/>
</g>
<path d="M2,14c0,2.209,1.791,4,4,4s4-1.791,4-4s-1.791-4-4-4S2,11.791,2,14z"/>
<path d="M8,5c0,2.209,1.791,4,4,4s4-1.791,4-4s-1.791-4-4-4S8,2.791,8,5z"/>
</svg>
