<?xml version="1.0" encoding="utf-8"?>
<!-- Generator: Adobe Illustrator 19.1.0, SVG Export Plug-In . SVG Version: 6.00 Build 0)  -->
<svg version="1.1" id="Icon" xmlns="http://www.w3.org/2000/svg" xmlns:xlink="http://www.w3.org/1999/xlink" x="0px" y="0px"
	 width="16px" height="16px" viewBox="0 0 16 16" enable-background="new 0 0 16 16" xml:space="preserve">
<path d="M8,0C3.582,0,0,3.582,0,8s3.582,8,8,8s8-3.582,8-8S12.418,0,8,0z M11.117,2.883L9.64,4.36C9.139,4.133,8.586,4,8,4
	S6.861,4.133,6.36,4.36L4.883,2.883C5.793,2.327,6.858,2,8,2S10.207,2.327,11.117,2.883z M6,8c0-1.103,0.897-2,2-2s2,0.897,2,2
	s-0.897,2-2,2S6,9.103,6,8z M2.883,4.883L4.36,6.36C4.133,6.861,4,7.414,4,8s0.133,1.139,0.36,1.64l-1.477,1.477
	C2.327,10.207,2,9.142,2,8S2.327,5.793,2.883,4.883z M4.883,13.117L6.36,11.64C6.861,11.867,7.414,12,8,12s1.139-0.133,1.64-0.36
	l1.477,1.477C10.207,13.673,9.142,14,8,14S5.793,13.673,4.883,13.117z M13.117,11.117L11.64,9.64C11.867,9.139,12,8.586,12,8
	s-0.133-1.139-0.36-1.64l1.477-1.477C13.673,5.793,14,6.858,14,8S13.673,10.207,13.117,11.117z"/>
</svg>
