<svg xmlns="http://www.w3.org/2000/svg" viewBox="0 0 32 32"><path d="M16 2C8.27 2 2 8.27 2 16s6.27 14 14 14 14-6.27 14-14S23.73 2 16 2zm7 14c0 .893-.174 1.743-.48 2.528-.71 1.83-2.163 3.28-3.99 3.992-.786.306-1.637.48-2.53.48-.893 0-1.744-.174-2.53-.48-1.827-.71-3.28-2.163-3.99-3.99C9.173 17.742 9 16.892 9 16c0-.893.174-1.743.48-2.527.71-1.83 2.164-3.283 3.99-3.994C14.258 9.173 15.108 9 16 9c.893 0 1.743.174 2.53.48 1.826.71 3.28 2.164 3.99 3.993.306.784.48 1.634.48 2.527zm-3.714-7.286C18.282 8.26 17.172 8 16 8s-2.282.26-3.286.714L9.766 5.766C11.586 4.653 13.716 4 16 4c2.285 0 4.414.653 6.234 1.766l-2.948 2.948zM8.714 19.286l-2.948 2.948C4.653 20.414 4 18.284 4 16s.653-4.415 1.766-6.234l2.948 2.948C8.26 13.718 8 14.828 8 16s.26 2.282.714 3.286zm4 4C13.718 23.74 14.828 24 16 24s2.282-.26 3.286-.714l2.948 2.948C20.414 27.347 18.284 28 16 28c-2.285 0-4.414-.653-6.234-1.766l2.948-2.948zm10.572-10.572l2.948-2.948C27.347 11.586 28 13.716 28 16s-.653 4.415-1.766 6.234l-2.948-2.948C23.74 18.282 24 17.172 24 16s-.26-2.282-.714-3.286z"/></svg>