<?xml version="1.0" encoding="utf-8"?>
<!-- Generator: Adobe Illustrator 17.1.0, SVG Export Plug-In . SVG Version: 6.00 Build 0)  -->
<!DOCTYPE svg PUBLIC "-//W3C//DTD SVG 1.1//EN" "http://www.w3.org/Graphics/SVG/1.1/DTD/svg11.dtd">
<svg version="1.1" id="Layer_1" xmlns="http://www.w3.org/2000/svg" xmlns:xlink="http://www.w3.org/1999/xlink" x="0px" y="0px"
	 width="64px" height="64px" viewBox="0 0 64 64" enable-background="new 0 0 64 64" xml:space="preserve">
<path d="M32,4C16.537,4,4,16.537,4,32s12.537,28,28,28s28-12.537,28-28S47.463,4,32,4z M32,6c5.123,0,9.891,1.51,13.922,4.078
	l-7.35,7.35C36.564,16.519,34.344,16,32,16c-2.344,0-4.565,0.519-6.572,1.428l-7.35-7.35C22.109,7.51,26.877,6,32,6z M17.428,38.572
	l-7.35,7.35C7.51,41.892,6,37.123,6,32s1.51-9.892,4.078-13.922l7.35,7.35C16.52,27.435,16,29.656,16,32
	C16,34.344,16.52,36.564,17.428,38.572z M32,58c-5.123,0-9.891-1.51-13.922-4.078l7.35-7.35C27.435,47.481,29.656,48,32,48
	c2.344,0,4.564-0.519,6.572-1.428l7.35,7.35C41.891,56.49,37.123,58,32,58z M45.043,37.057c-1.422,3.657-4.328,6.562-7.984,7.984
	C35.488,45.652,33.785,46,32,46c-1.785,0-3.488-0.348-5.059-0.959c-3.656-1.422-6.562-4.327-7.984-7.984
	C18.348,35.486,18,33.785,18,32c0-1.785,0.348-3.485,0.957-5.055c1.422-3.658,4.33-6.566,7.984-7.987C28.514,18.348,30.215,18,32,18
	c1.785,0,3.486,0.348,5.059,0.958c3.654,1.421,6.562,4.329,7.984,7.987C45.652,28.515,46,30.215,46,32
	C46,33.785,45.652,35.486,45.043,37.057z M46.572,38.572C47.48,36.564,48,34.344,48,32c0-2.344-0.52-4.565-1.428-6.572l7.35-7.35
	C56.49,22.108,58,26.877,58,32s-1.51,9.892-4.078,13.922L46.572,38.572z"/>
</svg>
