<svg xmlns="http://www.w3.org/2000/svg" viewBox="0 0 128 128"><path d="M64 8C33.074 8 8 33.074 8 64s25.074 56 56 56 56-25.074 56-56S94.926 8 64 8zm0 4c10.246 0 19.78 3.02 27.844 8.156l-14.7 14.7C73.13 33.035 68.687 32 64 32c-4.688 0-9.13 1.037-13.145 2.855l-14.7-14.7C44.22 15.02 53.756 12 64 12zM34.855 77.145l-14.7 14.7C15.02 83.782 12 74.244 12 64s3.02-19.783 8.156-27.844l14.7 14.7C33.038 54.87 32 59.31 32 64s1.04 9.13 2.855 13.145zM64 116c-10.246 0-19.78-3.02-27.844-8.156l14.7-14.7C54.87 94.965 59.31 96 64 96c4.687 0 9.13-1.037 13.144-2.855l14.7 14.7C83.78 112.98 74.245 116 64 116zm26.086-41.887c-2.844 7.314-8.656 13.125-15.97 15.97C70.977 91.304 67.57 92 64 92c-3.57 0-6.977-.695-10.117-1.918-7.312-2.844-13.125-8.654-15.97-15.97C36.696 70.973 36 67.57 36 64c0-3.57.695-6.97 1.914-10.11 2.844-7.315 8.66-13.132 15.97-15.974C57.026 36.696 60.43 36 64 36c3.57 0 6.973.695 10.117 1.916 7.31 2.842 13.125 8.658 15.97 15.975C91.304 57.03 92 60.43 92 64c0 3.57-.695 6.973-1.914 10.113zm3.058 3.032C94.96 73.13 96 68.688 96 64s-1.04-9.13-2.856-13.145l14.7-14.7C112.98 44.218 116 53.756 116 64s-3.02 19.783-8.156 27.844l-14.7-14.7z"/></svg>