<svg xmlns="http://www.w3.org/2000/svg" viewBox="0 0 24 24"><path d="M12 1C5.924 1 1 5.924 1 12s4.924 11 11 11c6.074 0 11-4.924 11-11S18.074 1 12 1zm9 11c0 1.677-.47 3.242-1.27 4.587l-2.22-2.218c.314-.728.49-1.53.49-2.37s-.176-1.642-.49-2.37l2.22-2.217C20.53 8.758 21 10.323 21 12zM4.27 16.587C3.47 15.242 3 13.677 3 12s.47-3.242 1.27-4.587l2.22 2.22C6.174 10.358 6 11.158 6 12s.175 1.64.49 2.368l-2.22 2.22zM8 12c0-2.21 1.79-4 4-4 2.207 0 4 1.79 4 4s-1.793 4-4 4c-2.21 0-4-1.79-4-4zm8.587-7.73l-2.22 2.22C13.642 6.175 12.842 6 12 6c-.84 0-1.64.175-2.368.49l-2.22-2.22C8.76 3.47 10.325 3 12 3c1.677 0 3.24.47 4.587 1.27zM7.413 19.73l2.22-2.22c.726.315 1.526.49 2.367.49.84 0 1.64-.175 2.368-.49l2.22 2.22C15.24 20.53 13.677 21 12 21c-1.676 0-3.242-.47-4.587-1.27z"/></svg>