<svg xmlns="http://www.w3.org/2000/svg" viewBox="0 0 64 64"><path d="M32 4C16.537 4 4 16.537 4 32s12.537 28 28 28 28-12.537 28-28S47.463 4 32 4zm0 2c5.123 0 9.89 1.51 13.922 4.078l-7.35 7.35C36.564 16.518 34.344 16 32 16c-2.344 0-4.565.52-6.572 1.428l-7.35-7.35C22.108 7.51 26.878 6 32 6zM17.428 38.572l-7.35 7.35C7.51 41.892 6 37.122 6 32s1.51-9.892 4.078-13.922l7.35 7.35C16.518 27.435 16 29.656 16 32c0 2.344.52 4.564 1.428 6.572zM32 58c-5.123 0-9.89-1.51-13.922-4.078l7.35-7.35C27.435 47.482 29.656 48 32 48c2.344 0 4.564-.52 6.572-1.428l7.35 7.35C41.892 56.49 37.122 58 32 58zm13.043-20.943c-1.422 3.657-4.328 6.562-7.984 7.984-1.572.612-3.275.96-5.06.96-1.785 0-3.488-.348-5.06-.96-3.655-1.42-6.56-4.326-7.983-7.983C18.347 35.487 18 33.785 18 32c0-1.785.348-3.485.957-5.055 1.422-3.658 4.33-6.566 7.984-7.987C28.515 18.348 30.216 18 32 18c1.785 0 3.486.348 5.06.958 3.653 1.42 6.56 4.33 7.983 7.987.61 1.57.957 3.27.957 5.055 0 1.785-.348 3.486-.957 5.057zm1.53 1.515C47.48 36.564 48 34.344 48 32c0-2.344-.52-4.565-1.428-6.572l7.35-7.35C56.49 22.108 58 26.878 58 32s-1.51 9.892-4.078 13.922l-7.35-7.35z"/></svg>