<?xml version="1.0" encoding="utf-8"?>
<!-- Generator: Adobe Illustrator 17.1.0, SVG Export Plug-In . SVG Version: 6.00 Build 0)  -->
<!DOCTYPE svg PUBLIC "-//W3C//DTD SVG 1.1//EN" "http://www.w3.org/Graphics/SVG/1.1/DTD/svg11.dtd">
<svg version="1.1" id="Layer_1" xmlns="http://www.w3.org/2000/svg" xmlns:xlink="http://www.w3.org/1999/xlink" x="0px" y="0px"
	 width="32px" height="32px" viewBox="0 0 32 32" enable-background="new 0 0 32 32" xml:space="preserve">
<path d="M16,2C8.269,2,2,8.269,2,16s6.269,14,14,14s14-6.269,14-14S23.731,2,16,2z M23,16c0,0.893-0.174,1.743-0.479,2.528
	c-0.711,1.829-2.164,3.281-3.992,3.992C17.744,22.826,16.893,23,16,23c-0.893,0-1.744-0.174-2.529-0.479
	c-1.828-0.711-3.281-2.164-3.992-3.992C9.174,17.743,9,16.893,9,16c0-0.893,0.174-1.743,0.479-2.527
	c0.711-1.829,2.165-3.283,3.992-3.994C14.257,9.174,15.107,9,16,9c0.893,0,1.743,0.174,2.529,0.479
	c1.827,0.71,3.281,2.165,3.992,3.994C22.826,14.257,23,15.107,23,16z M19.286,8.714C18.282,8.259,17.172,8,16,8
	s-2.282,0.259-3.286,0.714L9.766,5.766C11.586,4.653,13.715,4,16,4s4.414,0.653,6.234,1.766L19.286,8.714z M8.714,19.286
	l-2.948,2.948C4.653,20.415,4,18.285,4,16s0.653-4.415,1.766-6.234l2.948,2.948C8.26,13.718,8,14.828,8,16S8.26,18.282,8.714,19.286
	z M12.714,23.286C13.718,23.741,14.828,24,16,24s2.282-0.259,3.286-0.714l2.948,2.948C20.414,27.347,18.285,28,16,28
	s-4.414-0.653-6.234-1.766L12.714,23.286z M23.286,12.714l2.948-2.948C27.347,11.585,28,13.715,28,16s-0.653,4.415-1.766,6.234
	l-2.948-2.948C23.74,18.282,24,17.172,24,16S23.74,13.718,23.286,12.714z"/>
</svg>
