<?xml version="1.0" encoding="utf-8"?>
<!-- Generator: Adobe Illustrator 17.1.0, SVG Export Plug-In . SVG Version: 6.00 Build 0)  -->
<!DOCTYPE svg PUBLIC "-//W3C//DTD SVG 1.1//EN" "http://www.w3.org/Graphics/SVG/1.1/DTD/svg11.dtd">
<svg version="1.1" id="Layer_1" xmlns="http://www.w3.org/2000/svg" xmlns:xlink="http://www.w3.org/1999/xlink" x="0px" y="0px"
	 width="32px" height="32px" viewBox="0 0 32 32" enable-background="new 0 0 32 32" xml:space="preserve">
<g>
	<path d="M16,1C9.924,1,5,5.924,5,12s4.924,11,11,11s11-4.924,11-11S22.076,1,16,1z M16,21c-4.963,0-9-4.038-9-9s4.037-9,9-9
		s9,4.038,9,9S20.963,21,16,21z"/>
	<rect x="12" y="24" width="8" height="4"/>
	<path d="M16,31c1.104,0,2-0.896,2-2h-4C14,30.104,14.896,31,16,31z"/>
	<path d="M16,19l4-6h-8L16,19z M16,17.197L13.868,14h4.264L16,17.197z"/>
</g>
</svg>
