<?xml version="1.0" encoding="iso-8859-1"?>
<!-- Generator: Adobe Illustrator 20.0.0, SVG Export Plug-In . SVG Version: 6.00 Build 0)  -->
<svg version="1.1" id="Layer_1" xmlns="http://www.w3.org/2000/svg" xmlns:xlink="http://www.w3.org/1999/xlink" x="0px" y="0px"
	 viewBox="0 0 64 64" style="enable-background:new 0 0 64 64;" xml:space="preserve">
<g>
	<path d="M32,2c-12.152,0-22,9.849-22,22s9.848,22,22,22c12.152,0,22-9.849,22-22S44.152,2,32,2z M32,44c-11.028,0-20-8.972-20-20
		S20.972,4,32,4c11.028,0,20,8.972,20,20S43.028,44,32,44z"/>
	<rect x="24" y="48" width="16" height="8"/>
	<path d="M32,62c2.209,0,4-1.791,4-4h-8C28,60.209,29.791,62,32,62z"/>
	<path d="M32,38l8-12H24L32,38z M32,34.395L27.737,28h8.525L32,34.395z"/>
</g>
</svg>
