<?xml version="1.0" encoding="utf-8"?>
<!-- Generator: Adobe Illustrator 19.1.0, SVG Export Plug-In . SVG Version: 6.00 Build 0)  -->
<svg version="1.1" id="Icon" xmlns="http://www.w3.org/2000/svg" xmlns:xlink="http://www.w3.org/1999/xlink" x="0px" y="0px"
	 width="24px" height="24px" viewBox="0 0 24 24" enable-background="new 0 0 24 24" xml:space="preserve">
<g>
	<g>
		<path d="M20,9c0-4.419-3.581-8-8-8S4,4.581,4,9c0,3.357,2.069,6.226,5,7.413V20h6v-3.587C17.931,15.226,20,12.357,20,9z
			 M12,15.033c-3.327,0-6.033-2.706-6.033-6.033c0-3.327,2.706-6.033,6.033-6.033S18.033,5.673,18.033,9
			C18.033,12.327,15.327,15.033,12,15.033z"/>
		<path d="M12,23c1.104,0,2-0.896,2-2h-4C10,22.104,10.896,23,12,23z"/>
	</g>
	<path d="M12,14l3-4H9L12,14z"/>
</g>
</svg>
