<svg xmlns="http://www.w3.org/2000/svg" viewBox="0 0 64 64"><path d="M38.586 30.586L32 37.172l-6.586-6.586-2.828 2.828L29.172 40l-6.586 6.586 2.828 2.828L32 42.828l6.586 6.586 2.828-2.828L34.828 40l6.586-6.586"/><path d="M32 18c-4.428 0-8.548 1.314-12 3.566V18c0-6.617 5.383-12 12-12 3.31 0 6.31 1.346 8.48 3.52l2.834-2.834C40.418 3.79 36.418 2 32 2c-8.837 0-16 7.163-16 16v6.91c-3.717 3.94-6 9.248-6 15.09 0 12.147 9.852 22 22 22 12.15 0 22-9.853 22-22s-9.85-22-22-22zm0 42c-11.045 0-20-8.955-20-20s8.955-20 20-20 20 8.955 20 20-8.955 20-20 20z"/></svg>