<svg xmlns="http://www.w3.org/2000/svg" viewBox="0 0 16 16"><path d="M10.497 5.61l.003-.005c-.04-.02-.08-.034-.12-.053-.125-.06-.252-.117-.38-.17l-.183-.065c-.13-.046-.262-.087-.395-.123-.064-.017-.13-.035-.194-.05-.14-.032-.282-.057-.426-.078-.06-.01-.12-.02-.18-.028C8.417 5.015 8.21 5 8 5c-.21 0-.417.015-.62.038-.062.007-.12.02-.182.028-.143.02-.285.046-.425.078-.065.015-.13.033-.194.05-.136.036-.267.077-.397.123-.06.02-.122.043-.182.067-.13.05-.255.108-.38.168-.04.02-.08.033-.12.053V4.5C5.5 3.125 6.625 2 8 2c.815 0 1.535.4 1.992 1.008l1.412-1.412C10.577.63 9.364 0 8 0 5.525 0 3.5 2.025 3.5 4.5v2.844c-.004.005 0 .01-.004.015-.625.89-.996 1.974-.996 3.14C2.5 13.525 4.975 16 8 16s5.5-2.475 5.5-5.5c0-2.126-1.225-3.977-3.003-4.89zm.253 6.59L9.7 13.25 8 11.55l-1.7 1.7-1.05-1.05 1.7-1.7-1.7-1.7L6.3 7.75 8 9.45l1.7-1.7 1.05 1.05-1.7 1.7 1.7 1.7z"/></svg>