<?xml version="1.0" encoding="utf-8"?>
<!-- Generator: Adobe Illustrator 19.1.0, SVG Export Plug-In . SVG Version: 6.00 Build 0)  -->
<svg version="1.1" id="Icon" xmlns="http://www.w3.org/2000/svg" xmlns:xlink="http://www.w3.org/1999/xlink" x="0px" y="0px"
	 width="16px" height="16px" viewBox="0 0 16 16" enable-background="new 0 0 16 16" xml:space="preserve">
<path d="M10.497,5.609L10.5,5.605c-0.039-0.02-0.08-0.034-0.12-0.053c-0.125-0.061-0.252-0.117-0.381-0.169
	C9.939,5.36,9.878,5.338,9.817,5.317C9.687,5.271,9.555,5.23,9.422,5.194c-0.064-0.017-0.129-0.035-0.194-0.05
	c-0.14-0.032-0.282-0.057-0.426-0.078c-0.06-0.009-0.119-0.021-0.18-0.028C8.417,5.015,8.21,5,8,5C7.79,5,7.583,5.015,7.379,5.038
	c-0.061,0.007-0.12,0.019-0.181,0.028C7.055,5.087,6.913,5.112,6.773,5.144c-0.065,0.015-0.13,0.033-0.194,0.05
	C6.444,5.23,6.313,5.271,6.183,5.317C6.122,5.338,6.061,5.36,6.001,5.384C5.871,5.435,5.745,5.492,5.62,5.552
	C5.581,5.571,5.539,5.585,5.5,5.605V4.5C5.5,3.125,6.625,2,8,2c0.815,0,1.535,0.4,1.992,1.008l1.412-1.412C10.577,0.629,9.365,0,8,0
	C5.525,0,3.5,2.025,3.5,4.5v2.844c-0.004,0.005-0.001,0.01-0.004,0.015C2.871,8.251,2.5,9.334,2.5,10.5C2.5,13.525,4.975,16,8,16
	c3.025,0,5.5-2.475,5.5-5.5C13.5,8.374,12.275,6.523,10.497,5.609z M10.75,12.201L9.701,13.25L8,11.549L6.299,13.25L5.25,12.201
	L6.951,10.5L5.25,8.799L6.299,7.75L8,9.451L9.701,7.75l1.049,1.049L9.049,10.5L10.75,12.201z"/>
</svg>
