<svg xmlns="http://www.w3.org/2000/svg" viewBox="0 0 128 128"><path d="M77.17 61.17L64 74.344 50.83 61.17l-5.66 5.66L58.344 80 45.17 93.17l5.66 5.66L64 85.656 77.17 98.83l5.66-5.66L69.656 80 82.83 66.83"/><path d="M64 36c-8.856 0-17.096 2.628-24 7.132V36c0-13.234 10.767-24 24-24 6.617 0 12.617 2.69 16.962 7.038l5.665-5.665C80.837 7.583 72.837 4 64 4 46.326 4 32 18.326 32 36v13.822C24.566 57.702 20 68.316 20 80c0 24.295 19.705 44 44 44 24.303 0 44-19.705 44-44S88.303 36 64 36zm0 84c-22.09 0-40-17.91-40-40s17.91-40 40-40 40 17.91 40 40-17.91 40-40 40z"/></svg>