<?xml version="1.0" encoding="utf-8"?>
<!-- Generator: Adobe Illustrator 17.1.0, SVG Export Plug-In . SVG Version: 6.00 Build 0)  -->
<!DOCTYPE svg PUBLIC "-//W3C//DTD SVG 1.1//EN" "http://www.w3.org/Graphics/SVG/1.1/DTD/svg11.dtd">
<svg version="1.1" id="Layer_1" xmlns="http://www.w3.org/2000/svg" xmlns:xlink="http://www.w3.org/1999/xlink" x="0px" y="0px"
	 width="32px" height="32px" viewBox="0 0 32 32" enable-background="new 0 0 32 32" xml:space="preserve">
<g>
	<polygon points="19.293,15.293 16,18.586 12.707,15.293 11.293,16.707 14.586,20 11.293,23.293 12.707,24.707 16,21.414 
		19.293,24.707 20.707,23.293 17.414,20 20.707,16.707 	"/>
	<path d="M16,9c-2.215,0-4.273,0.661-6,1.788V9c0-3.309,2.691-6,6-6c1.654,0,3.154,0.673,4.241,1.759l1.416-1.416
		C20.209,1.895,18.209,1,16,1c-4.419,0-8,3.582-8,8v3.467C6.145,14.436,5,17.082,5,20c0,6.074,4.926,11,11,11
		c6.076,0,11-4.926,11-11S22.076,9,16,9z M16,29c-4.971,0-9-4.029-9-9s4.029-9,9-9c4.971,0,9,4.029,9,9S20.971,29,16,29z"/>
</g>
</svg>
