<svg xmlns="http://www.w3.org/2000/svg" viewBox="0 0 32 32"><path d="M19.293 15.293L16 18.586l-3.293-3.293-1.414 1.414L14.586 20l-3.293 3.293 1.414 1.414L16 21.414l3.293 3.293 1.414-1.414L17.414 20l3.293-3.293"/><path d="M16 9c-2.215 0-4.273.66-6 1.788V9c0-3.31 2.69-6 6-6 1.654 0 3.154.673 4.24 1.76l1.417-1.417C20.21 1.895 18.21 1 16 1c-4.42 0-8 3.582-8 8v3.467C6.145 14.437 5 17.082 5 20c0 6.074 4.926 11 11 11 6.076 0 11-4.926 11-11S22.076 9 16 9zm0 20c-4.97 0-9-4.03-9-9s4.03-9 9-9 9 4.03 9 9-4.03 9-9 9z"/></svg>