<?xml version="1.0" encoding="utf-8"?>
<!-- Generator: Adobe Illustrator 17.1.0, SVG Export Plug-In . SVG Version: 6.00 Build 0)  -->
<!DOCTYPE svg PUBLIC "-//W3C//DTD SVG 1.1//EN" "http://www.w3.org/Graphics/SVG/1.1/DTD/svg11.dtd">
<svg version="1.1" id="Layer_1" xmlns="http://www.w3.org/2000/svg" xmlns:xlink="http://www.w3.org/1999/xlink" x="0px" y="0px"
	 width="32px" height="32px" viewBox="0 0 32 32" enable-background="new 0 0 32 32" xml:space="preserve">
<g>
	<path d="M24,15V3H8v12H3v14h26V15H24z M10,5h12v10H10V5z M27,27H5V17h3h16h3V27z"/>
	<rect x="12" y="9" width="8" height="1"/>
	<rect x="12" y="11" width="8" height="1"/>
	<polygon points="19,22 13,22 13,21 12,21 12,22 12,23 13,23 19,23 20,23 20,22 20,21 19,21 	"/>
</g>
</svg>
