<?xml version="1.0" encoding="utf-8"?>
<!-- Generator: Adobe Illustrator 17.1.0, SVG Export Plug-In . SVG Version: 6.00 Build 0)  -->
<!DOCTYPE svg PUBLIC "-//W3C//DTD SVG 1.1//EN" "http://www.w3.org/Graphics/SVG/1.1/DTD/svg11.dtd">
<svg version="1.1" id="Layer_1" xmlns="http://www.w3.org/2000/svg" xmlns:xlink="http://www.w3.org/1999/xlink" x="0px" y="0px"
	 width="64px" height="64px" viewBox="0 0 64 64" enable-background="new 0 0 64 64" xml:space="preserve">
<g>
	<path d="M48,30V6H16v24H6v28h52V30H48z M18,8h28v22H18V8z M56,56H8V32h8h32h8V56z"/>
	<rect x="24" y="18" width="16" height="2"/>
	<rect x="24" y="22" width="16" height="2"/>
	<polygon points="38,44 26,44 26,42 24,42 24,44 24,46 26,46 38,46 40,46 40,44 40,42 38,42 	"/>
</g>
</svg>
