<?xml version="1.0" encoding="utf-8"?>
<!-- Generator: Adobe Illustrator 17.1.0, SVG Export Plug-In . SVG Version: 6.00 Build 0)  -->
<!DOCTYPE svg PUBLIC "-//W3C//DTD SVG 1.1//EN" "http://www.w3.org/Graphics/SVG/1.1/DTD/svg11.dtd">
<svg version="1.1" id="Layer_1" xmlns="http://www.w3.org/2000/svg" xmlns:xlink="http://www.w3.org/1999/xlink" x="0px" y="0px"
	 width="128px" height="128px" viewBox="0 0 128 128" enable-background="new 0 0 128 128" xml:space="preserve">
<g>
	<path d="M96,60V12H32v48H12v56h104V60H96z M36,16h56v44H36V16z M112,112H16V64h16h64h16V112z"/>
	<rect x="48" y="36" width="32" height="4"/>
	<rect x="48" y="44" width="32" height="4"/>
	<polygon points="76,88 52,88 52,84 48,84 48,88 48,92 52,92 76,92 80,92 80,88 80,84 76,84 	"/>
</g>
</svg>
