<svg xmlns="http://www.w3.org/2000/svg" viewBox="0 0 32 32"><path d="M22 4c-2.55 0-4.776 1.37-6 3.408C14.776 5.368 12.55 4 10 4c-3.866 0-7 3.134-7 7 0 1.933.76 3.706 2 5 2.815 2.94 11 12 11 12s8.185-9.06 11-12c1.24-1.294 2-3.067 2-5 0-3.866-3.134-7-7-7zm3.556 10.617c-2.1 2.19-7.057 7.645-9.556 10.403-2.5-2.757-7.457-8.21-9.556-10.403C5.514 13.644 5 12.36 5 11c0-2.757 2.243-5 5-5 1.768 0 3.37.91 4.285 2.437L16 11.294l1.715-2.857C18.63 6.91 20.232 6 22 6c2.757 0 5 2.243 5 5 0 1.36-.513 2.644-1.444 3.617z"/></svg>