<?xml version="1.0" encoding="utf-8"?>
<!-- Generator: Adobe Illustrator 17.1.0, SVG Export Plug-In . SVG Version: 6.00 Build 0)  -->
<!DOCTYPE svg PUBLIC "-//W3C//DTD SVG 1.1//EN" "http://www.w3.org/Graphics/SVG/1.1/DTD/svg11.dtd">
<svg version="1.1" id="Layer_1" xmlns="http://www.w3.org/2000/svg" xmlns:xlink="http://www.w3.org/1999/xlink" x="0px" y="0px"
	 width="128px" height="128px" viewBox="0 0 128 128" enable-background="new 0 0 128 128" xml:space="preserve">
<path d="M88,16c-10.203,0-19.105,5.477-24,13.631C59.105,21.477,50.203,16,40,16c-15.465,0-28,12.535-28,28
	c0,7.732,3.043,14.824,8,20c11.26,11.758,44,48,44,48s32.74-36.242,44-48c4.957-5.176,8-12.268,8-20C116,28.535,103.465,16,88,16z
	 M105.111,61.233C95.94,70.81,72.338,96.829,64,106.038c-8.338-9.209-31.94-35.228-41.111-44.804C18.446,56.595,16,50.475,16,44
	c0-13.233,10.767-24,24-24c8.487,0,16.177,4.37,20.57,11.69L64,37.403l3.43-5.714C71.823,24.37,79.513,20,88,20
	c13.233,0,24,10.767,24,24C112,50.475,109.554,56.595,105.111,61.233z"/>
</svg>
