<?xml version="1.0" encoding="iso-8859-1"?>
<!-- Generator: Adobe Illustrator 20.0.0, SVG Export Plug-In . SVG Version: 6.00 Build 0)  -->
<svg version="1.1" id="Layer_1" xmlns="http://www.w3.org/2000/svg" xmlns:xlink="http://www.w3.org/1999/xlink" x="0px" y="0px"
	 viewBox="0 0 64 64" style="enable-background:new 0 0 64 64;" xml:space="preserve">
<path d="M62.149,51.034v3.005H5.047H2.042v-3.005V9.961h3.005v41.073H62.149z M13.061,44.021c2.805,0,5.009-2.204,5.009-5.009
	c0-1.002-0.301-2.004-0.801-2.805l7.012-8.615c0.601,0.2,1.202,0.401,1.803,0.401c1.202,0,2.304-0.401,3.106-1.102l7.113,4.708
	c-0.1,0.501-0.2,0.902-0.2,1.402c0,2.805,2.204,5.009,5.009,5.009c2.805,0,5.009-2.204,5.009-5.009c0-1.002-0.301-1.803-0.701-2.605
	l7.714-8.816c0.601,0.301,1.302,0.401,2.004,0.401c2.805,0,5.009-2.204,5.009-5.009c0-2.805-2.204-5.009-5.009-5.009
	c-2.805,0-5.009,2.204-5.009,5.009c0,1.002,0.301,1.803,0.701,2.605l-7.714,8.816c-0.601-0.301-1.302-0.401-2.004-0.401
	c-1.202,0-2.304,0.401-3.106,1.102l-7.113-4.708c0.1-0.401,0.2-0.902,0.2-1.402c0-2.805-2.204-5.009-5.009-5.009
	s-5.009,2.204-5.009,5.009c0,1.002,0.301,2.004,0.801,2.805l-7.012,8.615c-0.501-0.301-1.102-0.401-1.803-0.401
	c-2.805,0-5.009,2.204-5.009,5.009C8.053,41.817,10.256,44.021,13.061,44.021z"/>
</svg>
