<?xml version="1.0" encoding="iso-8859-1"?>
<!-- Generator: Adobe Illustrator 20.0.0, SVG Export Plug-In . SVG Version: 6.00 Build 0)  -->
<svg version="1.1" id="Layer_1" xmlns="http://www.w3.org/2000/svg" xmlns:xlink="http://www.w3.org/1999/xlink" x="0px" y="0px"
	 viewBox="0 0 32 32" style="enable-background:new 0 0 32 32;" xml:space="preserve">
<path d="M30.752,25.381v1.481H2.608H1.126v-1.481V5.137h1.481v20.244H30.752z M6.558,21.925c1.383,0,2.469-1.086,2.469-2.469
	c0-0.494-0.148-0.988-0.395-1.383l3.456-4.246c0.296,0.099,0.593,0.198,0.889,0.198c0.593,0,1.136-0.198,1.531-0.543l3.506,2.321
	c-0.049,0.247-0.099,0.444-0.099,0.691c0,1.383,1.086,2.469,2.469,2.469s2.469-1.086,2.469-2.469c0-0.494-0.148-0.889-0.346-1.284
	l3.802-4.345c0.296,0.148,0.642,0.198,0.988,0.198c1.383,0,2.469-1.086,2.469-2.469s-1.086-2.469-2.469-2.469
	s-2.469,1.086-2.469,2.469c0,0.494,0.148,0.889,0.346,1.284l-3.802,4.345c-0.296-0.148-0.642-0.198-0.988-0.198
	c-0.593,0-1.136,0.198-1.531,0.543l-3.506-2.321c0.049-0.198,0.099-0.444,0.099-0.691c0-1.383-1.086-2.469-2.469-2.469
	s-2.469,1.086-2.469,2.469c0,0.494,0.148,0.988,0.395,1.383l-3.456,4.246c-0.247-0.148-0.543-0.198-0.889-0.198
	c-1.383,0-2.469,1.086-2.469,2.469S5.175,21.925,6.558,21.925z"/>
</svg>
