<?xml version="1.0" encoding="iso-8859-1"?>
<!-- Generator: Adobe Illustrator 20.0.0, SVG Export Plug-In . SVG Version: 6.00 Build 0)  -->
<svg version="1.1" id="Layer_1" xmlns="http://www.w3.org/2000/svg" xmlns:xlink="http://www.w3.org/1999/xlink" x="0px" y="0px"
	 viewBox="0 0 24 24" style="enable-background:new 0 0 24 24;" xml:space="preserve">
<path d="M22.984,18.957v1.098H2.114H1.016v-1.098V3.945h1.098v15.012H22.984z M5.043,16.394c1.025,0,1.831-0.806,1.831-1.831
	c0-0.366-0.11-0.732-0.293-1.025l2.563-3.149c0.22,0.073,0.439,0.146,0.659,0.146c0.439,0,0.842-0.146,1.135-0.403l2.6,1.721
	c-0.037,0.183-0.073,0.33-0.073,0.513c0,1.025,0.806,1.831,1.831,1.831s1.831-0.806,1.831-1.831c0-0.366-0.11-0.659-0.256-0.952
	l2.819-3.222c0.22,0.11,0.476,0.146,0.732,0.146c1.025,0,1.831-0.806,1.831-1.831s-0.806-1.831-1.831-1.831
	c-1.025,0-1.831,0.806-1.831,1.831c0,0.366,0.11,0.659,0.256,0.952l-2.819,3.222c-0.22-0.11-0.476-0.146-0.732-0.146
	c-0.439,0-0.842,0.146-1.135,0.403l-2.6-1.721c0.037-0.146,0.073-0.33,0.073-0.513c0-1.025-0.806-1.831-1.831-1.831
	S7.972,7.68,7.972,8.705c0,0.366,0.11,0.732,0.293,1.025l-2.563,3.149c-0.183-0.11-0.403-0.146-0.659-0.146
	c-1.025,0-1.831,0.806-1.831,1.831S4.018,16.394,5.043,16.394z"/>
</svg>
