<?xml version="1.0" encoding="iso-8859-1"?>
<!-- Generator: Adobe Illustrator 20.0.0, SVG Export Plug-In . SVG Version: 6.00 Build 0)  -->
<svg version="1.1" id="Layer_1" xmlns="http://www.w3.org/2000/svg" xmlns:xlink="http://www.w3.org/1999/xlink" x="0px" y="0px"
	 viewBox="0 0 16 16" style="enable-background:new 0 0 16 16;" xml:space="preserve">
<path d="M16,13.06v0.799H0.821H0.022V13.06V2.141h0.799V13.06H16z M2.951,11.196c0.746,0,1.332-0.586,1.332-1.332
	c0-0.266-0.08-0.533-0.213-0.746l1.864-2.29c0.16,0.053,0.32,0.107,0.479,0.107c0.32,0,0.613-0.107,0.826-0.293l1.891,1.252
	c-0.027,0.133-0.053,0.24-0.053,0.373c0,0.746,0.586,1.332,1.332,1.332c0.746,0,1.332-0.586,1.332-1.332
	c0-0.266-0.08-0.479-0.186-0.692l2.051-2.344c0.16,0.08,0.346,0.107,0.533,0.107c0.746,0,1.332-0.586,1.332-1.332
	s-0.586-1.332-1.332-1.332s-1.332,0.586-1.332,1.332c0,0.266,0.08,0.479,0.186,0.692L10.94,7.041
	c-0.16-0.08-0.346-0.107-0.533-0.107c-0.32,0-0.613,0.107-0.826,0.293L7.691,5.976c0.027-0.107,0.053-0.24,0.053-0.373
	c0-0.746-0.586-1.332-1.332-1.332S5.081,4.858,5.081,5.603c0,0.266,0.08,0.533,0.213,0.746L3.43,8.639
	c-0.133-0.08-0.293-0.107-0.479-0.107c-0.746,0-1.332,0.586-1.332,1.332S2.205,11.196,2.951,11.196z"/>
</svg>
