<?xml version="1.0" encoding="iso-8859-1"?>
<!-- Generator: Adobe Illustrator 20.0.0, SVG Export Plug-In . SVG Version: 6.00 Build 0)  -->
<svg version="1.1" id="Layer_1" xmlns="http://www.w3.org/2000/svg" xmlns:xlink="http://www.w3.org/1999/xlink" x="0px" y="0px"
	 viewBox="0 0 128 128" style="enable-background:new 0 0 128 128;" xml:space="preserve">
<path d="M124,102.015v6.002H9.955H3.952v-6.002V19.982h6.002v82.033H124z M25.961,88.01c5.602,0,10.004-4.402,10.004-10.004
	c0-2.001-0.6-4.002-1.601-5.602L48.37,55.196c1.2,0.4,2.401,0.8,3.601,0.8c2.401,0,4.602-0.8,6.202-2.201L72.379,63.2
	c-0.2,1-0.4,1.801-0.4,2.801c0,5.602,4.402,10.004,10.004,10.004s10.004-4.402,10.004-10.004c0-2.001-0.6-3.601-1.401-5.202
	l15.406-17.607c1.2,0.6,2.601,0.8,4.002,0.8c5.602,0,10.004-4.402,10.004-10.004s-4.402-10.004-10.004-10.004
	S99.99,28.386,99.99,33.988c0,2.001,0.6,3.601,1.401,5.202L85.985,56.797c-1.2-0.6-2.601-0.8-4.002-0.8
	c-2.401,0-4.602,0.8-6.202,2.201l-14.206-9.404c0.2-0.8,0.4-1.801,0.4-2.801c0-5.602-4.402-10.004-10.004-10.004
	s-10.004,4.402-10.004,10.004c0,2.001,0.6,4.002,1.601,5.602L29.562,68.802c-1-0.6-2.201-0.8-3.601-0.8
	c-5.602,0-10.004,4.402-10.004,10.004S20.359,88.01,25.961,88.01z"/>
</svg>
