<svg xmlns="http://www.w3.org/2000/svg" viewBox="0 0 32 32"><path d="M24.484 4.515C22.314 2.343 19.314 1 16 1S9.686 2.343 7.516 4.515C5.344 6.687 4 9.685 4 13c0 3.508 1.344 6.685 3.516 8.984L16 31l8.484-9.016C26.656 19.684 28 16.508 28 13c0-3.314-1.344-6.313-3.516-8.485zm-1.456 16.098L16 28.08l-7.03-7.47C7.054 18.583 6 15.88 6 13c0-2.67 1.04-5.182 2.93-7.07C10.818 4.04 13.33 3 16 3s5.182 1.04 7.07 2.93C24.96 7.818 26 10.33 26 13c0 2.88-1.055 5.583-2.972 7.613z"/><circle cx="16" cy="13" r="4"/></svg>