<svg xmlns="http://www.w3.org/2000/svg" viewBox="0 0 64 64"><path d="M48.97 9.03C44.626 4.687 38.626 2 32 2S19.373 4.687 15.03 9.03C10.688 13.373 8 19.373 8 26c0 7.017 2.687 13.37 7.03 17.968L32 62l16.97-18.032C53.31 39.37 56 33.018 56 26c0-6.627-2.688-12.627-7.03-16.97zM47.51 42.597L32 59.082 16.485 42.594C12.303 38.168 10 32.274 10 26c0-5.875 2.29-11.4 6.446-15.556C20.6 6.29 26.123 4 32 4c5.876 0 11.4 2.29 15.555 6.445C51.71 14.6 54 20.125 54 26c0 6.274-2.303 12.168-6.488 16.597z"/><circle cx="32" cy="26" r="8"/></svg>