<?xml version="1.0" encoding="utf-8"?>
<!-- Generator: Adobe Illustrator 19.1.0, SVG Export Plug-In . SVG Version: 6.00 Build 0)  -->
<svg version="1.1" id="Icon" xmlns="http://www.w3.org/2000/svg" xmlns:xlink="http://www.w3.org/1999/xlink" x="0px" y="0px"
	 width="16px" height="16px" viewBox="0 0 16 16" enable-background="new 0 0 16 16" xml:space="preserve">
<g>
	<g>
		<path d="M12.628,1.875C11.446,0.718,9.81,0,8,0C6.19,0,4.554,0.718,3.372,1.875C2.189,3.031,1.455,4.631,1.455,6.4
			c0,1.87,1.817,4.374,3,5.6L8,16l3.455-4c1.183-1.227,3.091-3.73,3.091-5.6C14.545,4.631,13.811,3.031,12.628,1.875z M8,8.727
			c-1.208,0-2.182-0.974-2.182-2.183c0-1.207,0.974-2.181,2.182-2.181c1.208,0,2.182,0.974,2.182,2.181
			C10.182,7.753,9.208,8.727,8,8.727z"/>
	</g>
</g>
</svg>
