<svg xmlns="http://www.w3.org/2000/svg" viewBox="0 0 128 128"><path d="M97.937 18.06C89.254 9.373 77.254 4 64 4 50.746 4 38.746 9.373 30.062 18.06 21.375 26.746 16 38.746 16 52c0 14.033 5.375 26.74 14.062 35.936L64 124l33.937-36.064C106.625 78.74 112 66.033 112 52c0-13.254-5.375-25.254-14.063-33.94zm-2.913 67.134L64 118.164 32.97 85.187C24.606 76.336 20 64.548 20 52c0-11.75 4.578-22.8 12.892-31.112C41.2 12.578 52.247 8 64 8s22.8 4.577 31.11 12.89C103.42 29.2 108 40.25 108 52c0 12.55-4.606 24.336-12.976 33.194z"/><circle cx="64" cy="52" r="16"/></svg>