<?xml version="1.0" encoding="utf-8"?>
<!-- Generator: Adobe Illustrator 19.1.0, SVG Export Plug-In . SVG Version: 6.00 Build 0)  -->
<svg version="1.1" id="Icon" xmlns="http://www.w3.org/2000/svg" xmlns:xlink="http://www.w3.org/1999/xlink" x="0px" y="0px"
	 width="24px" height="24px" viewBox="0 0 24 24" enable-background="new 0 0 24 24" xml:space="preserve">
<g>
	<g>
		<path d="M18.363,3.578C16.738,1.987,14.489,1,12,1C9.511,1,7.262,1.987,5.637,3.578C4.01,5.167,3,7.367,3,9.8
			c0,2.571,1.01,4.904,2.637,6.591L12,23l6.363-6.609C19.99,14.704,21,12.371,21,9.8C21,7.367,19.99,5.167,18.363,3.578z M12,13
			c-1.661,0-3-1.34-3-3.001C9,8.34,10.339,7,12,7c1.661,0,3,1.34,3,2.999C15,11.66,13.661,13,12,13z"/>
	</g>
</g>
</svg>
