<?xml version="1.0" encoding="utf-8"?>
<!-- Generator: Adobe Illustrator 19.1.0, SVG Export Plug-In . SVG Version: 6.00 Build 0)  -->
<svg version="1.1" id="Icon" xmlns="http://www.w3.org/2000/svg" xmlns:xlink="http://www.w3.org/1999/xlink" x="0px" y="0px"
	 width="16px" height="16px" viewBox="0 0 16 16" enable-background="new 0 0 16 16" xml:space="preserve">
<g>
	<path d="M8,11c1.65,0,3-1.35,3-3V3c0-1.65-1.35-3-3-3C6.35,0,5,1.35,5,3v5C5,9.65,6.35,11,8,11z"/>
	<path d="M12,7.958V8c0,2.2-1.8,4-4,4s-4-1.8-4-4V7.958H3V8c0,2.415,1.721,4.434,4,4.899V15H5v1h6v-1H9v-2.101
		c2.279-0.465,4-2.484,4-4.899V7.958H12z"/>
</g>
</svg>
