<?xml version="1.0" encoding="utf-8"?>
<!-- Generator: Adobe Illustrator 19.1.0, SVG Export Plug-In . SVG Version: 6.00 Build 0)  -->
<svg version="1.1" id="Icon" xmlns="http://www.w3.org/2000/svg" xmlns:xlink="http://www.w3.org/1999/xlink" x="0px" y="0px"
	 width="24px" height="24px" viewBox="0 0 24 24" enable-background="new 0 0 24 24" xml:space="preserve">
<g>
	<path d="M19.5,12h-2c0,3.033-2.467,5.5-5.5,5.5S6.5,15.033,6.5,12h-2c0,3.802,2.832,6.936,6.5,7.426V21H9v2h6v-2h-2v-1.574
		C16.668,18.936,19.5,15.802,19.5,12z"/>
	<path d="M12,16c2.209,0,4-1.791,4-4V5c0-2.209-1.791-4-4-4S8,2.791,8,5v7C8,14.209,9.791,16,12,16z"/>
</g>
</svg>
