<?xml version="1.0" encoding="utf-8"?>
<!-- Generator: Adobe Illustrator 17.1.0, SVG Export Plug-In . SVG Version: 6.00 Build 0)  -->
<!DOCTYPE svg PUBLIC "-//W3C//DTD SVG 1.1//EN" "http://www.w3.org/Graphics/SVG/1.1/DTD/svg11.dtd">
<svg version="1.1" id="Layer_1" xmlns="http://www.w3.org/2000/svg" xmlns:xlink="http://www.w3.org/1999/xlink" x="0px" y="0px"
	 width="128px" height="128px" viewBox="0 0 128 128" enable-background="new 0 0 128 128" xml:space="preserve">
<path d="M48,20v16v4v52.037C44.352,87.166,38.552,84,32,84c-11.043,0-20,8.953-20,20s8.957,20,20,20s20-8.953,20-20V39.059
	l60-14.117v51.096C108.352,71.166,102.552,68,96,68c-11.043,0-20,8.953-20,20s8.957,20,20,20s20-8.953,20-20V24v-4V4L48,20z M32,120
	c-8.822,0-16-7.178-16-16s7.178-16,16-16s16,7.178,16,16S40.822,120,32,120z M96,104c-8.822,0-16-7.178-16-16s7.178-16,16-16
	s16,7.178,16,16S104.822,104,96,104z"/>
</svg>
