<?xml version="1.0" encoding="utf-8"?>
<!-- Generator: Adobe Illustrator 17.1.0, SVG Export Plug-In . SVG Version: 6.00 Build 0)  -->
<!DOCTYPE svg PUBLIC "-//W3C//DTD SVG 1.1//EN" "http://www.w3.org/Graphics/SVG/1.1/DTD/svg11.dtd">
<svg version="1.1" id="Layer_1" xmlns="http://www.w3.org/2000/svg" xmlns:xlink="http://www.w3.org/1999/xlink" x="0px" y="0px"
	 width="64px" height="64px" viewBox="0 0 64 64" enable-background="new 0 0 64 64" xml:space="preserve">
<path d="M24,10v8v2v26.019C22.176,43.583,19.275,42,16,42c-5.521,0-10,4.477-10,10s4.479,10,10,10s10-4.477,10-10V19.529l30-7.059
	v25.548C54.176,35.583,51.275,34,48,34c-5.521,0-10,4.477-10,10s4.479,10,10,10s10-4.477,10-10V12v-2V2L24,10z M16,60
	c-4.411,0-8-3.589-8-8s3.589-8,8-8s8,3.589,8,8S20.411,60,16,60z M48,52c-4.411,0-8-3.589-8-8s3.589-8,8-8s8,3.589,8,8
	S52.411,52,48,52z"/>
</svg>
