<?xml version="1.0" encoding="utf-8"?>
<!-- Generator: Adobe Illustrator 17.1.0, SVG Export Plug-In . SVG Version: 6.00 Build 0)  -->
<!DOCTYPE svg PUBLIC "-//W3C//DTD SVG 1.1//EN" "http://www.w3.org/Graphics/SVG/1.1/DTD/svg11.dtd">
<svg version="1.1" id="Layer_1" xmlns="http://www.w3.org/2000/svg" xmlns:xlink="http://www.w3.org/1999/xlink" x="0px" y="0px"
	 width="32px" height="32px" viewBox="0 0 32 32" enable-background="new 0 0 32 32" xml:space="preserve">
<path d="M11,5v4v1v12.023C10.162,21.39,9.131,21,8,21c-2.761,0-5,2.238-5,5s2.239,5,5,5s5-2.238,5-5V9.556l14-3.111v11.579
	C26.162,17.39,25.131,17,24,17c-2.761,0-5,2.238-5,5s2.239,5,5,5s5-2.238,5-5V6V5V1L11,5z M8,29c-1.654,0-3-1.346-3-3s1.346-3,3-3
	s3,1.346,3,3S9.654,29,8,29z M24,25c-1.654,0-3-1.346-3-3s1.346-3,3-3s3,1.346,3,3S25.654,25,24,25z"/>
</svg>
