<?xml version="1.0" encoding="iso-8859-1"?>
<!-- Generator: Adobe Illustrator 20.0.0, SVG Export Plug-In . SVG Version: 6.00 Build 0)  -->
<svg version="1.1" id="Layer_1" xmlns="http://www.w3.org/2000/svg" xmlns:xlink="http://www.w3.org/1999/xlink" x="0px" y="0px"
	 viewBox="0 0 128 128" style="enable-background:new 0 0 128 128;" xml:space="preserve">
<path d="M48,20v16v4v52.037C44.352,87.166,38.552,84,32,84c-11.043,0-20,8.953-20,20s8.957,20,20,20s20-8.953,20-20V39.059
	l60-14.117v51.096C108.352,71.166,102.552,68,96,68c-11.043,0-20,8.953-20,20s8.957,20,20,20s20-8.953,20-20V24v-4V4L48,20z M32,120
	c-8.822,0-16-7.178-16-16s7.178-16,16-16c8.822,0,16,7.178,16,16S40.822,120,32,120z M96,104c-8.822,0-16-7.178-16-16
	s7.178-16,16-16c8.822,0,16,7.178,16,16S104.822,104,96,104z"/>
</svg>
