<?xml version="1.0" encoding="iso-8859-1"?>
<!-- Generator: Adobe Illustrator 20.0.0, SVG Export Plug-In . SVG Version: 6.00 Build 0)  -->
<svg version="1.1" id="Layer_1" xmlns="http://www.w3.org/2000/svg" xmlns:xlink="http://www.w3.org/1999/xlink" x="0px" y="0px"
	 viewBox="0 0 32 32" style="enable-background:new 0 0 32 32;" xml:space="preserve">
<path d="M16.973,9.667h5.353c0.265,2.067,2.067,3.71,4.187,3.71c2.332,0,4.24-1.908,4.24-4.24s-1.908-4.24-4.24-4.24
	c-1.961,0-3.604,1.378-4.081,3.18h-5.459c-0.53-3.869-3.869-6.89-7.897-6.89c-4.399,0-7.95,3.551-7.95,7.95
	c0,4.187,3.286,7.632,7.42,7.897v5.459c-1.802,0.477-3.18,2.12-3.18,4.081c0,2.332,1.908,4.24,4.24,4.24s4.24-1.908,4.24-4.24
	c0-2.173-1.643-3.922-3.71-4.187v-5.353c1.484-0.212,2.862-0.795,3.975-1.749l6.307,6.307c-0.477,0.689-0.742,1.484-0.742,2.385
	c0,2.332,1.908,4.24,4.24,4.24s4.24-1.908,4.24-4.24s-1.908-4.24-4.24-4.24c-0.901,0-1.696,0.265-2.385,0.742l-6.307-6.307
	C16.231,12.953,16.867,11.363,16.973,9.667z M2.716,9.137c0-3.498,2.862-6.36,6.36-6.36s6.36,2.862,6.36,6.36s-2.862,6.36-6.36,6.36
	S2.716,12.635,2.716,9.137z"/>
</svg>
