<?xml version="1.0" encoding="iso-8859-1"?>
<!-- Generator: Adobe Illustrator 20.0.0, SVG Export Plug-In . SVG Version: 6.00 Build 0)  -->
<svg version="1.1" id="Layer_1" xmlns="http://www.w3.org/2000/svg" xmlns:xlink="http://www.w3.org/1999/xlink" x="0px" y="0px"
	 viewBox="0 0 128 128" style="enable-background:new 0 0 128 128;" xml:space="preserve">
<path d="M68.164,38.337h21.69c1.074,8.375,8.375,15.033,16.966,15.033c9.449,0,17.18-7.731,17.18-17.18s-7.731-17.18-17.18-17.18
	c-7.946,0-14.603,5.584-16.536,12.885h-22.12C66.016,16.217,52.487,3.976,36.165,3.976c-17.825,0-32.213,14.389-32.213,32.213
	c0,16.966,13.315,30.925,30.066,31.998v22.12c-7.302,1.933-12.885,8.59-12.885,16.536c0,9.449,7.731,17.18,17.18,17.18
	s17.18-7.731,17.18-17.18c0-8.805-6.657-15.892-15.033-16.966v-21.69c6.013-0.859,11.597-3.221,16.107-7.087l25.556,25.556
	c-1.933,2.792-3.007,6.013-3.007,9.664c0,9.449,7.731,17.18,17.18,17.18s17.18-7.731,17.18-17.18s-7.731-17.18-17.18-17.18
	c-3.651,0-6.872,1.074-9.664,3.007L61.077,56.591C65.157,51.652,67.734,45.209,68.164,38.337z M10.395,36.189
	c0-14.174,11.597-25.771,25.771-25.771s25.771,11.597,25.771,25.771S50.339,61.96,36.165,61.96S10.395,50.363,10.395,36.189z"/>
</svg>
