<?xml version="1.0" encoding="iso-8859-1"?>
<!-- Generator: Adobe Illustrator 20.0.0, SVG Export Plug-In . SVG Version: 6.00 Build 0)  -->
<svg version="1.1" id="Layer_1" xmlns="http://www.w3.org/2000/svg" xmlns:xlink="http://www.w3.org/1999/xlink" x="0px" y="0px"
	 viewBox="0 0 24 24" style="enable-background:new 0 0 24 24;" xml:space="preserve">
<path d="M12.766,7.304h3.969c0.196,1.533,1.533,2.751,3.105,2.751c1.729,0,3.144-1.415,3.144-3.144S21.57,3.767,19.84,3.767
	c-1.454,0-2.672,1.022-3.026,2.358h-4.048c-0.393-2.869-2.869-5.109-5.856-5.109c-3.262,0-5.895,2.633-5.895,5.895
	c0,3.105,2.437,5.659,5.502,5.856v4.048C5.181,17.168,4.16,18.386,4.16,19.84c0,1.729,1.415,3.144,3.144,3.144
	s3.144-1.415,3.144-3.144c0-1.611-1.218-2.908-2.751-3.105v-3.969c1.1-0.157,2.122-0.589,2.947-1.297l4.677,4.677
	c-0.354,0.511-0.55,1.1-0.55,1.768c0,1.729,1.415,3.144,3.144,3.144c1.729,0,3.144-1.415,3.144-3.144
	c0-1.729-1.415-3.144-3.144-3.144c-0.668,0-1.258,0.196-1.768,0.55l-4.677-4.677C12.216,9.74,12.688,8.561,12.766,7.304z
	 M2.195,6.911c0-2.594,2.122-4.716,4.716-4.716s4.716,2.122,4.716,4.716s-2.122,4.716-4.716,4.716S2.195,9.504,2.195,6.911z"/>
</svg>
