<?xml version="1.0" encoding="iso-8859-1"?>
<!-- Generator: Adobe Illustrator 20.0.0, SVG Export Plug-In . SVG Version: 6.00 Build 0)  -->
<svg version="1.1" id="Layer_1" xmlns="http://www.w3.org/2000/svg" xmlns:xlink="http://www.w3.org/1999/xlink" x="0px" y="0px"
	 viewBox="0 0 64 64" style="enable-background:new 0 0 64 64;" xml:space="preserve">
<path d="M34.231,19.168h10.845c0.537,4.188,4.188,7.516,8.483,7.516c4.725,0,8.59-3.866,8.59-8.59s-3.866-8.59-8.59-8.59
	c-3.973,0-7.302,2.792-8.268,6.443h-11.06C33.157,8.109,26.392,1.988,18.231,1.988c-8.912,0-16.107,7.194-16.107,16.107
	c0,8.483,6.657,15.462,15.033,15.999v11.06c-3.651,0.966-6.443,4.295-6.443,8.268c0,4.725,3.866,8.59,8.59,8.59
	s8.59-3.866,8.59-8.59c0-4.402-3.329-7.946-7.516-8.483V34.094c3.007-0.43,5.798-1.611,8.053-3.543L41.21,43.328
	c-0.966,1.396-1.503,3.007-1.503,4.832c0,4.725,3.866,8.59,8.59,8.59s8.59-3.866,8.59-8.59s-3.866-8.59-8.59-8.59
	c-1.825,0-3.436,0.537-4.832,1.503L30.687,28.295C32.727,25.826,34.016,22.604,34.231,19.168z M5.346,18.095
	c0-7.087,5.798-12.885,12.885-12.885s12.885,5.798,12.885,12.885S25.318,30.98,18.231,30.98S5.346,25.182,5.346,18.095z"/>
</svg>
