<?xml version="1.0" encoding="iso-8859-1"?>
<!-- Generator: Adobe Illustrator 20.0.0, SVG Export Plug-In . SVG Version: 6.00 Build 0)  -->
<svg version="1.1" id="Layer_1" xmlns="http://www.w3.org/2000/svg" xmlns:xlink="http://www.w3.org/1999/xlink" x="0px" y="0px"
	 viewBox="0 0 64 64" style="enable-background:new 0 0 64 64;" xml:space="preserve">
<g>
	<path d="M50,2L25.223,26.776C23.57,26.275,21.816,26,20,26c-9.941,0-18,8.059-18,18s8.059,18,18,18c9.941,0,18-8.059,18-18
		c0-1.817-0.275-3.57-0.777-5.224L42,34v-4h4l16-16V2H50z M60,13.171L45.172,28H42h-2v2v3.171l-4.191,4.19l-0.848,0.848l0.348,1.147
		C35.768,40.868,36,42.43,36,44c0,8.822-7.178,16-16,16c-8.822,0-16-7.178-16-16s7.178-16,16-16c1.569,0,3.132,0.232,4.643,0.69
		l1.146,0.348l0.848-0.848L50.828,4H60V13.171z"/>
	<circle cx="16" cy="48" r="4"/>
	<rect x="39.515" y="15" transform="matrix(0.7071 -0.7071 0.7071 0.7071 2.7452 38.6274)" width="16.971" height="2"/>
</g>
</svg>
