<svg xmlns="http://www.w3.org/2000/svg" viewBox="0 0 64 64"><path d="M50 2L25.223 26.776C23.57 26.276 21.816 26 20 26c-9.94 0-18 8.06-18 18s8.06 18 18 18 18-8.06 18-18c0-1.817-.275-3.57-.777-5.224L42 34v-4h4l16-16V2H50zm10 11.17L45.172 28H40v5.17l-4.19 4.19-.85.85.35 1.146c.458 1.512.69 3.074.69 4.644 0 8.822-7.178 16-16 16S4 52.822 4 44s7.178-16 16-16c1.57 0 3.132.232 4.643.69l1.146.348.847-.848L50.827 4H60v9.17z"/><circle cx="16" cy="48" r="4"/><path d="M54.707 10.707l-12 12-1.414-1.414 12-12z"/></svg>