<svg xmlns="http://www.w3.org/2000/svg" viewBox="0 0 128 128"><path d="M100 4L50.445 53.553C47.14 52.55 43.633 52 40 52 20.117 52 4 68.117 4 88s16.117 36 36 36 36-16.117 36-36c0-3.635-.55-7.14-1.555-10.447L84 68v-8h8l32-32V4h-24zm20 22.343L90.344 56H80v10.343l-8.383 8.38-1.696 1.697.698 2.295C71.535 81.735 72 84.86 72 88c0 17.645-14.356 32-32 32-17.645 0-32-14.355-32-32s14.355-32 32-32c3.14 0 6.264.464 9.285 1.38l2.293.696 1.695-1.695L101.656 8H120v18.343z"/><circle cx="32" cy="96" r="8"/><path d="M109.415 21.414l-24 24-2.828-2.83 24-24z"/></svg>