<svg xmlns="http://www.w3.org/2000/svg" viewBox="0 0 128 128"><path d="M55.856 85.696c-.62-.81-1.398-1.46-2.336-1.952-.94-.49-2.06-.736-3.36-.736-1.024 0-1.963.203-2.816.608-.854.405-1.558 1.056-2.112 1.952h-.064v-2.112h-4.32v22.336h4.544v-7.84h.064c.555.81 1.264 1.424 2.128 1.84.864.416 1.808.624 2.832.624 1.216 0 2.277-.235 3.184-.704.907-.47 1.664-1.1 2.272-1.888.608-.79 1.06-1.696 1.36-2.72.3-1.024.448-2.09.448-3.2 0-1.173-.15-2.3-.448-3.376-.3-1.077-.757-2.02-1.376-2.832zm-2.912 8.032c-.128.64-.347 1.2-.656 1.68-.31.48-.715.87-1.216 1.17-.5.298-1.125.447-1.872.447-.726 0-1.344-.15-1.856-.448-.512-.3-.923-.688-1.232-1.168-.31-.482-.534-1.04-.672-1.682-.14-.64-.208-1.29-.208-1.95 0-.684.064-1.346.192-1.985.128-.64.346-1.205.656-1.696.31-.49.714-.89 1.216-1.2.5-.31 1.125-.464 1.872-.464.725 0 1.34.155 1.84.465.5.31.912.715 1.232 1.216.32.5.55 1.07.688 1.712.138.64.208 1.29.208 1.952 0 .66-.064 1.31-.192 1.95zM63.824 83.728c-.917.48-1.68 1.115-2.288 1.904-.608.79-1.067 1.702-1.376 2.736-.31 1.035-.464 2.106-.464 3.216 0 1.152.155 2.262.464 3.328.31 1.066.768 2.01 1.376 2.832.608.82 1.38 1.472 2.32 1.952.938.48 2.026.72 3.264.72 1.088 0 2.064-.197 2.928-.592.864-.395 1.562-1.04 2.096-1.937h.064V100h4.32V77.152h-4.544v8.32h-.064c-.512-.812-1.21-1.425-2.096-1.84-.885-.417-1.82-.625-2.8-.625-1.216 0-2.283.24-3.2.72zm6.272 3.152c.49.3.89.688 1.2 1.168.31.48.528 1.035.656 1.664.128.63.192 1.285.192 1.968 0 .684-.064 1.345-.192 1.984-.128.64-.34 1.21-.64 1.712s-.7.9-1.2 1.2c-.5.3-1.126.448-1.872.448-.704 0-1.307-.155-1.808-.465-.5-.31-.917-.715-1.248-1.217-.33-.5-.57-1.07-.72-1.712-.15-.64-.224-1.28-.224-1.92 0-.682.07-1.338.208-1.967.14-.63.363-1.19.672-1.68.31-.49.72-.886 1.232-1.185.512-.3 1.14-.448 1.888-.448.746.002 1.365.15 1.856.45zM80.944 100h4.544V86.496h3.136v-3.04h-3.136v-.992c0-.683.133-1.168.4-1.456.267-.288.71-.432 1.328-.432.576 0 1.13.032 1.664.096V77.28c-.384-.02-.78-.048-1.184-.08-.406-.032-.81-.048-1.216-.048-1.856 0-3.243.47-4.16 1.407-.918.938-1.376 2.144-1.376 3.615v1.28h-2.72v3.04h2.72V100z"/><path d="M72 4H24v120h80V36L72 4zm28 116H28V8h40v32h32v80z"/></svg>