<svg xmlns="http://www.w3.org/2000/svg" viewBox="0 0 64 64"><path d="M27.928 42.848c-.31-.405-.7-.73-1.168-.976-.47-.245-1.03-.368-1.68-.368-.512 0-.98.102-1.408.304-.427.203-.78.528-1.056.977h-.032v-1.057h-2.16v11.17h2.273v-3.922h.032c.276.406.63.713 1.063.92.432.208.904.313 1.416.313.607 0 1.138-.118 1.59-.353.454-.235.833-.55 1.137-.944.304-.395.53-.848.68-1.36.15-.512.224-1.045.224-1.6 0-.587-.074-1.15-.223-1.688-.15-.54-.38-1.01-.69-1.417zm-1.456 4.016c-.064.32-.174.6-.328.84-.155.24-.357.435-.608.584-.25.15-.563.224-.936.224-.363 0-.672-.074-.928-.224-.256-.15-.462-.344-.616-.584-.155-.24-.267-.52-.336-.84-.07-.32-.104-.646-.104-.977 0-.34.032-.672.096-.99.064-.32.173-.604.328-.85.154-.245.357-.445.608-.6.25-.154.562-.232.936-.232.363 0 .67.078.92.232.25.154.456.357.616.607.16.25.274.536.344.856.07.32.104.645.104.976 0 .333-.032.658-.096.978zM31.912 41.864c-.46.24-.84.558-1.144.952-.304.395-.534.85-.688 1.367-.155.518-.232 1.054-.232 1.608 0 .577.077 1.132.232 1.665.154.533.384 1.006.688 1.416.304.412.69.737 1.16.977s1.014.36 1.632.36c.544 0 1.032-.1 1.464-.296.432-.196.78-.52 1.048-.967h.032V50h2.16V38.576h-2.272v4.16h-.032c-.256-.405-.606-.712-1.048-.92-.443-.208-.91-.312-1.4-.312-.608 0-1.14.12-1.6.36zm3.136 1.576c.245.15.445.344.6.584.154.24.264.517.328.832.064.314.096.643.096.983 0 .34-.032.67-.096.99-.064.32-.17.606-.32.857-.15.25-.35.45-.6.6-.25.15-.563.224-.936.224-.352 0-.654-.076-.904-.23-.25-.154-.46-.357-.624-.608-.166-.25-.285-.536-.36-.856-.075-.32-.112-.64-.112-.96 0-.342.034-.67.104-.984.07-.315.18-.595.336-.84.154-.245.36-.442.616-.592.256-.15.57-.225.944-.225.373 0 .682.076.928.225zM40.472 50h2.272v-6.752h1.568v-1.52h-1.568v-.496c0-.342.067-.584.2-.73.133-.142.354-.215.664-.215.288 0 .565.016.832.048V38.64c-.192-.01-.39-.023-.592-.04-.203-.016-.405-.023-.608-.023-.928 0-1.622.234-2.08.704-.458.47-.688 1.072-.688 1.81v.64h-1.36v1.52h1.36V50z"/><path d="M36 2H12v60h40V18L36 2zm14 58H14V4h20v16h16v40z"/></svg>