<?xml version="1.0" encoding="utf-8"?>
<!-- Generator: Adobe Illustrator 17.1.0, SVG Export Plug-In . SVG Version: 6.00 Build 0)  -->
<!DOCTYPE svg PUBLIC "-//W3C//DTD SVG 1.1//EN" "http://www.w3.org/Graphics/SVG/1.1/DTD/svg11.dtd">
<svg version="1.1" id="Layer_1" xmlns="http://www.w3.org/2000/svg" xmlns:xlink="http://www.w3.org/1999/xlink" x="0px" y="0px"
	 width="128px" height="128px" viewBox="0 0 128 128" enable-background="new 0 0 128 128" xml:space="preserve">
<g>
	<path d="M55.856,85.696c-0.619-0.811-1.398-1.461-2.336-1.952c-0.939-0.49-2.059-0.736-3.36-0.736
		c-1.024,0-1.963,0.203-2.816,0.608c-0.854,0.405-1.558,1.056-2.112,1.952h-0.064v-2.112h-4.32v22.336h4.544v-7.84h0.064
		c0.555,0.811,1.264,1.424,2.128,1.84c0.864,0.416,1.808,0.624,2.832,0.624c1.216,0,2.277-0.235,3.184-0.704
		c0.907-0.469,1.664-1.099,2.272-1.888c0.608-0.789,1.061-1.696,1.36-2.721c0.299-1.023,0.448-2.09,0.448-3.199
		c0-1.173-0.149-2.299-0.448-3.376C56.933,87.451,56.475,86.507,55.856,85.696z M52.944,93.728c-0.128,0.641-0.347,1.2-0.656,1.681
		c-0.31,0.479-0.715,0.869-1.216,1.168c-0.501,0.299-1.125,0.448-1.872,0.448c-0.726,0-1.344-0.149-1.856-0.448
		c-0.512-0.299-0.923-0.688-1.232-1.168c-0.31-0.481-0.534-1.04-0.672-1.681c-0.139-0.64-0.208-1.29-0.208-1.951
		c0-0.683,0.064-1.345,0.192-1.984c0.128-0.64,0.346-1.205,0.656-1.696c0.309-0.49,0.714-0.891,1.216-1.199
		c0.501-0.31,1.125-0.465,1.872-0.465c0.725,0,1.339,0.155,1.84,0.465c0.501,0.309,0.912,0.715,1.232,1.216
		c0.32,0.501,0.549,1.071,0.688,1.712c0.138,0.64,0.208,1.291,0.208,1.952C53.136,92.438,53.072,93.088,52.944,93.728z"/>
	<path d="M63.824,83.728c-0.917,0.48-1.68,1.115-2.288,1.904c-0.608,0.79-1.067,1.702-1.376,2.736
		c-0.309,1.035-0.464,2.106-0.464,3.216c0,1.152,0.155,2.262,0.464,3.328c0.309,1.066,0.768,2.011,1.376,2.832
		c0.608,0.821,1.381,1.472,2.32,1.952c0.938,0.479,2.026,0.72,3.264,0.72c1.088,0,2.064-0.197,2.928-0.592
		c0.864-0.395,1.562-1.04,2.096-1.937h0.064V100h4.32V77.152h-4.544v8.319H71.92c-0.512-0.811-1.211-1.424-2.096-1.84
		c-0.885-0.416-1.819-0.624-2.8-0.624C65.808,83.008,64.741,83.248,63.824,83.728z M70.096,86.88c0.491,0.299,0.891,0.688,1.2,1.168
		c0.309,0.48,0.528,1.035,0.656,1.664c0.128,0.63,0.192,1.285,0.192,1.968c0,0.684-0.064,1.345-0.192,1.984
		c-0.128,0.64-0.341,1.211-0.64,1.712c-0.299,0.502-0.699,0.901-1.2,1.2c-0.501,0.299-1.126,0.448-1.872,0.448
		c-0.704,0-1.307-0.155-1.808-0.465c-0.501-0.309-0.917-0.714-1.248-1.216c-0.331-0.501-0.571-1.071-0.72-1.712
		c-0.149-0.64-0.224-1.28-0.224-1.92c0-0.683,0.069-1.339,0.208-1.968c0.139-0.629,0.363-1.189,0.672-1.68
		c0.309-0.491,0.72-0.886,1.232-1.185c0.512-0.299,1.141-0.448,1.888-0.448C68.986,86.432,69.605,86.581,70.096,86.88z"/>
	<path d="M80.944,100h4.544V86.496h3.136v-3.04h-3.136v-0.992c0-0.683,0.133-1.168,0.4-1.456c0.267-0.288,0.709-0.432,1.328-0.432
		c0.576,0,1.13,0.032,1.664,0.096V77.28c-0.384-0.021-0.779-0.048-1.184-0.08c-0.406-0.032-0.811-0.048-1.216-0.048
		c-1.856,0-3.243,0.469-4.16,1.407c-0.918,0.939-1.376,2.145-1.376,3.616v1.28h-2.72v3.04h2.72V100z"/>
	<path d="M72,4h-4H24v120h80V40v-4L72,4z M100,120H28V8h40v32h32V120z"/>
</g>
</svg>
