<svg xmlns="http://www.w3.org/2000/svg" viewBox="0 0 32 32"><path d="M13.964 21.424c-.155-.203-.35-.365-.584-.488-.235-.122-.515-.183-.84-.183-.256 0-.49.05-.704.152-.213.102-.39.264-.528.488h-.016v-.53h-1.08v5.586h1.136v-1.96h.016c.14.202.316.354.532.46.216.103.452.154.708.154.304 0 .57-.06.796-.176.227-.117.416-.274.568-.472.152-.197.265-.424.34-.68.075-.257.112-.522.112-.8 0-.294-.038-.575-.112-.845-.075-.267-.19-.503-.344-.706zm-.728 2.008c-.032.16-.087.3-.164.42-.077.12-.18.218-.304.293-.125.074-.28.11-.468.11-.18 0-.336-.036-.464-.11-.128-.075-.23-.172-.308-.293-.078-.12-.133-.26-.168-.42-.035-.16-.052-.322-.052-.488 0-.17.016-.336.048-.495.032-.16.087-.303.164-.426.077-.122.178-.223.304-.3.125-.077.28-.116.468-.116.18 0 .335.04.46.117.125.076.228.178.308.303.08.126.138.27.172.43.035.16.052.322.052.486 0 .165-.016.327-.048.488zM15.956 20.932c-.23.12-.42.28-.572.477-.152.196-.267.425-.344.683-.078.26-.116.527-.116.805 0 .287.04.564.116.832.077.266.192.502.344.707.152.206.345.37.58.488.235.12.507.18.816.18.272 0 .516-.05.732-.147.216-.1.39-.26.524-.483h.016V25h1.08v-5.712h-1.136v2.08h-.016c-.128-.202-.303-.357-.524-.46-.222-.103-.455-.156-.7-.156-.304 0-.57.06-.8.18zm1.568.79c.123.073.223.17.3.29.078.12.132.26.164.416.032.158.048.322.048.492 0 .17-.016.336-.048.496-.032.16-.085.303-.16.428s-.175.226-.3.3c-.125.075-.28.112-.468.112-.176 0-.327-.04-.452-.115-.125-.077-.23-.18-.312-.304-.082-.125-.143-.267-.18-.428-.038-.16-.056-.32-.056-.48 0-.17.017-.334.052-.492.035-.156.09-.297.168-.42.078-.122.18-.22.308-.295.128-.074.285-.112.472-.112s.34.038.464.113zM20.236 25h1.136v-3.376h.784v-.76h-.784v-.248c0-.17.033-.292.1-.364.066-.072.177-.108.332-.108.144 0 .283.008.416.023v-.847c-.096-.006-.195-.012-.296-.02-.1-.008-.203-.012-.304-.012-.464 0-.81.117-1.04.353-.23.235-.344.536-.344.904v.32h-.68v.76h.68V25z"/><path d="M18 1H6v30h20V9l-8-8zm6 28H8V3h9v7h7v19z"/></svg>