<?xml version="1.0" encoding="iso-8859-1"?>
<!-- Generator: Adobe Illustrator 20.0.0, SVG Export Plug-In . SVG Version: 6.00 Build 0)  -->
<svg version="1.1" id="Layer_1" xmlns="http://www.w3.org/2000/svg" xmlns:xlink="http://www.w3.org/1999/xlink" x="0px" y="0px"
	 viewBox="0 0 128 128" style="enable-background:new 0 0 128 128;" xml:space="preserve">
<g>
	<path d="M64,36c8.836,0,16-7.164,16-16S72.836,4,64,4c-8.836,0-16,7.164-16,16S55.164,36,64,36z M64,8c6.617,0,12,5.383,12,12
		s-5.383,12-12,12s-12-5.383-12-12S57.383,8,64,8z"/>
	<path d="M76,44H52c-4.418,0-8,3.582-8,8v32l8,8v28c0,2.209,1.789,4,4,4h16c2.211,0,4-1.791,4-4V92l8-8V52
		C84,47.582,80.418,44,76,44z"/>
</g>
</svg>
