<?xml version="1.0" encoding="iso-8859-1"?>
<!-- Generator: Adobe Illustrator 20.0.0, SVG Export Plug-In . SVG Version: 6.00 Build 0)  -->
<svg version="1.1" id="Layer_1" xmlns="http://www.w3.org/2000/svg" xmlns:xlink="http://www.w3.org/1999/xlink" x="0px" y="0px"
	 viewBox="0 0 128 128" style="enable-background:new 0 0 128 128;" xml:space="preserve">
<path d="M96,4L72,32l8,12L44,80l-12-8L4,92l12,32c20-8,44-24,64-44s36-44,44-64L96,4z M77.172,77.171
	c-17.688,17.688-39.417,32.977-58.887,41.531L8.823,93.47l23.255-16.61l9.703,6.468l2.728,1.819l2.318-2.318l36-36l2.319-2.319
	l-1.819-2.729l-6.319-9.479L97.125,8.834l21.652,9.28C110.238,37.627,94.911,59.432,77.172,77.171z"/>
</svg>
