<?xml version="1.0" encoding="utf-8"?>
<!-- Generator: Adobe Illustrator 19.1.0, SVG Export Plug-In . SVG Version: 6.00 Build 0)  -->
<svg version="1.1" id="Icon" xmlns="http://www.w3.org/2000/svg" xmlns:xlink="http://www.w3.org/1999/xlink" x="0px" y="0px"
	 width="16px" height="16px" viewBox="0 0 16 16" enable-background="new 0 0 16 16" xml:space="preserve">
<path d="M0.539,5H5V0.581C2.974,1.382,1.358,2.98,0.539,5z"/>
<path d="M8,0C7.661,0,7.328,0.028,7,0.069V1v1.09V7H2.09H1H0.069C0.028,7.328,0,7.661,0,8c0,4.418,3.582,8,8,8s8-3.582,8-8
	S12.418,0,8,0z M13.91,7H9V2.09C11.507,2.514,13.486,4.493,13.91,7z M8,14c-2.967,0-5.431-2.167-5.91-5H13.91
	C13.431,11.833,10.967,14,8,14z"/>
</svg>
