<?xml version="1.0" encoding="utf-8"?>
<!-- Generator: Adobe Illustrator 19.1.0, SVG Export Plug-In . SVG Version: 6.00 Build 0)  -->
<svg version="1.1" id="Icon" xmlns="http://www.w3.org/2000/svg" xmlns:xlink="http://www.w3.org/1999/xlink" x="0px" y="0px"
	 width="24px" height="24px" viewBox="0 0 24 24" enable-background="new 0 0 24 24" xml:space="preserve">
<path d="M10,1.205C5.535,2.028,2.028,5.535,1.205,10H10V1.205z"/>
<path d="M12,1v11H1c0,6.074,4.926,11,11,11c5.39,0,9.868-3.882,10.81-9l0-0.001c0.059-0.322,0.108-0.647,0.139-0.978
	C22.982,12.685,23,12.345,23,12C23,5.926,18.074,1,12,1z M11.776,21C7.501,21,3.912,18.003,3,14h18
	C20.088,18.003,16.051,21,11.776,21z M14,12V3.224c4.003,0.912,7,4.501,7,8.776H14z"/>
</svg>
