<?xml version="1.0" encoding="utf-8"?>
<!-- Generator: Adobe Illustrator 19.1.0, SVG Export Plug-In . SVG Version: 6.00 Build 0)  -->
<svg version="1.1" xmlns="http://www.w3.org/2000/svg" xmlns:xlink="http://www.w3.org/1999/xlink" x="0px" y="0px" width="16px"
	 height="16px" viewBox="0 0 16 16" enable-background="new 0 0 16 16" xml:space="preserve">
<g id="Guides" display="none">
	<rect display="inline" fill="#F0F0F0" width="16" height="16"/>
</g>
<g id="Name" display="none">
</g>
<g id="Icon">
	<g>
		<path d="M10.461,13.458c-0.065,0.03-0.126,0.071-0.193,0.098c-0.358,0.146-0.731,0.259-1.11,0.333
			c-0.385,0.076-0.78,0.099-1.173,0.112C7.582,14,7.175,13.958,6.776,13.874c-0.4-0.083-0.79-0.207-1.16-0.367
			c-0.054-0.023-0.106-0.054-0.159-0.08C5.481,13.288,5.5,13.146,5.5,13c0-1.378-1.122-2.5-2.5-2.5
			c-0.141,0-0.277,0.019-0.412,0.042c-0.044-0.093-0.105-0.178-0.144-0.273C2.298,9.91,2.186,9.537,2.111,9.158
			C2.035,8.773,1.997,8.379,1.999,7.986C2,7.601,2.039,7.211,2.115,6.829L0.154,6.438C0.053,6.946,0,7.465-0.001,7.979
			c-0.001,0.525,0.049,1.051,0.15,1.565c0.099,0.505,0.249,1.004,0.445,1.481c0.089,0.218,0.191,0.431,0.299,0.641
			C0.647,12.054,0.5,12.509,0.5,13c0,1.378,1.122,2.5,2.5,2.5c0.493,0,0.949-0.148,1.337-0.395c0.16,0.084,0.321,0.167,0.486,0.239
			c0.493,0.213,1.013,0.377,1.544,0.488S7.441,16,7.979,16.001c0.008,0,0.016,0,0.025,0c0.516,0,1.035-0.05,1.541-0.15
			c0.505-0.099,1.004-0.249,1.481-0.445c0.27-0.111,0.527-0.259,0.785-0.399l0.654,0.75l1.293-3.773L9.844,12.75L10.461,13.458z
			 M1.5,13c0-0.828,0.672-1.5,1.5-1.5s1.5,0.672,1.5,1.5S3.828,14.5,3,14.5S1.5,13.828,1.5,13z"/>
		<path d="M15.851,6.455c-0.099-0.504-0.249-1.002-0.445-1.481c-0.089-0.218-0.191-0.431-0.299-0.641
			C15.353,3.946,15.5,3.491,15.5,3c0-1.378-1.122-2.5-2.5-2.5c-0.493,0-0.95,0.148-1.337,0.395c-0.16-0.084-0.321-0.168-0.487-0.24
			c-0.494-0.213-1.013-0.376-1.543-0.487c-0.53-0.11-1.072-0.167-1.611-0.17C7.542,0.006,6.97,0.047,6.455,0.149
			C5.951,0.248,5.453,0.398,4.974,0.594c-0.271,0.111-0.527,0.259-0.786,0.4l-0.654-0.75L2.241,4.017L6.156,3.25L5.539,2.543
			c0.066-0.03,0.126-0.071,0.193-0.098c0.36-0.147,0.733-0.26,1.11-0.334c0.385-0.076,0.801-0.106,1.171-0.112
			C8.417,2,8.825,2.043,9.224,2.126c0.399,0.083,0.79,0.207,1.16,0.366c0.055,0.024,0.106,0.054,0.16,0.08
			C10.519,2.712,10.5,2.854,10.5,3c0,1.378,1.122,2.5,2.5,2.5c0.141,0,0.277-0.019,0.411-0.042c0.044,0.093,0.105,0.178,0.144,0.273
			c0.147,0.36,0.26,0.733,0.334,1.11c0.076,0.386,0.113,0.78,0.112,1.173C14,8.418,13.957,8.825,13.874,9.224l1.958,0.408
			c0.111-0.531,0.168-1.073,0.169-1.61C16.003,7.498,15.953,6.971,15.851,6.455z M11.5,3c0-0.828,0.672-1.5,1.5-1.5
			s1.5,0.672,1.5,1.5S13.828,4.5,13,4.5S11.5,3.828,11.5,3z"/>
		<circle cx="8" cy="8" r="2"/>
	</g>
</g>
</svg>
