<?xml version="1.0" encoding="utf-8"?>
<!-- Generator: Adobe Illustrator 19.1.0, SVG Export Plug-In . SVG Version: 6.00 Build 0)  -->
<svg version="1.1" xmlns="http://www.w3.org/2000/svg" xmlns:xlink="http://www.w3.org/1999/xlink" x="0px" y="0px" width="24px"
	 height="24px" viewBox="0 0 24 24" enable-background="new 0 0 24 24" xml:space="preserve">
<g id="Guides" display="none">
	<rect display="inline" fill="#F0F0F0" width="24" height="24"/>
	<g display="inline">
		<path fill="#FFCCCC" d="M23,1v22H1V1H23 M24,0H0v24h24V0L24,0z"/>
	</g>
</g>
<g id="Name" display="none">
</g>
<g id="Icon">
	<g>
		<path d="M22.963,11.106c-0.061-0.743-0.196-1.48-0.402-2.19c-0.201-0.692-0.473-1.367-0.808-2.007
			c-0.328-0.628-0.719-1.228-1.163-1.781c-0.439-0.548-0.934-1.057-1.47-1.512c-0.536-0.455-1.118-0.861-1.731-1.207
			c-0.618-0.348-1.272-0.637-1.945-0.859c-0.684-0.226-1.394-0.384-2.112-0.471c-0.736-0.088-1.484-0.103-2.226-0.042
			c-0.743,0.061-1.48,0.196-2.19,0.402C8.224,1.64,7.549,1.912,6.909,2.247C6.28,2.575,5.681,2.966,5.128,3.409
			C4.58,3.848,4.071,4.343,3.616,4.879C3.161,5.415,2.755,5.998,2.409,6.611C2.062,7.229,1.772,7.883,1.55,8.556
			C1.325,9.239,1.166,9.95,1.079,10.668c-0.089,0.735-0.103,1.484-0.042,2.226c0.061,0.743,0.196,1.48,0.402,2.19
			c0.07,0.241,0.153,0.477,0.242,0.712C1.262,16.243,1,16.84,1,17.5C1,18.878,2.122,20,3.5,20c0.285,0,0.554-0.058,0.809-0.146
			c0.184,0.184,0.373,0.362,0.571,0.53c0.536,0.455,1.118,0.861,1.731,1.207C6.8,21.697,7,21.786,7.196,21.882l-0.289,0.966
			l3.881-0.92l-2.737-2.902L7.777,19.94c-0.061-0.032-0.125-0.059-0.185-0.092c-0.502-0.283-0.979-0.615-1.418-0.988
			c-0.136-0.115-0.249-0.253-0.376-0.378C5.927,18.18,6,17.849,6,17.5c0-1.371-1.11-2.485-2.478-2.498
			c-0.058-0.158-0.116-0.316-0.163-0.477c-0.169-0.581-0.28-1.185-0.33-1.794c-0.049-0.608-0.038-1.222,0.035-1.823
			c0.071-0.587,0.201-1.167,0.385-1.726c0.182-0.55,0.418-1.085,0.702-1.591C4.435,7.09,4.767,6.613,5.14,6.174
			C5.514,5.734,5.93,5.329,6.379,4.97c0.452-0.362,0.942-0.682,1.456-0.951c0.523-0.273,1.075-0.495,1.64-0.66
			c0.581-0.169,1.185-0.28,1.794-0.33c0.608-0.048,1.222-0.037,1.823,0.035c0.587,0.071,1.167,0.201,1.726,0.385
			c0.55,0.182,1.085,0.418,1.591,0.702c0.502,0.283,0.979,0.615,1.418,0.988c0.439,0.374,0.845,0.79,1.204,1.239
			c0.362,0.452,0.682,0.942,0.951,1.456c0.273,0.523,0.495,1.075,0.66,1.64c0.169,0.581,0.28,1.185,0.33,1.794
			c0.049,0.608,0.038,1.222-0.035,1.823c-0.071,0.587-0.201,1.167-0.385,1.726c-0.182,0.55-0.418,1.085-0.702,1.591
			c-0.283,0.502-0.615,0.979-0.988,1.418c-0.374,0.439-0.79,0.845-1.239,1.204c-0.452,0.362-0.942,0.682-1.456,0.951
			c-0.523,0.273-1.075,0.495-1.64,0.66c-0.581,0.169-1.185,0.28-1.794,0.33l0.163,1.993c0.743-0.061,1.48-0.196,2.19-0.402
			c0.692-0.201,1.367-0.473,2.007-0.808c0.628-0.328,1.228-0.719,1.781-1.163c0.548-0.439,1.057-0.934,1.512-1.47
			c0.455-0.536,0.861-1.118,1.207-1.731c0.348-0.618,0.637-1.272,0.859-1.945c0.226-0.684,0.384-1.394,0.471-2.112
			C23.01,12.597,23.024,11.848,22.963,11.106z M5,17.5C5,18.328,4.328,19,3.5,19S2,18.328,2,17.5S2.672,16,3.5,16S5,16.672,5,17.5z"
			/>
		<path d="M15.442,16.916c0.635-0.445,1.172-1.002,1.595-1.656c0.423-0.654,0.712-1.372,0.857-2.134
			c0.151-0.789,0.142-1.591-0.028-2.383c-0.065-0.304-0.161-0.596-0.276-0.879C17.848,9.47,18,9.003,18,8.5
			C18,7.122,16.878,6,15.5,6c-0.503,0-0.969,0.152-1.362,0.409c-0.327-0.131-0.663-0.236-1.013-0.303
			c-0.789-0.151-1.591-0.142-2.383,0.028c-0.792,0.17-1.527,0.49-2.184,0.95C8.351,7.229,8.167,7.407,7.979,7.578L7.124,7.074
			l-0.036,3.988L10.56,9.1l-0.745-0.44c0.411-0.269,0.86-0.467,1.347-0.572c0.529-0.113,1.063-0.12,1.588-0.019
			c0.098,0.019,0.191,0.052,0.286,0.08C13.019,8.265,13,8.38,13,8.5c0,1.378,1.122,2.5,2.5,2.5c0.121,0,0.237-0.019,0.353-0.036
			c0.019,0.066,0.043,0.13,0.058,0.197c0.113,0.529,0.12,1.063,0.019,1.588c-0.097,0.508-0.29,0.987-0.572,1.423
			c-0.283,0.437-0.641,0.809-1.064,1.105c-0.438,0.307-0.928,0.52-1.456,0.633c-0.529,0.113-1.063,0.12-1.588,0.019
			c-0.508-0.097-0.987-0.29-1.423-0.572c-0.437-0.283-0.809-0.641-1.105-1.064c-0.306-0.438-0.52-0.928-0.633-1.457l-1.955,0.42
			c0.17,0.792,0.49,1.527,0.951,2.184c0.445,0.635,1.002,1.172,1.656,1.595c0.654,0.423,1.372,0.712,2.134,0.857
			c0.372,0.071,0.746,0.107,1.121,0.107c0.421,0,0.843-0.045,1.262-0.135C14.05,17.697,14.785,17.377,15.442,16.916z M14,8.5
			C14,7.672,14.672,7,15.5,7S17,7.672,17,8.5S16.328,10,15.5,10S14,9.328,14,8.5z"/>
		<circle cx="12" cy="12" r="1.5"/>
	</g>
</g>
</svg>
