<?xml version="1.0" encoding="iso-8859-1"?>
<!-- Generator: Adobe Illustrator 20.0.0, SVG Export Plug-In . SVG Version: 6.00 Build 0)  -->
<svg version="1.1" id="Layer_1" xmlns="http://www.w3.org/2000/svg" xmlns:xlink="http://www.w3.org/1999/xlink" x="0px" y="0px"
	 viewBox="0 0 64 64" style="enable-background:new 0 0 64 64;" xml:space="preserve">
<g>
	<path d="M2,8v8v40h60V16V8H2z M60,54H4V18h56V54z"/>
	<path d="M32,50c7.73,0,14-6.27,14-14s-6.27-14-14-14v14H18C18,43.73,24.269,50,32,50z M32,38h2v-2V24.166
		C39.668,25.121,44,30.065,44,36c0,6.617-5.383,12-12,12c-5.936,0-10.879-4.332-11.833-10H32z"/>
	<path d="M30,22.16C23.873,23.037,19.039,27.873,18.16,34H30V22.16z"/>
</g>
</svg>
