<?xml version="1.0" encoding="utf-8"?>
<!-- Generator: Adobe Illustrator 17.1.0, SVG Export Plug-In . SVG Version: 6.00 Build 0)  -->
<!DOCTYPE svg PUBLIC "-//W3C//DTD SVG 1.1//EN" "http://www.w3.org/Graphics/SVG/1.1/DTD/svg11.dtd">
<svg version="1.1" id="Layer_1" xmlns="http://www.w3.org/2000/svg" xmlns:xlink="http://www.w3.org/1999/xlink" x="0px" y="0px"
	 width="64px" height="64px" viewBox="0 0 64 64" enable-background="new 0 0 64 64" xml:space="preserve">
<g>
	<path d="M50,2L34.707,17.293l-1.414,1.414l-2.586,2.586l-1.414,1.414l-2.586,2.586l-1.414,1.414l-2.586,2.586l-1.414,1.414
		l-2.586,2.586l-1.414,1.414l-2.586,2.586l-1.414,1.414L8,44l-6,6l12,12l6-6l42-42L50,2z M18.586,54.586l-9.172-9.172l5.293-5.293
		l4.586,4.586l1.414-1.414l-4.586-4.586l2.586-2.586l4.586,4.586l1.414-1.414l-4.586-4.586l2.586-2.586l4.586,4.586l1.414-1.414
		l-4.586-4.586l2.586-2.586l4.586,4.586l1.414-1.414l-4.586-4.586l2.586-2.586l4.586,4.586l1.414-1.414l-4.586-4.586l2.586-2.586
		l4.586,4.586l1.414-1.414l-4.586-4.586L50,4.829L59.172,14L18.586,54.586z"/>
	<circle cx="50" cy="14" r="2"/>
</g>
</svg>
