<?xml version="1.0" encoding="utf-8"?>
<!-- Generator: Adobe Illustrator 17.1.0, SVG Export Plug-In . SVG Version: 6.00 Build 0)  -->
<!DOCTYPE svg PUBLIC "-//W3C//DTD SVG 1.1//EN" "http://www.w3.org/Graphics/SVG/1.1/DTD/svg11.dtd">
<svg version="1.1" id="Layer_1" xmlns="http://www.w3.org/2000/svg" xmlns:xlink="http://www.w3.org/1999/xlink" x="0px" y="0px"
	 width="128px" height="128px" viewBox="0 0 128 128" enable-background="new 0 0 128 128" xml:space="preserve">
<g>
	<path d="M100,4L69.414,34.586l-2.828,2.828l-5.172,5.172l-2.828,2.828l-5.172,5.172l-2.828,2.828l-5.172,5.172l-2.828,2.828
		l-5.172,5.172l-2.828,2.828l-5.172,5.172l-2.828,2.828L16,88L4,100l24,24l12-12l84-84L100,4z M37.172,109.172L18.828,90.828
		l10.586-10.586l9.172,9.172l2.828-2.828l-9.172-9.172l5.172-5.172l9.172,9.172l2.828-2.828l-9.172-9.172l5.172-5.172l9.172,9.172
		l2.828-2.828l-9.172-9.172l5.172-5.172l9.172,9.172l2.828-2.828l-9.172-9.172l5.172-5.172l9.172,9.172l2.828-2.828l-9.172-9.172
		l5.172-5.172l9.172,9.172l2.828-2.828l-9.172-9.172L100,9.657L118.344,28L37.172,109.172z"/>
	<circle cx="100" cy="28" r="4"/>
</g>
</svg>
