<?xml version="1.0" encoding="iso-8859-1"?>
<!-- Generator: Adobe Illustrator 20.0.0, SVG Export Plug-In . SVG Version: 6.00 Build 0)  -->
<svg version="1.1" id="Layer_1" xmlns="http://www.w3.org/2000/svg" xmlns:xlink="http://www.w3.org/1999/xlink" x="0px" y="0px"
	 viewBox="0 0 32 32" style="enable-background:new 0 0 32 32;" xml:space="preserve">
<g>
	<path d="M25,1l-7.646,7.646l-0.707,0.707l-1.293,1.293l-0.707,0.707l-1.293,1.293l-0.707,0.707l-1.293,1.293l-0.707,0.707
		l-1.293,1.293l-0.707,0.707l-1.293,1.293l-0.707,0.707L4,22l-3,3l6,6l3-3L31,7L25,1z M8.586,26.586l-3.172-3.172l2.646-2.647
		l1.586,1.586l0.707-0.707L8.768,20.06l1.293-1.293l1.586,1.586l0.707-0.707l-1.586-1.586l1.293-1.293l1.586,1.586l0.707-0.707
		l-1.586-1.586l1.293-1.293l1.586,1.586l0.707-0.707l-1.586-1.586l1.293-1.293l1.586,1.586l0.707-0.707l-1.586-1.586l1.293-1.293
		l1.586,1.586l0.707-0.707l-1.586-1.586L25,3.829L28.172,7L8.586,26.586z"/>
	<circle cx="25" cy="7" r="1"/>
</g>
</svg>
