<?xml version="1.0" encoding="iso-8859-1"?>
<!-- Generator: Adobe Illustrator 20.0.0, SVG Export Plug-In . SVG Version: 6.00 Build 0)  -->
<svg version="1.1" id="Layer_1" xmlns="http://www.w3.org/2000/svg" xmlns:xlink="http://www.w3.org/1999/xlink" x="0px" y="0px"
	 viewBox="0 0 64 64" style="enable-background:new 0 0 64 64;" xml:space="preserve">
<g>
	<path d="M32,46c7.73,0,14-6.269,14-14v-4v-2v-4v-2v-4c0-7.731-6.27-14-14-14c-7.731,0-14,6.269-14,14v4v2v4v2v4
		C18,39.731,24.269,46,32,46z M26,28h-6v-2h6c1.105,0,2-0.896,2-2s-0.895-2-2-2h-6v-2h6c1.105,0,2-0.896,2-2s-0.895-2-2-2h-6
		c0-6.617,5.383-12,12-12s12,5.383,12,12h-6c-1.106,0-2,0.896-2,2s0.894,2,2,2h6v2h-6c-1.106,0-2,0.896-2,2s0.894,2,2,2h6v2h-6
		c-1.106,0-2,0.896-2,2s0.894,2,2,2h6c0,6.617-5.383,12-12,12s-12-5.383-12-12h6c1.105,0,2-0.896,2-2S27.105,28,26,28z"/>
	<path d="M51,32h-2c0,9.374-7.626,17-17,17s-17-7.626-17-17h-2c0,10.139,7.989,18.424,18,18.949V60h-7v2h7h2h7v-2h-7v-9.051
		C43.011,50.424,51,42.139,51,32z"/>
</g>
</svg>
