<svg xmlns="http://www.w3.org/2000/svg" viewBox="0 0 32 32"><path d="M16 23c3.865 0 7-3.135 7-7V8c0-3.865-3.135-7-7-7S9 4.135 9 8v8c0 3.865 3.135 7 7 7zm-3-9h-2v-1h2c.553 0 1-.447 1-1s-.447-1-1-1h-2v-1h2c.553 0 1-.447 1-1s-.447-1-1-1h-2c0-2.757 2.243-5 5-5s5 2.243 5 5h-2c-.553 0-1 .447-1 1s.447 1 1 1h2v1h-2c-.553 0-1 .447-1 1s.447 1 1 1h2v1h-2c-.553 0-1 .447-1 1s.447 1 1 1h2c0 2.757-2.243 5-5 5s-5-2.243-5-5h2c.553 0 1-.447 1-1s-.447-1-1-1z"/><path d="M26 16h-2c0 4.41-3.59 8-8 8s-8-3.59-8-8H6c0 5.177 3.954 9.445 9 9.95V29h-3v2h8v-2h-3v-3.05c5.046-.505 9-4.773 9-9.95z"/></svg>