<?xml version="1.0" encoding="utf-8"?>
<!-- Generator: Adobe Illustrator 17.1.0, SVG Export Plug-In . SVG Version: 6.00 Build 0)  -->
<!DOCTYPE svg PUBLIC "-//W3C//DTD SVG 1.1//EN" "http://www.w3.org/Graphics/SVG/1.1/DTD/svg11.dtd">
<svg version="1.1" id="Layer_1" xmlns="http://www.w3.org/2000/svg" xmlns:xlink="http://www.w3.org/1999/xlink" x="0px" y="0px"
	 width="32px" height="32px" viewBox="0 0 32 32" enable-background="new 0 0 32 32" xml:space="preserve">
<g>
	<g>
		<polygon points="14.5,13.586 12.207,11.293 10.793,12.707 14.5,16.414 21.207,9.707 19.793,8.293 		"/>
	</g>
	<g>
		<path d="M27,12c0-6.074-4.924-11-11-11C9.926,1,5,5.926,5,12c0,4.21,2.369,7.865,5.844,9.714L10,31l6-4l6,4l-0.844-9.286
			C24.632,19.865,27,16.21,27,12z M16,21c-4.971,0-9-4.029-9-9s4.029-9,9-9s9,4.029,9,9S20.971,21,16,21z"/>
	</g>
</g>
</svg>
