<svg xmlns="http://www.w3.org/2000/svg" viewBox="0 0 64 64"><path d="M32 46c7.73 0 14-6.27 14-14V16c0-7.73-6.27-14-14-14S18 8.27 18 16v16c0 7.73 6.27 14 14 14zm-6-18h-6v-2h6c1.105 0 2-.896 2-2s-.895-2-2-2h-6v-2h6c1.105 0 2-.896 2-2s-.895-2-2-2h-6c0-6.617 5.383-12 12-12s12 5.383 12 12h-6c-1.106 0-2 .896-2 2s.894 2 2 2h6v2h-6c-1.106 0-2 .896-2 2s.894 2 2 2h6v2h-6c-1.106 0-2 .896-2 2s.894 2 2 2h6c0 6.617-5.383 12-12 12s-12-5.383-12-12h6c1.105 0 2-.896 2-2s-.895-2-2-2z"/><path d="M51 32h-2c0 9.374-7.626 17-17 17s-17-7.626-17-17h-2c0 10.14 7.99 18.424 18 18.95V60h-7v2h16v-2h-7v-9.05c10.01-.526 18-8.81 18-18.95z"/></svg>