<svg xmlns="http://www.w3.org/2000/svg" viewBox="0 0 64 64"><path d="M48 18c4.418 0 8-3.582 8-8s-3.582-8-8-8-8 3.582-8 8 3.582 8 8 8zm0-14c3.31 0 6 2.69 6 6s-2.69 6-6 6-6-2.69-6-6 2.69-6 6-6zM54 22H42L32 32 22 22H10c-2.21 0-4 1.79-4 4v16l4 4v14c0 1.104.894 2 2 2h8c1.105 0 2-.896 2-2V32l10 10 10-10v28c0 1.104.894 2 2 2h8c1.105 0 2-.896 2-2V46l4-4V26c0-2.21-1.79-4-4-4zM16 18c4.418 0 8-3.582 8-8s-3.582-8-8-8-8 3.582-8 8 3.582 8 8 8zm0-14c3.31 0 6 2.69 6 6s-2.69 6-6 6-6-2.69-6-6 2.69-6 6-6z"/></svg>