<?xml version="1.0" encoding="utf-8"?>
<!-- Generator: Adobe Illustrator 19.1.0, SVG Export Plug-In . SVG Version: 6.00 Build 0)  -->
<svg version="1.1" id="Icon" xmlns="http://www.w3.org/2000/svg" xmlns:xlink="http://www.w3.org/1999/xlink" x="0px" y="0px"
	 width="24px" height="24px" viewBox="0 0 24 24" enable-background="new 0 0 24 24" xml:space="preserve">
<g>
	<path d="M21,8h-6l-3,4L9,8H3C2.448,8,2,8.448,2,9v7l2,2v4c0,0.552,0.448,1,1,1h3c0.552,0,1-0.448,1-1V12l3,4l3-4v10
		c0,0.552,0.448,1,1,1h3c0.552,0,1-0.448,1-1v-4l2-2V9C22,8.448,21.552,8,21,8z"/>
</g>
<circle cx="7" cy="4" r="3"/>
<circle cx="17" cy="4" r="3"/>
</svg>
