<svg xmlns="http://www.w3.org/2000/svg" viewBox="0 0 32 32"><path d="M24 9c2.21 0 4-1.79 4-4s-1.79-4-4-4-4 1.79-4 4 1.79 4 4 4zm0-6c1.104 0 2 .897 2 2 0 1.102-.896 2-2 2s-2-.898-2-2c0-1.103.896-2 2-2zM27 11h-6l-5 5-5-5H5c-1.105 0-2 .896-2 2v8l2 2v7c0 .553.447 1 1 1h4c.553 0 1-.447 1-1V16l5 5 5-5v14c0 .553.447 1 1 1h4c.553 0 1-.447 1-1v-7l2-2v-8c0-1.104-.896-2-2-2zM8 9c2.21 0 4-1.79 4-4s-1.79-4-4-4-4 1.79-4 4 1.79 4 4 4zm0-6c1.104 0 2 .897 2 2 0 1.102-.896 2-2 2s-2-.898-2-2c0-1.103.897-2 2-2z"/></svg>