<?xml version="1.0" encoding="iso-8859-1"?>
<!-- Generator: Adobe Illustrator 20.0.0, SVG Export Plug-In . SVG Version: 6.00 Build 0)  -->
<svg version="1.1" id="Layer_1" xmlns="http://www.w3.org/2000/svg" xmlns:xlink="http://www.w3.org/1999/xlink" x="0px" y="0px"
	 viewBox="0 0 64 64" style="enable-background:new 0 0 64 64;" xml:space="preserve">
<g>
	<path d="M58,20v-4h-2h-2v-2v-2h-2H12h-2v2v2H8H6v4H2v32h60V20H58z M12,14h40v2H12V14z M60,50H4V22h2h52h2V50z"/>
	<polygon points="38,36 26,36 26,34 24,34 24,36 24,38 26,38 38,38 40,38 40,36 40,34 38,34 	"/>
</g>
</svg>
