<?xml version="1.0" encoding="iso-8859-1"?>
<!-- Generator: Adobe Illustrator 20.0.0, SVG Export Plug-In . SVG Version: 6.00 Build 0)  -->
<svg version="1.1" id="Layer_1" xmlns="http://www.w3.org/2000/svg" xmlns:xlink="http://www.w3.org/1999/xlink" x="0px" y="0px"
	 viewBox="0 0 64 64" style="enable-background:new 0 0 64 64;" xml:space="preserve">
<g>
	<path d="M36,10V2h-8v8H12v52h40V10H36z M32,4c1.104,0,2,0.896,2,2s-0.896,2-2,2s-2-0.896-2-2S30.896,4,32,4z M50,60H14V12h14v6h8
		v-6h14V60z"/>
	<path d="M32,22c-5.523,0-10,4.477-10,10s4.477,10,10,10c5.523,0,10-4.477,10-10S37.523,22,32,22z M32,40c-4.411,0-8-3.589-8-8
		s3.589-8,8-8s8,3.589,8,8S36.411,40,32,40z"/>
	<path d="M24,46c-2.209,0-4,1.791-4,4v4h24v-4c0-2.209-1.791-4-4-4H24z"/>
</g>
</svg>
