<?xml version="1.0" encoding="utf-8"?>
<!-- Generator: Adobe Illustrator 17.1.0, SVG Export Plug-In . SVG Version: 6.00 Build 0)  -->
<!DOCTYPE svg PUBLIC "-//W3C//DTD SVG 1.1//EN" "http://www.w3.org/Graphics/SVG/1.1/DTD/svg11.dtd">
<svg version="1.1" id="Layer_1" xmlns="http://www.w3.org/2000/svg" xmlns:xlink="http://www.w3.org/1999/xlink" x="0px" y="0px"
	 width="128px" height="128px" viewBox="0 0 128 128" enable-background="new 0 0 128 128" xml:space="preserve">
<g>
	<path d="M72,20V4H56v16H24v104h80V20H72z M64,8c2.209,0,4,1.791,4,4s-1.791,4-4,4s-4-1.791-4-4S61.791,8,64,8z M100,120H28V24h28
		v12h16V24h28V120z"/>
	<path d="M64,44c-11.047,0-20,8.953-20,20s8.953,20,20,20s20-8.953,20-20S75.047,44,64,44z M64,80c-8.822,0-16-7.178-16-16
		s7.178-16,16-16s16,7.178,16,16S72.822,80,64,80z"/>
	<path d="M48,92c-4.418,0-8,3.582-8,8v8h48v-8c0-4.418-3.582-8-8-8H48z"/>
</g>
</svg>
