<?xml version="1.0" encoding="iso-8859-1"?>
<!-- Generator: Adobe Illustrator 20.0.0, SVG Export Plug-In . SVG Version: 6.00 Build 0)  -->
<svg version="1.1" id="Layer_1" xmlns="http://www.w3.org/2000/svg" xmlns:xlink="http://www.w3.org/1999/xlink" x="0px" y="0px"
	 viewBox="0 0 24 24" style="enable-background:new 0 0 24 24;" xml:space="preserve">
<path d="M1.016,1.016v16.899l0,0l0,0l5.07,5.07l0,0l0,0h16.899V1.016H1.016z M21.717,21.717H6.93V17.07H2.283V2.283h19.434V21.717z
	 M11.155,11.155V8.198h1.69v2.957h2.957v1.69h-2.957v7.182h7.182v-7.182H17.07v-1.69h2.957V3.973h-7.182V6.93h-1.69V3.973H3.973
	v7.182H11.155z M18.76,18.76h-4.647v-4.647h4.647V18.76z M14.112,5.24h4.647v4.647h-4.647V5.24z M5.24,5.24h4.647v4.647H5.24V5.24z"
	/>
</svg>
