<?xml version="1.0" encoding="iso-8859-1"?>
<!-- Generator: Adobe Illustrator 20.0.0, SVG Export Plug-In . SVG Version: 6.00 Build 0)  -->
<svg version="1.1" id="Layer_1" xmlns="http://www.w3.org/2000/svg" xmlns:xlink="http://www.w3.org/1999/xlink" x="0px" y="0px"
	 viewBox="0 0 16 16" style="enable-background:new 0 0 16 16;" xml:space="preserve">
<path d="M0,0v12.308l0,0l0,0L3.692,16l0,0l0,0H16V0H0z M15.077,15.077H4.308v-3.385H0.923V0.923h14.154V15.077z M7.385,7.385V5.231
	h1.231v2.154h2.154v1.231H8.615v5.231h5.231V8.615h-2.154V7.385h2.154V2.154H8.615v2.154H7.385V2.154H2.154v5.231H7.385z
	 M12.923,12.923H9.538V9.538h3.385V12.923z M9.538,3.077h3.385v3.385H9.538V3.077z M3.077,3.077h3.385v3.385H3.077V3.077z"/>
</svg>
