<?xml version="1.0" encoding="iso-8859-1"?>
<!-- Generator: Adobe Illustrator 20.0.0, SVG Export Plug-In . SVG Version: 6.00 Build 0)  -->
<svg version="1.1" id="Layer_1" xmlns="http://www.w3.org/2000/svg" xmlns:xlink="http://www.w3.org/1999/xlink" x="0px" y="0px"
	 viewBox="0 0 128 128" style="enable-background:new 0 0 128 128;" xml:space="preserve">
<path d="M3.976,3.976v92.344l0,0l0,0l27.703,27.703l0,0l0,0h92.344V3.976H3.976z M117.098,117.098H36.297V91.703H10.902V10.902
	h106.196V117.098z M59.383,59.383v-16.16h9.234v16.16h16.16v9.234h-16.16v39.246h39.246V68.617h-16.16v-9.234h16.16V20.136H68.617
	v16.16h-9.234v-16.16H20.136v39.246H59.383z M100.938,100.938H75.543V75.543h25.395V100.938z M75.543,27.062h25.395v25.395H75.543
	V27.062z M27.062,27.062h25.395v25.395H27.062V27.062z"/>
</svg>
