<?xml version="1.0" encoding="iso-8859-1"?>
<!-- Generator: Adobe Illustrator 20.0.0, SVG Export Plug-In . SVG Version: 6.00 Build 0)  -->
<svg version="1.1" id="Layer_1" xmlns="http://www.w3.org/2000/svg" xmlns:xlink="http://www.w3.org/1999/xlink" x="0px" y="0px"
	 viewBox="0 0 32 32" style="enable-background:new 0 0 32 32;" xml:space="preserve">
<path d="M1.126,1.187v22.789l0,0l0,0l6.837,6.837l0,0l0,0h22.789V1.187H1.126z M29.043,29.104H9.102v-6.267H2.835V2.896h26.207
	V29.104z M14.8,14.861v-3.988h2.279v3.988h3.988v2.279h-3.988v9.685h9.685v-9.685h-3.988v-2.279h3.988V5.175h-9.685v3.988H14.8
	V5.175H5.114v9.685H14.8z M25.055,25.116h-6.267v-6.267h6.267V25.116z M18.788,6.884h6.267v6.267h-6.267V6.884z M6.824,6.884h6.267
	v6.267H6.824V6.884z"/>
</svg>
