<?xml version="1.0" encoding="iso-8859-1"?>
<!-- Generator: Adobe Illustrator 20.0.0, SVG Export Plug-In . SVG Version: 6.00 Build 0)  -->
<svg version="1.1" id="Layer_1" xmlns="http://www.w3.org/2000/svg" xmlns:xlink="http://www.w3.org/1999/xlink" x="0px" y="0px"
	 viewBox="0 0 64 64" style="enable-background:new 0 0 64 64;" xml:space="preserve">
<path d="M2.125,1.988V48.16l0,0l0,0l13.852,13.852l0,0l0,0h46.172V1.988H2.125z M58.686,58.549H18.285V45.852H5.588V5.451h53.098
	V58.549z M29.828,29.691v-8.08h4.617v8.08h8.08v4.617h-8.08v19.623h19.623V34.309h-8.08v-4.617h8.08V10.068H34.445v8.08h-4.617
	v-8.08H10.205v19.623H29.828z M50.606,50.469H37.908V37.772h12.697V50.469z M37.908,13.531h12.697v12.697H37.908V13.531z
	 M13.668,13.531h12.697v12.697H13.668V13.531z"/>
</svg>
