<?xml version="1.0" encoding="utf-8"?>
<!-- Generator: Adobe Illustrator 19.1.0, SVG Export Plug-In . SVG Version: 6.00 Build 0)  -->
<svg version="1.1" id="Icon" xmlns="http://www.w3.org/2000/svg" xmlns:xlink="http://www.w3.org/1999/xlink" x="0px" y="0px"
	 width="16px" height="16px" viewBox="0 0 16 16" enable-background="new 0 0 16 16" xml:space="preserve">
<path d="M12.5,7.344V4.5C12.5,2.025,10.475,0,8,0C5.525,0,3.5,2.025,3.5,4.5v2.844c-0.628,0.894-1,1.981-1,3.156
	C2.5,13.538,4.962,16,8,16c3.038,0,5.5-2.462,5.5-5.5C13.5,9.325,13.128,8.238,12.5,7.344z M5.5,4.5C5.5,3.125,6.625,2,8,2
	s2.5,1.125,2.5,2.5v1.105C9.749,5.221,8.901,5,8,5S6.251,5.221,5.5,5.605V4.5z M6.987,13.252L4.5,10.781l1-1l1.467,1.474L10.5,7.781
	l1,1L6.987,13.252z"/>
</svg>
