<?xml version="1.0" encoding="utf-8"?>
<!-- Generator: Adobe Illustrator 19.1.0, SVG Export Plug-In . SVG Version: 6.00 Build 0)  -->
<svg version="1.1" id="Icon" xmlns="http://www.w3.org/2000/svg" xmlns:xlink="http://www.w3.org/1999/xlink" x="0px" y="0px"
	 width="24px" height="24px" viewBox="0 0 24 24" enable-background="new 0 0 24 24" xml:space="preserve">
<path d="M22.466,4.534L19,8c-0.828,0.828-2.172,0.828-3,0s-0.828-2.172,0-3l3.466-3.466C18.713,1.194,17.88,1,17,1
	c-3.314,0-6,2.686-6,6c0,0.606,0.092,1.19,0.259,1.741l-9.43,9.43c-1.105,1.105-1.105,2.895,0,4s2.895,1.105,4,0l9.43-9.43
	C15.81,12.908,16.394,13,17,13c3.314,0,6-2.686,6-6C23,6.12,22.806,5.287,22.466,4.534z M4,21c-0.552,0-1-0.448-1-1s0.448-1,1-1
	s1,0.448,1,1S4.552,21,4,21z"/>
</svg>
