<svg xmlns="http://www.w3.org/2000/svg" viewBox="0 0 64 64"><path d="M60.732 11.752l-8.49 8.49C51.07 21.415 49.535 22 48 22c-1.535 0-3.07-.586-4.242-1.757-2.344-2.343-2.344-6.142 0-8.485l8.49-8.49C50.327 2.45 48.217 2 46 2c-8.837 0-16 7.163-16 16 0 1.828.322 3.577.887 5.213L4.05 50.05c-2.733 2.734-2.733 7.166 0 9.9C5.42 61.315 7.21 62 9 62s3.582-.684 4.95-2.05l26.835-26.837c1.637.565 3.387.887 5.215.887 8.837 0 16-7.163 16-16 0-2.217-.452-4.33-1.268-6.248zM46 32c-1.533 0-3.068-.262-4.56-.777l-1.184-.41-.885.886-26.835 26.836C11.59 59.48 10.335 60 9 60s-2.59-.52-3.535-1.465c-1.95-1.95-1.95-5.12 0-7.07L32.3 24.626l.886-.884-.408-1.182C32.262 21.067 32 19.53 32 18c0-7.72 6.28-14 14-14 .836 0 1.66.072 2.47.216l-6.127 6.127c-3.12 3.12-3.118 8.195 0 11.313C43.856 23.168 45.864 24 48 24s4.146-.832 5.656-2.343l6.127-6.127c.145.81.217 1.634.217 2.47 0 7.72-6.28 14-14 14z"/><circle cx="9" cy="55" r="2"/></svg>