<svg xmlns="http://www.w3.org/2000/svg" viewBox="0 0 128 128"><path d="M121.465 23.503l-16.98 16.983C102.142 42.83 99.07 44 96 44c-3.07 0-6.142-1.17-8.484-3.515-4.688-4.687-4.688-12.284-.002-16.97l16.98-16.982C100.656 4.903 96.434 4 92 4 74.326 4 60 18.326 60 36c0 3.656.645 7.154 1.773 10.427L8.1 100.1c-5.467 5.47-5.467 14.332.002 19.8 2.733 2.733 6.316 4.1 9.898 4.1s7.165-1.367 9.898-4.1L81.57 66.225C84.844 67.356 88.344 68 92 68c17.674 0 32-14.326 32-32 0-4.435-.904-8.657-2.535-12.497zM92 64c-3.066 0-6.137-.523-9.123-1.555l-2.365-.817-1.77 1.77L25.07 117.07c-1.888 1.89-4.4 2.93-7.07 2.93s-5.182-1.04-7.07-2.93c-3.9-3.898-3.9-10.242-.002-14.14l53.674-53.675 1.77-1.77-.816-2.364C64.524 42.133 64 39.063 64 36 64 20.56 76.56 8 92 8c1.672 0 3.32.144 4.938.433L84.686 20.687c-6.238 6.24-6.237 16.39.002 22.627C87.708 46.336 91.728 48 96 48s8.29-1.664 11.312-4.687l12.254-12.255c.29 1.62.434 3.27.434 4.942 0 15.44-12.56 28-28 28z"/><circle cx="18" cy="110" r="4"/></svg>