<svg xmlns="http://www.w3.org/2000/svg" viewBox="0 0 32 32"><path d="M30.366 5.876l-4.245 4.246c-.585.585-1.352.878-2.12.878s-1.535-.293-2.12-.88c-1.173-1.17-1.173-3.07-.002-4.242l4.245-4.245C25.163 1.226 24.108 1 23 1c-4.42 0-8 3.582-8 8 0 .914.16 1.79.443 2.606L2.025 25.026c-1.367 1.366-1.367 3.582 0 4.95C2.71 30.657 3.605 31 4.5 31s1.79-.342 2.475-1.025l13.418-13.418C21.21 16.84 22.086 17 23 17c4.418 0 8-3.582 8-8 0-1.11-.227-2.165-.634-3.124zM23 15c-.654 0-1.313-.112-1.954-.334l-1.183-.41-.885.886L5.56 28.56c-.283.284-.66.44-1.06.44s-.777-.156-1.06-.44C3.155 28.277 3 27.9 3 27.5s.156-.777.44-1.06l13.417-13.42.885-.883-.408-1.182C17.112 10.312 17 9.655 17 9c0-2.9 2.07-5.328 4.81-5.88l-1.347 1.345c-1.948 1.95-1.947 5.122 0 7.07C21.41 12.48 22.664 13 24 13c1.335 0 2.59-.52 3.535-1.465l1.347-1.347C28.328 12.93 25.902 15 23 15z"/><circle cx="4.5" cy="27.5" r="1"/></svg>