<?xml version="1.0" encoding="utf-8"?>
<!-- Generator: Adobe Illustrator 19.1.0, SVG Export Plug-In . SVG Version: 6.00 Build 0)  -->
<svg version="1.1" id="Icon" xmlns="http://www.w3.org/2000/svg" xmlns:xlink="http://www.w3.org/1999/xlink" x="0px" y="0px"
	 width="16px" height="16px" viewBox="0 0 16 16" enable-background="new 0 0 16 16" xml:space="preserve">
<path d="M13,5c-0.552,0.552-1.448,0.552-2,0c-0.552-0.552-0.552-1.448,0-2l2.507-2.507C12.901,0.188,12.225,0,11.5,0
	C9.015,0,7,2.015,7,4.5c0,0.451,0.087,0.879,0.21,1.29l-6.59,6.589c-0.829,0.831-0.826,2.178,0.007,3.005
	c0.83,0.824,2.17,0.822,2.997-0.005l6.602-6.584C10.632,8.915,11.054,9,11.5,9C13.985,9,16,6.985,16,4.5
	c0-0.725-0.188-1.401-0.493-2.007L13,5z"/>
</svg>
