<?xml version="1.0" encoding="iso-8859-1"?>
<!-- Generator: Adobe Illustrator 20.0.0, SVG Export Plug-In . SVG Version: 6.00 Build 0)  -->
<svg version="1.1" id="Layer_1" xmlns="http://www.w3.org/2000/svg" xmlns:xlink="http://www.w3.org/1999/xlink" x="0px" y="0px"
	 viewBox="0 0 32 32" style="enable-background:new 0 0 32 32;" xml:space="preserve">
<g>
	<path d="M5,1v30h22V1H5z M25,29H7V3h18V29z"/>
	<path d="M16,27c3.866,0,7-3.134,7-7c0-3.865-3.134-7-7-7c-3.866,0-7,3.135-7,7C9,23.866,12.134,27,16,27z M16,18
		c1.104,0,2,0.896,2,2s-0.896,2-2,2s-2-0.896-2-2S14.896,18,16,18z"/>
	<circle cx="16" cy="8" r="2"/>
</g>
</svg>
