<?xml version="1.0" encoding="utf-8"?>
<!-- Generator: Adobe Illustrator 19.1.0, SVG Export Plug-In . SVG Version: 6.00 Build 0)  -->
<svg version="1.1" id="Icon" xmlns="http://www.w3.org/2000/svg" xmlns:xlink="http://www.w3.org/1999/xlink" x="0px" y="0px"
	 width="24px" height="24px" viewBox="0 0 24 24" enable-background="new 0 0 24 24" xml:space="preserve">
<path d="M18,18H5.867C4.247,18,3,19.38,3,21v2h18v-2C21,19.38,19.62,18,18,18z"/>
<g>
	<path d="M12,1C7.581,1,4,4.581,4,9c0,4.419,3.581,8,8,8c4.419,0,8-3.581,8-8C20,4.581,16.419,1,12,1z M15,14l-3-2.333L9,14l1-3.667
		L7,8l3.667-0.333L12,4l1.333,3.667L17,8l-3,2.333L15,14z"/>
</g>
</svg>
