<?xml version="1.0" encoding="iso-8859-1"?>
<!-- Generator: Adobe Illustrator 20.0.0, SVG Export Plug-In . SVG Version: 6.00 Build 0)  -->
<svg version="1.1" id="Layer_1" xmlns="http://www.w3.org/2000/svg" xmlns:xlink="http://www.w3.org/1999/xlink" x="0px" y="0px"
	 viewBox="0 0 64 64" style="enable-background:new 0 0 64 64;" xml:space="preserve">
<path d="M62,26l-22-2L32,2l-8,22L2,26l18,14l-6,22l18-14l18,14l-6-22L62,26z M46.492,56.738L33.228,46.421L32,45.466l-1.228,0.955
	L17.508,56.738l4.421-16.211l0.351-1.287l-1.052-0.818L7.229,27.533l16.953-1.541l1.265-0.115l0.434-1.193L32,7.852l6.121,16.831
	l0.434,1.193l1.265,0.115l16.953,1.541l-14,10.889L41.72,39.24l0.351,1.287L46.492,56.738z"/>
</svg>
