<?xml version="1.0" encoding="iso-8859-1"?>
<!-- Generator: Adobe Illustrator 20.0.0, SVG Export Plug-In . SVG Version: 6.00 Build 0)  -->
<svg version="1.1" id="Layer_1" xmlns="http://www.w3.org/2000/svg" xmlns:xlink="http://www.w3.org/1999/xlink" x="0px" y="0px"
	 viewBox="0 0 128 128" style="enable-background:new 0 0 128 128;" xml:space="preserve">
<path d="M124,52l-44-4L64,4L48,48L4,52l36,28l-12,44l36-28l36,28L88,80L124,52z M92.983,113.476L66.456,92.843L64,90.933
	l-2.456,1.91l-26.528,20.633l8.842-32.423l0.702-2.573l-2.105-1.637L14.457,55.066l33.905-3.083l2.529-0.229l0.868-2.387L64,15.705
	l12.241,33.663l0.868,2.387l2.529,0.229l33.905,3.083L85.544,76.843L83.44,78.48l0.702,2.573L92.983,113.476z"/>
</svg>
