<?xml version="1.0" encoding="iso-8859-1"?>
<!-- Generator: Adobe Illustrator 20.0.0, SVG Export Plug-In . SVG Version: 6.00 Build 0)  -->
<svg version="1.1" id="Layer_1" xmlns="http://www.w3.org/2000/svg" xmlns:xlink="http://www.w3.org/1999/xlink" x="0px" y="0px"
	 viewBox="0 0 32 32" style="enable-background:new 0 0 32 32;" xml:space="preserve">
<path d="M27.334,21.847V10.11c1.937-0.513,3.418-2.279,3.418-4.387c0-2.507-2.051-4.558-4.558-4.558
	c-2.108,0-3.874,1.424-4.387,3.418H10.071C9.558,2.647,7.792,1.166,5.684,1.166c-2.507,0-4.558,2.051-4.558,4.558
	c0,2.108,1.481,3.874,3.418,4.387V21.79c-1.937,0.513-3.418,2.279-3.418,4.387c0,2.507,2.051,4.558,4.558,4.558
	c2.336,0,4.216-1.766,4.501-3.988h11.451c0.285,2.222,2.222,3.988,4.501,3.988c2.507,0,4.558-2.051,4.558-4.558
	C30.752,24.126,29.271,22.359,27.334,21.847z M9.444,23.67l3.931-3.931c0.741,0.513,1.595,0.798,2.564,0.798
	s1.823-0.285,2.564-0.798l3.931,3.931c-0.285,0.399-0.513,0.912-0.627,1.424H10.071C9.957,24.581,9.729,24.126,9.444,23.67z
	 M8.248,9.484l3.931,3.931c-0.513,0.741-0.798,1.595-0.798,2.564s0.285,1.823,0.798,2.564l-3.931,3.931
	c-0.57-0.399-1.253-0.684-1.994-0.741V10.224C6.994,10.167,7.678,9.882,8.248,9.484z M22.434,8.287l-3.931,3.931
	c-0.741-0.513-1.595-0.798-2.564-0.798s-1.823,0.285-2.564,0.798L9.444,8.287c0.399-0.57,0.684-1.253,0.741-1.994h11.451
	C21.75,7.034,22.035,7.717,22.434,8.287z M23.63,22.473l-3.931-3.931c0.513-0.741,0.798-1.595,0.798-2.564s-0.285-1.823-0.798-2.564
	l3.931-3.931c0.57,0.399,1.253,0.684,1.994,0.741v11.451C24.884,21.79,24.2,22.075,23.63,22.473z M26.194,2.875
	c1.481,0,2.849,1.367,2.849,2.849s-1.367,2.849-2.849,2.849c-1.481,0-2.849-1.367-2.849-2.849S24.713,2.875,26.194,2.875z
	 M2.835,5.723c0-1.481,1.367-2.849,2.849-2.849s2.849,1.367,2.849,2.849S7.165,8.572,5.684,8.572S2.835,7.205,2.835,5.723z
	 M5.684,29.082c-1.481,0-2.849-1.367-2.849-2.849s1.367-2.849,2.849-2.849s2.849,1.367,2.849,2.849S7.165,29.082,5.684,29.082z
	 M26.194,29.082c-1.481,0-2.849-1.367-2.849-2.849s1.367-2.849,2.849-2.849c1.481,0,2.849,1.367,2.849,2.849
	S27.675,29.082,26.194,29.082z"/>
</svg>
