<?xml version="1.0" encoding="iso-8859-1"?>
<!-- Generator: Adobe Illustrator 20.0.0, SVG Export Plug-In . SVG Version: 6.00 Build 0)  -->
<svg version="1.1" id="Layer_1" xmlns="http://www.w3.org/2000/svg" xmlns:xlink="http://www.w3.org/1999/xlink" x="0px" y="0px"
	 viewBox="0 0 16 16" style="enable-background:new 0 0 16 16;" xml:space="preserve">
<path d="M14.127,11.129V4.802c1.044-0.276,1.843-1.228,1.843-2.365c0-1.351-1.106-2.457-2.457-2.457
	c-1.136,0-2.088,0.768-2.365,1.843H4.822C4.545,0.779,3.593-0.019,2.457-0.019C1.106-0.019,0,1.086,0,2.437
	c0,1.136,0.798,2.088,1.843,2.365v6.296C0.798,11.374,0,12.326,0,13.463c0,1.351,1.106,2.457,2.457,2.457
	c1.259,0,2.273-0.952,2.426-2.15h6.173c0.154,1.198,1.198,2.15,2.426,2.15c1.351,0,2.457-1.106,2.457-2.457
	C15.97,12.357,15.171,11.405,14.127,11.129z M4.484,12.111l2.119-2.119c0.399,0.276,0.86,0.43,1.382,0.43s0.983-0.154,1.382-0.43
	l2.119,2.119c-0.154,0.215-0.276,0.491-0.338,0.768H4.822C4.76,12.603,4.637,12.357,4.484,12.111z M3.839,4.464l2.119,2.119
	c-0.276,0.399-0.43,0.86-0.43,1.382s0.154,0.983,0.43,1.382l-2.119,2.119c-0.307-0.215-0.676-0.369-1.075-0.399V4.864
	C3.163,4.833,3.532,4.679,3.839,4.464z M11.486,3.819L9.367,5.938c-0.399-0.276-0.86-0.43-1.382-0.43s-0.983,0.154-1.382,0.43
	L4.484,3.819c0.215-0.307,0.369-0.676,0.399-1.075h6.173C11.117,3.144,11.271,3.512,11.486,3.819z M12.131,11.466l-2.119-2.119
	c0.276-0.399,0.43-0.86,0.43-1.382s-0.154-0.983-0.43-1.382l2.119-2.119c0.307,0.215,0.676,0.369,1.075,0.399v6.173
	C12.806,11.098,12.438,11.251,12.131,11.466z M13.513,0.902c0.798,0,1.536,0.737,1.536,1.536s-0.737,1.536-1.536,1.536
	c-0.798,0-1.536-0.737-1.536-1.536S12.714,0.902,13.513,0.902z M0.921,2.437c0-0.798,0.737-1.536,1.536-1.536
	s1.536,0.737,1.536,1.536S3.255,3.973,2.457,3.973S0.921,3.236,0.921,2.437z M2.457,15.029c-0.798,0-1.536-0.737-1.536-1.536
	c0-0.798,0.737-1.536,1.536-1.536s1.536,0.737,1.536,1.536C3.992,14.292,3.255,15.029,2.457,15.029z M13.513,15.029
	c-0.798,0-1.536-0.737-1.536-1.536c0-0.798,0.737-1.536,1.536-1.536c0.798,0,1.536,0.737,1.536,1.536
	C15.048,14.292,14.311,15.029,13.513,15.029z"/>
</svg>
