<?xml version="1.0" encoding="iso-8859-1"?>
<!-- Generator: Adobe Illustrator 20.0.0, SVG Export Plug-In . SVG Version: 6.00 Build 0)  -->
<svg version="1.1" id="Layer_1" xmlns="http://www.w3.org/2000/svg" xmlns:xlink="http://www.w3.org/1999/xlink" x="0px" y="0px"
	 viewBox="0 0 64 64" style="enable-background:new 0 0 64 64;" xml:space="preserve">
<path d="M55.223,43.897V20.118c3.925-1.039,6.926-4.617,6.926-8.888c0-5.079-4.155-9.234-9.234-9.234
	c-4.271,0-7.849,2.886-8.888,6.926H20.247c-1.039-3.925-4.617-6.926-8.888-6.926c-5.079,0-9.234,4.155-9.234,9.234
	c0,4.271,3.001,7.849,6.926,8.888v23.663c-3.925,1.039-6.926,4.617-6.926,8.888c0,5.079,4.155,9.234,9.234,9.234
	c4.733,0,8.542-3.578,9.119-8.08H43.68c0.577,4.502,4.502,8.08,9.119,8.08c5.079,0,9.234-4.155,9.234-9.234
	C62.149,48.514,59.147,44.936,55.223,43.897z M18.978,47.591l7.965-7.965c1.501,1.039,3.232,1.616,5.194,1.616
	c1.962,0,3.694-0.577,5.194-1.616l7.965,7.965c-0.577,0.808-1.039,1.847-1.27,2.886H20.247
	C20.017,49.438,19.555,48.514,18.978,47.591z M16.554,18.849l7.965,7.965c-1.039,1.501-1.616,3.232-1.616,5.194
	c0,1.962,0.577,3.694,1.616,5.194l-7.965,7.965c-1.154-0.808-2.539-1.385-4.04-1.501V20.349
	C14.014,20.234,15.399,19.657,16.554,18.849z M45.296,16.425l-7.965,7.965c-1.501-1.039-3.232-1.616-5.194-1.616
	c-1.962,0-3.694,0.577-5.194,1.616l-7.965-7.965c0.808-1.154,1.385-2.539,1.501-4.04H43.68
	C43.911,13.885,44.488,15.27,45.296,16.425z M47.72,45.167l-7.965-7.965c1.039-1.501,1.616-3.232,1.616-5.194
	c0-1.962-0.577-3.694-1.616-5.194l7.965-7.965c1.154,0.808,2.539,1.385,4.04,1.501v23.202C50.259,43.782,48.874,44.359,47.72,45.167
	z M52.914,5.459c3.001,0,5.772,2.77,5.772,5.772s-2.77,5.772-5.772,5.772c-3.001,0-5.772-2.77-5.772-5.772
	S49.913,5.459,52.914,5.459z M5.588,11.23c0-3.001,2.77-5.772,5.772-5.772s5.772,2.77,5.772,5.772s-2.77,5.772-5.772,5.772
	S5.588,14.231,5.588,11.23z M11.359,58.557c-3.001,0-5.772-2.77-5.772-5.772c0-3.001,2.77-5.772,5.772-5.772s5.772,2.77,5.772,5.772
	C17.131,55.786,14.36,58.557,11.359,58.557z M52.914,58.557c-3.001,0-5.772-2.77-5.772-5.772c0-3.001,2.77-5.772,5.772-5.772
	c3.001,0,5.772,2.77,5.772,5.772C58.686,55.786,55.915,58.557,52.914,58.557z"/>
</svg>
