<?xml version="1.0" encoding="iso-8859-1"?>
<!-- Generator: Adobe Illustrator 20.0.0, SVG Export Plug-In . SVG Version: 6.00 Build 0)  -->
<svg version="1.1" id="Layer_1" xmlns="http://www.w3.org/2000/svg" xmlns:xlink="http://www.w3.org/1999/xlink" x="0px" y="0px"
	 viewBox="0 0 128 128" style="enable-background:new 0 0 128 128;" xml:space="preserve">
<path d="M110.172,87.844V40.287c7.849-2.078,13.852-9.234,13.852-17.776c0-10.158-8.311-18.469-18.469-18.469
	c-8.542,0-15.699,5.772-17.776,13.852H40.221c-2.078-7.849-9.234-13.852-17.776-13.852c-10.158,0-18.469,8.311-18.469,18.469
	c0,8.542,6.002,15.699,13.852,17.776v47.327C9.979,89.691,3.976,96.848,3.976,105.39c0,10.158,8.311,18.469,18.469,18.469
	c9.465,0,17.084-7.157,18.238-16.16h46.403c1.154,9.004,9.004,16.16,18.238,16.16c10.158,0,18.469-8.311,18.469-18.469
	C124.024,97.079,118.021,89.922,110.172,87.844z M37.682,95.232l15.929-15.929c3.001,2.078,6.464,3.232,10.389,3.232
	s7.388-1.154,10.389-3.232l15.929,15.929c-1.154,1.616-2.078,3.694-2.539,5.772H40.221C39.76,98.925,38.836,97.079,37.682,95.232z
	 M32.834,37.747l15.929,15.929c-2.078,3.001-3.232,6.464-3.232,10.389s1.154,7.388,3.232,10.389L32.834,90.384
	c-2.309-1.616-5.079-2.77-8.08-3.001V40.748C27.755,40.518,30.525,39.363,32.834,37.747z M90.318,32.899L74.389,48.829
	c-3.001-2.078-6.464-3.232-10.389-3.232s-7.388,1.154-10.389,3.232L37.682,32.899c1.616-2.309,2.77-5.079,3.001-8.08h46.403
	C87.548,27.82,88.702,30.591,90.318,32.899z M95.166,90.384L79.237,74.454c2.078-3.001,3.232-6.464,3.232-10.389
	s-1.154-7.388-3.232-10.389l15.929-15.929c2.309,1.616,5.079,2.77,8.08,3.001v46.403C100.245,87.613,97.475,88.768,95.166,90.384z
	 M105.555,10.967c6.002,0,11.543,5.541,11.543,11.543s-5.541,11.543-11.543,11.543c-6.002,0-11.543-5.541-11.543-11.543
	S99.553,10.967,105.555,10.967z M10.902,22.51c0-6.002,5.541-11.543,11.543-11.543s11.543,5.541,11.543,11.543
	s-5.541,11.543-11.543,11.543S10.902,28.513,10.902,22.51z M22.445,117.163c-6.002,0-11.543-5.541-11.543-11.543
	c0-6.002,5.541-11.543,11.543-11.543s11.543,5.541,11.543,11.543C33.988,111.623,28.447,117.163,22.445,117.163z M105.555,117.163
	c-6.002,0-11.543-5.541-11.543-11.543c0-6.002,5.541-11.543,11.543-11.543c6.002,0,11.543,5.541,11.543,11.543
	C117.098,111.623,111.557,117.163,105.555,117.163z"/>
</svg>
