<?xml version="1.0" encoding="iso-8859-1"?>
<!-- Generator: Adobe Illustrator 20.0.0, SVG Export Plug-In . SVG Version: 6.00 Build 0)  -->
<svg version="1.1" id="Layer_1" xmlns="http://www.w3.org/2000/svg" xmlns:xlink="http://www.w3.org/1999/xlink" x="0px" y="0px"
	 viewBox="0 0 24 24" style="enable-background:new 0 0 24 24;" xml:space="preserve">
<path d="M20.449,16.323V7.62c1.436-0.38,2.535-1.69,2.535-3.253c0-1.859-1.521-3.38-3.38-3.38c-1.563,0-2.873,1.056-3.253,2.535
	H7.649c-0.38-1.436-1.69-2.535-3.253-2.535c-1.859,0-3.38,1.521-3.38,3.38c0,1.563,1.098,2.873,2.535,3.253v8.661
	c-1.436,0.38-2.535,1.69-2.535,3.253c0,1.859,1.521,3.38,3.38,3.38c1.732,0,3.126-1.31,3.338-2.957h8.492
	c0.211,1.648,1.648,2.957,3.338,2.957c1.859,0,3.38-1.521,3.38-3.38C22.984,18.012,21.886,16.703,20.449,16.323z M7.184,17.675
	l2.915-2.915c0.549,0.38,1.183,0.591,1.901,0.591c0.718,0,1.352-0.211,1.901-0.591l2.915,2.915c-0.211,0.296-0.38,0.676-0.465,1.056
	H7.649C7.564,18.35,7.395,18.012,7.184,17.675z M6.297,7.155l2.915,2.915c-0.38,0.549-0.591,1.183-0.591,1.901
	c0,0.718,0.211,1.352,0.591,1.901l-2.915,2.915c-0.422-0.296-0.929-0.507-1.479-0.549V7.704C5.367,7.662,5.874,7.451,6.297,7.155z
	 M16.816,6.268l-2.915,2.915C13.352,8.803,12.718,8.591,12,8.591c-0.718,0-1.352,0.211-1.901,0.591L7.184,6.268
	C7.48,5.845,7.691,5.338,7.733,4.789h8.492C16.309,5.338,16.52,5.845,16.816,6.268z M17.703,16.787l-2.915-2.915
	c0.38-0.549,0.591-1.183,0.591-1.901c0-0.718-0.211-1.352-0.591-1.901l2.915-2.915c0.422,0.296,0.929,0.507,1.479,0.549v8.492
	C18.633,16.28,18.126,16.492,17.703,16.787z M19.605,2.254c1.098,0,2.112,1.014,2.112,2.112s-1.014,2.112-2.112,2.112
	c-1.098,0-2.112-1.014-2.112-2.112S18.506,2.254,19.605,2.254z M2.283,4.367c0-1.098,1.014-2.112,2.112-2.112
	s2.112,1.014,2.112,2.112S5.494,6.479,4.395,6.479S2.283,5.465,2.283,4.367z M4.395,21.688c-1.098,0-2.112-1.014-2.112-2.112
	c0-1.098,1.014-2.112,2.112-2.112s2.112,1.014,2.112,2.112C6.508,20.674,5.494,21.688,4.395,21.688z M19.605,21.688
	c-1.098,0-2.112-1.014-2.112-2.112c0-1.098,1.014-2.112,2.112-2.112c1.098,0,2.112,1.014,2.112,2.112
	C21.717,20.674,20.703,21.688,19.605,21.688z"/>
</svg>
