<?xml version="1.0" encoding="iso-8859-1"?>
<!-- Generator: Adobe Illustrator 20.0.0, SVG Export Plug-In . SVG Version: 6.00 Build 0)  -->
<svg version="1.1" id="Layer_1" xmlns="http://www.w3.org/2000/svg" xmlns:xlink="http://www.w3.org/1999/xlink" x="0px" y="0px"
	 viewBox="0 0 16 16" style="enable-background:new 0 0 16 16;" xml:space="preserve">
<path d="M0,1.562v12.776h15.97V1.562H0z M11.179,3.958v2.662H8.251V3.958H11.179z M15.171,10.079h-3.194V7.418h3.194V10.079z
	 M11.179,10.079H8.251V7.418h2.928V10.079z M0.798,7.418h6.654v2.662H0.798V7.418z M7.452,3.958v2.662H0.798V3.958H7.452z
	 M0.798,13.539v-2.662h6.654v2.662H0.798z M8.251,13.539v-2.662h2.928v2.662H8.251z M11.977,13.539v-2.662h3.194v2.662H11.977z
	 M15.171,6.619h-3.194V3.958h3.194V6.619z"/>
</svg>
