<?xml version="1.0" encoding="iso-8859-1"?>
<!-- Generator: Adobe Illustrator 20.0.0, SVG Export Plug-In . SVG Version: 6.00 Build 0)  -->
<svg version="1.1" id="Layer_1" xmlns="http://www.w3.org/2000/svg" xmlns:xlink="http://www.w3.org/1999/xlink" x="0px" y="0px"
	 viewBox="0 0 64 64" style="enable-background:new 0 0 64 64;" xml:space="preserve">
<path d="M2.125,7.94V55.96h60.024V7.94H2.125z M44.141,16.944v10.004H33.137V16.944H44.141z M59.147,39.953H47.143V29.949h12.005
	V39.953z M44.141,39.953H33.137V29.949h11.004V39.953z M5.126,29.949h25.01v10.004H5.126V29.949z M30.136,16.944v10.004H5.126
	V16.944H30.136z M5.126,52.958V42.954h25.01v10.004H5.126z M33.137,52.958V42.954h11.004v10.004H33.137z M47.143,52.958V42.954
	h12.005v10.004H47.143z M59.147,26.948H47.143V16.944h12.005V26.948z"/>
</svg>
