<?xml version="1.0" encoding="iso-8859-1"?>
<!-- Generator: Adobe Illustrator 20.0.0, SVG Export Plug-In . SVG Version: 6.00 Build 0)  -->
<svg version="1.1" id="Layer_1" xmlns="http://www.w3.org/2000/svg" xmlns:xlink="http://www.w3.org/1999/xlink" x="0px" y="0px"
	 viewBox="0 0 32 32" style="enable-background:new 0 0 32 32;" xml:space="preserve">
<path d="M1.126,4.1V27.8h29.626V4.1H1.126z M21.864,8.544v4.938h-5.431V8.544H21.864z M29.271,19.9h-5.925v-4.938h5.925V19.9z
	 M21.864,19.9h-5.431v-4.938h5.431V19.9z M2.608,14.962h12.344V19.9H2.608V14.962z M14.952,8.544v4.938H2.608V8.544H14.952z
	 M2.608,26.319v-4.938h12.344v4.938H2.608z M16.433,26.319v-4.938h5.431v4.938H16.433z M23.346,26.319v-4.938h5.925v4.938H23.346z
	 M29.271,13.481h-5.925V8.544h5.925V13.481z"/>
</svg>
