<?xml version="1.0" encoding="iso-8859-1"?>
<!-- Generator: Adobe Illustrator 20.0.0, SVG Export Plug-In . SVG Version: 6.00 Build 0)  -->
<svg version="1.1" id="Layer_1" xmlns="http://www.w3.org/2000/svg" xmlns:xlink="http://www.w3.org/1999/xlink" x="0px" y="0px"
	 viewBox="0 0 128 128" style="enable-background:new 0 0 128 128;" xml:space="preserve">
<path d="M3.976,15.931v96.038h120.048V15.931H3.976z M88.01,33.938v20.008H66.001V33.938H88.01z M118.021,79.956h-24.01V59.948
	h24.01V79.956z M88.01,79.956H66.001V59.948H88.01V79.956z M9.979,59.948h50.02v20.008H9.979V59.948z M59.998,33.938v20.008H9.979
	V33.938H59.998z M9.979,105.967V85.959h50.02v20.008H9.979z M66.001,105.967V85.959H88.01v20.008H66.001z M94.012,105.967V85.959
	h24.01v20.008H94.012z M118.021,53.946h-24.01V33.938h24.01V53.946z"/>
</svg>
