<?xml version="1.0" encoding="iso-8859-1"?>
<!-- Generator: Adobe Illustrator 20.0.0, SVG Export Plug-In . SVG Version: 6.00 Build 0)  -->
<svg version="1.1" id="Layer_1" xmlns="http://www.w3.org/2000/svg" xmlns:xlink="http://www.w3.org/1999/xlink" x="0px" y="0px"
	 viewBox="0 0 32 32" style="enable-background:new 0 0 32 32;" xml:space="preserve">
<g>
	<path d="M16,2C8.268,2,2,8.268,2,16s6.268,14,14,14c7.732,0,14-6.268,14-14S23.732,2,16,2z M16,28C9.383,28,4,22.617,4,16
		S9.383,4,16,4c6.617,0,12,5.383,12,12S22.617,28,16,28z"/>
	<polygon points="22.646,8.646 16.353,14.939 12.707,11.293 11.293,12.707 14.939,16.354 13.646,17.646 14.353,18.354 15.646,17.06 
		17.293,18.707 18.707,17.293 17.06,15.646 23.353,9.354 	"/>
</g>
</svg>
