<?xml version="1.0" encoding="utf-8"?>
<!-- Generator: Adobe Illustrator 17.1.0, SVG Export Plug-In . SVG Version: 6.00 Build 0)  -->
<!DOCTYPE svg PUBLIC "-//W3C//DTD SVG 1.1//EN" "http://www.w3.org/Graphics/SVG/1.1/DTD/svg11.dtd">
<svg version="1.1" id="Layer_1" xmlns="http://www.w3.org/2000/svg" xmlns:xlink="http://www.w3.org/1999/xlink" x="0px" y="0px"
	 width="128px" height="128px" viewBox="0 0 128 128" enable-background="new 0 0 128 128" xml:space="preserve">
<g>
	<path d="M64,8C33.072,8,8,33.072,8,64s25.072,56,56,56s56-25.072,56-56S94.928,8,64,8z M64,116c-28.673,0-52-23.327-52-52
		s23.327-52,52-52s52,23.327,52,52S92.673,116,64,116z"/>
	<polygon points="90.586,34.586 65.415,59.757 50.829,45.171 45.171,50.829 59.757,65.415 54.586,70.586 57.414,73.414 
		62.585,68.243 69.171,74.829 74.829,69.171 68.243,62.585 93.414,37.414 	"/>
</g>
</svg>
