<?xml version="1.0" encoding="iso-8859-1"?>
<!-- Generator: Adobe Illustrator 20.0.0, SVG Export Plug-In . SVG Version: 6.00 Build 0)  -->
<svg version="1.1" id="Layer_1" xmlns="http://www.w3.org/2000/svg" xmlns:xlink="http://www.w3.org/1999/xlink" x="0px" y="0px"
	 viewBox="0 0 64 64" style="enable-background:new 0 0 64 64;" xml:space="preserve">
<g>
	<path d="M32,4C16.536,4,4,16.536,4,32s12.536,28,28,28c15.464,0,28-12.536,28-28S47.464,4,32,4z M32,58C17.664,58,6,46.336,6,32
		S17.664,6,32,6c14.336,0,26,11.664,26,26S46.336,58,32,58z"/>
	<polygon points="45.293,17.293 32.707,29.879 25.414,22.586 22.586,25.414 29.879,32.707 27.293,35.293 28.707,36.707 
		31.293,34.121 34.586,37.414 37.414,34.586 34.121,31.293 46.707,18.707 	"/>
</g>
</svg>
