<?xml version="1.0" encoding="utf-8"?>
<!-- Generator: Adobe Illustrator 17.1.0, SVG Export Plug-In . SVG Version: 6.00 Build 0)  -->
<!DOCTYPE svg PUBLIC "-//W3C//DTD SVG 1.1//EN" "http://www.w3.org/Graphics/SVG/1.1/DTD/svg11.dtd">
<svg version="1.1" id="Layer_1" xmlns="http://www.w3.org/2000/svg" xmlns:xlink="http://www.w3.org/1999/xlink" x="0px" y="0px"
	 width="128px" height="128px" viewBox="0 0 128 128" enable-background="new 0 0 128 128" xml:space="preserve">
<g>
	<circle cx="64" cy="32" r="12"/>
	<path d="M64,76c6.625,0,12-5.373,12-12s-5.375-12-12-12s-12,5.373-12,12S57.375,76,64,76z M64,56c4.411,0,8,3.589,8,8s-3.589,8-8,8
		s-8-3.589-8-8S59.589,56,64,56z"/>
	<path d="M64,108c6.625,0,12-5.373,12-12s-5.375-12-12-12s-12,5.373-12,12S57.375,108,64,108z M64,88c4.411,0,8,3.589,8,8
		s-3.589,8-8,8s-8-3.589-8-8S59.589,88,64,88z"/>
	<path d="M108,52H92v-8l16-24H92V4H36v16H20l16,24v8H20l16,24v8H20l16,24v16h56v-16l16-24H92v-8L108,52z M88,120H40V8h48V120z"/>
</g>
</svg>
