<?xml version="1.0" encoding="utf-8"?>
<!-- Generator: Adobe Illustrator 19.1.0, SVG Export Plug-In . SVG Version: 6.00 Build 0)  -->
<svg version="1.1" id="Icon" xmlns="http://www.w3.org/2000/svg" xmlns:xlink="http://www.w3.org/1999/xlink" x="0px" y="0px"
	 width="24px" height="24px" viewBox="0 0 24 24" enable-background="new 0 0 24 24" xml:space="preserve">
<path d="M20,10h-3V6l3-3h-3V1H7v2H4l3,3v4H4l3,3v4H4l3,3v3h10v-3l3-3h-3v-4L20,10z M12,21c-1.105,0-2-0.895-2-2c0-1.105,0.895-2,2-2
	s2,0.895,2,2C14,20.105,13.105,21,12,21z M12,14c-1.105,0-2-0.895-2-2c0-1.105,0.895-2,2-2s2,0.895,2,2C14,13.105,13.105,14,12,14z
	 M12,7c-1.105,0-2-0.895-2-2c0-1.105,0.895-2,2-2s2,0.895,2,2C14,6.105,13.105,7,12,7z"/>
</svg>
