<?xml version="1.0" encoding="iso-8859-1"?>
<!-- Generator: Adobe Illustrator 20.0.0, SVG Export Plug-In . SVG Version: 6.00 Build 0)  -->
<svg version="1.1" id="Layer_1" xmlns="http://www.w3.org/2000/svg" xmlns:xlink="http://www.w3.org/1999/xlink" x="0px" y="0px"
	 viewBox="0 0 32 32" style="enable-background:new 0 0 32 32;" xml:space="preserve">
<g>
	<circle cx="16" cy="8" r="3"/>
	<path d="M16,19c1.656,0,3-1.344,3-3c0-1.656-1.344-3-3-3c-1.656,0-3,1.344-3,3C13,17.656,14.344,19,16,19z M16,14
		c1.103,0,2,0.896,2,2s-0.897,2-2,2s-2-0.896-2-2S14.898,14,16,14z"/>
	<path d="M16,27c1.656,0,3-1.344,3-3c0-1.656-1.344-3-3-3c-1.656,0-3,1.344-3,3C13,25.656,14.344,27,16,27z M16,22
		c1.103,0,2,0.896,2,2s-0.897,2-2,2s-2-0.896-2-2S14.898,22,16,22z"/>
	<path d="M27,13h-4v-2l4-6h-4V1H9v4H5l4,6v2H5l4,6v2H5l4,6v4h14v-4l4-6h-4v-2L27,13z M21,29H11V3h10V29z"/>
</g>
</svg>
