<?xml version="1.0" encoding="iso-8859-1"?>
<!-- Generator: Adobe Illustrator 20.0.0, SVG Export Plug-In . SVG Version: 6.00 Build 0)  -->
<svg version="1.1" id="Layer_1" xmlns="http://www.w3.org/2000/svg" xmlns:xlink="http://www.w3.org/1999/xlink" x="0px" y="0px"
	 viewBox="0 0 128 128" style="enable-background:new 0 0 128 128;" xml:space="preserve">
<path d="M22.445,3.976c-10.158,0-18.469,8.311-18.469,18.469s8.311,18.469,18.469,18.469s18.469-8.311,18.469-18.469
	S32.603,3.976,22.445,3.976z M22.445,33.988c-6.002,0-11.543-5.541-11.543-11.543s5.541-11.543,11.543-11.543
	s11.543,5.541,11.543,11.543S28.447,33.988,22.445,33.988z M82.469,64c0,10.158-8.311,18.469-18.469,18.469S45.531,74.158,45.531,64
	S53.842,45.531,64,45.531S82.469,53.842,82.469,64z M22.445,87.086c-10.158,0-18.469,8.311-18.469,18.469
	s8.311,18.469,18.469,18.469s18.469-8.311,18.469-18.469S32.603,87.086,22.445,87.086z M22.445,117.098
	c-6.002,0-11.543-5.541-11.543-11.543c0-6.002,5.541-11.543,11.543-11.543s11.543,5.541,11.543,11.543
	C33.988,111.557,28.447,117.098,22.445,117.098z M105.555,40.914c10.158,0,18.469-8.311,18.469-18.469s-8.311-18.469-18.469-18.469
	s-18.469,8.311-18.469,18.469S95.397,40.914,105.555,40.914z M105.555,10.902c6.002,0,11.543,5.541,11.543,11.543
	s-5.541,11.543-11.543,11.543c-6.002,0-11.543-5.541-11.543-11.543S99.553,10.902,105.555,10.902z M105.555,87.086
	c-10.158,0-18.469,8.311-18.469,18.469s8.311,18.469,18.469,18.469s18.469-8.311,18.469-18.469S115.713,87.086,105.555,87.086z
	 M105.555,117.098c-6.002,0-11.543-5.541-11.543-11.543c0-6.002,5.541-11.543,11.543-11.543c6.002,0,11.543,5.541,11.543,11.543
	C117.098,111.557,111.557,117.098,105.555,117.098z"/>
</svg>
