<?xml version="1.0" encoding="iso-8859-1"?>
<!-- Generator: Adobe Illustrator 20.0.0, SVG Export Plug-In . SVG Version: 6.00 Build 0)  -->
<svg version="1.1" id="Layer_1" xmlns="http://www.w3.org/2000/svg" xmlns:xlink="http://www.w3.org/1999/xlink" x="0px" y="0px"
	 viewBox="0 0 16 16" style="enable-background:new 0 0 16 16;" xml:space="preserve">
<path d="M2.465-0.01C1.109-0.01,0,1.099,0,2.455s1.109,2.465,2.465,2.465S4.929,3.81,4.929,2.455S3.82-0.01,2.465-0.01z
	 M2.465,3.995c-0.801,0-1.54-0.739-1.54-1.54s0.739-1.54,1.54-1.54s1.54,0.739,1.54,1.54S3.266,3.995,2.465,3.995z M10.475,8
	c0,1.356-1.109,2.465-2.465,2.465S5.545,9.356,5.545,8S6.654,5.535,8.01,5.535S10.475,6.644,10.475,8z M2.465,11.081
	C1.109,11.081,0,12.19,0,13.545s1.109,2.465,2.465,2.465s2.465-1.109,2.465-2.465S3.82,11.081,2.465,11.081z M2.465,15.086
	c-0.801,0-1.54-0.739-1.54-1.54s0.739-1.54,1.54-1.54s1.54,0.739,1.54,1.54S3.266,15.086,2.465,15.086z M13.555,4.919
	c1.356,0,2.465-1.109,2.465-2.465S14.911-0.01,13.555-0.01s-2.465,1.109-2.465,2.465S12.2,4.919,13.555,4.919z M13.555,0.914
	c0.801,0,1.54,0.739,1.54,1.54s-0.739,1.54-1.54,1.54s-1.54-0.739-1.54-1.54S12.754,0.914,13.555,0.914z M13.555,11.081
	c-1.356,0-2.465,1.109-2.465,2.465s1.109,2.465,2.465,2.465s2.465-1.109,2.465-2.465S14.911,11.081,13.555,11.081z M13.555,15.086
	c-0.801,0-1.54-0.739-1.54-1.54s0.739-1.54,1.54-1.54s1.54,0.739,1.54,1.54S14.356,15.086,13.555,15.086z"/>
</svg>
