<?xml version="1.0" encoding="iso-8859-1"?>
<!-- Generator: Adobe Illustrator 20.0.0, SVG Export Plug-In . SVG Version: 6.00 Build 0)  -->
<svg version="1.1" id="Layer_1" xmlns="http://www.w3.org/2000/svg" xmlns:xlink="http://www.w3.org/1999/xlink" x="0px" y="0px"
	 viewBox="0 0 24 24" style="enable-background:new 0 0 24 24;" xml:space="preserve">
<path d="M4.395,1.016c-1.859,0-3.38,1.521-3.38,3.38s1.521,3.38,3.38,3.38s3.38-1.521,3.38-3.38S6.254,1.016,4.395,1.016z
	 M4.395,6.508c-1.098,0-2.112-1.014-2.112-2.112s1.014-2.112,2.112-2.112s2.112,1.014,2.112,2.112S5.494,6.508,4.395,6.508z
	 M15.38,12c0,1.859-1.521,3.38-3.38,3.38S8.62,13.859,8.62,12S10.141,8.62,12,8.62S15.38,10.141,15.38,12z M4.395,16.225
	c-1.859,0-3.38,1.521-3.38,3.38c0,1.859,1.521,3.38,3.38,3.38s3.38-1.521,3.38-3.38C7.775,17.746,6.254,16.225,4.395,16.225z
	 M4.395,21.717c-1.098,0-2.112-1.014-2.112-2.112c0-1.098,1.014-2.112,2.112-2.112s2.112,1.014,2.112,2.112
	C6.508,20.703,5.494,21.717,4.395,21.717z M19.605,7.775c1.859,0,3.38-1.521,3.38-3.38s-1.521-3.38-3.38-3.38
	c-1.859,0-3.38,1.521-3.38,3.38S17.746,7.775,19.605,7.775z M19.605,2.283c1.098,0,2.112,1.014,2.112,2.112
	s-1.014,2.112-2.112,2.112c-1.098,0-2.112-1.014-2.112-2.112S18.506,2.283,19.605,2.283z M19.605,16.225
	c-1.859,0-3.38,1.521-3.38,3.38c0,1.859,1.521,3.38,3.38,3.38c1.859,0,3.38-1.521,3.38-3.38
	C22.984,17.746,21.463,16.225,19.605,16.225z M19.605,21.717c-1.098,0-2.112-1.014-2.112-2.112c0-1.098,1.014-2.112,2.112-2.112
	c1.098,0,2.112,1.014,2.112,2.112C21.717,20.703,20.703,21.717,19.605,21.717z"/>
</svg>
