<?xml version="1.0" encoding="iso-8859-1"?>
<!-- Generator: Adobe Illustrator 20.0.0, SVG Export Plug-In . SVG Version: 6.00 Build 0)  -->
<svg version="1.1" id="Layer_1" xmlns="http://www.w3.org/2000/svg" xmlns:xlink="http://www.w3.org/1999/xlink" x="0px" y="0px"
	 viewBox="0 0 64 64" style="enable-background:new 0 0 64 64;" xml:space="preserve">
<path d="M11.375,1.937c-5.088,0-9.25,4.163-9.25,9.25s4.163,9.25,9.25,9.25s9.25-4.163,9.25-9.25S16.463,1.937,11.375,1.937z
	 M11.375,16.968c-3.006,0-5.781-2.775-5.781-5.781s2.775-5.781,5.781-5.781s5.781,2.775,5.781,5.781S14.381,16.968,11.375,16.968z
	 M41.438,32c0,5.088-4.163,9.25-9.25,9.25s-9.25-4.163-9.25-9.25s4.163-9.25,9.25-9.25S41.438,26.912,41.438,32z M11.375,43.563
	c-5.088,0-9.25,4.163-9.25,9.25s4.163,9.25,9.25,9.25s9.25-4.163,9.25-9.25S16.463,43.563,11.375,43.563z M11.375,58.594
	c-3.006,0-5.781-2.775-5.781-5.781s2.775-5.781,5.781-5.781s5.781,2.775,5.781,5.781S14.381,58.594,11.375,58.594z M53.001,20.437
	c5.088,0,9.25-4.163,9.25-9.25s-4.163-9.25-9.25-9.25s-9.25,4.163-9.25,9.25S47.913,20.437,53.001,20.437z M53.001,5.406
	c3.006,0,5.781,2.775,5.781,5.781s-2.775,5.781-5.781,5.781c-3.006,0-5.781-2.775-5.781-5.781S49.995,5.406,53.001,5.406z
	 M53.001,43.563c-5.088,0-9.25,4.163-9.25,9.25s4.163,9.25,9.25,9.25s9.25-4.163,9.25-9.25S58.089,43.563,53.001,43.563z
	 M53.001,58.594c-3.006,0-5.781-2.775-5.781-5.781s2.775-5.781,5.781-5.781c3.006,0,5.781,2.775,5.781,5.781
	S56.007,58.594,53.001,58.594z"/>
</svg>
