<?xml version="1.0" encoding="iso-8859-1"?>
<!-- Generator: Adobe Illustrator 20.0.0, SVG Export Plug-In . SVG Version: 6.00 Build 0)  -->
<svg version="1.1" id="Layer_1" xmlns="http://www.w3.org/2000/svg" xmlns:xlink="http://www.w3.org/1999/xlink" x="0px" y="0px"
	 viewBox="0 0 32 32" style="enable-background:new 0 0 32 32;" xml:space="preserve">
<path d="M5.684,1.187c-2.507,0-4.558,2.051-4.558,4.558s2.051,4.558,4.558,4.558s4.558-2.051,4.558-4.558S8.191,1.187,5.684,1.187z
	 M5.684,8.594c-1.481,0-2.849-1.367-2.849-2.849s1.367-2.849,2.849-2.849s2.849,1.367,2.849,2.849S7.165,8.594,5.684,8.594z
	 M20.497,16c0,2.507-2.051,4.558-4.558,4.558S11.381,18.507,11.381,16s2.051-4.558,4.558-4.558S20.497,13.493,20.497,16z
	 M5.684,21.697c-2.507,0-4.558,2.051-4.558,4.558s2.051,4.558,4.558,4.558s4.558-2.051,4.558-4.558S8.191,21.697,5.684,21.697z
	 M5.684,29.104c-1.481,0-2.849-1.367-2.849-2.849s1.367-2.849,2.849-2.849s2.849,1.367,2.849,2.849S7.165,29.104,5.684,29.104z
	 M26.194,10.303c2.507,0,4.558-2.051,4.558-4.558s-2.051-4.558-4.558-4.558s-4.558,2.051-4.558,4.558S23.687,10.303,26.194,10.303z
	 M26.194,2.896c1.481,0,2.849,1.367,2.849,2.849s-1.367,2.849-2.849,2.849c-1.481,0-2.849-1.367-2.849-2.849
	S24.713,2.896,26.194,2.896z M26.194,21.697c-2.507,0-4.558,2.051-4.558,4.558s2.051,4.558,4.558,4.558s4.558-2.051,4.558-4.558
	S28.701,21.697,26.194,21.697z M26.194,29.104c-1.481,0-2.849-1.367-2.849-2.849s1.367-2.849,2.849-2.849
	c1.481,0,2.849,1.367,2.849,2.849S27.675,29.104,26.194,29.104z"/>
</svg>
