<?xml version="1.0" encoding="iso-8859-1"?>
<!-- Generator: Adobe Illustrator 20.0.0, SVG Export Plug-In . SVG Version: 6.00 Build 0)  -->
<svg version="1.1" id="Layer_1" xmlns="http://www.w3.org/2000/svg" xmlns:xlink="http://www.w3.org/1999/xlink" x="0px" y="0px"
	 viewBox="0 0 64 64" style="enable-background:new 0 0 64 64;" xml:space="preserve">
<path d="M42.628,12.377c-3.809,0-7.388,1.039-10.389,3.001c-3.001-1.847-6.58-3.001-10.389-3.001C11,12.377,2.227,21.15,2.227,32
	S11,51.623,21.85,51.623c3.809,0,7.388-1.039,10.389-3.001c3.001,1.847,6.58,3.001,10.389,3.001c10.85,0,19.623-8.773,19.623-19.623
	S53.478,12.377,42.628,12.377z M32.239,19.649c0.693,0.577,1.385,1.27,1.962,1.962h-3.925
	C30.854,20.919,31.547,20.226,32.239,19.649z M27.507,37.772h9.35c-0.346,0.808-0.693,1.616-1.154,2.309h-7.157
	C28.199,39.388,27.853,38.58,27.507,37.772z M26.814,28.537h10.735c0.115,0.693,0.231,1.501,0.346,2.309H26.468
	C26.583,30.038,26.699,29.23,26.814,28.537z M26.583,33.154h11.428c0,0.808-0.115,1.616-0.346,2.309H26.929
	C26.699,34.77,26.583,33.962,26.583,33.154z M36.972,26.228h-9.35c0.346-0.808,0.693-1.616,1.154-2.309h7.157
	C36.279,24.612,36.626,25.42,36.972,26.228z M21.85,48.16c-8.888,0-16.16-7.272-16.16-16.16s7.272-16.16,16.16-16.16
	c2.655,0,5.194,0.693,7.388,1.847c-3.809,3.578-6.233,8.657-6.233,14.313s2.424,10.735,6.233,14.313
	C27.045,47.468,24.505,48.16,21.85,48.16z M32.239,44.351c-0.693-0.577-1.385-1.27-1.962-1.962h3.925
	C33.624,43.081,32.932,43.774,32.239,44.351z"/>
</svg>
