<?xml version="1.0" encoding="iso-8859-1"?>
<!-- Generator: Adobe Illustrator 20.0.0, SVG Export Plug-In . SVG Version: 6.00 Build 0)  -->
<svg version="1.1" id="Layer_1" xmlns="http://www.w3.org/2000/svg" xmlns:xlink="http://www.w3.org/1999/xlink" x="0px" y="0px"
	 viewBox="0 0 24 24" style="enable-background:new 0 0 24 24;" xml:space="preserve">
<path d="M15.802,4.818c-1.394,0-2.704,0.38-3.802,1.098C10.902,5.24,9.592,4.818,8.198,4.818c-3.971,0-7.182,3.211-7.182,7.182
	s3.211,7.182,7.182,7.182c1.394,0,2.704-0.38,3.802-1.098c1.098,0.676,2.408,1.098,3.802,1.098c3.971,0,7.182-3.211,7.182-7.182
	S19.774,4.818,15.802,4.818z M12,7.48c0.253,0.211,0.507,0.465,0.718,0.718h-1.436C11.493,7.944,11.747,7.691,12,7.48z
	 M10.268,14.112h3.422c-0.127,0.296-0.253,0.591-0.422,0.845h-2.619C10.521,14.704,10.395,14.408,10.268,14.112z M10.014,10.733
	h3.929c0.042,0.253,0.084,0.549,0.127,0.845H9.888C9.93,11.282,9.972,10.986,10.014,10.733z M9.93,12.422h4.182
	c0,0.296-0.042,0.591-0.127,0.845h-3.929C9.972,13.014,9.93,12.718,9.93,12.422z M13.732,9.888H10.31
	c0.127-0.296,0.253-0.591,0.422-0.845h2.619C13.479,9.296,13.605,9.592,13.732,9.888z M8.198,17.915
	c-3.253,0-5.915-2.662-5.915-5.915s2.662-5.915,5.915-5.915c0.972,0,1.901,0.253,2.704,0.676C9.507,8.071,8.62,9.93,8.62,12
	s0.887,3.929,2.281,5.239C10.099,17.661,9.169,17.915,8.198,17.915z M12,16.52c-0.253-0.211-0.507-0.465-0.718-0.718h1.436
	C12.507,16.056,12.253,16.309,12,16.52z"/>
</svg>
