<?xml version="1.0" encoding="iso-8859-1"?>
<!-- Generator: Adobe Illustrator 20.0.0, SVG Export Plug-In . SVG Version: 6.00 Build 0)  -->
<svg version="1.1" id="Layer_1" xmlns="http://www.w3.org/2000/svg" xmlns:xlink="http://www.w3.org/1999/xlink" x="0px" y="0px"
	 viewBox="0 0 32 32" style="enable-background:new 0 0 32 32;" xml:space="preserve">
<path d="M21.067,6.315c-1.88,0-3.646,0.513-5.128,1.481c-1.481-0.912-3.247-1.481-5.128-1.481c-5.355,0-9.685,4.33-9.685,9.685
	s4.33,9.685,9.685,9.685c1.88,0,3.646-0.513,5.128-1.481c1.481,0.912,3.247,1.481,5.128,1.481c5.355,0,9.685-4.33,9.685-9.685
	S26.422,6.315,21.067,6.315z M15.939,9.904c0.342,0.285,0.684,0.627,0.969,0.969h-1.937C15.255,10.531,15.597,10.189,15.939,9.904z
	 M13.603,18.849h4.615c-0.171,0.399-0.342,0.798-0.57,1.139h-3.532C13.945,19.646,13.774,19.247,13.603,18.849z M13.261,14.291
	h5.298c0.057,0.342,0.114,0.741,0.171,1.139h-5.64C13.147,15.031,13.204,14.633,13.261,14.291z M13.147,16.57h5.64
	c0,0.399-0.057,0.798-0.171,1.139h-5.298C13.204,17.367,13.147,16.969,13.147,16.57z M18.275,13.151H13.66
	c0.171-0.399,0.342-0.798,0.57-1.139h3.532C17.933,12.354,18.104,12.753,18.275,13.151z M10.812,23.976
	c-4.387,0-7.976-3.589-7.976-7.976s3.589-7.976,7.976-7.976c1.31,0,2.564,0.342,3.646,0.912c-1.88,1.766-3.077,4.273-3.077,7.065
	s1.196,5.298,3.077,7.065C13.375,23.634,12.122,23.976,10.812,23.976z M15.939,22.096c-0.342-0.285-0.684-0.627-0.969-0.969h1.937
	C16.623,21.469,16.281,21.811,15.939,22.096z"/>
</svg>
