<?xml version="1.0" encoding="iso-8859-1"?>
<!-- Generator: Adobe Illustrator 20.0.0, SVG Export Plug-In . SVG Version: 6.00 Build 0)  -->
<svg version="1.1" id="Layer_1" xmlns="http://www.w3.org/2000/svg" xmlns:xlink="http://www.w3.org/1999/xlink" x="0px" y="0px"
	 viewBox="0 0 128 128" style="enable-background:new 0 0 128 128;" xml:space="preserve">
<path d="M84.777,24.754c-7.618,0-14.775,2.078-20.777,6.002c-6.002-3.694-13.159-6.002-20.777-6.002
	C21.522,24.754,3.976,42.299,3.976,64s17.545,39.246,39.246,39.246c7.618,0,14.775-2.078,20.777-6.002
	c6.002,3.694,13.159,6.002,20.777,6.002c21.701,0,39.246-17.545,39.246-39.246S106.478,24.754,84.777,24.754z M64,39.298
	c1.385,1.154,2.77,2.539,3.925,3.925h-7.849C61.23,41.837,62.615,40.452,64,39.298z M54.535,75.543h18.7
	c-0.693,1.616-1.385,3.232-2.309,4.617H56.612C55.92,78.775,55.227,77.159,54.535,75.543z M53.15,57.074h21.47
	c0.231,1.385,0.462,3.001,0.693,4.617H52.457C52.688,60.075,52.919,58.459,53.15,57.074z M52.688,66.309h22.855
	c0,1.616-0.231,3.232-0.693,4.617H53.38C52.919,69.541,52.688,67.925,52.688,66.309z M73.465,52.457h-18.7
	c0.693-1.616,1.385-3.232,2.309-4.617h14.313C72.08,49.225,72.773,50.841,73.465,52.457z M43.223,96.321
	c-17.776,0-32.321-14.544-32.321-32.321s14.544-32.321,32.321-32.321c5.31,0,10.389,1.385,14.775,3.694
	C50.379,42.53,45.531,52.688,45.531,64s4.848,21.47,12.466,28.627C53.611,94.935,48.532,96.321,43.223,96.321z M64,88.702
	c-1.385-1.154-2.77-2.539-3.925-3.925h7.849C66.77,86.163,65.385,87.548,64,88.702z"/>
</svg>
