<?xml version="1.0" encoding="iso-8859-1"?>
<!-- Generator: Adobe Illustrator 20.0.0, SVG Export Plug-In . SVG Version: 6.00 Build 0)  -->
<svg version="1.1" id="Layer_1" xmlns="http://www.w3.org/2000/svg" xmlns:xlink="http://www.w3.org/1999/xlink" x="0px" y="0px"
	 viewBox="0 0 16 16" style="enable-background:new 0 0 16 16;" xml:space="preserve">
<path d="M10.817,2.797c-1.01,0-1.959,0.275-2.754,0.796c-0.796-0.49-1.744-0.796-2.754-0.796C2.432,2.797,0.106,5.123,0.106,8
	s2.326,5.203,5.203,5.203c1.01,0,1.959-0.275,2.754-0.796c0.796,0.49,1.744,0.796,2.754,0.796c2.877,0,5.203-2.326,5.203-5.203
	S13.694,2.797,10.817,2.797z M8.063,4.725c0.184,0.153,0.367,0.337,0.52,0.52H7.543C7.696,5.062,7.88,4.878,8.063,4.725z
	 M6.808,9.53h2.479c-0.092,0.214-0.184,0.428-0.306,0.612H7.084C6.992,9.959,6.9,9.744,6.808,9.53z M6.625,7.082h2.846
	C9.502,7.266,9.532,7.48,9.563,7.694h-3.03C6.564,7.48,6.594,7.266,6.625,7.082z M6.564,8.306h3.03c0,0.214-0.031,0.428-0.092,0.612
	H6.655C6.594,8.734,6.564,8.52,6.564,8.306z M9.318,6.47H6.839c0.092-0.214,0.184-0.428,0.306-0.612h1.897
	C9.134,6.041,9.226,6.256,9.318,6.47z M5.309,12.284c-2.356,0-4.284-1.928-4.284-4.284s1.928-4.284,4.284-4.284
	c0.704,0,1.377,0.184,1.959,0.49C6.258,5.154,5.615,6.5,5.615,8s0.643,2.846,1.653,3.795C6.686,12.101,6.013,12.284,5.309,12.284z
	 M8.063,11.275c-0.184-0.153-0.367-0.337-0.52-0.52h1.041C8.43,10.938,8.247,11.122,8.063,11.275z"/>
</svg>
