<?xml version="1.0" encoding="utf-8"?>
<!-- Generator: Adobe Illustrator 17.1.0, SVG Export Plug-In . SVG Version: 6.00 Build 0)  -->
<!DOCTYPE svg PUBLIC "-//W3C//DTD SVG 1.1//EN" "http://www.w3.org/Graphics/SVG/1.1/DTD/svg11.dtd">
<svg version="1.1" id="Layer_1" xmlns="http://www.w3.org/2000/svg" xmlns:xlink="http://www.w3.org/1999/xlink" x="0px" y="0px"
	 width="128px" height="128px" viewBox="0 0 128 128" enable-background="new 0 0 128 128" xml:space="preserve">
<g>
	<polygon points="84.586,38.586 63.414,59.758 52.828,49.172 47.172,54.828 57.758,65.414 52.586,70.586 55.414,73.414 
		60.586,68.242 67.172,74.828 72.828,69.172 66.242,62.586 87.414,41.414 	"/>
	<path d="M109.814,60C108.625,45.603,101.09,33.008,90,25.025V4H34v21.025C21.893,33.74,14,47.945,14,64s7.893,30.26,20,38.975V124
		h56v-21.025c11.09-7.982,18.625-20.577,19.814-34.975H114v-8H109.814z M62,108c-24.262,0-44-19.738-44-44s19.738-44,44-44
		s44,19.738,44,44S86.262,108,62,108z"/>
</g>
</svg>
