<?xml version="1.0" encoding="utf-8"?>
<!-- Generator: Adobe Illustrator 17.1.0, SVG Export Plug-In . SVG Version: 6.00 Build 0)  -->
<!DOCTYPE svg PUBLIC "-//W3C//DTD SVG 1.1//EN" "http://www.w3.org/Graphics/SVG/1.1/DTD/svg11.dtd">
<svg version="1.1" id="Layer_1" xmlns="http://www.w3.org/2000/svg" xmlns:xlink="http://www.w3.org/1999/xlink" x="0px" y="0px"
	 width="64px" height="64px" viewBox="0 0 64 64" enable-background="new 0 0 64 64" xml:space="preserve">
<g>
	<polygon points="43.293,19.293 32.707,29.879 27.414,24.586 24.586,27.414 29.879,32.707 27.293,35.293 28.707,36.707 
		31.293,34.121 34.586,37.414 37.414,34.586 34.121,31.293 44.707,20.707 	"/>
	<path d="M55.907,30C55.312,22.801,51.545,16.504,46,12.513V2H18v10.513C11.946,16.87,8,23.973,8,32s3.946,15.13,10,19.487V62h28
		V51.487c5.545-3.991,9.312-10.288,9.907-17.487H58v-4H55.907z M32,54c-12.131,0-22-9.869-22-22s9.869-22,22-22s22,9.869,22,22
		S44.131,54,32,54z"/>
</g>
</svg>
