<?xml version="1.0" encoding="iso-8859-1"?>
<!-- Generator: Adobe Illustrator 20.0.0, SVG Export Plug-In . SVG Version: 6.00 Build 0)  -->
<svg version="1.1" id="Layer_1" xmlns="http://www.w3.org/2000/svg" xmlns:xlink="http://www.w3.org/1999/xlink" x="0px" y="0px"
	 viewBox="0 0 64 64" style="enable-background:new 0 0 64 64;" xml:space="preserve">
<g>
	<polygon points="42.293,19.293 31.707,29.879 26.414,24.586 23.586,27.414 28.879,32.707 26.293,35.293 27.707,36.707 
		30.293,34.121 33.586,37.414 36.414,34.586 33.121,31.293 43.707,20.707 	"/>
	<path d="M54.907,30C54.312,22.801,50.545,16.504,45,12.513V2H17v10.513C10.946,16.87,7,23.973,7,32s3.946,15.13,10,19.487V62h28
		V51.487c5.545-3.991,9.312-10.288,9.907-17.487H57v-4H54.907z M31,54C18.869,54,9,44.131,9,32s9.869-22,22-22
		c12.131,0,22,9.869,22,22S43.131,54,31,54z"/>
</g>
</svg>
