<?xml version="1.0" encoding="utf-8"?>
<!-- Generator: Adobe Illustrator 19.1.0, SVG Export Plug-In . SVG Version: 6.00 Build 0)  -->
<svg version="1.1" id="Icon" xmlns="http://www.w3.org/2000/svg" xmlns:xlink="http://www.w3.org/1999/xlink" x="0px" y="0px"
	 width="16px" height="16px" viewBox="0 0 16 16" enable-background="new 0 0 16 16" xml:space="preserve">
<g>
	<polygon points="14,7 14,8 14,9 16,9 16,7 	"/>
	<polygon points="6,7 4,7 4,9 6,9 8,9 8,7 8,4 6,4 	"/>
	<path d="M12,0H2v3.106C0.764,4.368,0,6.094,0,8c0,1.906,0.764,3.632,2,4.894V16h10v-3.106c1.236-1.262,2-2.988,2-4.894
		s-0.764-3.632-2-4.894V0z M7,13c-2.757,0-5-2.243-5-5s2.243-5,5-5s5,2.243,5,5S9.757,13,7,13z"/>
</g>
</svg>
