<?xml version="1.0" encoding="iso-8859-1"?>
<!-- Generator: Adobe Illustrator 20.0.0, SVG Export Plug-In . SVG Version: 6.00 Build 0)  -->
<svg version="1.1" id="Layer_1" xmlns="http://www.w3.org/2000/svg" xmlns:xlink="http://www.w3.org/1999/xlink" x="0px" y="0px"
	 viewBox="0 0 32 32" style="enable-background:new 0 0 32 32;" xml:space="preserve">
<g>
	<polygon points="21.146,9.646 15.854,14.939 13.207,12.293 11.793,13.707 14.439,16.354 13.146,17.646 13.854,18.354 15.146,17.06 
		16.793,18.707 18.207,17.293 16.56,15.646 21.854,10.354 	"/>
	<path d="M27.449,15c-0.297-3.598-2.18-6.737-4.949-8.732V1h-14v5.268c-3.023,2.178-5,5.721-5,9.732s1.977,7.555,5,9.732V31h14
		v-5.268c2.769-1.995,4.652-5.135,4.949-8.732H28.5v-2H27.449z M15.5,26c-5.514,0-10-4.486-10-10s4.486-10,10-10
		c5.514,0,10,4.486,10,10S21.014,26,15.5,26z"/>
</g>
</svg>
