<?xml version="1.0" encoding="utf-8"?>
<!-- Generator: Adobe Illustrator 19.1.0, SVG Export Plug-In . SVG Version: 6.00 Build 0)  -->
<svg version="1.1" id="Icon" xmlns="http://www.w3.org/2000/svg" xmlns:xlink="http://www.w3.org/1999/xlink" x="0px" y="0px"
	 width="24px" height="24px" viewBox="0 0 24 24" enable-background="new 0 0 24 24" xml:space="preserve">
<g>
	<polygon points="13,6 11,6 11,11 8,11 8,13 11,13 11,14 13,14 13,13 14,13 14,11 13,11 	"/>
	<path d="M22,11h-1.059C20.692,8.743,19.604,6.744,18,5.305V1H6v4.305C4.163,6.953,3,9.338,3,12s1.163,5.047,3,6.695V23h12v-4.305
		c1.604-1.438,2.692-3.438,2.941-5.695H22V11z M12,19c-3.86,0-7-3.14-7-7s3.14-7,7-7s7,3.14,7,7S15.86,19,12,19z"/>
</g>
</svg>
