<svg xmlns="http://www.w3.org/2000/svg" viewBox="0 0 16 16"><path d="M14.525 3.38l-.026-.034c-.51-.71-1.134-1.334-1.845-1.844l-.035-.026C11.313.55 9.722 0 8 0 3.58 0 0 3.58 0 8c0 1.722.55 3.313 1.475 4.62.01.01.018.023.027.035.51.71 1.133 1.333 1.844 1.844l.036.026C4.687 15.45 6.278 16 8 16c4.42 0 8-3.58 8-8 0-1.722-.55-3.314-1.475-4.62zm-1.798 1.347c0 2.02-.76 3.864-2 5.273l-2-2 3.965-3.965c.022.228.035.46.035.692zm-9.454 6.546c0-2.02.76-3.864 2-5.273l2 2-3.965 3.965c-.022-.228-.035-.46-.035-.692zm4.727-4l-2-2c1.41-1.24 3.25-2 5.272-2 .234 0 .464.013.692.035L8 7.273zm0 1.454l2 2c-1.41 1.24-3.25 2-5.272 2-.234 0-.464-.013-.692-.035L8 8.727zm3.636-6.522c-.122-.006-.24-.023-.364-.023-2.325 0-4.44.88-6.047 2.316L3.54 2.813c1.2-1.035 2.754-1.67 4.46-1.67 1.338 0 2.58.396 3.636 1.062zM2.813 3.54l1.685 1.685c-1.436 1.608-2.316 3.722-2.316 6.047 0 .124.017.243.023.365C1.54 10.58 1.143 9.34 1.143 8c0-1.706.635-3.26 1.67-4.46zm1.55 10.255c.123.006.24.023.365.023 2.325 0 4.44-.88 6.047-2.316l1.685 1.685c-1.2 1.035-2.754 1.67-4.46 1.67-1.338 0-2.58-.396-3.636-1.062zm8.824-1.335l-1.685-1.685c1.436-1.608 2.316-3.722 2.316-6.047 0-.124-.017-.243-.023-.365C14.46 5.42 14.857 6.66 14.857 8c0 1.706-.635 3.26-1.67 4.46z"/></svg>