<?xml version="1.0" encoding="utf-8"?>
<!-- Generator: Adobe Illustrator 16.2.1, SVG Export Plug-In . SVG Version: 6.00 Build 0)  -->
<!DOCTYPE svg PUBLIC "-//W3C//DTD SVG 1.1//EN" "http://www.w3.org/Graphics/SVG/1.1/DTD/svg11.dtd">
<svg version="1.1" id="Layer_1" xmlns="http://www.w3.org/2000/svg" xmlns:xlink="http://www.w3.org/1999/xlink" x="0px" y="0px"
	 width="64px" height="64px" viewBox="0 0 64 64" enable-background="new 0 0 64 64" xml:space="preserve">
<path d="M32,4C16.535,4,4,16.535,4,32s12.535,28,28,28s28-12.535,28-28S47.465,4,32,4z M41.877,40.463L33.414,32l16.263-16.263
	C50.791,25.048,48.003,33.914,41.877,40.463z M22.123,23.537L30.586,32L14.323,48.263C13.209,38.953,15.997,30.086,22.123,23.537z
	 M23.533,22.119c5.552-5.186,12.905-8.036,20.83-8.036c1.291,0,2.591,0.102,3.887,0.254L32,30.586L23.533,22.119z M32,33.414
	l8.467,8.467c-5.553,5.187-12.905,8.037-20.828,8.037c-1.292,0-2.592-0.102-3.889-0.254L32,33.414z M49.051,12.396
	c-1.561-0.208-3.131-0.313-4.688-0.313c-8.46,0-16.314,3.059-22.244,8.622l-7.771-7.771C18.988,8.635,25.191,6,32,6
	C38.52,6,44.482,8.418,49.051,12.396z M6,32c0-6.809,2.635-13.012,6.934-17.652l7.776,7.776c-6.591,7.037-9.636,16.938-8.3,26.942
	C8.424,44.496,6,38.527,6,32z M14.949,51.604c1.561,0.208,3.132,0.314,4.689,0.314c8.458,0,16.312-3.06,22.242-8.623l7.771,7.771
	C45.012,55.365,38.809,58,32,58C25.48,58,19.518,55.582,14.949,51.604z M51.066,49.652l-7.776-7.776
	c6.591-7.037,9.636-16.938,8.3-26.942C55.576,19.504,58,25.473,58,32C58,38.809,55.365,45.012,51.066,49.652z"/>
</svg>
