<svg xmlns="http://www.w3.org/2000/svg" viewBox="0 0 32 32"><path d="M16 2C8.268 2 2 8.268 2 16s6.268 14 14 14 14-6.268 14-14S23.732 2 16 2zm4.928 18.22L16.708 16l8.11-8.11c.002 0 .004.003.006.006.548 4.643-.842 9.057-3.896 12.325zm-9.856-8.44l4.22 4.22-8.11 8.11c-.002 0-.004-.003-.006-.006-.548-4.643.842-9.057 3.896-12.325zm13.04-4.598L16 15.292l-4.225-4.224C14.55 8.476 18.218 7.04 22.18 7.04c.636 0 1.275.05 1.91.124l.02.018zM7.888 24.818l8.11-8.11 4.225 4.224C17.45 23.524 13.782 24.96 9.82 24.96c-.635 0-1.274-.05-1.91-.124l-.02-.018zM22.722 6.065c-.18-.006-.36-.024-.54-.024-4.23 0-8.15 1.54-11.114 4.32L7.89 7.18C10.026 5.214 12.87 4 16 4c2.49 0 4.803.763 6.723 2.065zM7.183 7.89l3.173 3.173c-2.895 3.09-4.42 7.286-4.296 11.652C4.76 20.797 4 18.485 4 16c0-3.13 1.213-5.973 3.182-8.11zm2.094 18.045c.18.006.362.024.542.024 4.228 0 8.147-1.54 11.11-4.32l3.18 3.18C21.974 26.786 19.13 28 16 28c-2.49 0-4.803-.763-6.723-2.065zm15.54-1.824l-3.173-3.173c2.895-3.09 4.42-7.286 4.296-11.652C27.24 11.203 28 13.515 28 16c0 3.13-1.213 5.973-3.182 8.11z"/></svg>