<svg xmlns="http://www.w3.org/2000/svg" viewBox="0 0 24 24"><path d="M20.97 5.65c-.01-.017-.023-.033-.035-.05-.702-.977-1.558-1.833-2.536-2.535-.017-.012-.033-.025-.05-.036C16.556 1.755 14.368 1 12 1 5.925 1 1 5.924 1 12c0 2.368.755 4.556 2.03 6.35.01.018.024.033.036.05.7.978 1.557 1.833 2.535 2.535.018.012.033.025.05.037C7.444 22.245 9.632 23 12 23c6.075 0 11-4.925 11-11 0-2.368-.756-4.556-2.03-6.35zM18.5 7.5c0 2.78-1.044 5.312-2.75 7.25L13 12l5.452-5.452c.03.314.048.63.048.952zm-13 9c0-2.78 1.044-5.312 2.75-7.25L11 12l-5.452 5.452c-.03-.314-.048-.63-.048-.952zM12 11L9.25 8.25c1.938-1.706 4.47-2.75 7.25-2.75.32 0 .638.018.952.048L12 11zm0 2l2.75 2.75c-1.938 1.706-4.47 2.75-7.25 2.75-.32 0-.638-.018-.952-.048L12 13zm5-8.97c-.167-.006-.33-.03-.5-.03-3.197 0-6.105 1.21-8.315 3.185L5.868 4.868C7.518 3.445 9.655 2.57 12 2.57c1.84 0 3.547.547 5 1.46zM4.868 5.87l2.317 2.317C5.21 10.395 4 13.303 4 16.5c0 .17.024.334.03.502C3.117 15.55 2.57 13.84 2.57 12c0-2.345.875-4.48 2.298-6.132zM7 19.968c.167.008.33.032.5.032 3.197 0 6.105-1.21 8.315-3.185l2.317 2.317c-1.65 1.423-3.786 2.297-6.132 2.297-1.84 0-3.547-.547-5-1.46zm12.132-1.836l-2.317-2.317C18.79 13.605 20 10.697 20 7.5c0-.17-.024-.334-.03-.502.914 1.453 1.46 3.16 1.46 5.002 0 2.345-.875 4.48-2.298 6.132z"/></svg>