<svg xmlns="http://www.w3.org/2000/svg" viewBox="0 0 128 128"><path d="M64 8C33.07 8 8 33.07 8 64s25.07 56 56 56 56-25.07 56-56S94.93 8 64 8zm19.754 72.926L66.828 64l32.526-32.526c2.23 18.62-3.348 36.354-15.6 49.452zM44.246 47.074L61.172 64 28.646 96.526c-2.23-18.62 3.348-36.354 15.6-49.452zm2.82-2.835c11.104-10.373 25.81-16.075 41.662-16.075 2.595 0 5.21.157 7.815.464L64 61.17 47.066 44.24zM64 66.827l16.934 16.934C69.83 94.135 55.124 99.836 39.276 99.836c-2.596 0-5.214-.157-7.82-.465L64 66.83zm34.102-42.034c-3.12-.417-6.26-.63-9.374-.63-16.92 0-32.63 6.12-44.49 17.246L28.696 25.867C37.975 17.27 50.38 12 64 12c13.04 0 24.965 4.836 34.102 12.794zM12 64c0-13.618 5.27-26.024 13.867-35.305l15.53 15.53c-13.176 14.07-19.26 33.882-16.595 53.886C16.84 88.974 12 77.045 12 64zm17.898 39.207c3.12.416 6.263.63 9.378.63.002 0 0 0 0 0 16.917 0 32.627-6.12 44.485-17.247l15.544 15.543C90.024 110.73 77.62 116 64 116c-13.04 0-24.964-4.836-34.102-12.793zm72.235-3.902l-15.53-15.532c13.177-14.068 19.26-33.88 16.596-53.885C111.16 39.028 116 50.956 116 64c0 13.618-5.27 26.024-13.867 35.305z"/></svg>