<svg xmlns="http://www.w3.org/2000/svg" viewBox="0 0 64 64"><path d="M32 4C16.535 4 4 16.535 4 32s12.535 28 28 28 28-12.535 28-28S47.465 4 32 4zm9.877 36.463L33.414 32l16.263-16.263c1.114 9.31-1.674 18.177-7.8 24.726zM22.123 23.537L30.586 32 14.323 48.263c-1.114-9.31 1.674-18.177 7.8-24.726zm1.41-1.418c5.552-5.187 12.905-8.037 20.83-8.037 1.29 0 2.59.102 3.887.254L32 30.587l-8.467-8.468zM32 33.413l8.467 8.467C34.914 47.07 27.562 49.92 19.64 49.92c-1.293 0-2.593-.102-3.89-.254L32 33.414zm17.05-21.018c-1.56-.208-3.13-.313-4.687-.313-8.46 0-16.315 3.06-22.244 8.622l-7.772-7.77C18.988 8.634 25.19 6 32 6c6.52 0 12.482 2.418 17.05 6.396zM6 32c0-6.81 2.635-13.012 6.934-17.652l7.776 7.776c-6.59 7.037-9.636 16.938-8.3 26.942C8.424 44.496 6 38.526 6 32zm8.95 19.604c1.56.208 3.13.314 4.688.314 8.458 0 16.312-3.06 22.242-8.623l7.77 7.77C45.013 55.366 38.81 58 32 58c-6.52 0-12.482-2.418-17.05-6.396zm36.116-1.952l-7.776-7.776c6.59-7.037 9.636-16.938 8.3-26.942C55.576 19.504 58 25.474 58 32c0 6.81-2.635 13.012-6.934 17.652z"/></svg>