<?xml version="1.0" encoding="iso-8859-1"?>
<!-- Generator: Adobe Illustrator 20.0.0, SVG Export Plug-In . SVG Version: 6.00 Build 0)  -->
<svg version="1.1" id="Layer_1" xmlns="http://www.w3.org/2000/svg" xmlns:xlink="http://www.w3.org/1999/xlink" x="0px" y="0px"
	 viewBox="0 0 24 24" style="enable-background:new 0 0 24 24;" xml:space="preserve">
<path d="M18.333,16.778c4.176-4.176,4.28-10.868,0.336-15.185L18.055,1l-2.921,2.714C13.906,2.649,12.308,2,10.555,2
	c-3.866,0-7,3.134-7,7c0,1.753,0.649,3.351,1.714,4.579l-2.817,2.817l0.354,0.354l-0.028,0.028c1.893,1.893,4.305,2.95,6.778,3.174
	V21h-2v2h7v-2h-2v-1.187C14.672,19.424,16.696,18.415,18.333,16.778z M17.555,9c0-1.753-0.649-3.351-1.714-4.579l1.413-1.413
	c3.165,3.534,3.06,8.961-0.336,12.357s-8.823,3.5-12.357,0.336l1.413-1.413C7.204,15.351,8.802,16,10.555,16
	C14.421,16,17.555,12.866,17.555,9z"/>
</svg>
