<svg xmlns="http://www.w3.org/2000/svg" viewBox="0 0 64 64"><path d="M17.993 56h20v6h-20zM13.144 37.85c4.1 4.1 9.475 6.148 14.85 6.148 5.062 0 10.11-1.842 14.107-5.478l.036.035 1.414-1.414-.035-.034c7.496-8.24 7.29-20.996-.672-28.957-4.1-4.1-9.476-6.15-14.85-6.15-5.063 0-10.11 1.842-14.107 5.477l-.035-.035-1.413 1.414.035.035c-7.496 8.244-7.29 20.998.672 28.96zM27.992 4c5.076 0 9.848 1.977 13.437 5.564 7.17 7.17 7.378 18.678.67 26.13L15.3 8.89c3.492-3.15 7.953-4.89 12.692-4.89zm12.696 33.107C37.195 40.257 32.734 42 27.994 42c-5.076 0-9.848-1.977-13.435-5.564-7.17-7.17-7.38-18.678-.672-26.13l26.8 26.8z"/><path d="M48.5 2.494l-2.83 2.828c4.723 4.72 7.323 11 7.323 17.678s-2.6 12.957-7.322 17.678C40.95 45.398 34.674 48 27.994 48s-12.957-2.6-17.678-7.322l-2.828 2.828C12.962 48.983 20.245 52 27.993 52s15.03-3.017 20.506-8.494c5.477-5.477 8.493-12.76 8.493-20.506S53.977 7.97 48.5 2.494z"/></svg>