<svg xmlns="http://www.w3.org/2000/svg" viewBox="0 0 24 24"><path d="M18.333 16.778c4.176-4.176 4.28-10.868.336-15.185L18.054 1l-2.92 2.714C13.904 2.65 12.307 2 10.554 2c-3.866 0-7 3.134-7 7 0 1.753.65 3.35 1.714 4.58L2.45 16.395l.354.354-.028.028c1.893 1.893 4.305 2.95 6.778 3.174V21h-2v2h7v-2h-2v-1.187c2.116-.39 4.14-1.398 5.777-3.035zM17.555 9c0-1.753-.65-3.35-1.714-4.58l1.414-1.412c3.165 3.534 3.06 8.96-.336 12.357s-8.823 3.5-12.357.336l1.414-1.412C7.204 15.35 8.802 16 10.554 16c3.867 0 7-3.134 7-7z"/></svg>