<?xml version="1.0" encoding="utf-8"?>
<!-- Generator: Adobe Illustrator 19.1.0, SVG Export Plug-In . SVG Version: 6.00 Build 0)  -->
<svg version="1.1" id="Icon" xmlns="http://www.w3.org/2000/svg" xmlns:xlink="http://www.w3.org/1999/xlink" x="0px" y="0px"
	 width="24px" height="24px" viewBox="0 0 24 24" enable-background="new 0 0 24 24" xml:space="preserve">
<path d="M19.778,16.778c4.176-4.176,4.28-10.868,0.336-15.185L19.5,1l-2.921,2.714C15.351,2.649,13.753,2,12,2C8.134,2,5,5.134,5,9
	c0,1.753,0.649,3.351,1.714,4.579l-2.817,2.817L4.25,16.75l-0.028,0.028c1.893,1.893,4.305,2.95,6.778,3.174V21H9v2h7v-2h-2v-1.187
	C16.117,19.424,18.141,18.415,19.778,16.778z M19,9c0-1.753-0.649-3.351-1.714-4.579L18.7,3.007
	c3.165,3.534,3.06,8.961-0.336,12.357s-8.823,3.5-12.357,0.336l1.413-1.413C8.649,15.351,10.247,16,12,16C15.866,16,19,12.866,19,9z
	"/>
</svg>
