<?xml version="1.0" encoding="iso-8859-1"?>
<!-- Generator: Adobe Illustrator 20.0.0, SVG Export Plug-In . SVG Version: 6.00 Build 0)  -->
<svg version="1.1" id="Layer_1" xmlns="http://www.w3.org/2000/svg" xmlns:xlink="http://www.w3.org/1999/xlink" x="0px" y="0px"
	 viewBox="0 0 64 64" style="enable-background:new 0 0 64 64;" xml:space="preserve">
<g>
	<rect x="17.993" y="56" width="20" height="6"/>
	<path d="M13.144,37.849c4.1,4.1,9.475,6.149,14.85,6.149c5.062,0,10.11-1.842,14.107-5.478l0.035,0.035l1.414-1.414l-0.035-0.035
		c7.496-8.241,7.289-20.996-0.672-28.957C38.742,4.05,33.367,2,27.992,2c-5.062,0-10.109,1.842-14.106,5.477l-0.035-0.035
		l-1.414,1.414l0.035,0.035C4.976,17.134,5.183,29.888,13.144,37.849z M27.992,4.001c5.076,0,9.848,1.976,13.437,5.563
		c7.17,7.17,7.379,18.678,0.671,26.129L15.299,8.892C18.792,5.743,23.253,4.001,27.992,4.001z M40.688,37.107
		c-3.493,3.149-7.954,4.892-12.694,4.892c-5.076,0-9.848-1.976-13.435-5.563c-7.17-7.17-7.379-18.678-0.671-26.129L40.688,37.107z"
		/>
	<path d="M48.499,2.494l-2.828,2.828c4.722,4.721,7.322,10.999,7.322,17.678s-2.601,12.957-7.322,17.678
		C40.95,45.399,34.673,48,27.993,48s-12.957-2.601-17.678-7.322l-2.828,2.828C12.962,48.983,20.245,52,27.993,52
		s15.031-3.017,20.506-8.494c5.478-5.477,8.494-12.759,8.494-20.506S53.977,7.97,48.499,2.494z"/>
</g>
</svg>
