<svg xmlns="http://www.w3.org/2000/svg" viewBox="0 0 32 32"><path d="M6.572 18.925C8.622 20.975 11.31 22 13.997 22c2.53 0 5.055-.922 7.054-2.74l.02.018.706-.707-.018-.018c3.748-4.12 3.645-10.497-.336-14.477C19.372 2.025 16.684 1 13.997 1c-2.53 0-5.055.922-7.054 2.74l-.018-.018-.707.707.018.018c-3.748 4.12-3.645 10.496.336 14.477zM13.997 3c2.27 0 4.405.885 6.01 2.49 3.195 3.194 3.3 8.315.336 11.648L8.357 5.152C9.914 3.767 11.893 3 13.997 3zm5.64 14.848C18.08 19.233 16.1 20 13.996 20c-2.27 0-4.405-.885-6.01-2.49-3.195-3.193-3.3-8.314-.336-11.648l11.986 11.986z"/><path d="M24.25 1.247L22.836 2.66c2.36 2.36 3.66 5.5 3.66 8.84s-1.3 6.48-3.66 8.84c-2.36 2.36-5.5 3.66-8.84 3.66S7.52 22.7 5.16 20.34l-1.414 1.413C6.48 24.493 10.124 26 13.997 26s7.516-1.508 10.253-4.247c2.738-2.738 4.247-6.38 4.247-10.253s-1.51-7.515-4.247-10.253zM8.997 28h10v3h-10z"/></svg>