<?xml version="1.0" encoding="utf-8"?>
<!-- Generator: Adobe Illustrator 16.2.1, SVG Export Plug-In . SVG Version: 6.00 Build 0)  -->
<!DOCTYPE svg PUBLIC "-//W3C//DTD SVG 1.1//EN" "http://www.w3.org/Graphics/SVG/1.1/DTD/svg11.dtd">
<svg version="1.1" xmlns="http://www.w3.org/2000/svg" xmlns:xlink="http://www.w3.org/1999/xlink" x="0px" y="0px" width="24px"
	 height="24px" viewBox="0 0 24 24" enable-background="new 0 0 24 24" xml:space="preserve">
<g id="Background" display="none">
	<rect display="inline" fill="#F0F0F0" width="24" height="24"/>
</g>
<g id="Icon">
	<path d="M21.044,3.749c-1.27-1.312-2.96-2.034-4.76-2.034h0c-1.8,0-3.491,0.722-4.761,2.034L2.537,13.03
		c-2.042,2.11-2.042,5.544,0,7.654c1,1.033,2.332,1.602,3.75,1.601c1.418,0,2.75-0.569,3.75-1.602l6.719-6.941
		c1.486-1.535,1.486-4.032,0-5.566c-0.729-0.753-1.702-1.169-2.739-1.169c0,0,0,0,0,0c-1.037,0-2.01,0.415-2.74,1.169l-5.052,5.219
		l1.438,1.391l5.051-5.219c0.35-0.361,0.813-0.561,1.303-0.561s0.953,0.199,1.303,0.561c0.743,0.767,0.743,2.016,0,2.784
		l-6.719,6.942c-1.239,1.28-3.387,1.28-4.627,0c-1.3-1.343-1.3-3.529,0-4.873l8.985-9.281c0.89-0.919,2.071-1.425,3.324-1.425h0
		c1.253,0,2.434,0.506,3.323,1.425c1.857,1.919,1.858,5.042,0.001,6.96l-7.319,7.559l1.437,1.392l7.319-7.56
		C23.645,10.805,23.645,6.435,21.044,3.749z"/>
</g>
<g id="Guide" display="none">
	<g display="inline">
		<path fill="#FFCCCC" d="M23,1v22H1V1H23 M24,0H0v24h24V0L24,0z"/>
	</g>
</g>
</svg>
