<?xml version="1.0" encoding="utf-8"?>
<!-- Generator: Adobe Illustrator 16.2.1, SVG Export Plug-In . SVG Version: 6.00 Build 0)  -->
<!DOCTYPE svg PUBLIC "-//W3C//DTD SVG 1.1//EN" "http://www.w3.org/Graphics/SVG/1.1/DTD/svg11.dtd">
<svg version="1.1" xmlns="http://www.w3.org/2000/svg" xmlns:xlink="http://www.w3.org/1999/xlink" x="0px" y="0px" width="24px"
	 height="24px" viewBox="0 0 24 24" enable-background="new 0 0 24 24" xml:space="preserve">
<g id="Background" display="none">
	<rect display="inline" fill="#F0F0F0" width="24" height="24"/>
</g>
<g id="Icon">
	<g>
		<path d="M20,10h-7V6.817C14.164,6.404,15,5.304,15,4c0-1.656-1.339-3-2.999-3C10.344,1,9,2.344,9,4c0,1.303,0.838,2.402,2,2.816
			v3.276c-0.424,0.151-0.757,0.484-0.908,0.908H6.817C6.404,9.838,5.308,9,4.001,9C2.344,9,1,10.344,1,12s1.344,3,3.001,3
			c1.307,0,2.403-0.838,2.816-2H10v7l3,3V13h10L20,10z M4,13c-0.552,0-1-0.448-1-1s0.448-1,1-1s1,0.448,1,1S4.552,13,4,13z M12,5
			c-0.552,0-1-0.448-1-1s0.448-1,1-1s1,0.448,1,1S12.552,5,12,5z"/>
	</g>
	<path d="M20,10h-7V6.817C14.164,6.404,15,5.304,15,4c0-1.656-1.339-3-2.999-3C10.344,1,9,2.344,9,4c0,1.303,0.838,2.402,2,2.816
		v3.276c-0.424,0.151-0.757,0.484-0.908,0.908H6.817C6.404,9.838,5.308,9,4.001,9C2.344,9,1,10.344,1,12s1.344,3,3.001,3
		c1.307,0,2.403-0.838,2.816-2H10v7l3,3V13h10L20,10z M4,13c-0.552,0-1-0.448-1-1s0.448-1,1-1s1,0.448,1,1S4.552,13,4,13z M12,5
		c-0.552,0-1-0.448-1-1s0.448-1,1-1s1,0.448,1,1S12.552,5,12,5z"/>
</g>
<g id="Guide" display="none">
	<g display="inline">
		<path fill="#FFCCCC" d="M23,1v22H1V1H23 M24,0H0v24h24V0L24,0z"/>
	</g>
</g>
</svg>
