<?xml version="1.0" encoding="utf-8"?>
<!-- Generator: Adobe Illustrator 16.2.1, SVG Export Plug-In . SVG Version: 6.00 Build 0)  -->
<!DOCTYPE svg PUBLIC "-//W3C//DTD SVG 1.1//EN" "http://www.w3.org/Graphics/SVG/1.1/DTD/svg11.dtd">
<svg version="1.1" xmlns="http://www.w3.org/2000/svg" xmlns:xlink="http://www.w3.org/1999/xlink" x="0px" y="0px" width="24px"
	 height="24px" viewBox="0 0 24 24" enable-background="new 0 0 24 24" xml:space="preserve">
<g id="Background" display="none">
	<rect display="inline" fill="#F0F0F0" width="24" height="24"/>
</g>
<g id="Icon">
	<g>
		<path d="M17.077,2C14.919,2,13.035,3.301,12,5c-1.035-1.699-2.919-3-5.077-3C3.651,2,1,4.611,1,7.833
			C1,9.445,1.644,10.921,2.692,12C5.074,14.449,12,22,12,22s6.926-7.551,9.308-10C22.356,10.921,23,9.445,23,7.833
			C23,4.611,20.349,2,17.077,2z"/>
	</g>
</g>
<g id="Guide" display="none">
	<g display="inline">
		<path fill="#FFCCCC" d="M23,1v22H1V1H23 M24,0H0v24h24V0L24,0z"/>
	</g>
</g>
</svg>
