<?xml version="1.0" encoding="utf-8"?>
<!-- Generator: Adobe Illustrator 16.2.1, SVG Export Plug-In . SVG Version: 6.00 Build 0)  -->
<!DOCTYPE svg PUBLIC "-//W3C//DTD SVG 1.1//EN" "http://www.w3.org/Graphics/SVG/1.1/DTD/svg11.dtd">
<svg version="1.1" xmlns="http://www.w3.org/2000/svg" xmlns:xlink="http://www.w3.org/1999/xlink" x="0px" y="0px" width="24px"
	 height="24px" viewBox="0 0 24 24" enable-background="new 0 0 24 24" xml:space="preserve">
<g id="Background" display="none">
	<rect display="inline" fill="#F0F0F0" width="24" height="24"/>
</g>
<g id="Icon">
	<g>
		<circle cx="12" cy="8.001" r="7"/>
	</g>
	<path d="M18,17H6c-1.616,0-3,1.382-3,3v3h18v-3C21,18.382,19.617,17,18,17z"/>
	<g>
		<circle cx="12" cy="8.001" r="7"/>
	</g>
	<path d="M18,17H6c-1.616,0-3,1.382-3,3v3h18v-3C21,18.382,19.617,17,18,17z"/>
</g>
<g id="Guide" display="none">
	<g display="inline">
		<path fill="#FFCCCC" d="M23,1v22H1V1H23 M24,0H0v24h24V0L24,0z"/>
	</g>
</g>
</svg>
