<?xml version="1.0" encoding="utf-8"?>
<!-- Generator: Adobe Illustrator 17.1.0, SVG Export Plug-In . SVG Version: 6.00 Build 0)  -->
<!DOCTYPE svg PUBLIC "-//W3C//DTD SVG 1.1//EN" "http://www.w3.org/Graphics/SVG/1.1/DTD/svg11.dtd">
<svg version="1.1" id="Layer_1" xmlns="http://www.w3.org/2000/svg" xmlns:xlink="http://www.w3.org/1999/xlink" x="0px" y="0px"
	 width="128px" height="128px" viewBox="0 0 128 128" enable-background="new 0 0 128 128" xml:space="preserve">
<path d="M32.011,120.001c-7.506,0-14.557-3.012-19.852-8.482c-10.845-11.202-10.845-29.433,0-40.639l50.32-51.977
	c6.807-7.031,15.867-10.903,25.511-10.903c9.644,0,18.704,3.872,25.511,10.903c13.965,14.428,13.966,37.902,0.002,52.328
	l-40.986,42.335l-5.748-5.564l40.986-42.335c10.994-11.358,10.993-29.84-0.002-41.2c-5.286-5.46-12.305-8.467-19.763-8.467
	s-14.477,3.007-19.763,8.468L17.906,76.443c-7.875,8.138-7.875,21.376,0,29.511c3.775,3.899,8.784,6.047,14.104,6.046
	c5.319-0.001,10.327-2.148,14.101-6.046l37.634-38.876c4.754-4.911,4.754-12.901-0.001-17.813c-2.263-2.338-5.262-3.625-8.444-3.625
	c-3.182,0-6.181,1.287-8.443,3.625L38.56,78.492l-5.748-5.565l28.296-29.226c3.783-3.908,8.823-6.061,14.191-6.061
	c5.369,0,10.409,2.152,14.191,6.061c7.726,7.979,7.727,20.962,0.001,28.941l-37.633,38.876
	C46.565,116.988,39.517,120,32.011,120.001z"/>
</svg>
