<?xml version="1.0" encoding="utf-8"?>
<!-- Generator: Adobe Illustrator 17.1.0, SVG Export Plug-In . SVG Version: 6.00 Build 0)  -->
<!DOCTYPE svg PUBLIC "-//W3C//DTD SVG 1.1//EN" "http://www.w3.org/Graphics/SVG/1.1/DTD/svg11.dtd">
<svg version="1.1" id="Layer_1" xmlns="http://www.w3.org/2000/svg" xmlns:xlink="http://www.w3.org/1999/xlink" x="0px" y="0px"
	 width="64px" height="64px" viewBox="0 0 64 64" enable-background="new 0 0 64 64" xml:space="preserve">
<path d="M46,32c4.253-2.496,8-6.67,8-11.697C54,12.519,48.336,6,40,6H10v52h30c8.336,0,14-6.52,14-14.303
	C54,38.67,50.253,34.496,46,32z M30,54h-8V34h8c5.961,0,10,4.41,10,10.104C40,49.799,35.961,54,30,54z M30,30h-8V10h8
	c5.961,0,10,4.41,10,10.104C40,25.799,35.961,30,30,30z"/>
</svg>
