<?xml version="1.0" encoding="utf-8"?>
<!-- Generator: Adobe Illustrator 17.1.0, SVG Export Plug-In . SVG Version: 6.00 Build 0)  -->
<!DOCTYPE svg PUBLIC "-//W3C//DTD SVG 1.1//EN" "http://www.w3.org/Graphics/SVG/1.1/DTD/svg11.dtd">
<svg version="1.1" id="Layer_1" xmlns="http://www.w3.org/2000/svg" xmlns:xlink="http://www.w3.org/1999/xlink" x="0px" y="0px"
	 width="32px" height="32px" viewBox="0 0 32 32" enable-background="new 0 0 32 32" xml:space="preserve">
<path d="M23,16c2.126-1.248,4-3.335,4-5.849C27,6.26,24.168,3,20,3H5v26h15c4.168,0,7-3.26,7-7.151C27,19.335,25.126,17.248,23,16z
	 M15,27h-4V17h4c2.98,0,5,2.205,5,5.052C20,24.899,17.98,27,15,27z M15,15h-4V5h4c2.98,0,5,2.205,5,5.052C20,12.899,17.98,15,15,15z
	"/>
</svg>
