<?xml version="1.0" encoding="utf-8"?>
<!-- Generator: Adobe Illustrator 17.1.0, SVG Export Plug-In . SVG Version: 6.00 Build 0)  -->
<!DOCTYPE svg PUBLIC "-//W3C//DTD SVG 1.1//EN" "http://www.w3.org/Graphics/SVG/1.1/DTD/svg11.dtd">
<svg version="1.1" id="Layer_1" xmlns="http://www.w3.org/2000/svg" xmlns:xlink="http://www.w3.org/1999/xlink" x="0px" y="0px"
	 width="128px" height="128px" viewBox="0 0 128 128" enable-background="new 0 0 128 128" xml:space="preserve">
<g>
	<rect x="32" y="24" width="92" height="8"/>
	<rect x="32" y="60" width="92" height="8"/>
	<rect x="32" y="96" width="92" height="8"/>
	<path d="M12,20c-4.422,0-8,3.584-8,8s3.578,8,8,8s8-3.584,8-8S16.422,20,12,20z"/>
	<path d="M12,56c-4.422,0-8,3.584-8,8s3.578,8,8,8s8-3.584,8-8S16.422,56,12,56z"/>
	<path d="M12,92c-4.422,0-8,3.584-8,8s3.578,8,8,8s8-3.584,8-8S16.422,92,12,92z"/>
</g>
</svg>
