<?xml version="1.0" encoding="utf-8"?>
<!-- Generator: Adobe Illustrator 17.1.0, SVG Export Plug-In . SVG Version: 6.00 Build 0)  -->
<!DOCTYPE svg PUBLIC "-//W3C//DTD SVG 1.1//EN" "http://www.w3.org/Graphics/SVG/1.1/DTD/svg11.dtd">
<svg version="1.1" id="Layer_1" xmlns="http://www.w3.org/2000/svg" xmlns:xlink="http://www.w3.org/1999/xlink" x="0px" y="0px"
	 width="64px" height="64px" viewBox="0 0 64 64" enable-background="new 0 0 64 64" xml:space="preserve">
<path d="M54,26H34v-8.262c3.448-0.89,6-4.012,6-7.738c0-4.418-3.582-8-8-8s-8,3.582-8,8c0,3.726,2.552,6.848,6,7.738V26
	c-2.211,0-4,1.79-4,4h-8.262c-0.89-3.448-4.012-6-7.738-6c-4.418,0-8,3.582-8,8s3.582,8,8,8c3.726,0,6.848-2.552,7.738-6H26v20l8,8
	V34h28L54,26z M10,36c-2.207,0-4-1.791-4-4s1.793-4,4-4s4,1.791,4,4S12.207,36,10,36z M30,32c-1.105,0-2-0.896-2-2s0.895-2,2-2
	c1.104,0,2,0.896,2,2S31.104,32,30,32z M32,14c-2.207,0-4-1.791-4-4s1.793-4,4-4s4,1.791,4,4S34.207,14,32,14z"/>
</svg>
