<?xml version="1.0" encoding="utf-8"?>
<!-- Generator: Adobe Illustrator 17.1.0, SVG Export Plug-In . SVG Version: 6.00 Build 0)  -->
<!DOCTYPE svg PUBLIC "-//W3C//DTD SVG 1.1//EN" "http://www.w3.org/Graphics/SVG/1.1/DTD/svg11.dtd">
<svg version="1.1" id="Layer_1" xmlns="http://www.w3.org/2000/svg" xmlns:xlink="http://www.w3.org/1999/xlink" x="0px" y="0px"
	 width="32px" height="32px" viewBox="0 0 32 32" enable-background="new 0 0 32 32" xml:space="preserve">
<path d="M27,13H17V8.858C18.722,8.412,20,6.861,20,5c0-2.209-1.791-4-4-4s-4,1.791-4,4c0,1.861,1.278,3.412,3,3.858V13
	c-1.106,0-2,0.895-2,2H8.858C8.412,13.278,6.861,12,5,12c-2.209,0-4,1.791-4,4s1.791,4,4,4c1.861,0,3.412-1.278,3.858-3H13v10l4,4
	V17h14L27,13z M5,18c-1.103,0-2-0.896-2-2s0.897-2,2-2s2,0.896,2,2S6.103,18,5,18z M15,16c-0.553,0-1-0.448-1-1s0.447-1,1-1
	c0.552,0,1,0.448,1,1S15.552,16,15,16z M16,7c-1.104,0-2-0.896-2-2s0.896-2,2-2s2,0.895,2,2S17.104,7,16,7z"/>
</svg>
