<?xml version="1.0" encoding="utf-8"?>
<!-- Generator: Adobe Illustrator 17.1.0, SVG Export Plug-In . SVG Version: 6.00 Build 0)  -->
<!DOCTYPE svg PUBLIC "-//W3C//DTD SVG 1.1//EN" "http://www.w3.org/Graphics/SVG/1.1/DTD/svg11.dtd">
<svg version="1.1" id="Layer_1" xmlns="http://www.w3.org/2000/svg" xmlns:xlink="http://www.w3.org/1999/xlink" x="0px" y="0px"
	 width="32px" height="32px" viewBox="0 0 32 32" enable-background="new 0 0 32 32" xml:space="preserve">
<path d="M28.95,3.05C27.683,1.784,25.933,1,24,1s-3.683,0.784-4.95,2.05l-3,3C14.784,7.317,14,9.067,14,11
	c0,1.206,0.286,2.359,0.808,3.364l-0.443,0.443C13.359,14.286,12.206,14,11,14c-1.933,0-3.683,0.784-4.95,2.05l-3,3
	C1.784,20.317,1,22.067,1,24s0.784,3.683,2.05,4.95S6.067,31,8,31s3.683-0.784,4.95-2.05l3-3C17.216,24.683,18,22.933,18,21
	c0-1.206-0.286-2.359-0.808-3.364l0.443-0.443C18.641,17.714,19.794,18,21,18c1.933,0,3.683-0.784,4.95-2.05l3-3
	C30.216,11.683,31,9.933,31,8S30.216,4.317,28.95,3.05z M16,21c0,1.335-0.52,2.591-1.464,3.536l-3,3C10.591,28.48,9.335,29,8,29
	s-2.591-0.52-3.536-1.464C3.52,26.591,3,25.335,3,24s0.52-2.591,1.464-3.536l3-3C8.409,16.52,9.665,16,11,16
	c0.642,0,1.264,0.122,1.84,0.332l-4.254,4.254l2.828,2.828l4.254-4.254C15.878,19.736,16,20.358,16,21z M27.536,11.536l-3,3
	C23.591,15.48,22.335,16,21,16c-0.642,0-1.264-0.122-1.84-0.332l4.254-4.254l-2.828-2.828l-4.254,4.254
	C16.122,12.264,16,11.642,16,11c0-1.335,0.52-2.591,1.464-3.536l3-3C21.409,3.52,22.665,3,24,3s2.591,0.52,3.536,1.464
	C28.48,5.409,29,6.665,29,8S28.48,10.591,27.536,11.536z"/>
</svg>
