<?xml version="1.0" encoding="utf-8"?>
<!-- Generator: Adobe Illustrator 17.1.0, SVG Export Plug-In . SVG Version: 6.00 Build 0)  -->
<!DOCTYPE svg PUBLIC "-//W3C//DTD SVG 1.1//EN" "http://www.w3.org/Graphics/SVG/1.1/DTD/svg11.dtd">
<svg version="1.1" id="Layer_1" xmlns="http://www.w3.org/2000/svg" xmlns:xlink="http://www.w3.org/1999/xlink" x="0px" y="0px"
	 width="128px" height="128px" viewBox="0 0 128 128" enable-background="new 0 0 128 128" xml:space="preserve">
<path d="M115.799,12.201C110.732,7.135,103.732,4,96,4c-7.732,0-14.732,3.135-19.799,8.201l-12,12C59.135,29.268,56,36.268,56,44
	c0,4.822,1.142,9.438,3.229,13.458l-1.772,1.771C53.437,57.142,48.822,56,44,56c-7.732,0-14.732,3.135-19.799,8.201l-12,12
	C7.135,81.268,4,88.268,4,96s3.135,14.732,8.201,19.799S24.268,124,32,124c7.732,0,14.732-3.135,19.799-8.201l12-12
	C68.865,98.732,72,91.732,72,84c0-4.822-1.142-9.438-3.229-13.457l1.771-1.771C74.562,70.858,79.178,72,84,72
	c7.732,0,14.732-3.135,19.799-8.201l12-12C120.865,46.732,124,39.732,124,32S120.865,17.268,115.799,12.201z M64,84
	c0,5.342-2.081,10.364-5.858,14.142l-12,12C42.364,113.919,37.342,116,32,116c-5.342,0-10.364-2.081-14.142-5.858
	C14.081,106.364,12,101.342,12,96s2.081-10.364,5.858-14.142l12-12C33.636,66.081,38.658,64,44,64c2.571,0,5.071,0.464,7.38,1.306
	L34.343,82.343l11.313,11.313L62.694,76.62C63.536,78.929,64,81.429,64,84z M110.142,46.142l-12,12C94.364,61.919,89.342,64,84,64
	c-2.571,0-5.071-0.464-7.38-1.306l17.037-17.037L82.343,34.343L65.306,51.38C64.464,49.071,64,46.571,64,44
	c0-5.342,2.081-10.364,5.858-14.142l12-12C85.636,14.081,90.658,12,96,12c5.342,0,10.364,2.081,14.142,5.858
	C113.919,21.636,116,26.658,116,32S113.919,42.364,110.142,46.142z"/>
</svg>
