<?xml version="1.0" encoding="utf-8"?>
<!-- Generator: Adobe Illustrator 17.1.0, SVG Export Plug-In . SVG Version: 6.00 Build 0)  -->
<!DOCTYPE svg PUBLIC "-//W3C//DTD SVG 1.1//EN" "http://www.w3.org/Graphics/SVG/1.1/DTD/svg11.dtd">
<svg version="1.1" id="Layer_1" xmlns="http://www.w3.org/2000/svg" xmlns:xlink="http://www.w3.org/1999/xlink" x="0px" y="0px"
	 width="64px" height="64px" viewBox="0 0 64 64" enable-background="new 0 0 64 64" xml:space="preserve">
<path d="M57.899,6.101C55.366,3.567,51.866,2,48,2c-3.866,0-7.366,1.567-9.899,4.101l-6,6C29.567,14.634,28,18.134,28,22
	c0,2.411,0.571,4.718,1.615,6.728l-0.887,0.887C26.718,28.571,24.411,28,22,28c-3.866,0-7.366,1.567-9.899,4.101l-6,6
	C3.567,40.634,2,44.134,2,48s1.567,7.366,4.101,9.899S12.134,62,16,62s7.366-1.567,9.899-4.101l6-6C34.433,49.366,36,45.866,36,42
	c0-2.411-0.571-4.718-1.615-6.728l0.887-0.887C37.282,35.429,39.589,36,42,36c3.866,0,7.366-1.567,9.899-4.101l6-6
	C60.433,23.366,62,19.866,62,16S60.433,8.634,57.899,6.101z M32,42c0,2.671-1.04,5.182-2.929,7.071l-6,6
	C21.182,56.96,18.671,58,16,58s-5.182-1.04-7.071-2.929C7.04,53.182,6,50.671,6,48s1.04-5.182,2.929-7.071l6-6
	C16.818,33.04,19.329,32,22,32c1.286,0,2.536,0.232,3.69,0.653l-8.518,8.519l5.657,5.657l8.519-8.519C31.768,39.464,32,40.714,32,42
	z M55.071,23.071l-6,6C47.182,30.96,44.671,32,42,32c-1.286,0-2.536-0.232-3.69-0.653l8.519-8.519l-5.657-5.657l-8.519,8.518
	C32.232,24.536,32,23.286,32,22c0-2.671,1.04-5.182,2.929-7.071l6-6C42.818,7.04,45.329,6,48,6c2.671,0,5.182,1.04,7.071,2.929
	C56.96,10.818,58,13.329,58,16S56.96,21.182,55.071,23.071z"/>
</svg>
