<?xml version="1.0" encoding="utf-8"?>
<!-- Generator: Adobe Illustrator 17.1.0, SVG Export Plug-In . SVG Version: 6.00 Build 0)  -->
<!DOCTYPE svg PUBLIC "-//W3C//DTD SVG 1.1//EN" "http://www.w3.org/Graphics/SVG/1.1/DTD/svg11.dtd">
<svg version="1.1" id="Layer_1" xmlns="http://www.w3.org/2000/svg" xmlns:xlink="http://www.w3.org/1999/xlink" x="0px" y="0px"
	 width="32px" height="32px" viewBox="0 0 32 32" enable-background="new 0 0 32 32" xml:space="preserve">
<g>
	<path d="M3,3v26h7h12h3l4-4V3H3z M27,24.171L24.172,27H22v-2H10v2H5V5h22V24.171z"/>
	<path d="M16,22c3.313,0,6-2.687,6-6s-2.687-6-6-6s-6,2.686-6,6S12.686,22,16,22z M16,14c1.104,0,2,0.896,2,2s-0.896,2-2,2
		s-2-0.896-2-2S14.896,14,16,14z"/>
</g>
</svg>
