<?xml version="1.0" encoding="utf-8"?>
<!-- Generator: Adobe Illustrator 17.1.0, SVG Export Plug-In . SVG Version: 6.00 Build 0)  -->
<!DOCTYPE svg PUBLIC "-//W3C//DTD SVG 1.1//EN" "http://www.w3.org/Graphics/SVG/1.1/DTD/svg11.dtd">
<svg version="1.1" id="Layer_1" xmlns="http://www.w3.org/2000/svg" xmlns:xlink="http://www.w3.org/1999/xlink" x="0px" y="0px"
	 width="128px" height="128px" viewBox="0 0 128 128" enable-background="new 0 0 128 128" xml:space="preserve">
<g>
	<path d="M27.328,66.48V53.568c0-1.504-0.336-2.712-1.008-3.624c-0.673-0.912-1.536-1.624-2.593-2.136
		c-1.056-0.512-2.225-0.856-3.504-1.032c-1.28-0.175-2.544-0.264-3.792-0.264c-1.376,0-2.744,0.136-4.103,0.408
		c-1.36,0.273-2.585,0.729-3.672,1.368c-1.089,0.641-1.985,1.488-2.688,2.544c-0.704,1.056-1.103,2.384-1.2,3.984h6.816
		c0.127-1.344,0.576-2.304,1.344-2.88c0.769-0.576,1.824-0.864,3.168-0.864c0.607,0,1.176,0.041,1.704,0.12
		c0.528,0.08,0.991,0.24,1.392,0.48c0.4,0.24,0.721,0.576,0.961,1.008c0.239,0.432,0.359,1.016,0.359,1.752
		c0.031,0.704-0.176,1.24-0.624,1.608c-0.448,0.368-1.056,0.648-1.824,0.84c-0.768,0.192-1.648,0.336-2.64,0.432
		c-0.992,0.096-2,0.224-3.024,0.384c-1.024,0.161-2.039,0.376-3.048,0.648c-1.008,0.272-1.904,0.68-2.688,1.224
		c-0.785,0.544-1.425,1.272-1.92,2.184C4.247,62.665,4,63.825,4,65.232c0,1.28,0.216,2.384,0.647,3.312
		c0.433,0.929,1.032,1.697,1.801,2.304c0.768,0.608,1.663,1.056,2.687,1.344c1.024,0.288,2.128,0.432,3.312,0.432
		c1.535,0,3.039-0.224,4.512-0.672c1.472-0.448,2.752-1.231,3.84-2.352c0.031,0.416,0.088,0.824,0.168,1.224
		c0.08,0.4,0.184,0.792,0.312,1.176h6.911c-0.319-0.512-0.544-1.279-0.672-2.304C27.392,68.673,27.328,67.601,27.328,66.48z
		 M20.512,62.4c0,0.384-0.04,0.897-0.12,1.536c-0.08,0.641-0.296,1.272-0.648,1.896c-0.352,0.624-0.896,1.16-1.632,1.608
		c-0.737,0.449-1.776,0.672-3.12,0.672c-0.545,0-1.073-0.048-1.584-0.144c-0.513-0.096-0.96-0.264-1.345-0.504
		c-0.384-0.24-0.688-0.567-0.911-0.984c-0.225-0.416-0.337-0.928-0.337-1.536c0-0.64,0.112-1.167,0.337-1.584
		c0.223-0.416,0.52-0.76,0.888-1.032c0.367-0.272,0.8-0.488,1.296-0.648c0.496-0.16,1-0.288,1.512-0.384
		c0.544-0.096,1.088-0.175,1.632-0.24c0.544-0.064,1.064-0.144,1.561-0.24c0.495-0.096,0.96-0.216,1.392-0.36
		c0.433-0.144,0.792-0.344,1.08-0.6V62.4z"/>
	<path d="M39.088,68.832h0.096c0.735,1.376,1.824,2.352,3.264,2.928c1.44,0.576,3.072,0.864,4.896,0.864
		c1.248,0,2.479-0.256,3.696-0.768c1.216-0.511,2.312-1.296,3.287-2.352c0.977-1.056,1.769-2.407,2.377-4.056
		c0.607-1.648,0.911-3.608,0.911-5.88c0-2.271-0.304-4.232-0.911-5.88c-0.608-1.648-1.4-3-2.377-4.056
		c-0.975-1.056-2.071-1.839-3.287-2.352c-1.217-0.511-2.448-0.768-3.696-0.768c-1.536,0-3.017,0.296-4.44,0.888
		c-1.424,0.593-2.552,1.529-3.384,2.808h-0.096v-12.48h-6.816v34.272h6.48V68.832z M39.519,56.592
		c0.224-0.96,0.576-1.807,1.056-2.544c0.481-0.736,1.088-1.32,1.824-1.752c0.736-0.432,1.6-0.648,2.592-0.648
		c1.024,0,1.896,0.216,2.616,0.648c0.72,0.432,1.32,1.016,1.8,1.752c0.48,0.737,0.832,1.584,1.057,2.544
		c0.224,0.96,0.336,1.968,0.336,3.024c0,1.024-0.112,2.016-0.336,2.976c-0.225,0.96-0.576,1.809-1.057,2.544
		c-0.479,0.736-1.08,1.32-1.8,1.752c-0.72,0.432-1.592,0.648-2.616,0.648c-0.992,0-1.855-0.216-2.592-0.648
		c-0.736-0.432-1.344-1.016-1.824-1.752c-0.479-0.736-0.832-1.585-1.056-2.544c-0.225-0.96-0.336-1.951-0.336-2.976
		C39.184,58.561,39.295,57.552,39.519,56.592z"/>
	<path d="M64.623,69.072c1.087,1.121,2.407,1.992,3.96,2.616c1.552,0.624,3.256,0.936,5.111,0.936c3.296,0,6-0.864,8.112-2.592
		c2.112-1.728,3.392-4.24,3.84-7.536H79.07c-0.224,1.536-0.775,2.76-1.655,3.672c-0.881,0.912-2.137,1.368-3.769,1.368
		c-1.056,0-1.952-0.24-2.687-0.72c-0.736-0.48-1.32-1.096-1.752-1.848c-0.433-0.752-0.744-1.591-0.937-2.52
		c-0.191-0.928-0.288-1.84-0.288-2.736c0-0.928,0.097-1.864,0.288-2.808c0.192-0.943,0.52-1.807,0.984-2.592
		c0.464-0.784,1.063-1.423,1.8-1.92c0.735-0.496,1.647-0.744,2.736-0.744c2.911,0,4.591,1.424,5.04,4.272h6.672
		c-0.096-1.6-0.48-2.983-1.152-4.152c-0.672-1.168-1.544-2.144-2.616-2.928c-1.072-0.784-2.288-1.368-3.647-1.752
		c-1.36-0.384-2.776-0.576-4.248-0.576c-2.016,0-3.809,0.336-5.376,1.008c-1.568,0.672-2.896,1.608-3.984,2.808
		c-1.088,1.2-1.912,2.624-2.472,4.272c-0.561,1.648-0.84,3.432-0.84,5.352c0,1.856,0.304,3.56,0.912,5.112
		C62.686,66.617,63.534,67.953,64.623,69.072z"/>
	<polygon points="112,56 68,100 48,80 36,92 68,124 124,68 	"/>
</g>
</svg>
