<?xml version="1.0" encoding="utf-8"?>
<!-- Generator: Adobe Illustrator 17.1.0, SVG Export Plug-In . SVG Version: 6.00 Build 0)  -->
<!DOCTYPE svg PUBLIC "-//W3C//DTD SVG 1.1//EN" "http://www.w3.org/Graphics/SVG/1.1/DTD/svg11.dtd">
<svg version="1.1" id="Layer_1" xmlns="http://www.w3.org/2000/svg" xmlns:xlink="http://www.w3.org/1999/xlink" x="0px" y="0px"
	 width="64px" height="64px" viewBox="0 0 64 64" enable-background="new 0 0 64 64" xml:space="preserve">
<g>
	<path d="M13.664,33.24v-6.456c0-0.752-0.168-1.356-0.504-1.812c-0.336-0.456-0.768-0.812-1.296-1.068
		c-0.528-0.255-1.112-0.428-1.752-0.516c-0.64-0.088-1.271-0.132-1.896-0.132c-0.688,0-1.372,0.068-2.053,0.204
		c-0.68,0.136-1.292,0.364-1.836,0.684c-0.544,0.32-0.992,0.744-1.344,1.272c-0.353,0.528-0.552,1.192-0.6,1.992h3.407
		c0.064-0.672,0.288-1.152,0.673-1.44c0.384-0.288,0.911-0.432,1.584-0.432c0.304,0,0.588,0.02,0.852,0.06
		c0.264,0.04,0.496,0.12,0.696,0.24c0.199,0.12,0.359,0.288,0.479,0.504c0.12,0.216,0.181,0.508,0.181,0.876
		c0.016,0.353-0.089,0.621-0.312,0.804c-0.225,0.184-0.528,0.324-0.912,0.42c-0.384,0.096-0.824,0.168-1.319,0.216
		c-0.497,0.048-1.001,0.112-1.513,0.192c-0.512,0.08-1.02,0.188-1.523,0.324c-0.504,0.136-0.952,0.34-1.345,0.612
		c-0.392,0.272-0.712,0.636-0.96,1.092C2.124,31.332,2,31.912,2,32.616c0,0.64,0.108,1.192,0.324,1.656
		c0.216,0.464,0.517,0.848,0.9,1.152c0.384,0.304,0.832,0.528,1.344,0.672c0.512,0.144,1.063,0.216,1.656,0.216
		c0.768,0,1.52-0.112,2.256-0.336c0.735-0.224,1.376-0.616,1.92-1.176c0.016,0.208,0.044,0.412,0.084,0.612
		c0.04,0.2,0.092,0.396,0.156,0.588h3.456c-0.16-0.256-0.273-0.64-0.336-1.152C13.696,34.336,13.664,33.8,13.664,33.24z
		 M10.257,31.2c0,0.192-0.021,0.448-0.061,0.768c-0.04,0.32-0.148,0.636-0.324,0.948s-0.448,0.58-0.816,0.804
		c-0.368,0.224-0.889,0.336-1.56,0.336c-0.272,0-0.536-0.024-0.792-0.072c-0.256-0.048-0.48-0.132-0.672-0.252
		c-0.191-0.12-0.344-0.284-0.456-0.492s-0.168-0.464-0.168-0.768c0-0.32,0.056-0.584,0.168-0.792s0.26-0.38,0.444-0.516
		c0.184-0.136,0.399-0.244,0.648-0.324c0.248-0.08,0.5-0.144,0.757-0.192c0.272-0.048,0.543-0.088,0.815-0.12
		c0.273-0.032,0.532-0.072,0.78-0.12c0.248-0.048,0.48-0.108,0.696-0.18c0.216-0.072,0.396-0.172,0.54-0.3V31.2z"/>
	<path d="M19.544,34.416h0.048c0.368,0.688,0.912,1.176,1.632,1.464c0.72,0.288,1.536,0.432,2.448,0.432
		c0.624,0,1.239-0.128,1.848-0.384c0.608-0.256,1.156-0.648,1.645-1.176c0.487-0.528,0.884-1.204,1.188-2.028
		c0.304-0.824,0.456-1.804,0.456-2.94c0-1.136-0.152-2.116-0.456-2.94c-0.304-0.824-0.7-1.5-1.188-2.028
		c-0.488-0.528-1.036-0.92-1.645-1.176c-0.608-0.256-1.224-0.384-1.848-0.384c-0.768,0-1.509,0.148-2.22,0.444
		c-0.713,0.296-1.276,0.764-1.692,1.404h-0.048v-6.24h-3.408V36h3.24V34.416z M19.76,28.296c0.111-0.48,0.288-0.904,0.528-1.272
		c0.239-0.368,0.544-0.66,0.912-0.876c0.367-0.216,0.8-0.324,1.296-0.324c0.512,0,0.947,0.108,1.308,0.324
		c0.36,0.216,0.66,0.508,0.9,0.876c0.239,0.368,0.416,0.792,0.527,1.272c0.112,0.48,0.168,0.984,0.168,1.512
		c0,0.512-0.056,1.008-0.168,1.488c-0.111,0.48-0.288,0.904-0.527,1.272c-0.24,0.368-0.54,0.66-0.9,0.876
		c-0.36,0.216-0.796,0.324-1.308,0.324c-0.496,0-0.929-0.108-1.296-0.324c-0.368-0.216-0.673-0.508-0.912-0.876
		c-0.24-0.368-0.417-0.792-0.528-1.272c-0.112-0.48-0.168-0.976-0.168-1.488C19.592,29.28,19.647,28.776,19.76,28.296z"/>
	<path d="M32.311,34.536c0.544,0.56,1.204,0.996,1.981,1.308c0.775,0.312,1.628,0.468,2.556,0.468c1.648,0,3-0.432,4.057-1.296
		c1.056-0.864,1.695-2.12,1.92-3.768h-3.288c-0.112,0.768-0.389,1.38-0.828,1.836c-0.44,0.456-1.068,0.684-1.884,0.684
		c-0.528,0-0.977-0.12-1.345-0.36c-0.368-0.24-0.659-0.548-0.876-0.924c-0.216-0.375-0.372-0.795-0.468-1.26
		c-0.096-0.464-0.144-0.92-0.144-1.368c0-0.464,0.048-0.932,0.144-1.404c0.096-0.472,0.26-0.904,0.492-1.296
		c0.231-0.392,0.531-0.712,0.9-0.96c0.367-0.248,0.823-0.372,1.367-0.372c1.456,0,2.296,0.712,2.521,2.136h3.336
		c-0.048-0.8-0.24-1.492-0.576-2.076c-0.336-0.583-0.773-1.072-1.308-1.464c-0.536-0.392-1.145-0.684-1.824-0.876
		c-0.681-0.192-1.389-0.288-2.124-0.288c-1.008,0-1.904,0.168-2.688,0.504c-0.784,0.336-1.448,0.804-1.991,1.404
		c-0.545,0.6-0.957,1.312-1.236,2.136c-0.28,0.824-0.42,1.716-0.42,2.676c0,0.928,0.151,1.78,0.456,2.556
		C31.344,33.308,31.768,33.976,32.311,34.536z"/>
	<polygon points="56,28 34,50 24,40 18,46 34,62 62,34 	"/>
</g>
</svg>
