<?xml version="1.0" encoding="utf-8"?>
<!-- Generator: Adobe Illustrator 17.1.0, SVG Export Plug-In . SVG Version: 6.00 Build 0)  -->
<!DOCTYPE svg PUBLIC "-//W3C//DTD SVG 1.1//EN" "http://www.w3.org/Graphics/SVG/1.1/DTD/svg11.dtd">
<svg version="1.1" id="Layer_1" xmlns="http://www.w3.org/2000/svg" xmlns:xlink="http://www.w3.org/1999/xlink" x="0px" y="0px"
	 width="32px" height="32px" viewBox="0 0 32 32" enable-background="new 0 0 32 32" xml:space="preserve">
<g>
	<path d="M25,1L12.611,13.388C11.785,13.138,10.908,13,10,13c-4.971,0-9,4.029-9,9s4.029,9,9,9s9-4.029,9-9
		c0-0.909-0.138-1.785-0.389-2.612L21,17v-2h2l8-8V1H25z M29,6.171L22.172,13H21h-2v2v1.171l-1.803,1.802l-0.848,0.848l0.348,1.147
		C16.898,20.63,17,21.313,17,22c0,3.86-3.141,7-7,7s-7-3.14-7-7s3.141-7,7-7c0.686,0,1.37,0.102,2.031,0.302l1.146,0.348
		l0.848-0.848L25.828,3H29V6.171z"/>
	<circle cx="8" cy="24" r="2"/>
	<rect x="19.757" y="7.5" transform="matrix(-0.7071 0.7071 -0.7071 -0.7071 46.6274 -3.3137)" width="8.485" height="1"/>
</g>
</svg>
