<?xml version="1.0" encoding="utf-8"?>
<!-- Generator: Adobe Illustrator 17.1.0, SVG Export Plug-In . SVG Version: 6.00 Build 0)  -->
<!DOCTYPE svg PUBLIC "-//W3C//DTD SVG 1.1//EN" "http://www.w3.org/Graphics/SVG/1.1/DTD/svg11.dtd">
<svg version="1.1" id="Layer_1" xmlns="http://www.w3.org/2000/svg" xmlns:xlink="http://www.w3.org/1999/xlink" x="0px" y="0px"
	 width="128px" height="128px" viewBox="0 0 128 128" enable-background="new 0 0 128 128" xml:space="preserve">
<g>
	<path d="M64,84c22.094,0,40-17.906,40-40c0-22.094-17.906-40-40-40C41.906,4,24,21.906,24,44C24,66.094,41.906,84,64,84z M64,8
		c19.851,0,36,16.149,36,36S83.851,80,64,80S28,63.851,28,44S44.149,8,64,8z"/>
	<path d="M96,92H32c-8.836,0-16,7.164-16,16v16h96v-16C112,99.164,104.836,92,96,92z"/>
	<polygon points="84.828,34.829 79.172,29.171 58,50.343 48.828,41.171 43.172,46.829 58,61.657 	"/>
</g>
</svg>
