<?xml version="1.0" encoding="utf-8"?>
<!-- Generator: Adobe Illustrator 17.1.0, SVG Export Plug-In . SVG Version: 6.00 Build 0)  -->
<!DOCTYPE svg PUBLIC "-//W3C//DTD SVG 1.1//EN" "http://www.w3.org/Graphics/SVG/1.1/DTD/svg11.dtd">
<svg version="1.1" id="Layer_1" xmlns="http://www.w3.org/2000/svg" xmlns:xlink="http://www.w3.org/1999/xlink" x="0px" y="0px"
	 width="128px" height="128px" viewBox="0 0 128 128" enable-background="new 0 0 128 128" xml:space="preserve">
<g>
	<path d="M56.64,62.858c-0.427,0-0.713-0.12-0.86-0.36c-0.147-0.24-0.22-0.64-0.22-1.2v-10.64c0-1.093-0.24-2.02-0.72-2.78
		c-0.48-0.76-1.114-1.38-1.9-1.86c-0.787-0.48-1.674-0.826-2.66-1.04c-0.987-0.213-1.987-0.32-3-0.32
		c-1.147,0-2.267,0.107-3.36,0.32c-1.094,0.214-2.074,0.587-2.94,1.12c-0.867,0.534-1.58,1.24-2.14,2.12
		c-0.56,0.88-0.88,1.987-0.96,3.32h4.56c0.106-1.12,0.573-1.946,1.4-2.48c0.826-0.533,1.88-0.8,3.16-0.8
		c0.453,0,0.933,0.034,1.44,0.1c0.506,0.067,0.966,0.2,1.38,0.4c0.413,0.2,0.76,0.487,1.04,0.86c0.28,0.374,0.42,0.854,0.42,1.44
		c0,0.667-0.167,1.167-0.5,1.5c-0.333,0.333-0.787,0.58-1.36,0.74c-0.574,0.16-1.234,0.274-1.98,0.34
		c-0.747,0.066-1.534,0.18-2.36,0.34c-0.961,0.107-1.914,0.26-2.86,0.46c-0.947,0.2-1.8,0.527-2.56,0.98
		c-0.76,0.454-1.374,1.08-1.84,1.88c-0.467,0.8-0.7,1.84-0.7,3.12c0,1.014,0.193,1.9,0.58,2.66c0.386,0.76,0.906,1.387,1.56,1.88
		c0.653,0.494,1.406,0.867,2.26,1.12c0.853,0.253,1.746,0.38,2.68,0.38c1.227,0,2.5-0.2,3.82-0.6c1.32-0.4,2.433-1.04,3.34-1.92
		c0.186,0.934,0.586,1.587,1.2,1.96c0.613,0.373,1.386,0.56,2.32,0.56c0.186,0,0.413-0.014,0.68-0.04
		c0.266-0.027,0.533-0.067,0.8-0.12c0.266-0.054,0.526-0.114,0.78-0.18c0.254-0.067,0.46-0.127,0.62-0.18v-3.16
		c-0.24,0.054-0.454,0.08-0.64,0.08S56.773,62.858,56.64,62.858z M51,58.938c0,0.72-0.174,1.327-0.52,1.82
		c-0.347,0.494-0.78,0.9-1.3,1.22c-0.52,0.32-1.074,0.547-1.66,0.68c-0.587,0.134-1.134,0.2-1.64,0.2c-0.4,0-0.847-0.04-1.34-0.12
		c-0.494-0.08-0.947-0.22-1.36-0.42c-0.414-0.2-0.767-0.473-1.06-0.82c-0.293-0.346-0.44-0.773-0.44-1.28c0-0.586,0.1-1.086,0.3-1.5
		c0.2-0.413,0.473-0.746,0.82-1c0.346-0.253,0.746-0.453,1.2-0.6c0.453-0.146,0.92-0.26,1.4-0.34c1.013-0.186,2.026-0.326,3.04-0.42
		c1.013-0.093,1.866-0.366,2.56-0.82V58.938z"/>
	<path d="M78.68,47.878c-0.8-1-1.807-1.786-3.02-2.36c-1.214-0.573-2.634-0.86-4.26-0.86c-1.334,0-2.574,0.26-3.72,0.78
		c-1.147,0.52-2.04,1.38-2.68,2.58h-0.08v-2.8H60.6v28.32h4.56v-10.32h0.08c0.346,0.56,0.78,1.047,1.3,1.46
		c0.52,0.414,1.086,0.754,1.7,1.02c0.613,0.267,1.253,0.46,1.92,0.58c0.666,0.12,1.333,0.18,2,0.18c1.52,0,2.84-0.3,3.96-0.9
		c1.12-0.6,2.046-1.4,2.78-2.4c0.733-1,1.28-2.153,1.64-3.46c0.36-1.306,0.54-2.653,0.54-4.04c0-1.52-0.2-2.946-0.6-4.28
		C80.08,50.045,79.48,48.878,78.68,47.878z M76.22,58.238c-0.2,0.867-0.534,1.64-1,2.32c-0.467,0.68-1.06,1.233-1.78,1.66
		c-0.72,0.427-1.6,0.64-2.64,0.64c-0.934,0-1.754-0.186-2.46-0.56c-0.707-0.373-1.313-0.88-1.82-1.52
		c-0.507-0.64-0.887-1.406-1.14-2.3c-0.253-0.893-0.38-1.86-0.38-2.9c0-2.213,0.486-3.986,1.46-5.32c0.973-1.333,2.42-2,4.34-2
		c0.933,0,1.76,0.207,2.48,0.62c0.72,0.414,1.32,0.96,1.8,1.64c0.48,0.68,0.84,1.46,1.08,2.34c0.24,0.88,0.36,1.787,0.36,2.72
		C76.52,56.485,76.42,57.372,76.22,58.238z"/>
	<rect x="85.04" y="37.338" width="4.56" height="4.32"/>
	<rect x="85.04" y="45.218" width="4.56" height="20.68"/>
	<path d="M12,12v88v16h104v-16V12H12z M16,16h96v80H16V16z"/>
</g>
</svg>
