<?xml version="1.0" encoding="utf-8"?>
<!-- Generator: Adobe Illustrator 17.1.0, SVG Export Plug-In . SVG Version: 6.00 Build 0)  -->
<!DOCTYPE svg PUBLIC "-//W3C//DTD SVG 1.1//EN" "http://www.w3.org/Graphics/SVG/1.1/DTD/svg11.dtd">
<svg version="1.1" id="Layer_1" xmlns="http://www.w3.org/2000/svg" xmlns:xlink="http://www.w3.org/1999/xlink" x="0px" y="0px"
	 width="64px" height="64px" viewBox="0 0 64 64" enable-background="new 0 0 64 64" xml:space="preserve">
<path d="M49.678,31.678l-1.414-1.414c-2.143,2.143-4.652,3.81-7.472,4.968l-4.945-14.217C38.321,19.654,40,17.023,40,14
	c0-3.726-2.552-6.848-6-7.738V2h-4v4.262c-3.448,0.89-6,4.012-6,7.738c0,3.023,1.679,5.654,4.154,7.014L15.056,58.671l1.889,0.657
	l7.494-21.544c2.453,0.777,5.005,1.184,7.562,1.184c2.557,0,5.109-0.407,7.562-1.184l7.494,21.544l1.889-0.657l-7.496-21.55
	C44.556,35.862,47.32,34.036,49.678,31.678z M32,12c1.104,0,2,0.896,2,2s-0.896,2-2,2c-1.105,0-2-0.896-2-2S30.895,12,32,12z
	 M25.095,35.895l4.923-14.153C30.653,21.904,31.314,22,32,22c0.685,0,1.347-0.096,1.982-0.258l4.923,14.153
	C34.424,37.303,29.576,37.303,25.095,35.895z"/>
</svg>
