<?xml version="1.0" encoding="utf-8"?>
<!-- Generator: Adobe Illustrator 17.1.0, SVG Export Plug-In . SVG Version: 6.00 Build 0)  -->
<!DOCTYPE svg PUBLIC "-//W3C//DTD SVG 1.1//EN" "http://www.w3.org/Graphics/SVG/1.1/DTD/svg11.dtd">
<svg version="1.1" id="Layer_1" xmlns="http://www.w3.org/2000/svg" xmlns:xlink="http://www.w3.org/1999/xlink" x="0px" y="0px"
	 width="128px" height="128px" viewBox="0 0 128 128" enable-background="new 0 0 128 128" xml:space="preserve">
<path d="M100.77,64.77l-5.658-5.656c-4.07,4.072-8.834,7.243-14.188,9.455l-9.231-26.54C76.643,39.308,80,34.047,80,28
	c0-7.452-5.103-13.696-12-15.476V4h-8v8.524C53.103,14.304,48,20.548,48,28c0,6.047,3.357,11.308,8.307,14.028l-26.196,75.314
	l3.778,1.314L48.21,77.484c5.119,1.627,10.452,2.452,15.79,2.452c5.337,0,10.673-0.825,15.79-2.452l14.321,41.173l3.778-1.314
	L83.555,76.131C90.056,73.511,95.84,69.701,100.77,64.77z M64,24c2.209,0,4,1.791,4,4s-1.791,4-4,4s-4-1.791-4-4S61.791,24,64,24z
	 M50.838,69.928l9.198-26.443C61.306,43.809,62.629,44,64,44c1.371,0,2.694-0.191,3.964-0.515l9.198,26.443
	C68.622,72.598,59.378,72.598,50.838,69.928z"/>
</svg>
