<?xml version="1.0" encoding="utf-8"?>
<!-- Generator: Adobe Illustrator 17.1.0, SVG Export Plug-In . SVG Version: 6.00 Build 0)  -->
<!DOCTYPE svg PUBLIC "-//W3C//DTD SVG 1.1//EN" "http://www.w3.org/Graphics/SVG/1.1/DTD/svg11.dtd">
<svg version="1.1" id="Layer_1" xmlns="http://www.w3.org/2000/svg" xmlns:xlink="http://www.w3.org/1999/xlink" x="0px" y="0px"
	 width="64px" height="64px" viewBox="0 0 64 64" enable-background="new 0 0 64 64" xml:space="preserve">
<g>
	<path d="M10,2v60h44V2H10z M52,60H12V4h40V60z"/>
	<path d="M32,54c7.732,0,14-6.268,14-14c0-7.73-6.268-14-14-14s-14,6.27-14,14C18,47.732,24.268,54,32,54z M32,36
		c2.209,0,4,1.791,4,4s-1.791,4-4,4s-4-1.791-4-4S29.791,36,32,36z"/>
	<circle cx="32" cy="16" r="4"/>
</g>
</svg>
