<?xml version="1.0" encoding="utf-8"?>
<!-- Generator: Adobe Illustrator 17.1.0, SVG Export Plug-In . SVG Version: 6.00 Build 0)  -->
<!DOCTYPE svg PUBLIC "-//W3C//DTD SVG 1.1//EN" "http://www.w3.org/Graphics/SVG/1.1/DTD/svg11.dtd">
<svg version="1.1" id="Layer_1" xmlns="http://www.w3.org/2000/svg" xmlns:xlink="http://www.w3.org/1999/xlink" x="0px" y="0px"
	 width="32px" height="32px" viewBox="0 0 32 32" enable-background="new 0 0 32 32" xml:space="preserve">
<g>
	<path d="M5,1v30h22V1H5z M25,29H7V3h18V29z"/>
	<path d="M16,27c3.866,0,7-3.134,7-7c0-3.865-3.134-7-7-7s-7,3.135-7,7C9,23.866,12.134,27,16,27z M16,18c1.104,0,2,0.896,2,2
		s-0.896,2-2,2s-2-0.896-2-2S14.896,18,16,18z"/>
	<circle cx="16" cy="8" r="2"/>
</g>
</svg>
