<?xml version="1.0" encoding="utf-8"?>
<!-- Generator: Adobe Illustrator 17.1.0, SVG Export Plug-In . SVG Version: 6.00 Build 0)  -->
<!DOCTYPE svg PUBLIC "-//W3C//DTD SVG 1.1//EN" "http://www.w3.org/Graphics/SVG/1.1/DTD/svg11.dtd">
<svg version="1.1" id="Layer_1" xmlns="http://www.w3.org/2000/svg" xmlns:xlink="http://www.w3.org/1999/xlink" x="0px" y="0px"
	 width="128px" height="128px" viewBox="0 0 128 128" enable-background="new 0 0 128 128" xml:space="preserve">
<g>
	<path d="M12,12v88v16h104v-16V12H12z M16,16h96v80H16V16z"/>
	<path d="M52,36v8v23.076C49.875,65.17,47.076,64,44,64c-6.621,0-12,5.375-12,12s5.379,12,12,12s12-5.375,12-12V43.272l36-6.545
		v22.349C89.875,57.17,87.076,56,84,56c-6.621,0-12,5.375-12,12s5.379,12,12,12s12-5.375,12-12V36v-8v-4l-44,8V36z M44,84
		c-4.411,0-8-3.589-8-8s3.589-8,8-8s8,3.589,8,8S48.411,84,44,84z M84,76c-4.411,0-8-3.589-8-8s3.589-8,8-8s8,3.589,8,8
		S88.411,76,84,76z"/>
</g>
</svg>
