<?xml version="1.0" encoding="utf-8"?>
<!-- Generator: Adobe Illustrator 17.1.0, SVG Export Plug-In . SVG Version: 6.00 Build 0)  -->
<!DOCTYPE svg PUBLIC "-//W3C//DTD SVG 1.1//EN" "http://www.w3.org/Graphics/SVG/1.1/DTD/svg11.dtd">
<svg version="1.1" id="Layer_1" xmlns="http://www.w3.org/2000/svg" xmlns:xlink="http://www.w3.org/1999/xlink" x="0px" y="0px"
	 width="128px" height="128px" viewBox="0 0 128 128" enable-background="new 0 0 128 128" xml:space="preserve">
<g>
	<path d="M20,4v120h88V4H20z M104,120H24V8h80V120z"/>
	<path d="M64,108c15.465,0,28-12.535,28-28c0-15.461-12.535-28-28-28S36,64.539,36,80C36,95.465,48.535,108,64,108z M64,72
		c4.418,0,8,3.582,8,8s-3.582,8-8,8s-8-3.582-8-8S59.582,72,64,72z"/>
	<circle cx="64" cy="32" r="8"/>
</g>
</svg>
