<?xml version="1.0" encoding="utf-8"?>
<!-- Generator: Adobe Illustrator 17.1.0, SVG Export Plug-In . SVG Version: 6.00 Build 0)  -->
<!DOCTYPE svg PUBLIC "-//W3C//DTD SVG 1.1//EN" "http://www.w3.org/Graphics/SVG/1.1/DTD/svg11.dtd">
<svg version="1.1" id="Layer_1" xmlns="http://www.w3.org/2000/svg" xmlns:xlink="http://www.w3.org/1999/xlink" x="0px" y="0px"
	 width="32px" height="32px" viewBox="0 0 32 32" enable-background="new 0 0 32 32" xml:space="preserve">
<g>
	<polygon points="2,26 2,5 1,5 1,26 1,27 2,27 31,27 31,26 	"/>
	<rect x="4" y="16" width="7" height="8"/>
	<path d="M20,8h-7v16h7V8z M18,22h-3V10h3V22z"/>
	<rect x="22" y="13" width="7" height="1"/>
	<rect x="22" y="15" width="7" height="1"/>
	<rect x="22" y="17" width="7" height="1"/>
	<rect x="22" y="19" width="7" height="1"/>
	<rect x="22" y="21" width="7" height="1"/>
	<rect x="22" y="23" width="7" height="1"/>
</g>
</svg>
