<?xml version="1.0" encoding="utf-8"?>
<!-- Generator: Adobe Illustrator 17.1.0, SVG Export Plug-In . SVG Version: 6.00 Build 0)  -->
<!DOCTYPE svg PUBLIC "-//W3C//DTD SVG 1.1//EN" "http://www.w3.org/Graphics/SVG/1.1/DTD/svg11.dtd">
<svg version="1.1" id="Layer_1" xmlns="http://www.w3.org/2000/svg" xmlns:xlink="http://www.w3.org/1999/xlink" x="0px" y="0px"
	 width="128px" height="128px" viewBox="0 0 128 128" enable-background="new 0 0 128 128" xml:space="preserve">
<g>
	<polygon points="8,104 8,20 4,20 4,104 4,108 8,108 124,108 124,104 	"/>
	<rect x="16" y="64" width="28" height="32"/>
	<path d="M80,32H52v64h28V32z M76,92H56V36h20V92z"/>
	<rect x="88" y="52" width="28" height="4"/>
	<rect x="88" y="60" width="28" height="4"/>
	<rect x="88" y="68" width="28" height="4"/>
	<rect x="88" y="76" width="28" height="4"/>
	<rect x="88" y="84" width="28" height="4"/>
	<rect x="88" y="92" width="28" height="4"/>
</g>
</svg>
