<?xml version="1.0" encoding="utf-8"?>
<!-- Generator: Adobe Illustrator 17.1.0, SVG Export Plug-In . SVG Version: 6.00 Build 0)  -->
<!DOCTYPE svg PUBLIC "-//W3C//DTD SVG 1.1//EN" "http://www.w3.org/Graphics/SVG/1.1/DTD/svg11.dtd">
<svg version="1.1" id="Layer_1" xmlns="http://www.w3.org/2000/svg" xmlns:xlink="http://www.w3.org/1999/xlink" x="0px" y="0px"
	 width="128px" height="128px" viewBox="0 0 128 128" enable-background="new 0 0 128 128" xml:space="preserve">
<g>
	<path d="M67.57,71.529c-1.379,1.213-2.891,2.344-4.539,3.393c-1.648,1.059-3.227,2.143-4.746,3.262
		c-3.16,2.156-5.652,4.688-7.48,7.598C48.977,88.693,48.039,92.104,48,96h31.934v-6.861H57.152c0.312-1.029,0.887-2,1.742-2.92
		c0.836-0.922,1.832-1.803,2.961-2.658c1.145-0.852,2.375-1.701,3.711-2.553c1.34-0.851,2.676-1.746,4.016-2.685
		c1.332-0.94,2.629-1.955,3.875-3.033c1.238-1.078,2.355-2.252,3.332-3.523c0.984-1.281,1.766-2.674,2.344-4.201
		C79.711,66.043,80,64.334,80,62.455c0-1.521-0.246-3.127-0.73-4.807c-0.492-1.682-1.332-3.232-2.512-4.678
		c-1.176-1.43-2.726-2.621-4.641-3.561c-1.91-0.939-4.301-1.41-7.148-1.41c-2.625,0-4.938,0.463-6.914,1.379
		c-1.984,0.918-3.66,2.184-5.047,3.795c-1.379,1.617-2.414,3.529-3.102,5.75c-0.691,2.217-1.039,4.633-1.039,7.225h7.613
		c0.051-1.652,0.215-3.199,0.5-4.641c0.297-1.43,0.738-2.674,1.34-3.727c0.598-1.055,1.402-1.885,2.406-2.488
		c1-0.598,2.254-0.912,3.773-0.912c1.648,0,2.98,0.283,4.008,0.844c1.024,0.562,1.828,1.26,2.406,2.086
		c0.578,0.832,0.969,1.723,1.172,2.691c0.195,0.965,0.297,1.873,0.297,2.719c-0.043,1.834-0.508,3.465-1.406,4.875
		C70.09,69.006,68.957,70.318,67.57,71.529z"/>
	<path d="M4,16v16v80h120V32V16H4z M120,108H8V36h112V108z"/>
</g>
</svg>
