<?xml version="1.0" encoding="utf-8"?>
<!-- Generator: Adobe Illustrator 17.1.0, SVG Export Plug-In . SVG Version: 6.00 Build 0)  -->
<!DOCTYPE svg PUBLIC "-//W3C//DTD SVG 1.1//EN" "http://www.w3.org/Graphics/SVG/1.1/DTD/svg11.dtd">
<svg version="1.1" id="Layer_1" xmlns="http://www.w3.org/2000/svg" xmlns:xlink="http://www.w3.org/1999/xlink" x="0px" y="0px"
	 width="64px" height="64px" viewBox="0 0 64 64" enable-background="new 0 0 64 64" xml:space="preserve">
<g>
	<path d="M33.785,35.765c-0.689,0.607-1.445,1.172-2.27,1.696c-0.824,0.529-1.613,1.071-2.373,1.631
		c-1.58,1.078-2.826,2.344-3.74,3.799C24.488,44.347,24.02,46.052,24,48h15.967v-3.431H28.576c0.156-0.515,0.443-1,0.871-1.46
		c0.418-0.461,0.916-0.901,1.48-1.329c0.572-0.426,1.188-0.851,1.855-1.276c0.67-0.426,1.338-0.873,2.008-1.343
		c0.666-0.47,1.314-0.977,1.938-1.517c0.619-0.539,1.178-1.126,1.666-1.762c0.492-0.641,0.883-1.337,1.172-2.101
		C39.855,33.021,40,32.167,40,31.228c0-0.761-0.123-1.563-0.365-2.403c-0.246-0.841-0.666-1.616-1.256-2.339
		c-0.588-0.715-1.363-1.311-2.32-1.78C35.104,24.235,33.908,24,32.484,24c-1.313,0-2.469,0.231-3.457,0.69
		c-0.992,0.459-1.83,1.092-2.523,1.897c-0.689,0.809-1.207,1.765-1.551,2.875c-0.346,1.108-0.52,2.316-0.52,3.612h3.807
		c0.025-0.826,0.108-1.6,0.25-2.32c0.149-0.715,0.369-1.337,0.67-1.863c0.299-0.527,0.701-0.942,1.203-1.244
		c0.5-0.299,1.127-0.456,1.887-0.456c0.824,0,1.49,0.142,2.004,0.422c0.512,0.281,0.914,0.63,1.203,1.043
		c0.289,0.416,0.484,0.861,0.586,1.346c0.098,0.482,0.148,0.937,0.148,1.359c-0.021,0.917-0.254,1.732-0.703,2.438
		C35.045,34.503,34.479,35.159,33.785,35.765z"/>
	<path d="M2,8v8v40h60V16V8H2z M60,54H4V18h56V54z"/>
</g>
</svg>
