<?xml version="1.0" encoding="utf-8"?>
<!-- Generator: Adobe Illustrator 17.1.0, SVG Export Plug-In . SVG Version: 6.00 Build 0)  -->
<!DOCTYPE svg PUBLIC "-//W3C//DTD SVG 1.1//EN" "http://www.w3.org/Graphics/SVG/1.1/DTD/svg11.dtd">
<svg version="1.1" id="Layer_1" xmlns="http://www.w3.org/2000/svg" xmlns:xlink="http://www.w3.org/1999/xlink" x="0px" y="0px"
	 width="32px" height="32px" viewBox="0 0 32 32" enable-background="new 0 0 32 32" xml:space="preserve">
<g>
	<path d="M16.893,17.882c-0.345,0.303-0.723,0.586-1.135,0.848c-0.412,0.265-0.807,0.536-1.187,0.815
		c-0.79,0.539-1.413,1.172-1.87,1.899C12.244,22.173,12.01,23.026,12,24h7.983v-1.715h-5.695c0.078-0.257,0.222-0.5,0.436-0.73
		c0.209-0.231,0.458-0.451,0.74-0.665c0.286-0.213,0.594-0.425,0.928-0.638c0.335-0.213,0.669-0.437,1.004-0.671
		c0.333-0.235,0.657-0.489,0.969-0.758c0.309-0.27,0.589-0.563,0.833-0.881c0.246-0.32,0.441-0.669,0.586-1.05
		C19.928,16.511,20,16.083,20,15.614c0-0.38-0.062-0.782-0.183-1.202c-0.123-0.42-0.333-0.808-0.628-1.169
		c-0.294-0.357-0.682-0.655-1.16-0.89C17.552,12.118,16.954,12,16.242,12c-0.656,0-1.234,0.116-1.729,0.345
		c-0.496,0.229-0.915,0.546-1.262,0.949c-0.345,0.404-0.604,0.882-0.775,1.438c-0.173,0.554-0.26,1.158-0.26,1.806h1.903
		c0.013-0.413,0.054-0.8,0.125-1.16c0.074-0.358,0.185-0.668,0.335-0.932c0.149-0.264,0.351-0.471,0.601-0.622
		c0.25-0.149,0.564-0.228,0.943-0.228c0.412,0,0.745,0.071,1.002,0.211c0.256,0.141,0.457,0.315,0.601,0.521
		c0.144,0.208,0.242,0.431,0.293,0.673c0.049,0.241,0.074,0.468,0.074,0.68c-0.011,0.459-0.127,0.866-0.352,1.219
		C17.522,17.251,17.239,17.58,16.893,17.882z"/>
	<path d="M1,4v4v20h30V8V4H1z M29,26H3V10h26V26z"/>
</g>
</svg>
