<?xml version="1.0" encoding="utf-8"?>
<!-- Generator: Adobe Illustrator 17.1.0, SVG Export Plug-In . SVG Version: 6.00 Build 0)  -->
<!DOCTYPE svg PUBLIC "-//W3C//DTD SVG 1.1//EN" "http://www.w3.org/Graphics/SVG/1.1/DTD/svg11.dtd">
<svg version="1.1" id="Layer_1" xmlns="http://www.w3.org/2000/svg" xmlns:xlink="http://www.w3.org/1999/xlink" x="0px" y="0px"
	 width="64px" height="64px" viewBox="0 0 64 64" enable-background="new 0 0 64 64" xml:space="preserve">
<g>
	<path d="M48.969,9.03C44.627,4.687,38.627,2,32,2S19.373,4.687,15.031,9.03C10.688,13.373,8,19.373,8,26s2.688,12.627,7.031,16.97
		C19.373,47.313,25.373,50,32,50v12l16.969-18.032C53.312,39.37,56,33.017,56,26C56,19.373,53.312,13.373,48.969,9.03z
		 M47.512,42.597L34,56.956V50v-2h-2c-5.877,0-11.4-2.289-15.555-6.445C12.289,37.4,10,31.875,10,26s2.289-11.4,6.445-15.556
		C20.6,6.289,26.123,4,32,4s11.4,2.289,15.555,6.445C51.711,14.6,54,20.125,54,26C54,32.274,51.697,38.168,47.512,42.597z"/>
	<circle cx="32" cy="26" r="3"/>
	<circle cx="42" cy="26" r="3"/>
	<circle cx="22" cy="26" r="3"/>
</g>
</svg>
