<?xml version="1.0" encoding="utf-8"?>
<!-- Generator: Adobe Illustrator 17.1.0, SVG Export Plug-In . SVG Version: 6.00 Build 0)  -->
<!DOCTYPE svg PUBLIC "-//W3C//DTD SVG 1.1//EN" "http://www.w3.org/Graphics/SVG/1.1/DTD/svg11.dtd">
<svg version="1.1" id="Layer_1" xmlns="http://www.w3.org/2000/svg" xmlns:xlink="http://www.w3.org/1999/xlink" x="0px" y="0px"
	 width="32px" height="32px" viewBox="0 0 32 32" enable-background="new 0 0 32 32" xml:space="preserve">
<g>
	<path d="M24.484,4.515C22.313,2.343,19.313,1,16,1S9.686,2.343,7.516,4.515C5.344,6.687,4,9.686,4,13s1.344,6.313,3.516,8.485
		C9.686,23.657,12.686,25,16,25v6l8.484-9.016C26.656,19.685,28,16.508,28,13C28,9.686,26.656,6.687,24.484,4.515z M23.027,20.613
		L18,25.956V25v-2h-2c-2.671,0-5.182-1.04-7.07-2.93C7.041,18.182,6,15.671,6,13s1.041-5.182,2.93-7.071S13.329,3,16,3
		s5.182,1.04,7.07,2.93C24.959,7.818,26,10.329,26,13C26,15.881,24.945,18.583,23.027,20.613z"/>
	<circle cx="16" cy="13" r="1.5"/>
	<circle cx="21" cy="13" r="1.5"/>
	<circle cx="11" cy="13" r="1.5"/>
</g>
</svg>
