<?xml version="1.0" encoding="utf-8"?>
<!-- Generator: Adobe Illustrator 17.1.0, SVG Export Plug-In . SVG Version: 6.00 Build 0)  -->
<!DOCTYPE svg PUBLIC "-//W3C//DTD SVG 1.1//EN" "http://www.w3.org/Graphics/SVG/1.1/DTD/svg11.dtd">
<svg version="1.1" id="Layer_1" xmlns="http://www.w3.org/2000/svg" xmlns:xlink="http://www.w3.org/1999/xlink" x="0px" y="0px"
	 width="64px" height="64px" viewBox="0 0 64 64" enable-background="new 0 0 64 64" xml:space="preserve">
<path d="M52.904,25.211C52.01,16.663,44.784,10,36,10c-8.428,0-15.405,6.141-16.748,14.188C18.516,24.076,17.768,24,17,24
	C8.716,24,2,30.716,2,39s6.716,15,15,15h30c8.284,0,15-6.716,15-15C62,32.812,58.252,27.504,52.904,25.211z M47,50H17
	c-6.065,0-11-4.935-11-11s4.935-11,11-11c0.487,0,1.013,0.045,1.654,0.143l3.895,0.588l0.649-3.885C24.246,18.56,29.63,14,36,14
	c6.675,0,12.232,4.998,12.926,11.627l0.245,2.334l2.158,0.926C55.381,30.625,58,34.594,58,39C58,45.065,53.065,50,47,50z"/>
</svg>
