<?xml version="1.0" encoding="utf-8"?>
<!-- Generator: Adobe Illustrator 17.1.0, SVG Export Plug-In . SVG Version: 6.00 Build 0)  -->
<!DOCTYPE svg PUBLIC "-//W3C//DTD SVG 1.1//EN" "http://www.w3.org/Graphics/SVG/1.1/DTD/svg11.dtd">
<svg version="1.1" id="Layer_1" xmlns="http://www.w3.org/2000/svg" xmlns:xlink="http://www.w3.org/1999/xlink" x="0px" y="0px"
	 width="32px" height="32px" viewBox="0 0 32 32" enable-background="new 0 0 32 32" xml:space="preserve">
<path d="M26.446,12.604C26.003,8.287,22.416,5,18,5c-4.162,0-7.691,3.083-8.374,7.086C9.253,12.029,8.877,12,8.5,12
	C4.364,12,1,15.364,1,19.5S4.364,27,8.5,27h15c4.136,0,7.5-3.364,7.5-7.5C31,16.464,29.196,13.773,26.446,12.604z M23.5,25h-15
	C5.467,25,3,22.533,3,19.5S5.467,14,8.5,14c0.575,0,1.146,0.092,1.699,0.271l1.277,0.416l0.032-1.344C11.592,9.846,14.504,7,18,7
	c3.552,0,6.403,2.784,6.491,6.338l0.017,0.711l0.676,0.217C27.466,14.999,29,17.103,29,19.5C29,22.533,26.533,25,23.5,25z"/>
</svg>
