<?xml version="1.0" encoding="utf-8"?>
<!-- Generator: Adobe Illustrator 17.1.0, SVG Export Plug-In . SVG Version: 6.00 Build 0)  -->
<!DOCTYPE svg PUBLIC "-//W3C//DTD SVG 1.1//EN" "http://www.w3.org/Graphics/SVG/1.1/DTD/svg11.dtd">
<svg version="1.1" id="Layer_1" xmlns="http://www.w3.org/2000/svg" xmlns:xlink="http://www.w3.org/1999/xlink" x="0px" y="0px"
	 width="64px" height="64px" viewBox="0 0 64 64" enable-background="new 0 0 64 64" xml:space="preserve">
<path d="M8,27.429V26H6v-2H2v16h4v-2h2v-1.429l4,1.143V44c0,2.209,1.791,4,4,4h8c2.209,0,4-1.791,4-4v-1.714L62,52V12L8,27.429z
	 M26,44c0,1.103-0.897,2-2,2h-8c-1.102,0-2-0.897-2-2v-5.714l12,3.429V44z M60,49.349L8,34.491v-4.982l52-14.857V49.349z"/>
</svg>
