<?xml version="1.0" encoding="utf-8"?>
<!-- Generator: Adobe Illustrator 17.1.0, SVG Export Plug-In . SVG Version: 6.00 Build 0)  -->
<!DOCTYPE svg PUBLIC "-//W3C//DTD SVG 1.1//EN" "http://www.w3.org/Graphics/SVG/1.1/DTD/svg11.dtd">
<svg version="1.1" id="Layer_1" xmlns="http://www.w3.org/2000/svg" xmlns:xlink="http://www.w3.org/1999/xlink" x="0px" y="0px"
	 width="64px" height="64px" viewBox="0 0 64 64" enable-background="new 0 0 64 64" xml:space="preserve">
<g>
	<path d="M27.928,42.848c-0.309-0.405-0.699-0.73-1.168-0.976c-0.47-0.245-1.03-0.368-1.68-0.368c-0.512,0-0.981,0.102-1.408,0.304
		c-0.427,0.203-0.779,0.528-1.056,0.977h-0.032v-1.057h-2.16v11.169h2.273v-3.921h0.032c0.277,0.406,0.632,0.713,1.064,0.921
		c0.432,0.207,0.904,0.312,1.416,0.312c0.608,0,1.139-0.117,1.592-0.352c0.453-0.235,0.832-0.55,1.136-0.944
		c0.304-0.395,0.531-0.848,0.68-1.36c0.149-0.512,0.224-1.045,0.224-1.6c0-0.587-0.075-1.149-0.224-1.688
		C28.467,43.726,28.237,43.254,27.928,42.848z M26.472,46.864c-0.064,0.319-0.174,0.6-0.328,0.84
		c-0.155,0.24-0.357,0.435-0.608,0.584c-0.251,0.149-0.563,0.224-0.936,0.224c-0.363,0-0.672-0.074-0.928-0.224
		c-0.256-0.149-0.462-0.344-0.616-0.584c-0.155-0.24-0.267-0.521-0.336-0.84c-0.07-0.32-0.104-0.646-0.104-0.977
		c0-0.341,0.032-0.672,0.096-0.991c0.064-0.32,0.173-0.603,0.328-0.849c0.154-0.245,0.357-0.445,0.608-0.6
		c0.25-0.154,0.562-0.232,0.936-0.232c0.363,0,0.669,0.078,0.92,0.232c0.251,0.154,0.456,0.357,0.616,0.607
		c0.16,0.251,0.274,0.536,0.344,0.856c0.069,0.32,0.104,0.645,0.104,0.976C26.568,46.219,26.536,46.544,26.472,46.864z"/>
	<path d="M31.912,41.864c-0.459,0.239-0.84,0.558-1.144,0.952c-0.304,0.395-0.534,0.851-0.688,1.367
		c-0.155,0.518-0.232,1.054-0.232,1.608c0,0.576,0.077,1.131,0.232,1.664c0.154,0.533,0.384,1.006,0.688,1.416
		c0.304,0.411,0.69,0.736,1.16,0.976c0.469,0.24,1.014,0.36,1.632,0.36c0.544,0,1.032-0.099,1.464-0.296
		c0.432-0.197,0.781-0.521,1.048-0.968h0.032V50h2.16V38.576h-2.272v4.16H35.96c-0.256-0.405-0.606-0.712-1.048-0.92
		c-0.443-0.208-0.91-0.312-1.4-0.312C32.904,41.504,32.371,41.624,31.912,41.864z M35.048,43.44c0.245,0.149,0.445,0.344,0.6,0.584
		c0.154,0.239,0.264,0.517,0.328,0.832c0.064,0.314,0.096,0.643,0.096,0.983c0,0.342-0.032,0.672-0.096,0.992
		c-0.064,0.32-0.171,0.605-0.32,0.856c-0.15,0.25-0.349,0.45-0.6,0.6c-0.251,0.149-0.563,0.224-0.936,0.224
		c-0.352,0-0.654-0.077-0.904-0.231c-0.251-0.154-0.459-0.357-0.624-0.608c-0.166-0.25-0.285-0.536-0.36-0.856
		c-0.075-0.32-0.112-0.641-0.112-0.96c0-0.342,0.034-0.67,0.104-0.984c0.069-0.315,0.181-0.595,0.336-0.84
		c0.154-0.245,0.36-0.442,0.616-0.592c0.256-0.149,0.571-0.225,0.944-0.225C34.493,43.216,34.802,43.291,35.048,43.44z"/>
	<path d="M40.472,50h2.272v-6.752h1.568v-1.521h-1.568v-0.495c0-0.342,0.067-0.584,0.2-0.729c0.133-0.143,0.354-0.216,0.664-0.216
		c0.288,0,0.565,0.016,0.832,0.048V38.64c-0.192-0.01-0.39-0.023-0.592-0.04c-0.203-0.016-0.405-0.023-0.608-0.023
		c-0.928,0-1.622,0.234-2.08,0.704c-0.458,0.469-0.688,1.071-0.688,1.808v0.64h-1.36v1.521h1.36V50z"/>
	<path d="M36,2h-2H12v60h40V20v-2L36,2z M50,60H14V4h20v16h16V60z"/>
</g>
</svg>
