<?xml version="1.0" encoding="utf-8"?>
<!-- Generator: Adobe Illustrator 17.1.0, SVG Export Plug-In . SVG Version: 6.00 Build 0)  -->
<!DOCTYPE svg PUBLIC "-//W3C//DTD SVG 1.1//EN" "http://www.w3.org/Graphics/SVG/1.1/DTD/svg11.dtd">
<svg version="1.1" id="Layer_1" xmlns="http://www.w3.org/2000/svg" xmlns:xlink="http://www.w3.org/1999/xlink" x="0px" y="0px"
	 width="32px" height="32px" viewBox="0 0 32 32" enable-background="new 0 0 32 32" xml:space="preserve">
<g>
	<path d="M13.964,21.424c-0.155-0.203-0.35-0.365-0.584-0.488c-0.235-0.122-0.515-0.183-0.84-0.183
		c-0.256,0-0.491,0.051-0.704,0.152c-0.213,0.102-0.39,0.264-0.528,0.488h-0.016v-0.529h-1.08v5.585h1.136v-1.96h0.016
		c0.139,0.203,0.316,0.355,0.532,0.46c0.216,0.104,0.452,0.155,0.708,0.155c0.304,0,0.569-0.059,0.796-0.176
		c0.227-0.117,0.416-0.274,0.568-0.472c0.152-0.197,0.265-0.424,0.34-0.681c0.075-0.256,0.112-0.521,0.112-0.799
		c0-0.294-0.038-0.575-0.112-0.845C14.233,21.863,14.119,21.627,13.964,21.424z M13.236,23.432c-0.032,0.16-0.087,0.301-0.164,0.42
		c-0.077,0.121-0.179,0.218-0.304,0.293c-0.125,0.074-0.281,0.111-0.468,0.111c-0.181,0-0.336-0.037-0.464-0.111
		c-0.128-0.075-0.231-0.172-0.308-0.293c-0.078-0.119-0.133-0.26-0.168-0.42c-0.035-0.16-0.052-0.322-0.052-0.488
		c0-0.17,0.016-0.336,0.048-0.495c0.032-0.16,0.087-0.302,0.164-0.425c0.077-0.122,0.178-0.223,0.304-0.299
		c0.125-0.078,0.281-0.117,0.468-0.117c0.181,0,0.335,0.039,0.46,0.117c0.125,0.076,0.228,0.178,0.308,0.303
		c0.08,0.126,0.138,0.269,0.172,0.429c0.035,0.16,0.052,0.323,0.052,0.487C13.284,23.109,13.268,23.271,13.236,23.432z"/>
	<path d="M15.956,20.932c-0.23,0.12-0.42,0.279-0.572,0.477c-0.152,0.197-0.267,0.426-0.344,0.684
		c-0.078,0.259-0.116,0.527-0.116,0.805c0,0.287,0.039,0.564,0.116,0.832c0.077,0.266,0.192,0.502,0.344,0.707
		c0.152,0.206,0.345,0.369,0.58,0.488c0.235,0.12,0.507,0.18,0.816,0.18c0.272,0,0.516-0.049,0.732-0.147
		c0.216-0.099,0.391-0.261,0.524-0.483h0.016V25h1.08v-5.712h-1.136v2.08H17.98c-0.128-0.202-0.303-0.357-0.524-0.46
		c-0.222-0.103-0.455-0.156-0.7-0.156C16.452,20.752,16.185,20.812,15.956,20.932z M17.524,21.721
		c0.123,0.074,0.223,0.172,0.3,0.291c0.078,0.12,0.132,0.259,0.164,0.416c0.032,0.158,0.048,0.322,0.048,0.492
		c0,0.171-0.016,0.336-0.048,0.496c-0.032,0.16-0.085,0.303-0.16,0.428c-0.075,0.125-0.175,0.226-0.3,0.301
		c-0.125,0.074-0.281,0.111-0.468,0.111c-0.176,0-0.327-0.039-0.452-0.115c-0.125-0.078-0.229-0.18-0.312-0.305
		c-0.082-0.125-0.143-0.267-0.18-0.428c-0.038-0.16-0.056-0.32-0.056-0.48c0-0.17,0.017-0.334,0.052-0.492
		c0.035-0.156,0.091-0.297,0.168-0.42c0.078-0.122,0.18-0.221,0.308-0.295c0.128-0.075,0.285-0.113,0.472-0.113
		C17.247,21.607,17.401,21.646,17.524,21.721z"/>
	<path d="M20.236,25h1.136v-3.376h0.784v-0.761h-0.784v-0.247c0-0.171,0.033-0.292,0.1-0.364c0.066-0.072,0.177-0.108,0.332-0.108
		c0.144,0,0.283,0.008,0.416,0.023V19.32c-0.096-0.006-0.195-0.012-0.296-0.02c-0.101-0.008-0.203-0.012-0.304-0.012
		c-0.464,0-0.81,0.117-1.04,0.353c-0.229,0.234-0.344,0.535-0.344,0.903v0.319h-0.68v0.761h0.68V25z"/>
	<path d="M18,1h-1H6v30h20V10V9L18,1z M24,29H8V3h9v7h7V29z"/>
</g>
</svg>
