<?xml version="1.0" encoding="utf-8"?>
<!-- Generator: Adobe Illustrator 17.1.0, SVG Export Plug-In . SVG Version: 6.00 Build 0)  -->
<!DOCTYPE svg PUBLIC "-//W3C//DTD SVG 1.1//EN" "http://www.w3.org/Graphics/SVG/1.1/DTD/svg11.dtd">
<svg version="1.1" id="Layer_1" xmlns="http://www.w3.org/2000/svg" xmlns:xlink="http://www.w3.org/1999/xlink" x="0px" y="0px"
	 width="128px" height="128px" viewBox="0 0 128 128" enable-background="new 0 0 128 128" xml:space="preserve">
<g>
	<g>
		<g>
			<path d="M96,76c-10.371,0-18.895,7.893-19.898,18H51.898c-0.398-4.022-1.99-7.692-4.414-10.655l35.859-35.861
				C86.793,50.305,91.197,52,96,52c11.047,0,20-8.953,20-20s-8.953-20-20-20c-10.371,0-18.895,7.893-19.898,18H51.898
				C50.895,19.893,42.371,12,32,12c-11.047,0-20,8.953-20,20s8.953,20,20,20c10.371,0,18.895-7.893,19.898-18h24.203
				c0.398,4.022,1.99,7.692,4.414,10.655L44.656,80.517C41.207,77.695,36.803,76,32,76c-11.047,0-20,8.953-20,20s8.953,20,20,20
				c10.371,0,18.895-7.893,19.898-18h24.203c1.004,10.107,9.527,18,19.898,18c11.047,0,20-8.953,20-20S107.047,76,96,76z M32,48
				c-8.836,0-16-7.164-16-16s7.164-16,16-16s16,7.164,16,16S40.836,48,32,48z M80,32c0-8.836,7.164-16,16-16s16,7.164,16,16
				s-7.164,16-16,16S80,40.836,80,32z M32,112c-8.836,0-16-7.164-16-16s7.164-16,16-16s16,7.164,16,16S40.836,112,32,112z"/>
		</g>
	</g>
</g>
</svg>
