<?xml version="1.0" encoding="utf-8"?>
<!-- Generator: Adobe Illustrator 17.1.0, SVG Export Plug-In . SVG Version: 6.00 Build 0)  -->
<!DOCTYPE svg PUBLIC "-//W3C//DTD SVG 1.1//EN" "http://www.w3.org/Graphics/SVG/1.1/DTD/svg11.dtd">
<svg version="1.1" id="Layer_1" xmlns="http://www.w3.org/2000/svg" xmlns:xlink="http://www.w3.org/1999/xlink" x="0px" y="0px"
	 width="64px" height="64px" viewBox="0 0 64 64" enable-background="new 0 0 64 64" xml:space="preserve">
<g>
	<g>
		<g>
			<path d="M48,38c-5.186,0-9.447,3.946-9.949,9H25.949c-0.199-2.011-0.995-3.846-2.207-5.328l17.93-17.931
				C43.396,25.152,45.599,26,48,26c5.523,0,10-4.477,10-10S53.523,6,48,6c-5.186,0-9.447,3.946-9.949,9H25.949
				C25.447,9.946,21.185,6,16,6C10.477,6,6,10.477,6,16s4.477,10,10,10c5.185,0,9.447-3.946,9.949-9h12.102
				c0.199,2.011,0.995,3.846,2.207,5.328l-17.93,17.931C20.604,38.848,18.401,38,16,38c-5.523,0-10,4.477-10,10s4.477,10,10,10
				c5.185,0,9.447-3.946,9.949-9h12.102c0.502,5.054,4.764,9,9.949,9c5.523,0,10-4.477,10-10S53.523,38,48,38z M16,24
				c-4.418,0-8-3.582-8-8s3.582-8,8-8s8,3.582,8,8S20.418,24,16,24z M40,16c0-4.418,3.582-8,8-8s8,3.582,8,8s-3.582,8-8,8
				S40,20.418,40,16z M16,56c-4.418,0-8-3.582-8-8s3.582-8,8-8s8,3.582,8,8S20.418,56,16,56z"/>
		</g>
	</g>
</g>
</svg>
