<?xml version="1.0" encoding="utf-8"?>
<!-- Generator: Adobe Illustrator 17.1.0, SVG Export Plug-In . SVG Version: 6.00 Build 0)  -->
<!DOCTYPE svg PUBLIC "-//W3C//DTD SVG 1.1//EN" "http://www.w3.org/Graphics/SVG/1.1/DTD/svg11.dtd">
<svg version="1.1" id="Layer_1" xmlns="http://www.w3.org/2000/svg" xmlns:xlink="http://www.w3.org/1999/xlink" x="0px" y="0px"
	 width="128px" height="128px" viewBox="0 0 128 128" enable-background="new 0 0 128 128" xml:space="preserve">
<g>
	<g>
		<path d="M109.938,18.06C101.254,9.373,89.254,4,76,4S50.746,9.373,42.062,18.06C33.375,26.746,28,38.746,28,52
			c0,4.163,0.531,8.202,1.528,12.054C29.022,64.021,28.514,64,28,64c-6.625,0-12.625,2.688-16.969,7.031C6.688,75.373,4,81.373,4,88
			c0,7.016,2.688,13.371,7.031,17.969L28,124v-12c6.625,0,12.625-2.688,16.969-7.031c3.166-3.165,5.446-7.213,6.453-11.741
			C58.611,97.525,67.016,100,76,100v24l33.938-36.064C118.625,78.74,124,66.033,124,52C124,38.746,118.625,26.746,109.938,18.06z
			 M107.024,85.194L80,113.913V100v-4h-4c-8.663,0-16.939-2.495-24.021-7.131C51.988,88.58,52,88.291,52,88
			c0-6.627-2.688-12.627-7.031-16.969c-3.018-3.018-6.836-5.233-11.107-6.307C32.637,60.65,32,56.374,32,52
			c0-11.751,4.578-22.8,12.892-31.112C53.199,12.577,64.247,8,76,8s22.801,4.577,31.109,12.889C115.422,29.2,120,40.249,120,52
			C120,64.549,115.394,76.336,107.024,85.194z"/>
	</g>
	<g>
		<circle cx="76" cy="52" r="6"/>
	</g>
	<g>
		<circle cx="96" cy="52" r="6"/>
	</g>
	<g>
		<circle cx="56" cy="52" r="6"/>
	</g>
</g>
</svg>
