<?xml version="1.0" encoding="utf-8"?>
<!-- Generator: Adobe Illustrator 17.1.0, SVG Export Plug-In . SVG Version: 6.00 Build 0)  -->
<!DOCTYPE svg PUBLIC "-//W3C//DTD SVG 1.1//EN" "http://www.w3.org/Graphics/SVG/1.1/DTD/svg11.dtd">
<svg version="1.1" id="Layer_1" xmlns="http://www.w3.org/2000/svg" xmlns:xlink="http://www.w3.org/1999/xlink" x="0px" y="0px"
	 width="128px" height="128px" viewBox="0 0 128 128" enable-background="new 0 0 128 128" xml:space="preserve">
<path d="M124,60h-4.339C117.754,48.65,107.88,40,96,40c-5.424,0-10.43,1.805-14.451,4.844l-0.213-0.18
	C76.545,40.367,70.389,38,64,38s-12.545,2.367-17.293,6.627l-0.257,0.217C42.429,41.805,37.424,40,32,40
	c-11.88,0-21.754,8.65-23.661,20H4v8h4.339C10.246,79.35,20.12,88,32,88c13.242,0,24-10.746,24-24c0-6.372-2.491-12.16-6.545-16.457
	C53.493,43.971,58.65,42,64,42c5.332,0,10.471,1.959,14.543,5.545C74.49,51.842,72,57.629,72,64c0,13.254,10.758,24,24,24
	c11.88,0,21.754-8.65,23.661-20H124V60z M32,80c-8.822,0-16-7.178-16-16s7.178-16,16-16s16,7.178,16,16S40.822,80,32,80z M96,80
	c-8.822,0-16-7.178-16-16s7.178-16,16-16s16,7.178,16,16S104.822,80,96,80z"/>
</svg>
