<?xml version="1.0" encoding="utf-8"?>
<!-- Generator: Adobe Illustrator 17.1.0, SVG Export Plug-In . SVG Version: 6.00 Build 0)  -->
<!DOCTYPE svg PUBLIC "-//W3C//DTD SVG 1.1//EN" "http://www.w3.org/Graphics/SVG/1.1/DTD/svg11.dtd">
<svg version="1.1" id="Layer_1" xmlns="http://www.w3.org/2000/svg" xmlns:xlink="http://www.w3.org/1999/xlink" x="0px" y="0px"
	 width="64px" height="64px" viewBox="0 0 64 64" enable-background="new 0 0 64 64" xml:space="preserve">
<path d="M44,8c-5.102,0-9.553,2.738-12,6.815C29.553,10.738,25.102,8,20,8C12.268,8,6,14.268,6,22c0,3.866,1.522,7.412,4,10
	c5.63,5.879,22,24,22,24s16.37-18.121,22-24c2.479-2.588,4-6.134,4-10C58,14.268,51.732,8,44,8z M52.556,30.617
	C47.97,35.405,36.169,48.414,32,53.019c-4.169-4.605-15.97-17.614-20.556-22.402C9.223,28.297,8,25.237,8,22c0-6.617,5.383-12,12-12
	c4.244,0,8.088,2.185,10.285,5.845L32,18.702l1.715-2.857C35.912,12.185,39.756,10,44,10c6.617,0,12,5.383,12,12
	C56,25.237,54.777,28.297,52.556,30.617z"/>
</svg>
