<?xml version="1.0" encoding="utf-8"?>
<!-- Generator: Adobe Illustrator 17.1.0, SVG Export Plug-In . SVG Version: 6.00 Build 0)  -->
<!DOCTYPE svg PUBLIC "-//W3C//DTD SVG 1.1//EN" "http://www.w3.org/Graphics/SVG/1.1/DTD/svg11.dtd">
<svg version="1.1" id="Layer_1" xmlns="http://www.w3.org/2000/svg" xmlns:xlink="http://www.w3.org/1999/xlink" x="0px" y="0px"
	 width="32px" height="32px" viewBox="0 0 32 32" enable-background="new 0 0 32 32" xml:space="preserve">
<path d="M22,4c-2.551,0-4.776,1.369-6,3.408C14.776,5.369,12.551,4,10,4c-3.866,0-7,3.134-7,7c0,1.933,0.761,3.706,2,5
	c2.815,2.94,11,12,11,12s8.185-9.06,11-12c1.239-1.294,2-3.067,2-5C29,7.134,25.866,4,22,4z M25.556,14.617
	C23.457,16.808,18.499,22.262,16,25.02c-2.499-2.757-7.457-8.211-9.556-10.403C5.513,13.644,5,12.36,5,11c0-2.757,2.243-5,5-5
	c1.768,0,3.369,0.911,4.285,2.437L16,11.294l1.715-2.857C18.631,6.911,20.232,6,22,6c2.757,0,5,2.243,5,5
	C27,12.36,26.487,13.644,25.556,14.617z"/>
</svg>
