<?xml version="1.0" encoding="utf-8"?>
<!-- Generator: Adobe Illustrator 17.1.0, SVG Export Plug-In . SVG Version: 6.00 Build 0)  -->
<!DOCTYPE svg PUBLIC "-//W3C//DTD SVG 1.1//EN" "http://www.w3.org/Graphics/SVG/1.1/DTD/svg11.dtd">
<svg version="1.1" id="Layer_1" xmlns="http://www.w3.org/2000/svg" xmlns:xlink="http://www.w3.org/1999/xlink" x="0px" y="0px"
	 width="64px" height="64px" viewBox="0 0 64 64" enable-background="new 0 0 64 64" xml:space="preserve">
<g>
	<path d="M48.969,9.03C44.627,4.687,38.627,2,32,2S19.373,4.687,15.031,9.03C10.687,13.373,8,19.373,8,26
		c0,7.017,2.687,13.37,7.031,17.968L32,62l16.969-18.032C53.312,39.37,56,33.017,56,26C56,19.373,53.312,13.373,48.969,9.03z
		 M47.512,42.597L32,59.082L16.485,42.594C12.303,38.168,10,32.274,10,26c0-5.875,2.289-11.4,6.446-15.556C20.6,6.289,26.123,4,32,4
		c5.876,0,11.4,2.289,15.555,6.445C51.711,14.6,54,20.125,54,26C54,32.274,51.697,38.168,47.512,42.597z"/>
	<circle cx="32" cy="26" r="8"/>
</g>
</svg>
