<?xml version="1.0" encoding="utf-8"?>
<!-- Generator: Adobe Illustrator 17.1.0, SVG Export Plug-In . SVG Version: 6.00 Build 0)  -->
<!DOCTYPE svg PUBLIC "-//W3C//DTD SVG 1.1//EN" "http://www.w3.org/Graphics/SVG/1.1/DTD/svg11.dtd">
<svg version="1.1" id="Layer_1" xmlns="http://www.w3.org/2000/svg" xmlns:xlink="http://www.w3.org/1999/xlink" x="0px" y="0px"
	 width="32px" height="32px" viewBox="0 0 32 32" enable-background="new 0 0 32 32" xml:space="preserve">
<g>
	<path d="M24.484,4.515C22.313,2.343,19.313,1,16,1c-3.314,0-6.314,1.343-8.484,3.515C5.344,6.687,4,9.686,4,13
		c0,3.508,1.344,6.685,3.516,8.984L16,31l8.484-9.016C26.656,19.685,28,16.508,28,13C28,9.686,26.656,6.687,24.484,4.515z
		 M23.028,20.613L16,28.081L8.969,20.61C7.055,18.583,6,15.881,6,13c0-2.671,1.04-5.182,2.93-7.071C10.818,4.04,13.329,3,16,3
		c2.671,0,5.182,1.04,7.07,2.93C24.959,7.818,26,10.329,26,13C26,15.881,24.945,18.583,23.028,20.613z"/>
	<circle cx="16" cy="13" r="4"/>
</g>
</svg>
