<?xml version="1.0" encoding="utf-8"?>
<!-- Generator: Adobe Illustrator 17.1.0, SVG Export Plug-In . SVG Version: 6.00 Build 0)  -->
<!DOCTYPE svg PUBLIC "-//W3C//DTD SVG 1.1//EN" "http://www.w3.org/Graphics/SVG/1.1/DTD/svg11.dtd">
<svg version="1.1" id="Layer_1" xmlns="http://www.w3.org/2000/svg" xmlns:xlink="http://www.w3.org/1999/xlink" x="0px" y="0px"
	 width="32px" height="32px" viewBox="0 0 32 32" enable-background="new 0 0 32 32" xml:space="preserve">
<g>
	<polygon points="14.5,21.586 12.207,19.293 10.793,20.707 14.5,24.414 21.207,17.707 19.793,16.293 	"/>
	<path d="M24,12.466V9c0-4.418-3.581-8-8-8S8,4.582,8,9v3.467C6.145,14.436,5,17.082,5,20c0,6.074,4.926,11,11,11
		c6.076,0,11-4.926,11-11C27,17.081,25.855,14.436,24,12.466z M10,9c0-3.309,2.691-6,6-6s6,2.691,6,6v1.788
		C20.273,9.661,18.215,9,16,9c-2.215,0-4.273,0.661-6,1.788V9z M16,29c-4.971,0-9-4.029-9-9s4.029-9,9-9s9,4.029,9,9
		S20.971,29,16,29z"/>
</g>
</svg>
