<?xml version="1.0" encoding="utf-8"?>
<!-- Generator: Adobe Illustrator 17.1.0, SVG Export Plug-In . SVG Version: 6.00 Build 0)  -->
<!DOCTYPE svg PUBLIC "-//W3C//DTD SVG 1.1//EN" "http://www.w3.org/Graphics/SVG/1.1/DTD/svg11.dtd">
<svg version="1.1" id="Layer_1" xmlns="http://www.w3.org/2000/svg" xmlns:xlink="http://www.w3.org/1999/xlink" x="0px" y="0px"
	 width="128px" height="128px" viewBox="0 0 128 128" enable-background="new 0 0 128 128" xml:space="preserve">
<g>
	<polygon points="58,86.343 48.828,77.172 43.172,82.828 58,97.657 84.828,70.828 79.172,65.172 	"/>
	<path d="M96,49.819V36C96,18.326,81.674,4,64,4S32,18.326,32,36v13.822C24.566,57.702,20,68.316,20,80c0,24.295,19.705,44,44,44
		c24.303,0,44-19.705,44-44C108,68.314,103.435,57.699,96,49.819z M40,36c0-13.233,10.767-24,24-24c13.233,0,24,10.767,24,24v7.13
		C81.097,38.627,72.857,36,64,36c-8.856,0-17.096,2.628-24,7.133V36z M64,120c-22.09,0-40-17.91-40-40s17.91-40,40-40
		s40,17.91,40,40S86.09,120,64,120z"/>
</g>
</svg>
