<?xml version="1.0" encoding="utf-8"?>
<!-- Generator: Adobe Illustrator 17.1.0, SVG Export Plug-In . SVG Version: 6.00 Build 0)  -->
<!DOCTYPE svg PUBLIC "-//W3C//DTD SVG 1.1//EN" "http://www.w3.org/Graphics/SVG/1.1/DTD/svg11.dtd">
<svg version="1.1" id="Layer_1" xmlns="http://www.w3.org/2000/svg" xmlns:xlink="http://www.w3.org/1999/xlink" x="0px" y="0px"
	 width="128px" height="128px" viewBox="0 0 128 128" enable-background="new 0 0 128 128" xml:space="preserve">
<g>
	<path d="M64,92c15.461,0,28-12.537,28-28v-8v-4v-8v-4v-8C92,16.537,79.461,4,64,4S36,16.537,36,32v8v4v8v4v8
		C36,79.463,48.539,92,64,92z M52,56H40v-4h12c2.211,0,4-1.791,4-4s-1.789-4-4-4H40v-4h12c2.211,0,4-1.791,4-4s-1.789-4-4-4H40
		C40,18.766,50.767,8,64,8s24,10.766,24,24H76c-2.211,0-4,1.791-4,4s1.789,4,4,4h12v4H76c-2.211,0-4,1.791-4,4s1.789,4,4,4h12v4H76
		c-2.211,0-4,1.791-4,4s1.789,4,4,4h12c0,13.233-10.767,24-24,24S40,77.233,40,64h12c2.211,0,4-1.791,4-4S54.211,56,52,56z"/>
	<path d="M102,64h-4c0,18.748-15.252,34-34,34S30,82.748,30,64h-4c0,20.282,15.973,36.903,36,37.947V120H48v4h14h4h14v-4H66v-18.053
		C86.027,100.903,102,84.282,102,64z"/>
</g>
</svg>
