<?xml version="1.0" encoding="utf-8"?>
<!-- Generator: Adobe Illustrator 17.1.0, SVG Export Plug-In . SVG Version: 6.00 Build 0)  -->
<!DOCTYPE svg PUBLIC "-//W3C//DTD SVG 1.1//EN" "http://www.w3.org/Graphics/SVG/1.1/DTD/svg11.dtd">
<svg version="1.1" id="Layer_1" xmlns="http://www.w3.org/2000/svg" xmlns:xlink="http://www.w3.org/1999/xlink" x="0px" y="0px"
	 width="32px" height="32px" viewBox="0 0 32 32" enable-background="new 0 0 32 32" xml:space="preserve">
<g>
	<path d="M16,23c3.865,0,7-3.135,7-7v-2v-1v-2v-1V8c0-3.865-3.135-7-7-7S9,4.135,9,8v2v1v2v1v2C9,19.865,12.135,23,16,23z M13,14h-2
		v-1h2c0.553,0,1-0.447,1-1s-0.447-1-1-1h-2v-1h2c0.553,0,1-0.447,1-1s-0.447-1-1-1h-2c0-2.757,2.243-5,5-5s5,2.243,5,5h-2
		c-0.553,0-1,0.447-1,1s0.447,1,1,1h2v1h-2c-0.553,0-1,0.447-1,1s0.447,1,1,1h2v1h-2c-0.553,0-1,0.447-1,1s0.447,1,1,1h2
		c0,2.757-2.243,5-5,5s-5-2.243-5-5h2c0.553,0,1-0.447,1-1S13.553,14,13,14z"/>
	<path d="M26,16h-2c0,4.411-3.589,8-8,8s-8-3.589-8-8H6c0,5.177,3.954,9.445,9,9.949V29h-3v2h3h2h3v-2h-3v-3.051
		C22.046,25.445,26,21.177,26,16z"/>
</g>
</svg>
