<?xml version="1.0" encoding="utf-8"?>
<!-- Generator: Adobe Illustrator 17.1.0, SVG Export Plug-In . SVG Version: 6.00 Build 0)  -->
<!DOCTYPE svg PUBLIC "-//W3C//DTD SVG 1.1//EN" "http://www.w3.org/Graphics/SVG/1.1/DTD/svg11.dtd">
<svg version="1.1" id="Layer_1" xmlns="http://www.w3.org/2000/svg" xmlns:xlink="http://www.w3.org/1999/xlink" x="0px" y="0px"
	 width="32px" height="32px" viewBox="0 0 32 32" enable-background="new 0 0 32 32" xml:space="preserve">
<g>
	<path d="M3,3v22v4h26v-4V3H3z M5,5h22v18H5V5z"/>
	<path d="M13,9v2v5.779C12.469,16.3,11.771,16,11,16c-1.655,0-3,1.344-3,3c0,1.656,1.345,3,3,3s3-1.344,3-3v-8.182l9-1.637v5.598
		C22.469,14.3,21.771,14,21,14c-1.655,0-3,1.344-3,3c0,1.656,1.345,3,3,3s3-1.344,3-3V9V7V6L13,8V9z M11,21c-1.102,0-2-0.897-2-2
		s0.898-2,2-2s2,0.897,2,2S12.102,21,11,21z M21,19c-1.103,0-2-0.897-2-2s0.897-2,2-2s2,0.898,2,2S22.103,19,21,19z"/>
</g>
</svg>
