<?xml version="1.0" encoding="utf-8"?>
<!-- Generator: Adobe Illustrator 17.1.0, SVG Export Plug-In . SVG Version: 6.00 Build 0)  -->
<!DOCTYPE svg PUBLIC "-//W3C//DTD SVG 1.1//EN" "http://www.w3.org/Graphics/SVG/1.1/DTD/svg11.dtd">
<svg version="1.1" id="Layer_1" xmlns="http://www.w3.org/2000/svg" xmlns:xlink="http://www.w3.org/1999/xlink" x="0px" y="0px"
	 width="128px" height="128px" viewBox="0 0 128 128" enable-background="new 0 0 128 128" xml:space="preserve">
<g>
	<path d="M100,4L50.445,53.553C47.141,52.551,43.633,52,40,52C20.117,52,4,68.117,4,88s16.117,36,36,36s36-16.117,36-36
		c0-3.635-0.551-7.141-1.555-10.447L84,68v-8h8l32-32V4H100z M120,26.343L90.344,56H84h-4v4v6.343l-8.383,8.381l-1.696,1.696
		l0.697,2.295C71.535,81.736,72,84.86,72,88c0,17.645-14.355,32-32,32S8,105.645,8,88s14.355-32,32-32
		c3.139,0,6.264,0.464,9.285,1.381l2.293,0.695l1.695-1.695L101.656,8H120V26.343z"/>
	<circle cx="32" cy="96" r="8"/>
	<rect x="79.029" y="30" transform="matrix(-0.7071 0.7071 -0.7071 -0.7071 186.5097 -13.2548)" width="33.941" height="4"/>
</g>
</svg>
