<?xml version="1.0" encoding="utf-8"?>
<!-- Generator: Adobe Illustrator 17.1.0, SVG Export Plug-In . SVG Version: 6.00 Build 0)  -->
<!DOCTYPE svg PUBLIC "-//W3C//DTD SVG 1.1//EN" "http://www.w3.org/Graphics/SVG/1.1/DTD/svg11.dtd">
<svg version="1.1" id="Layer_1" xmlns="http://www.w3.org/2000/svg" xmlns:xlink="http://www.w3.org/1999/xlink" x="0px" y="0px"
	 width="32px" height="32px" viewBox="0 0 32 32" enable-background="new 0 0 32 32" xml:space="preserve">
<g>
	<path d="M16,9c2.209,0,4-1.791,4-4s-1.791-4-4-4s-4,1.791-4,4S13.791,9,16,9z M16,3c1.103,0,2,0.897,2,2s-0.897,2-2,2s-2-0.897-2-2
		S14.898,3,16,3z"/>
	<path d="M19,11h-6c-1.104,0-2,0.896-2,2v8l2,2v7c0,0.552,0.447,1,1,1h4c0.553,0,1-0.448,1-1v-7l2-2v-8C21,11.896,20.104,11,19,11z"
		/>
</g>
</svg>
