<?xml version="1.0" encoding="utf-8"?>
<!-- Generator: Adobe Illustrator 17.1.0, SVG Export Plug-In . SVG Version: 6.00 Build 0)  -->
<!DOCTYPE svg PUBLIC "-//W3C//DTD SVG 1.1//EN" "http://www.w3.org/Graphics/SVG/1.1/DTD/svg11.dtd">
<svg version="1.1" id="Layer_1" xmlns="http://www.w3.org/2000/svg" xmlns:xlink="http://www.w3.org/1999/xlink" x="0px" y="0px"
	 width="64px" height="64px" viewBox="0 0 64 64" enable-background="new 0 0 64 64" xml:space="preserve">
<path d="M48,2L36,16l4,6L22,40l-6-4L2,46l6,16c10-4,22-12,32-22S58,18,62,8L48,2z M38.586,38.586
	C29.742,47.43,18.877,55.074,9.143,59.351L4.412,46.735l11.627-8.306l4.851,3.234l1.364,0.91l1.159-1.16l18-18l1.159-1.159
	l-0.909-1.364l-3.159-4.739L48.562,4.417l10.826,4.64C55.119,18.813,47.455,29.716,38.586,38.586z"/>
</svg>
