<?xml version="1.0" encoding="utf-8"?>
<!-- Generator: Adobe Illustrator 17.1.0, SVG Export Plug-In . SVG Version: 6.00 Build 0)  -->
<!DOCTYPE svg PUBLIC "-//W3C//DTD SVG 1.1//EN" "http://www.w3.org/Graphics/SVG/1.1/DTD/svg11.dtd">
<svg version="1.1" id="Layer_1" xmlns="http://www.w3.org/2000/svg" xmlns:xlink="http://www.w3.org/1999/xlink" x="0px" y="0px"
	 width="32px" height="32px" viewBox="0 0 32 32" enable-background="new 0 0 32 32" xml:space="preserve">
<path d="M24,1l-6,7l2,3l-9,9l-3-2l-7,5l3,8c5-2,11-6,16-11S29,9,31,4L24,1z M18.586,18.586c-4.049,4.049-8.952,7.582-13.455,9.733
	l-1.719-4.584l4.627-3.306l1.852,1.234l1.364,0.91l1.159-1.16l9-9l1.159-1.159l-0.909-1.364l-1.159-1.739l4.058-4.734l3.798,1.627
	C26.213,9.571,22.661,14.511,18.586,18.586z"/>
</svg>
