<?xml version="1.0" encoding="utf-8"?>
<!-- Generator: Adobe Illustrator 17.1.0, SVG Export Plug-In . SVG Version: 6.00 Build 0)  -->
<!DOCTYPE svg PUBLIC "-//W3C//DTD SVG 1.1//EN" "http://www.w3.org/Graphics/SVG/1.1/DTD/svg11.dtd">
<svg version="1.1" id="Layer_1" xmlns="http://www.w3.org/2000/svg" xmlns:xlink="http://www.w3.org/1999/xlink" x="0px" y="0px"
	 width="128px" height="128px" viewBox="0 0 128 128" enable-background="new 0 0 128 128" xml:space="preserve">
<g>
	<path d="M4,16v16v80h120V32V16H4z M120,108H8V36h112V108z"/>
	<path d="M64,100c15.461,0,28-12.539,28-28S79.461,44,64,44v28H36C36,87.461,48.539,100,64,100z M64,76h4v-4V48.334
		C79.336,50.243,88,60.129,88,72c0,13.233-10.767,24-24,24c-11.871,0-21.757-8.664-23.667-20H64z"/>
	<path d="M60,44.32C47.746,46.074,38.078,55.746,36.32,68H60V44.32z"/>
</g>
</svg>
