<?xml version="1.0" encoding="utf-8"?>
<!-- Generator: Adobe Illustrator 17.1.0, SVG Export Plug-In . SVG Version: 6.00 Build 0)  -->
<!DOCTYPE svg PUBLIC "-//W3C//DTD SVG 1.1//EN" "http://www.w3.org/Graphics/SVG/1.1/DTD/svg11.dtd">
<svg version="1.1" id="Layer_1" xmlns="http://www.w3.org/2000/svg" xmlns:xlink="http://www.w3.org/1999/xlink" x="0px" y="0px"
	 width="32px" height="32px" viewBox="0 0 32 32" enable-background="new 0 0 32 32" xml:space="preserve">
<g>
	<path d="M1,4v4v20h30V8V4H1z M29,26H3V10h26V26z"/>
	<path d="M16,25c3.865,0,7-3.135,7-7s-3.135-7-7-7v7H9C9,21.865,12.135,25,16,25z M16,19h1v-1v-5.916c2.834,0.477,5,2.948,5,5.916
		c0,3.309-2.691,6-6,6c-2.968,0-5.439-2.166-5.917-5H16z"/>
	<path d="M15,11.08c-3.064,0.439-5.481,2.856-5.92,5.92H15V11.08z"/>
</g>
</svg>
