<?xml version="1.0" encoding="utf-8"?>
<!-- Generator: Adobe Illustrator 17.1.0, SVG Export Plug-In . SVG Version: 6.00 Build 0)  -->
<!DOCTYPE svg PUBLIC "-//W3C//DTD SVG 1.1//EN" "http://www.w3.org/Graphics/SVG/1.1/DTD/svg11.dtd">
<svg version="1.1" id="Layer_1" xmlns="http://www.w3.org/2000/svg" xmlns:xlink="http://www.w3.org/1999/xlink" x="0px" y="0px"
	 width="64px" height="64px" viewBox="0 0 64 64" enable-background="new 0 0 64 64" xml:space="preserve">
<path d="M61.999,26l-22-2l-8-22l-8,22l-22,2l18,14l-6,22l18-14l18,14l-6-22L61.999,26z M46.491,56.738L33.227,46.421l-1.228-0.955
	l-1.228,0.955L17.508,56.738l4.421-16.211l0.351-1.287l-1.052-0.818L7.228,27.533l16.953-1.541l1.265-0.115l0.434-1.193
	l6.121-16.831l6.121,16.831l0.434,1.193l1.265,0.115l16.953,1.541l-14,10.889l-1.052,0.818l0.351,1.287L46.491,56.738z"/>
</svg>
