<?xml version="1.0" encoding="utf-8"?>
<!-- Generator: Adobe Illustrator 17.1.0, SVG Export Plug-In . SVG Version: 6.00 Build 0)  -->
<!DOCTYPE svg PUBLIC "-//W3C//DTD SVG 1.1//EN" "http://www.w3.org/Graphics/SVG/1.1/DTD/svg11.dtd">
<svg version="1.1" id="Layer_1" xmlns="http://www.w3.org/2000/svg" xmlns:xlink="http://www.w3.org/1999/xlink" x="0px" y="0px"
	 width="64px" height="64px" viewBox="0 0 64 64" enable-background="new 0 0 64 64" xml:space="preserve">
<g>
	<path d="M32,46c7.73,0,14-6.269,14-14v-4v-2v-4v-2v-4c0-7.731-6.27-14-14-14S18,8.269,18,16v4v2v4v2v4C18,39.731,24.27,46,32,46z
		 M26,28h-6v-2h6c1.105,0,2-0.896,2-2s-0.895-2-2-2h-6v-2h6c1.105,0,2-0.896,2-2s-0.895-2-2-2h-6c0-6.617,5.383-12,12-12
		s12,5.383,12,12h-6c-1.105,0-2,0.896-2,2s0.895,2,2,2h6v2h-6c-1.105,0-2,0.896-2,2s0.895,2,2,2h6v2h-6c-1.105,0-2,0.896-2,2
		s0.895,2,2,2h6c0,6.617-5.383,12-12,12s-12-5.383-12-12h6c1.105,0,2-0.896,2-2S27.105,28,26,28z"/>
	<path d="M51,32h-2c0,9.374-7.626,17-17,17s-17-7.626-17-17h-2c0,10.139,7.989,18.424,18,18.949V60h-7v2h7h2h7v-2h-7v-9.051
		C43.011,50.424,51,42.139,51,32z"/>
</g>
</svg>
