<?xml version="1.0" encoding="utf-8"?>
<!-- Generator: Adobe Illustrator 17.1.0, SVG Export Plug-In . SVG Version: 6.00 Build 0)  -->
<!DOCTYPE svg PUBLIC "-//W3C//DTD SVG 1.1//EN" "http://www.w3.org/Graphics/SVG/1.1/DTD/svg11.dtd">
<svg version="1.1" id="Layer_1" xmlns="http://www.w3.org/2000/svg" xmlns:xlink="http://www.w3.org/1999/xlink" x="0px" y="0px"
	 width="64px" height="64px" viewBox="0 0 64 64" enable-background="new 0 0 64 64" xml:space="preserve">
<g>
	<g>
		<polygon points="29,27.171 24.414,22.586 21.586,25.414 29,32.829 42.414,19.414 39.586,16.586 		"/>
	</g>
	<g>
		<path d="M54,24c0-12.148-9.849-22-22-22c-12.147,0-22,9.852-22,22c0,8.421,4.736,15.735,11.688,19.433L20,62l12-8l12,8
			l-1.688-18.566C49.265,39.736,54,32.421,54,24z M32,44c-11.046,0-20-8.954-20-20S20.954,4,32,4s20,8.954,20,20S43.046,44,32,44z"
			/>
	</g>
</g>
</svg>
