<?xml version="1.0" encoding="utf-8"?>
<!-- Generator: Adobe Illustrator 17.1.0, SVG Export Plug-In . SVG Version: 6.00 Build 0)  -->
<!DOCTYPE svg PUBLIC "-//W3C//DTD SVG 1.1//EN" "http://www.w3.org/Graphics/SVG/1.1/DTD/svg11.dtd">
<svg version="1.1" id="Layer_1" xmlns="http://www.w3.org/2000/svg" xmlns:xlink="http://www.w3.org/1999/xlink" x="0px" y="0px"
	 width="128px" height="128px" viewBox="0 0 128 128" enable-background="new 0 0 128 128" xml:space="preserve">
<g>
	<g>
		<polygon points="58,54.343 48.829,45.171 43.171,50.829 58,65.657 84.829,38.829 79.171,33.171 		"/>
	</g>
	<g>
		<path d="M108,48c0-24.295-19.697-44-44-44C39.705,4,20,23.705,20,48c0,16.841,9.473,31.471,23.376,38.866L40,124l24-16l24,16
			l-3.376-37.133C98.529,79.473,108,64.843,108,48z M64,88c-22.091,0-40-17.909-40-40S41.909,8,64,8s40,17.909,40,40
			S86.091,88,64,88z"/>
	</g>
</g>
</svg>
