<?xml version="1.0" encoding="utf-8"?>
<!-- Generator: Adobe Illustrator 17.1.0, SVG Export Plug-In . SVG Version: 6.00 Build 0)  -->
<!DOCTYPE svg PUBLIC "-//W3C//DTD SVG 1.1//EN" "http://www.w3.org/Graphics/SVG/1.1/DTD/svg11.dtd">
<svg version="1.1" id="Layer_1" xmlns="http://www.w3.org/2000/svg" xmlns:xlink="http://www.w3.org/1999/xlink" x="0px" y="0px"
	 width="32px" height="32px" viewBox="0 0 32 32" enable-background="new 0 0 32 32" xml:space="preserve">
<g>
	<path d="M24,9c2.209,0,4-1.791,4-4s-1.791-4-4-4s-4,1.791-4,4S21.791,9,24,9z M24,3c1.103,0,2,0.897,2,2c0,1.102-0.897,2-2,2
		c-1.104,0-2-0.898-2-2C22,3.897,22.896,3,24,3z"/>
	<path d="M27,11h-6l-5,5l-5-5H5c-1.105,0-2,0.896-2,2v8l2,2v7c0,0.553,0.447,1,1,1h4c0.553,0,1-0.447,1-1V16l5,5l5-5v14
		c0,0.553,0.447,1,1,1h4c0.553,0,1-0.447,1-1v-7l2-2v-8C29,11.896,28.104,11,27,11z"/>
	<path d="M8,9c2.209,0,4-1.791,4-4s-1.791-4-4-4S4,2.791,4,5S5.791,9,8,9z M8,3c1.103,0,2,0.897,2,2c0,1.102-0.897,2-2,2
		C6.896,7,6,6.102,6,5C6,3.897,6.896,3,8,3z"/>
</g>
</svg>
