<?xml version="1.0" encoding="utf-8"?>
<!-- Generator: Adobe Illustrator 17.1.0, SVG Export Plug-In . SVG Version: 6.00 Build 0)  -->
<!DOCTYPE svg PUBLIC "-//W3C//DTD SVG 1.1//EN" "http://www.w3.org/Graphics/SVG/1.1/DTD/svg11.dtd">
<svg version="1.1" id="Layer_1" xmlns="http://www.w3.org/2000/svg" xmlns:xlink="http://www.w3.org/1999/xlink" x="0px" y="0px"
	 width="64px" height="64px" viewBox="0 0 64 64" enable-background="new 0 0 64 64" xml:space="preserve">
<g>
	<path d="M48,18c4.418,0,8-3.582,8-8s-3.582-8-8-8s-8,3.582-8,8S43.582,18,48,18z M48,4c3.309,0,6,2.691,6,6s-2.691,6-6,6
		c-3.309,0-6-2.691-6-6S44.691,4,48,4z"/>
	<path d="M54,22H42L32,32L22,22H10c-2.209,0-4,1.791-4,4v16l4,4v14c0,1.104,0.894,2,2,2h8c1.105,0,2-0.896,2-2V32l10,10l10-10v28
		c0,1.104,0.894,2,2,2h8c1.105,0,2-0.896,2-2V46l4-4V26C58,23.791,56.209,22,54,22z"/>
	<path d="M16,18c4.418,0,8-3.582,8-8s-3.582-8-8-8s-8,3.582-8,8S11.582,18,16,18z M16,4c3.309,0,6,2.691,6,6s-2.691,6-6,6
		c-3.309,0-6-2.691-6-6S12.691,4,16,4z"/>
</g>
</svg>
