<?xml version="1.0" encoding="utf-8"?>
<!-- Generator: Adobe Illustrator 17.1.0, SVG Export Plug-In . SVG Version: 6.00 Build 0)  -->
<!DOCTYPE svg PUBLIC "-//W3C//DTD SVG 1.1//EN" "http://www.w3.org/Graphics/SVG/1.1/DTD/svg11.dtd">
<svg version="1.1" id="Layer_1" xmlns="http://www.w3.org/2000/svg" xmlns:xlink="http://www.w3.org/1999/xlink" x="0px" y="0px"
	 width="128px" height="128px" viewBox="0 0 128 128" enable-background="new 0 0 128 128" xml:space="preserve">
<g>
	<path d="M96,36c8.836,0,16-7.164,16-16S104.836,4,96,4c-8.836,0-16,7.164-16,16S87.164,36,96,36z M96,8c6.617,0,12,5.383,12,12
		s-5.383,12-12,12c-6.617,0-12-5.383-12-12S89.383,8,96,8z"/>
	<path d="M108,44H84L64,64L44,44H20c-4.418,0-8,3.582-8,8v32l8,8v28c0,2.209,1.789,4,4,4h16c2.211,0,4-1.791,4-4V64l20,20l20-20v56
		c0,2.209,1.789,4,4,4h16c2.211,0,4-1.791,4-4V92l8-8V52C116,47.582,112.418,44,108,44z"/>
	<path d="M32,36c8.836,0,16-7.164,16-16S40.836,4,32,4c-8.836,0-16,7.164-16,16S23.164,36,32,36z M32,8c6.617,0,12,5.383,12,12
		s-5.383,12-12,12c-6.617,0-12-5.383-12-12S25.383,8,32,8z"/>
</g>
</svg>
