<?xml version="1.0" encoding="utf-8"?>
<!-- Generator: Adobe Illustrator 17.1.0, SVG Export Plug-In . SVG Version: 6.00 Build 0)  -->
<!DOCTYPE svg PUBLIC "-//W3C//DTD SVG 1.1//EN" "http://www.w3.org/Graphics/SVG/1.1/DTD/svg11.dtd">
<svg version="1.1" id="Layer_1" xmlns="http://www.w3.org/2000/svg" xmlns:xlink="http://www.w3.org/1999/xlink" x="0px" y="0px"
	 width="128px" height="128px" viewBox="0 0 128 128" enable-background="new 0 0 128 128" xml:space="preserve">
<g>
	<path d="M116,40v-8h-4h-4v-4v-4h-4H24h-4v4v4h-4h-4v8H4v64h120V40H116z M24,28h80v4H24V28z M120,100H8V44h4h104h4V100z"/>
	<polygon points="76,72 52,72 52,68 48,68 48,72 48,76 52,76 76,76 80,76 80,72 80,68 76,68 	"/>
</g>
</svg>
