<?xml version="1.0" encoding="utf-8"?>
<!-- Generator: Adobe Illustrator 17.1.0, SVG Export Plug-In . SVG Version: 6.00 Build 0)  -->
<!DOCTYPE svg PUBLIC "-//W3C//DTD SVG 1.1//EN" "http://www.w3.org/Graphics/SVG/1.1/DTD/svg11.dtd">
<svg version="1.1" id="Layer_1" xmlns="http://www.w3.org/2000/svg" xmlns:xlink="http://www.w3.org/1999/xlink" x="0px" y="0px"
	 width="32px" height="32px" viewBox="0 0 32 32" enable-background="new 0 0 32 32" xml:space="preserve">
<g>
	<path d="M29,10V8h-1h-1V7V6h-1H6H5v1v1H4H3v2H1v16h30V10H29z M6,7h20v1H6V7z M29,24H3V12h26V24z"/>
	<polygon points="19,19 20,19 20,18 20,17 19,17 19,18 13,18 13,17 12,17 12,18 12,19 13,19 	"/>
</g>
</svg>
