<?xml version="1.0" encoding="utf-8"?>
<!-- Generator: Adobe Illustrator 17.1.0, SVG Export Plug-In . SVG Version: 6.00 Build 0)  -->
<!DOCTYPE svg PUBLIC "-//W3C//DTD SVG 1.1//EN" "http://www.w3.org/Graphics/SVG/1.1/DTD/svg11.dtd">
<svg version="1.1" id="Layer_1" xmlns="http://www.w3.org/2000/svg" xmlns:xlink="http://www.w3.org/1999/xlink" x="0px" y="0px"
	 width="32px" height="32px" viewBox="0 0 32 32" enable-background="new 0 0 32 32" xml:space="preserve">
<g>
	<path d="M18,5V1h-4v4H6v26h20V5H18z M16,2c0.552,0,1,0.448,1,1s-0.448,1-1,1s-1-0.448-1-1S15.448,2,16,2z M24,29H8V7h6v2h4V7h6V29z
		"/>
	<path d="M16,11c-2.762,0-5,2.238-5,5s2.238,5,5,5s5-2.238,5-5S18.762,11,16,11z M16,19c-1.654,0-3-1.346-3-3s1.346-3,3-3
		s3,1.346,3,3S17.654,19,16,19z"/>
	<path d="M12,23c-1.104,0-2,0.896-2,2v2h12v-2c0-1.104-0.896-2-2-2H12z"/>
</g>
</svg>
