<?xml version="1.0" encoding="utf-8"?>
<!-- Generator: Adobe Illustrator 17.1.0, SVG Export Plug-In . SVG Version: 6.00 Build 0)  -->
<!DOCTYPE svg PUBLIC "-//W3C//DTD SVG 1.1//EN" "http://www.w3.org/Graphics/SVG/1.1/DTD/svg11.dtd">
<svg version="1.1" id="Layer_1" xmlns="http://www.w3.org/2000/svg" xmlns:xlink="http://www.w3.org/1999/xlink" x="0px" y="0px"
	 width="64px" height="64px" viewBox="0 0 64 64" enable-background="new 0 0 64 64" xml:space="preserve">
<g>
	<path d="M56,42L38,24l4.975-8.291C43.275,15.89,43.623,16,44,16c1.105,0,2-0.896,2-2s-0.895-2-2-2s-2,0.896-2,2
		c0,0.377,0.11,0.725,0.291,1.025L34,20L16,2c-5.1,5.098-8,12.221-8,20c0,7.78,2.9,14.902,8,20c5.096,5.099,12.219,8,20,8
		C43.779,50,50.902,47.099,56,42z M10,22c0-6.492,2.138-12.494,6.058-17.113l37.056,37.056C48.493,45.862,42.492,48,36,48
		c-7.207,0-13.808-2.633-18.586-7.414C12.633,35.807,10,29.206,10,22z"/>
	<rect x="22" y="54" width="20" height="8"/>
</g>
</svg>
