<?xml version="1.0" encoding="utf-8"?>
<!-- Generator: Adobe Illustrator 17.1.0, SVG Export Plug-In . SVG Version: 6.00 Build 0)  -->
<!DOCTYPE svg PUBLIC "-//W3C//DTD SVG 1.1//EN" "http://www.w3.org/Graphics/SVG/1.1/DTD/svg11.dtd">
<svg version="1.1" id="Layer_1" xmlns="http://www.w3.org/2000/svg" xmlns:xlink="http://www.w3.org/1999/xlink" x="0px" y="0px"
	 width="32px" height="32px" viewBox="0 0 32 32" enable-background="new 0 0 32 32" xml:space="preserve">
<g>
	<path d="M28,21l-9-9l2.494-4.157C21.645,7.934,21.812,8,22,8c0.553,0,1-0.447,1-1s-0.447-1-1-1s-1,0.447-1,1
		c0,0.188,0.066,0.356,0.157,0.506L17,10L8,1C5.45,3.549,4,7.11,4,11c0,3.891,1.45,7.451,4,10c2.548,2.549,6.109,4,10,4
		C21.89,25,25.451,23.549,28,21z M6,11c0-2.614,0.745-5.053,2.127-7.045l16.918,16.918C23.053,22.255,20.614,23,18,23
		c-3.336,0-6.385-1.213-8.586-3.414C7.213,17.385,6,14.336,6,11z"/>
	<rect x="11" y="27" width="10" height="4"/>
</g>
</svg>
