<?xml version="1.0" encoding="utf-8"?>
<!-- Generator: Adobe Illustrator 17.1.0, SVG Export Plug-In . SVG Version: 6.00 Build 0)  -->
<!DOCTYPE svg PUBLIC "-//W3C//DTD SVG 1.1//EN" "http://www.w3.org/Graphics/SVG/1.1/DTD/svg11.dtd">
<svg version="1.1" id="Layer_1" xmlns="http://www.w3.org/2000/svg" xmlns:xlink="http://www.w3.org/1999/xlink" x="0px" y="0px"
	 width="128px" height="128px" viewBox="0 0 128 128" enable-background="new 0 0 128 128" xml:space="preserve">
<g>
	<path d="M112,84L76,48l9.949-16.582C86.551,31.779,87.246,32,88,32c2.211,0,4-1.791,4-4s-1.789-4-4-4s-4,1.791-4,4
		c0,0.753,0.221,1.449,0.582,2.051L68,40L32,4C21.801,14.195,16,28.441,16,44c0,15.561,5.801,29.805,16,40
		c10.191,10.197,24.438,16,40,16C87.559,100,101.805,94.197,112,84z M20,44c0-12.985,4.275-24.987,12.115-34.228l74.112,74.112
		C96.985,91.725,84.983,96,72,96c-14.414,0-27.614-5.266-37.172-14.829C25.266,71.613,20,58.412,20,44z"/>
	<rect x="44" y="108" width="40" height="16"/>
</g>
</svg>
