<?xml version="1.0" encoding="utf-8"?>
<!-- Generator: Adobe Illustrator 17.1.0, SVG Export Plug-In . SVG Version: 6.00 Build 0)  -->
<!DOCTYPE svg PUBLIC "-//W3C//DTD SVG 1.1//EN" "http://www.w3.org/Graphics/SVG/1.1/DTD/svg11.dtd">
<svg version="1.1" id="Layer_1" xmlns="http://www.w3.org/2000/svg" xmlns:xlink="http://www.w3.org/1999/xlink" x="0px" y="0px"
	 width="64px" height="64px" viewBox="0 0 64 64" enable-background="new 0 0 64 64" xml:space="preserve">
<g>
	<polygon points="29,43.171 24.414,38.586 21.586,41.414 29,48.829 42.414,35.414 39.586,32.586 	"/>
	<path d="M48,24.91V18c0-8.837-7.163-16-16-16S16,9.163,16,18v6.911c-3.717,3.94-6,9.247-6,15.089c0,12.147,9.853,22,22,22
		c12.151,0,22-9.853,22-22C54,34.157,51.717,28.85,48,24.91z M20,18c0-6.617,5.383-12,12-12s12,5.383,12,12v3.565
		C40.548,19.313,36.429,18,32,18c-4.428,0-8.548,1.314-12,3.566V18z M32,60c-11.045,0-20-8.955-20-20s8.955-20,20-20s20,8.955,20,20
		S43.045,60,32,60z"/>
</g>
</svg>
