<?xml version="1.0" encoding="utf-8"?>
<!-- Generator: Adobe Illustrator 17.1.0, SVG Export Plug-In . SVG Version: 6.00 Build 0)  -->
<!DOCTYPE svg PUBLIC "-//W3C//DTD SVG 1.1//EN" "http://www.w3.org/Graphics/SVG/1.1/DTD/svg11.dtd">
<svg version="1.1" id="Layer_1" xmlns="http://www.w3.org/2000/svg" xmlns:xlink="http://www.w3.org/1999/xlink" x="0px" y="0px"
	 width="64px" height="64px" viewBox="0 0 64 64" enable-background="new 0 0 64 64" xml:space="preserve">
<g>
	<path d="M60.732,11.752l-8.49,8.491C51.07,21.414,49.535,22,48,22s-3.07-0.586-4.242-1.757c-2.344-2.343-2.344-6.142-0.001-8.485
		l8.49-8.491C50.328,2.452,48.217,2,46,2c-8.837,0-16,7.163-16,16c0,1.828,0.322,3.577,0.887,5.213L4.05,50.05
		c-2.733,2.734-2.733,7.166,0.001,9.899C5.418,61.316,7.209,62,9,62s3.582-0.684,4.949-2.05l26.836-26.837
		C42.422,33.678,44.172,34,46,34c8.837,0,16-7.163,16-16C62,15.783,61.548,13.671,60.732,11.752z M46,32
		c-1.533,0-3.068-0.262-4.562-0.777l-1.183-0.409l-0.885,0.885L12.535,58.536C11.591,59.48,10.335,60,9,60s-2.591-0.52-3.535-1.465
		c-1.949-1.949-1.95-5.121-0.001-7.071l26.837-26.837l0.885-0.884l-0.408-1.182C32.262,21.066,32,19.531,32,18c0-7.72,6.28-14,14-14
		c0.836,0,1.66,0.072,2.469,0.216l-6.126,6.127c-3.119,3.12-3.118,8.195,0.001,11.313C43.854,23.168,45.863,24,48,24
		s4.146-0.832,5.656-2.343l6.127-6.127C59.928,16.339,60,17.164,60,18C60,25.72,53.72,32,46,32z"/>
	<circle cx="9" cy="55" r="2"/>
</g>
</svg>
