<?xml version="1.0" encoding="utf-8"?>
<!-- Generator: Adobe Illustrator 17.1.0, SVG Export Plug-In . SVG Version: 6.00 Build 0)  -->
<!DOCTYPE svg PUBLIC "-//W3C//DTD SVG 1.1//EN" "http://www.w3.org/Graphics/SVG/1.1/DTD/svg11.dtd">
<svg version="1.1" id="Layer_1" xmlns="http://www.w3.org/2000/svg" xmlns:xlink="http://www.w3.org/1999/xlink" x="0px" y="0px"
	 width="128px" height="128px" viewBox="0 0 128 128" enable-background="new 0 0 128 128" xml:space="preserve">
<g>
	<path d="M121.465,23.503l-16.98,16.983C102.142,42.829,99.07,44,96,44s-6.142-1.171-8.484-3.515
		c-4.688-4.687-4.688-12.284-0.002-16.971l16.98-16.981C100.656,4.903,96.434,4,92,4C74.326,4,60,18.326,60,36
		c0,3.656,0.645,7.154,1.773,10.427L8.1,100.101c-5.467,5.468-5.467,14.331,0.002,19.799C10.835,122.633,14.418,124,18,124
		s7.165-1.367,9.898-4.101L81.57,66.226C84.844,67.356,88.344,68,92,68c17.674,0,32-14.326,32-32
		C124,31.565,123.096,27.343,121.465,23.503z M92,64c-3.066,0-6.137-0.523-9.123-1.555l-2.365-0.817l-1.77,1.77L25.07,117.071
		C23.182,118.96,20.67,120,18,120c-2.671,0-5.182-1.04-7.07-2.929c-3.899-3.899-3.9-10.243-0.002-14.142l53.674-53.674l1.769-1.769
		l-0.815-2.365C64.523,42.132,64,39.062,64,36C64,20.56,76.561,8,92,8c1.672,0,3.32,0.144,4.938,0.433L84.686,20.687
		c-6.238,6.239-6.237,16.39,0.002,22.627C87.709,46.336,91.727,48,96,48s8.291-1.664,11.312-4.687l12.254-12.255
		C119.855,32.678,120,34.328,120,36C120,51.439,107.439,64,92,64z"/>
	<circle cx="18" cy="110" r="4"/>
</g>
</svg>
