<?xml version="1.0" encoding="utf-8"?>
<!-- Generator: Adobe Illustrator 17.1.0, SVG Export Plug-In . SVG Version: 6.00 Build 0)  -->
<!DOCTYPE svg PUBLIC "-//W3C//DTD SVG 1.1//EN" "http://www.w3.org/Graphics/SVG/1.1/DTD/svg11.dtd">
<svg version="1.1" id="Layer_1" xmlns="http://www.w3.org/2000/svg" xmlns:xlink="http://www.w3.org/1999/xlink" x="0px" y="0px"
	 width="32px" height="32px" viewBox="0 0 32 32" enable-background="new 0 0 32 32" xml:space="preserve">
<g>
	<path d="M30.366,5.876l-4.245,4.246C25.535,10.707,24.768,11,24,11s-1.535-0.293-2.121-0.879c-1.172-1.171-1.172-3.071-0.001-4.243
		l4.245-4.245C25.164,1.226,24.108,1,23,1c-4.419,0-8,3.582-8,8c0,0.914,0.161,1.789,0.443,2.606L2.025,25.025
		c-1.367,1.367-1.367,3.583,0,4.95C2.709,30.658,3.605,31,4.5,31s1.791-0.342,2.475-1.025l13.418-13.418
		C21.211,16.839,22.086,17,23,17c4.418,0,8-3.582,8-8C31,7.891,30.773,6.835,30.366,5.876z M23,15c-0.654,0-1.312-0.112-1.954-0.334
		l-1.183-0.409l-0.885,0.885L5.561,28.56C5.277,28.844,4.9,29,4.5,29s-0.777-0.156-1.06-0.44C3.156,28.277,3,27.9,3,27.5
		c0-0.401,0.156-0.777,0.44-1.061l13.418-13.418l0.885-0.884l-0.408-1.182C17.112,10.312,17,9.654,17,9
		c0-2.901,2.069-5.328,4.81-5.881l-1.347,1.346c-1.948,1.95-1.947,5.122,0.001,7.07C21.408,12.479,22.664,13,24,13
		c1.335,0,2.591-0.52,3.535-1.465l1.347-1.347C28.328,12.93,25.901,15,23,15z"/>
	<circle cx="4.5" cy="27.5" r="1"/>
</g>
</svg>
