<?xml version="1.0" encoding="utf-8"?>
<!-- Generator: Adobe Illustrator 17.1.0, SVG Export Plug-In . SVG Version: 6.00 Build 0)  -->
<!DOCTYPE svg PUBLIC "-//W3C//DTD SVG 1.1//EN" "http://www.w3.org/Graphics/SVG/1.1/DTD/svg11.dtd">
<svg version="1.1" id="Layer_1" xmlns="http://www.w3.org/2000/svg" xmlns:xlink="http://www.w3.org/1999/xlink" x="0px" y="0px"
	 width="32px" height="32px" viewBox="0 0 32 32" enable-background="new 0 0 32 32" xml:space="preserve">
<path d="M31,13l-11-1L16,1l-4,11L1,13l9,7L7,31l9-7l9,7l-3-11L31,13z M17.228,22.421L16,21.466l-1.228,0.955l-4.264,3.316
	l1.421-5.211l0.351-1.287l-1.052-0.818l-5-3.889l5.953-0.541l1.265-0.115l0.434-1.193L16,6.852l2.121,5.831l0.434,1.193l1.265,0.115
	l5.953,0.541l-4.999,3.889L19.72,19.24l0.351,1.287l1.421,5.211L17.228,22.421z"/>
</svg>
