<?xml version="1.0" encoding="utf-8"?>
<!-- Generator: Adobe Illustrator 17.1.0, SVG Export Plug-In . SVG Version: 6.00 Build 0)  -->
<!DOCTYPE svg PUBLIC "-//W3C//DTD SVG 1.1//EN" "http://www.w3.org/Graphics/SVG/1.1/DTD/svg11.dtd">
<svg version="1.1" id="Layer_1" xmlns="http://www.w3.org/2000/svg" xmlns:xlink="http://www.w3.org/1999/xlink" x="0px" y="0px"
	 width="32px" height="32px" viewBox="0 0 32 32" enable-background="new 0 0 32 32" xml:space="preserve">
<g>
	<circle cx="17" cy="8" r="3"/>
	<path d="M17,19c1.656,0,3-1.344,3-3c0-1.656-1.344-3-3-3c-1.656,0-3,1.344-3,3C14,17.656,15.344,19,17,19z M17,14
		c1.103,0,2,0.896,2,2s-0.897,2-2,2s-2-0.896-2-2S15.898,14,17,14z"/>
	<path d="M17,27c1.656,0,3-1.344,3-3c0-1.656-1.344-3-3-3c-1.656,0-3,1.344-3,3C14,25.656,15.344,27,17,27z M17,22
		c1.103,0,2,0.896,2,2s-0.897,2-2,2s-2-0.896-2-2S15.898,22,17,22z"/>
	<path d="M28,13h-4v-2l4-6h-4V1H10v4H6l4,6v2H6l4,6v2H6l4,6v4h14v-4l4-6h-4v-2L28,13z M22,29H12V3h10V29z"/>
</g>
</svg>
