<?xml version="1.0" encoding="utf-8"?>
<!-- Generator: Adobe Illustrator 17.1.0, SVG Export Plug-In . SVG Version: 6.00 Build 0)  -->
<!DOCTYPE svg PUBLIC "-//W3C//DTD SVG 1.1//EN" "http://www.w3.org/Graphics/SVG/1.1/DTD/svg11.dtd">
<svg version="1.1" id="Layer_1" xmlns="http://www.w3.org/2000/svg" xmlns:xlink="http://www.w3.org/1999/xlink" x="0px" y="0px"
	 width="64px" height="64px" viewBox="0 0 64 64" enable-background="new 0 0 64 64" xml:space="preserve">
<g>
	<circle cx="32" cy="16" r="6"/>
	<path d="M32,38c3.312,0,6-2.687,6-6s-2.688-6-6-6s-6,2.687-6,6S28.688,38,32,38z M32,28c2.205,0,4,1.795,4,4s-1.795,4-4,4
		s-4-1.795-4-4S29.795,28,32,28z"/>
	<path d="M32,54c3.312,0,6-2.687,6-6s-2.688-6-6-6s-6,2.687-6,6S28.688,54,32,54z M32,44c2.205,0,4,1.795,4,4s-1.795,4-4,4
		s-4-1.795-4-4S29.795,44,32,44z"/>
	<path d="M54,26h-8v-4l8-12h-8V2H18v8h-8l8,12v4h-8l8,12v4h-8l8,12v8h28v-8l8-12h-8v-4L54,26z M44,60H20V4h24V60z"/>
</g>
</svg>
