<?xml version="1.0" encoding="utf-8"?>
<!-- Generator: Adobe Illustrator 17.1.0, SVG Export Plug-In . SVG Version: 6.00 Build 0)  -->
<!DOCTYPE svg PUBLIC "-//W3C//DTD SVG 1.1//EN" "http://www.w3.org/Graphics/SVG/1.1/DTD/svg11.dtd">
<svg version="1.1" id="Layer_1" xmlns="http://www.w3.org/2000/svg" xmlns:xlink="http://www.w3.org/1999/xlink" x="0px" y="0px"
	 width="64px" height="64px" viewBox="0 0 64 64" enable-background="new 0 0 64 64" xml:space="preserve">
<g>
	<polygon points="38.586,30.586 32,37.172 25.414,30.586 22.586,33.414 29.172,40 22.586,46.586 25.414,49.414 32,42.828 
		38.586,49.414 41.414,46.586 34.828,40 41.414,33.414 	"/>
	<path d="M32,18c-4.428,0-8.548,1.314-12,3.566V18c0-6.617,5.383-12,12-12c3.309,0,6.309,1.346,8.481,3.519l2.833-2.833
		C40.418,3.791,36.418,2,32,2c-8.837,0-16,7.163-16,16v6.911c-3.717,3.94-6,9.247-6,15.089c0,12.147,9.852,22,22,22
		c12.151,0,22-9.853,22-22S44.151,18,32,18z M32,60c-11.045,0-20-8.955-20-20s8.955-20,20-20c11.045,0,20,8.955,20,20
		S43.045,60,32,60z"/>
</g>
</svg>
