<?xml version="1.0" encoding="utf-8"?>
<!-- Generator: Adobe Illustrator 17.1.0, SVG Export Plug-In . SVG Version: 6.00 Build 0)  -->
<!DOCTYPE svg PUBLIC "-//W3C//DTD SVG 1.1//EN" "http://www.w3.org/Graphics/SVG/1.1/DTD/svg11.dtd">
<svg version="1.1" id="Layer_1" xmlns="http://www.w3.org/2000/svg" xmlns:xlink="http://www.w3.org/1999/xlink" x="0px" y="0px"
	 width="128px" height="128px" viewBox="0 0 128 128" enable-background="new 0 0 128 128" xml:space="preserve">
<g>
	<polygon points="77.171,61.171 64,74.343 50.829,61.171 45.171,66.829 58.343,80 45.171,93.171 50.829,98.829 64,85.657 
		77.171,98.829 82.829,93.171 69.657,80 82.829,66.829 	"/>
	<path d="M64,36c-8.856,0-17.096,2.628-24,7.132V36c0-13.234,10.767-24,24-24c6.617,0,12.617,2.691,16.962,7.038l5.665-5.665
		C80.837,7.582,72.837,4,64,4C46.326,4,32,18.326,32,36v13.822C24.566,57.702,20,68.316,20,80c0,24.295,19.705,44,44,44
		c24.303,0,44-19.705,44-44S88.303,36,64,36z M64,120c-22.09,0-40-17.91-40-40s17.91-40,40-40c22.09,0,40,17.91,40,40
		S86.09,120,64,120z"/>
</g>
</svg>
