<?xml version="1.0" encoding="utf-8"?>
<!-- Generator: Adobe Illustrator 17.1.0, SVG Export Plug-In . SVG Version: 6.00 Build 0)  -->
<!DOCTYPE svg PUBLIC "-//W3C//DTD SVG 1.1//EN" "http://www.w3.org/Graphics/SVG/1.1/DTD/svg11.dtd">
<svg version="1.1" id="Layer_1" xmlns="http://www.w3.org/2000/svg" xmlns:xlink="http://www.w3.org/1999/xlink" x="0px" y="0px"
	 width="64px" height="64px" viewBox="0 0 64 64" enable-background="new 0 0 64 64" xml:space="preserve">
<g>
	<path d="M32,42c11.047,0,20-8.953,20-20S43.047,2,32,2s-20,8.953-20,20S20.953,42,32,42z M32,4c9.926,0,18,8.075,18,18
		s-8.074,18-18,18s-18-8.075-18-18S22.074,4,32,4z"/>
	<path d="M48,46H16c-4.418,0-8,3.582-8,8v8h48v-8C56,49.582,52.418,46,48,46z"/>
</g>
</svg>
