<?xml version="1.0" encoding="utf-8"?>
<!-- Generator: Adobe Illustrator 17.1.0, SVG Export Plug-In . SVG Version: 6.00 Build 0)  -->
<!DOCTYPE svg PUBLIC "-//W3C//DTD SVG 1.1//EN" "http://www.w3.org/Graphics/SVG/1.1/DTD/svg11.dtd">
<svg version="1.1" id="Layer_1" xmlns="http://www.w3.org/2000/svg" xmlns:xlink="http://www.w3.org/1999/xlink" x="0px" y="0px"
	 width="32px" height="32px" viewBox="0 0 32 32" enable-background="new 0 0 32 32" xml:space="preserve">
<g>
	<path d="M16,21c5.523,0,10-4.477,10-10S21.523,1,16,1S6,5.477,6,11S10.477,21,16,21z M16,3c4.411,0,8,3.589,8,8s-3.589,8-8,8
		s-8-3.589-8-8S11.589,3,16,3z"/>
	<path d="M24,23H8c-2.209,0-4,1.791-4,4v4h24v-4C28,24.791,26.209,23,24,23z"/>
</g>
</svg>
