<?xml version="1.0" encoding="utf-8"?>
<!-- Generator: Adobe Illustrator 17.1.0, SVG Export Plug-In . SVG Version: 6.00 Build 0)  -->
<!DOCTYPE svg PUBLIC "-//W3C//DTD SVG 1.1//EN" "http://www.w3.org/Graphics/SVG/1.1/DTD/svg11.dtd">
<svg version="1.1" id="Layer_1" xmlns="http://www.w3.org/2000/svg" xmlns:xlink="http://www.w3.org/1999/xlink" x="0px" y="0px"
	 width="32px" height="32px" viewBox="0 0 32 32" enable-background="new 0 0 32 32" xml:space="preserve">
<g>
	<polygon points="21.646,9.646 16.354,14.939 13.707,12.293 12.293,13.707 14.939,16.354 13.646,17.646 14.354,18.354 15.646,17.06 
		17.293,18.707 18.707,17.293 17.06,15.646 22.354,10.354 	"/>
	<path d="M27.949,15C27.652,11.402,25.77,8.263,23,6.268V1H9v5.268C5.977,8.445,4,11.988,4,16s1.977,7.555,5,9.732V31h14v-5.268
		c2.77-1.995,4.652-5.135,4.949-8.732H29v-2H27.949z M16,26c-5.514,0-10-4.486-10-10S10.486,6,16,6s10,4.486,10,10S21.514,26,16,26z
		"/>
</g>
</svg>
