<?xml version="1.0" encoding="utf-8"?>
<!-- Generator: Adobe Illustrator 16.2.1, SVG Export Plug-In . SVG Version: 6.00 Build 0)  -->
<!DOCTYPE svg PUBLIC "-//W3C//DTD SVG 1.1//EN" "http://www.w3.org/Graphics/SVG/1.1/DTD/svg11.dtd">
<svg version="1.1" id="Layer_1" xmlns="http://www.w3.org/2000/svg" xmlns:xlink="http://www.w3.org/1999/xlink" x="0px" y="0px"
	 width="32px" height="32px" viewBox="0 0 32 32" enable-background="new 0 0 32 32" xml:space="preserve">
<path d="M16,2C8.268,2,2,8.268,2,16s6.268,14,14,14s14-6.268,14-14S23.732,2,16,2z M20.928,20.221L16.707,16l8.111-8.111
	c0.002,0.002,0.004,0.004,0.006,0.007C25.372,12.539,23.982,16.953,20.928,20.221z M11.072,11.779L15.293,16l-8.111,8.111
	c-0.002-0.002-0.004-0.004-0.006-0.007C6.628,19.461,8.018,15.047,11.072,11.779z M24.111,7.182L16,15.293l-4.225-4.225
	c2.775-2.592,6.443-4.027,10.406-4.027c0.635,0,1.273,0.05,1.91,0.123C24.098,7.17,24.104,7.176,24.111,7.182z M7.889,24.818
	L16,16.707l4.225,4.225c-2.775,2.592-6.443,4.027-10.405,4.027c-0.635,0-1.274-0.05-1.911-0.123
	C7.902,24.83,7.896,24.824,7.889,24.818z M22.723,6.065c-0.181-0.006-0.361-0.024-0.541-0.024c-4.229,0-8.148,1.54-11.113,4.32
	l-3.18-3.18C10.027,5.213,12.871,4,16,4C18.489,4,20.803,4.763,22.723,6.065z M7.182,7.889l3.174,3.174
	c-2.895,3.09-4.421,7.286-4.296,11.652C4.76,20.797,4,18.486,4,16C4,12.871,5.213,10.027,7.182,7.889z M9.277,25.935
	c0.181,0.006,0.362,0.024,0.542,0.024c4.229,0,8.148-1.539,11.112-4.32l3.18,3.18C21.973,26.787,19.129,28,16,28
	C13.511,28,11.197,27.237,9.277,25.935z M24.818,24.111l-3.174-3.174c2.895-3.09,4.421-7.286,4.296-11.652
	C27.24,11.203,28,13.514,28,16C28,19.129,26.787,21.973,24.818,24.111z"/>
</svg>
