<?xml version="1.0" encoding="utf-8"?>
<!-- Generator: Adobe Illustrator 17.1.0, SVG Export Plug-In . SVG Version: 6.00 Build 0)  -->
<!DOCTYPE svg PUBLIC "-//W3C//DTD SVG 1.1//EN" "http://www.w3.org/Graphics/SVG/1.1/DTD/svg11.dtd">
<svg version="1.1" id="Layer_1" xmlns="http://www.w3.org/2000/svg" xmlns:xlink="http://www.w3.org/1999/xlink" x="0px" y="0px"
	 width="128px" height="128px" viewBox="0 0 128 128" enable-background="new 0 0 128 128" xml:space="preserve">
<g>
	<rect x="44" y="112" width="40" height="12"/>
	<path d="M34.301,75.699C42.5,83.898,53.25,87.998,64,87.998c10.128,0,20.254-3.643,28.25-10.92l0.035,0.035l2.828-2.828
		l-0.035-0.035c15.002-16.481,14.545-42.023-1.379-57.949C85.498,8.102,74.748,4.002,63.998,4.002
		c-10.127,0-20.252,3.642-28.248,10.92l-0.035-0.035l-2.828,2.828l0.036,0.035C17.92,34.232,18.377,59.775,34.301,75.699z
		 M63.998,8.002c10.152,0,19.695,3.951,26.873,11.127c14.341,14.344,14.799,37.392,1.376,52.29L38.581,17.753
		C45.568,11.451,54.518,8.002,63.998,8.002z M89.419,74.247C82.432,80.549,73.482,83.998,64,83.998
		c-10.152,0-19.695-3.951-26.871-11.127c-14.342-14.342-14.799-37.39-1.376-52.29L89.419,74.247z"/>
	<path d="M105.012,4.988l-5.656,5.656C108.799,20.087,114,32.643,114,46s-5.201,25.913-14.646,35.355C89.915,90.799,77.359,96,64,96
		s-25.915-5.201-35.354-14.645l-5.658,5.656C33.938,97.967,48.504,104,64,104s30.062-6.033,41.012-16.988
		C115.967,76.06,122,61.494,122,46S115.967,15.94,105.012,4.988z"/>
</g>
</svg>
