<?xml version="1.0" encoding="utf-8"?>
<!-- Generator: Adobe Illustrator 17.1.0, SVG Export Plug-In . SVG Version: 6.00 Build 0)  -->
<!DOCTYPE svg PUBLIC "-//W3C//DTD SVG 1.1//EN" "http://www.w3.org/Graphics/SVG/1.1/DTD/svg11.dtd">
<svg version="1.1" id="Layer_1" xmlns="http://www.w3.org/2000/svg" xmlns:xlink="http://www.w3.org/1999/xlink" x="0px" y="0px"
	 width="64px" height="64px" viewBox="0 0 64 64" enable-background="new 0 0 64 64" xml:space="preserve">
<g>
	<rect x="22" y="56" width="20" height="6"/>
	<path d="M17.15,37.85c4.1,4.1,9.475,6.149,14.85,6.149c5.062,0,10.11-1.842,14.107-5.478l0.035,0.035l1.414-1.414l-0.035-0.035
		c7.496-8.241,7.289-20.996-0.672-28.957c-4.101-4.1-9.476-6.149-14.851-6.149c-5.062,0-10.109,1.842-14.106,5.477l-0.035-0.035
		l-1.414,1.414l0.035,0.035C8.982,17.135,9.189,29.889,17.15,37.85z M31.999,4.001c5.076,0,9.848,1.976,13.437,5.563
		c7.17,7.17,7.379,18.678,0.671,26.129L19.306,8.893C22.799,5.743,27.26,4.001,31.999,4.001z M44.694,37.107
		C41.201,40.257,36.74,41.999,32,41.999c-5.076,0-9.848-1.976-13.435-5.563c-7.17-7.17-7.379-18.678-0.671-26.129L44.694,37.107z"/>
	<path d="M52.506,2.494l-2.828,2.828C54.399,10.043,57,16.321,57,23s-2.601,12.957-7.322,17.678C44.957,45.399,38.68,48,32,48
		s-12.957-2.601-17.678-7.322l-2.828,2.828C16.969,48.983,24.252,52,32,52s15.031-3.017,20.506-8.494C57.983,38.029,61,30.747,61,23
		S57.983,7.971,52.506,2.494z"/>
</g>
</svg>
