<?xml version="1.0" encoding="utf-8"?>
<!-- Generator: Adobe Illustrator 17.1.0, SVG Export Plug-In . SVG Version: 6.00 Build 0)  -->
<!DOCTYPE svg PUBLIC "-//W3C//DTD SVG 1.1//EN" "http://www.w3.org/Graphics/SVG/1.1/DTD/svg11.dtd">
<svg version="1.1" id="Layer_1" xmlns="http://www.w3.org/2000/svg" xmlns:xlink="http://www.w3.org/1999/xlink" x="0px" y="0px"
	 width="32px" height="32px" viewBox="0 0 32 32" enable-background="new 0 0 32 32" xml:space="preserve">
<g>
	<path d="M8.575,18.925C10.625,20.975,13.312,22,16,22c2.531,0,5.055-0.922,7.054-2.74l0.018,0.018l0.707-0.707l-0.018-0.019
		c3.748-4.119,3.645-10.497-0.336-14.477C21.375,2.025,18.688,1,16,1c-2.531,0-5.055,0.922-7.054,2.74L8.929,3.722L8.222,4.429
		l0.018,0.019C4.491,8.567,4.595,14.944,8.575,18.925z M16,3c2.271,0,4.405,0.885,6.011,2.489c3.194,3.195,3.3,8.316,0.335,11.649
		L10.36,5.152C11.917,3.767,13.896,3,16,3z M21.64,17.848C20.083,19.233,18.104,20,16,20c-2.271,0-4.405-0.885-6.011-2.489
		c-3.194-3.194-3.3-8.315-0.335-11.649L21.64,17.848z"/>
	<path d="M26.253,1.247l-1.414,1.414C27.2,5.022,28.5,8.16,28.5,11.5s-1.3,6.479-3.661,8.839C22.479,22.699,19.34,24,16,24
		s-6.479-1.301-8.839-3.661l-1.414,1.414C8.484,24.492,12.126,26,16,26s7.516-1.508,10.253-4.247
		c2.738-2.738,4.247-6.38,4.247-10.253S28.991,3.985,26.253,1.247z"/>
	<rect x="11" y="28" width="10" height="3"/>
</g>
</svg>
