<svg xmlns="http://www.w3.org/2000/svg" viewBox="0 0 32 32"><path d="M8.003 30c-1.876 0-3.64-.753-4.963-2.12-2.71-2.8-2.71-7.358 0-10.16L15.62 4.726C17.32 2.968 19.586 2 21.997 2c2.41 0 4.676.968 6.377 2.726 3.49 3.606 3.492 9.475 0 13.082L18.13 28.392 16.69 27 26.94 16.417c2.747-2.84 2.747-7.46-.002-10.3C25.616 4.752 23.86 4 21.998 4c-1.865 0-3.62.752-4.942 2.117L4.476 19.11c-1.967 2.035-1.968 5.345 0 7.378C5.422 27.463 6.674 28 8.004 28s2.582-.537 3.525-1.51l9.41-9.72c1.188-1.228 1.187-3.226 0-4.453-1.132-1.168-3.09-1.17-4.223 0L9.64 19.623l-1.436-1.392 7.074-7.307c.945-.977 2.206-1.515 3.547-1.515 1.342 0 2.602.538 3.548 1.515 1.93 1.995 1.932 5.24 0 7.235l-9.408 9.718C11.642 29.248 9.88 30 8.003 30z"/></svg>