<svg xmlns="http://www.w3.org/2000/svg" viewBox="0 0 24 24"><path d="M21.05 3.978C19.78 2.702 18.087 2 16.285 2c-1.8 0-3.493.702-4.763 1.978l-8.99 9.024c-2.043 2.052-2.043 5.39 0 7.442C3.534 21.447 4.867 22 6.286 22c1.42 0 2.75-.553 3.752-1.557l6.722-6.75c1.486-1.49 1.486-3.92 0-5.41-.73-.733-1.704-1.138-2.74-1.138-1.038 0-2.012.404-2.743 1.137l-5.054 5.074 1.438 1.352 5.055-5.074c.35-.35.813-.545 1.304-.545.49 0 .952.193 1.302.544.743.746.743 1.96 0 2.706L8.6 19.09c-1.24 1.245-3.388 1.245-4.63 0-1.3-1.305-1.3-3.43 0-4.736l8.99-9.024c.892-.894 2.073-1.386 3.327-1.386s2.435.492 3.325 1.385c1.858 1.865 1.86 4.9 0 6.766l-7.32 7.35 1.436 1.352 7.323-7.35c2.6-2.61 2.6-6.86 0-9.47z" fill="#323232"/></svg>