<?xml version="1.0" encoding="utf-8"?>
<!-- Generator: Adobe Illustrator 17.1.0, SVG Export Plug-In . SVG Version: 6.00 Build 0)  -->
<!DOCTYPE svg PUBLIC "-//W3C//DTD SVG 1.1//EN" "http://www.w3.org/Graphics/SVG/1.1/DTD/svg11.dtd">
<svg version="1.1" id="Layer_1" xmlns="http://www.w3.org/2000/svg" xmlns:xlink="http://www.w3.org/1999/xlink" x="0px" y="0px"
	 width="32px" height="32px" viewBox="0 0 32 32" enable-background="new 0 0 32 32" xml:space="preserve">
<path d="M8.003,30c-1.876,0-3.639-0.753-4.963-2.12c-2.711-2.801-2.711-7.358,0-10.16L15.62,4.726C17.321,2.968,19.586,2,21.997,2
	c2.411,0,4.676,0.968,6.377,2.726c3.491,3.606,3.492,9.475,0.001,13.082L18.128,28.392L16.692,27l10.247-10.583
	c2.748-2.839,2.748-7.46-0.001-10.3C25.616,4.752,23.861,4,21.997,4c-1.864,0-3.619,0.752-4.941,2.117L4.477,19.111
	c-1.968,2.034-1.969,5.344,0,7.377C5.42,27.463,6.673,28,8.003,28c1.33,0,2.582-0.537,3.525-1.511l9.409-9.719
	c1.189-1.228,1.188-3.226,0-4.453c-1.131-1.168-3.09-1.169-4.222-0.001L9.64,19.624l-1.437-1.392l7.074-7.307
	c0.945-0.977,2.206-1.515,3.547-1.515c1.342,0,2.602,0.538,3.548,1.515c1.931,1.995,1.932,5.24,0,7.235l-9.408,9.718
	C11.642,29.247,9.879,30,8.003,30z"/>
</svg>
