<?xml version="1.0" encoding="utf-8"?>
<!-- Generator: Adobe Illustrator 19.1.0, SVG Export Plug-In . SVG Version: 6.00 Build 0)  -->
<svg version="1.1" id="Icon" xmlns="http://www.w3.org/2000/svg" xmlns:xlink="http://www.w3.org/1999/xlink" x="0px" y="0px"
	 width="24px" height="24px" viewBox="0 0 24 24" enable-background="new 0 0 24 24" xml:space="preserve">
<path d="M21.049,3.978C19.779,2.702,18.088,2,16.286,2h0c-1.801,0-3.493,0.702-4.763,1.978l-8.99,9.024
	c-2.043,2.052-2.043,5.39,0.001,7.442C3.534,21.447,4.866,22,6.285,22c1.419,0,2.751-0.553,3.752-1.557l6.722-6.749
	c1.487-1.492,1.487-3.92,0-5.412c-0.73-0.732-1.703-1.137-2.74-1.137c0,0,0,0,0,0c-1.037,0-2.011,0.404-2.742,1.137l-5.054,5.074
	l1.438,1.352l5.054-5.074c0.35-0.351,0.813-0.545,1.304-0.545c0.49,0,0.953,0.194,1.303,0.545c0.743,0.746,0.743,1.96-0.001,2.706
	L8.6,19.091c-1.24,1.244-3.388,1.244-4.629,0c-1.3-1.306-1.3-3.431,0-4.737l8.99-9.024c0.891-0.894,2.072-1.386,3.326-1.386h0
	c1.254,0,2.435,0.492,3.325,1.385c1.858,1.866,1.859,4.902,0.001,6.767l-7.322,7.349l1.437,1.353l7.323-7.35
	C23.65,10.838,23.65,6.589,21.049,3.978z"/>
</svg>
