<svg xmlns="http://www.w3.org/2000/svg" viewBox="0 0 16 16"><path d="M14.58 2.384C13.658 1.49 12.428 1 11.118 1s-2.54.49-3.464 1.384L1.115 8.7c-1.486 1.437-1.486 3.774 0 5.21.728.703 1.697 1.09 2.73 1.09 1.03 0 2-.387 2.728-1.09l4.89-4.724c1.08-1.044 1.08-2.744 0-3.788-.532-.513-1.24-.796-1.994-.796-.755 0-1.463.283-1.995.796L3.8 8.95l1.045.946 3.675-3.55c.255-.247.592-.383.948-.383.357 0 .693.136.948.382.54.522.54 1.372 0 1.894l-4.89 4.723c-.9.87-2.463.87-3.366 0-.946-.914-.946-2.402 0-3.316L8.698 3.33c.648-.626 1.507-.97 2.42-.97.91 0 1.77.344 2.417.97 1.35 1.306 1.352 3.43 0 4.737L8.212 13.21l1.046.948 5.326-5.145c1.89-1.826 1.89-4.8 0-6.63z" fill="#323232"/></svg>