<svg xmlns="http://www.w3.org/2000/svg" viewBox="0 0 128 128"><path d="M32.012 120c-7.506.002-14.557-3.01-19.853-8.48-10.846-11.203-10.846-29.434 0-40.64l50.32-51.977C69.284 11.87 78.344 8 87.99 8c9.644 0 18.704 3.87 25.51 10.902 13.966 14.428 13.967 37.902.003 52.328l-40.986 42.335L66.77 108l40.985-42.334c10.994-11.358 10.993-29.84-.002-41.2C102.467 19.006 95.448 16 87.99 16s-14.477 3.006-19.763 8.467l-50.32 51.977c-7.874 8.138-7.874 21.376 0 29.51 3.776 3.9 8.785 6.048 14.105 6.047 5.32 0 10.327-2.146 14.1-6.045L83.748 67.08c4.754-4.912 4.754-12.902 0-17.813-2.264-2.338-5.263-3.625-8.445-3.625s-6.18 1.287-8.443 3.625L38.56 78.492l-5.748-5.564L61.11 43.7c3.783-3.907 8.823-6.06 14.19-6.06 5.37 0 10.41 2.152 14.192 6.06 7.726 7.98 7.727 20.963.002 28.942L51.86 111.518C46.568 116.988 39.52 120 32.013 120z"/></svg>