<?xml version="1.0" encoding="utf-8"?>
<!-- Generator: Adobe Illustrator 17.1.0, SVG Export Plug-In . SVG Version: 6.00 Build 0)  -->
<!DOCTYPE svg PUBLIC "-//W3C//DTD SVG 1.1//EN" "http://www.w3.org/Graphics/SVG/1.1/DTD/svg11.dtd">
<svg version="1.1" id="Layer_1" xmlns="http://www.w3.org/2000/svg" xmlns:xlink="http://www.w3.org/1999/xlink" x="0px" y="0px"
	 width="64px" height="64px" viewBox="0 0 64 64" enable-background="new 0 0 64 64" xml:space="preserve">
<path d="M16.005,60c-3.753,0-7.278-1.506-9.926-4.241c-5.422-5.601-5.423-14.716,0-20.319l25.16-25.989
	C34.642,5.936,39.172,4,43.994,4c4.822,0,9.352,1.936,12.755,5.452c6.982,7.214,6.983,18.951,0.001,26.164L36.257,56.783
	l-2.874-2.782l20.493-21.167c5.497-5.679,5.497-14.92-0.001-20.6C51.232,9.503,47.723,8,43.994,8s-7.238,1.503-9.881,4.234
	L8.953,38.222c-3.938,4.069-3.938,10.688,0,14.755c1.888,1.95,4.392,3.023,7.052,3.023c2.66,0,5.163-1.074,7.05-3.023L41.873,33.54
	c2.377-2.455,2.377-6.451-0.001-8.906c-1.131-1.169-2.63-1.812-4.222-1.812s-3.09,0.644-4.222,1.812L19.28,39.247l-2.874-2.782
	l14.148-14.613c1.892-1.954,4.412-3.03,7.096-3.03c2.684,0,5.204,1.076,7.096,3.03c3.863,3.99,3.863,10.481,0.001,14.471
	L25.93,55.76C23.283,58.494,19.758,60,16.005,60z"/>
</svg>
