<?xml version="1.0" encoding="iso-8859-1"?>
<!-- Generator: Adobe Illustrator 20.0.0, SVG Export Plug-In . SVG Version: 6.00 Build 0)  -->
<svg version="1.1" id="Layer_1" xmlns="http://www.w3.org/2000/svg" xmlns:xlink="http://www.w3.org/1999/xlink" x="0px" y="0px"
	 viewBox="0 0 16 16" style="enable-background:new 0 0 16 16;" xml:space="preserve">
<path style="fill:#323232;" d="M14.581,2.384C13.657,1.491,12.427,1,11.117,1h0c-1.31,0-2.54,0.491-3.464,1.384L1.115,8.701
	c-1.486,1.436-1.486,3.773,0,5.209C1.843,14.613,2.812,15,3.844,15c1.032,0,2.001-0.387,2.729-1.09l4.889-4.724
	c1.081-1.044,1.081-2.744,0-3.788c-0.531-0.513-1.238-0.796-1.993-0.796c0,0,0,0,0,0c-0.754,0-1.462,0.283-1.994,0.796L3.799,8.95
	l1.046,0.946L8.52,6.345c0.255-0.246,0.592-0.382,0.948-0.382c0.357,0,0.693,0.136,0.948,0.382c0.54,0.522,0.54,1.372,0,1.894
	l-4.889,4.724c-0.902,0.871-2.464,0.871-3.367,0c-0.946-0.914-0.946-2.402,0-3.316l6.538-6.317c0.648-0.626,1.507-0.97,2.419-0.97h0
	c0.912,0,1.771,0.344,2.418,0.97c1.351,1.306,1.352,3.431,0.001,4.737l-5.325,5.144l1.045,0.947l5.326-5.145
	C16.473,7.187,16.473,4.212,14.581,2.384z"/>
</svg>
