<?xml version="1.0" encoding="iso-8859-1"?>
<!-- Generator: Adobe Illustrator 20.0.0, SVG Export Plug-In . SVG Version: 6.00 Build 0)  -->
<svg version="1.1" id="Layer_1" xmlns="http://www.w3.org/2000/svg" xmlns:xlink="http://www.w3.org/1999/xlink" x="0px" y="0px"
	 viewBox="0 0 128 128" style="enable-background:new 0 0 128 128;" xml:space="preserve">
<path d="M32.012,120.001c-7.506,0.001-14.557-3.012-19.853-8.482c-10.845-11.202-10.845-29.433,0-40.639l50.32-51.977
	C69.285,11.871,78.345,7.999,87.99,7.999c9.644,0,18.704,3.872,25.511,10.903c13.965,14.428,13.966,37.902,0.002,52.328
	l-40.986,42.335l-5.748-5.564l40.986-42.335c10.994-11.358,10.993-29.84-0.002-41.2c-5.286-5.46-12.305-8.467-19.763-8.467
	s-14.477,3.007-19.763,8.468L17.908,76.444c-7.875,8.138-7.875,21.376,0,29.511c3.775,3.899,8.784,6.047,14.104,6.046
	c5.319,0,10.327-2.147,14.101-6.046l37.634-38.876c4.754-4.911,4.754-12.901-0.001-17.812c-2.263-2.338-5.262-3.625-8.444-3.625
	s-6.181,1.287-8.443,3.625L38.562,78.492l-5.748-5.564L61.11,43.701c3.783-3.908,8.823-6.061,14.191-6.061
	c5.369,0,10.409,2.152,14.191,6.061c7.726,7.979,7.727,20.962,0.002,28.941l-37.633,38.876
	C46.567,116.988,39.518,120,32.012,120.001z"/>
</svg>
