<svg xmlns="http://www.w3.org/2000/svg" viewBox="0 0 64 64"><path d="M16.006 60c-3.753 0-7.278-1.506-9.926-4.24-5.422-5.602-5.423-14.717 0-20.32L31.24 9.45C34.643 5.937 39.173 4 43.995 4c4.822 0 9.352 1.936 12.755 5.452 6.982 7.214 6.983 18.95 0 26.164L36.26 56.783 33.384 54l20.493-21.167c5.497-5.68 5.497-14.92 0-20.6C51.232 9.503 47.723 8 43.994 8c-3.73 0-7.238 1.503-9.88 4.234L8.954 38.222c-3.938 4.07-3.938 10.688 0 14.755 1.887 1.95 4.39 3.024 7.05 3.023 2.66 0 5.164-1.074 7.05-3.023L41.874 33.54c2.377-2.456 2.377-6.452 0-8.907-1.132-1.17-2.63-1.812-4.223-1.812-1.59 0-3.09.645-4.222 1.813L19.28 39.246l-2.873-2.782L30.555 21.85c1.892-1.953 4.412-3.03 7.096-3.03 2.685 0 5.205 1.077 7.097 3.03 3.863 3.99 3.863 10.482 0 14.472L25.93 55.76C23.283 58.494 19.76 60 16.006 60z"/></svg>