<?xml version="1.0" encoding="iso-8859-1"?>
<!-- Generator: Adobe Illustrator 20.0.0, SVG Export Plug-In . SVG Version: 6.00 Build 0)  -->
<svg version="1.1" id="Layer_1" xmlns="http://www.w3.org/2000/svg" xmlns:xlink="http://www.w3.org/1999/xlink" x="0px" y="0px"
	 viewBox="0 0 24 24" style="enable-background:new 0 0 24 24;" xml:space="preserve">
<path style="fill:#323232;" d="M17.385,12c1.636-0.96,3.077-2.565,3.077-4.499C20.462,4.508,18.283,2,15.077,2H3.538v20h11.538
	c3.206,0,5.385-2.508,5.385-5.501C20.462,14.565,19.02,12.96,17.385,12z M11.885,20H8.462v-7h3.423c2.086,0,3.5,1.544,3.5,3.536
	C15.385,18.53,13.971,20,11.885,20z M11.885,11H8.462V4h3.423c2.086,0,3.5,1.544,3.5,3.536C15.385,9.53,13.971,11,11.885,11z"/>
</svg>
