<?xml version="1.0" encoding="iso-8859-1"?>
<!-- Generator: Adobe Illustrator 20.0.0, SVG Export Plug-In . SVG Version: 6.00 Build 0)  -->
<svg version="1.1" id="Layer_1" xmlns="http://www.w3.org/2000/svg" xmlns:xlink="http://www.w3.org/1999/xlink" x="0px" y="0px"
	 viewBox="0 0 16 16" style="enable-background:new 0 0 16 16;" xml:space="preserve">
<path style="fill:#323232;" d="M12.308,8c1.309-0.768,2.462-2.052,2.462-3.599C14.769,2.006,13.026,0,10.462,0H1.231v16h9.231
	c2.565,0,4.308-2.006,4.308-4.401C14.769,10.052,13.616,8.768,12.308,8z M8.207,14h-3V9h3c1.49,0,2.5,1.103,2.5,2.526
	C10.707,12.95,9.697,14,8.207,14z M8.207,7h-3V2h3c1.49,0,2.5,1.103,2.5,2.526C10.707,5.95,9.697,7,8.207,7z"/>
</svg>
