<?xml version="1.0" encoding="utf-8"?>
<!-- Generator: Adobe Illustrator 19.1.0, SVG Export Plug-In . SVG Version: 6.00 Build 0)  -->
<svg version="1.1" id="Icon" xmlns="http://www.w3.org/2000/svg" xmlns:xlink="http://www.w3.org/1999/xlink" x="0px" y="0px"
	 width="24px" height="24px" viewBox="0 0 24 24" enable-background="new 0 0 24 24" xml:space="preserve">
<path d="M17.923,12C19.559,11.04,21,9.435,21,7.501C21,4.508,18.822,2,15.615,2H4.077v20h11.538C18.822,22,21,19.492,21,16.499
	C21,14.565,19.559,12.96,17.923,12z M12.423,20H9v-7h3.423c2.086,0,3.5,1.544,3.5,3.536C15.923,18.53,14.509,20,12.423,20z
	 M12.423,11H9V4h3.423c2.086,0,3.5,1.544,3.5,3.536C15.923,9.53,14.509,11,12.423,11z"/>
</svg>
