<?xml version="1.0" encoding="utf-8"?>
<!-- Generator: Adobe Illustrator 19.1.0, SVG Export Plug-In . SVG Version: 6.00 Build 0)  -->
<svg version="1.1" id="Icon" xmlns="http://www.w3.org/2000/svg" xmlns:xlink="http://www.w3.org/1999/xlink" x="0px" y="0px"
	 width="16px" height="16px" viewBox="0 0 16 16" enable-background="new 0 0 16 16" xml:space="preserve">
<path d="M12.101,8c1.309-0.768,2.462-2.052,2.462-3.599C14.562,2.006,12.82,0,10.255,0H1.024v16h9.231
	c2.565,0,4.308-2.006,4.308-4.401C14.562,10.052,13.41,8.768,12.101,8z M8,14H5V9h3c1.49,0,2.5,1.103,2.5,2.526
	C10.5,12.95,9.49,14,8,14z M8,7H5V2h3c1.49,0,2.5,1.103,2.5,2.526C10.5,5.95,9.49,7,8,7z"/>
</svg>
