<?xml version="1.0" encoding="utf-8"?>
<!-- Generator: Adobe Illustrator 17.1.0, SVG Export Plug-In . SVG Version: 6.00 Build 0)  -->
<!DOCTYPE svg PUBLIC "-//W3C//DTD SVG 1.1//EN" "http://www.w3.org/Graphics/SVG/1.1/DTD/svg11.dtd">
<svg version="1.1" id="Layer_1" xmlns="http://www.w3.org/2000/svg" xmlns:xlink="http://www.w3.org/1999/xlink" x="0px" y="0px"
	 width="128px" height="128px" viewBox="0 0 128 128" enable-background="new 0 0 128 128" xml:space="preserve">
<path d="M92,64c8.506-4.992,16-13.34,16-23.395C108,25.039,96.672,12,80,12H20v104h60c16.672,0,28-13.039,28-28.605
	C108,77.34,100.506,68.992,92,64z M60,108H44V68h16c11.922,0,20,8.82,20,20.207C80,99.598,71.922,108,60,108z M60,60H44V20h16
	c11.922,0,20,8.82,20,20.207C80,51.598,71.922,60,60,60z"/>
</svg>
