<svg xmlns="http://www.w3.org/2000/svg" viewBox="0 0 64 64"><path d="M54 26H34v-8.262c3.448-.89 6-4.012 6-7.738 0-4.418-3.582-8-8-8s-8 3.582-8 8c0 3.726 2.552 6.848 6 7.738V26c-2.21 0-4 1.79-4 4h-8.262c-.89-3.448-4.012-6-7.738-6-4.418 0-8 3.582-8 8s3.582 8 8 8c3.726 0 6.848-2.552 7.738-6H26v20l8 8V34h28l-8-8zM10 36c-2.207 0-4-1.79-4-4s1.793-4 4-4 4 1.79 4 4-1.793 4-4 4zm20-4c-1.106 0-2-.896-2-2s.894-2 2-2c1.104 0 2 .896 2 2s-.896 2-2 2zm2-18c-2.207 0-4-1.79-4-4s1.793-4 4-4 4 1.79 4 4-1.793 4-4 4z"/></svg>