<?xml version="1.0" encoding="utf-8"?>
<!-- Generator: Adobe Illustrator 17.1.0, SVG Export Plug-In . SVG Version: 6.00 Build 0)  -->
<!DOCTYPE svg PUBLIC "-//W3C//DTD SVG 1.1//EN" "http://www.w3.org/Graphics/SVG/1.1/DTD/svg11.dtd">
<svg version="1.1" id="Layer_1" xmlns="http://www.w3.org/2000/svg" xmlns:xlink="http://www.w3.org/1999/xlink" x="0px" y="0px"
	 width="128px" height="128px" viewBox="0 0 128 128" enable-background="new 0 0 128 128" xml:space="preserve">
<path d="M108,52H68V35.476C74.896,33.696,80,27.452,80,20c0-8.836-7.164-16-16-16s-16,7.164-16,16c0,7.452,5.104,13.696,12,15.476
	V52c-4.422,0-8,3.58-8,8H35.476C33.696,53.103,27.452,48,20,48c-8.836,0-16,7.164-16,16s7.164,16,16,16
	c7.452,0,13.696-5.103,15.476-12H52v40l16,16V68h56L108,52z M20,72c-4.414,0-8-3.582-8-8s3.586-8,8-8s8,3.582,8,8S24.414,72,20,72z
	 M60,64c-2.211,0-4-1.791-4-4s1.789-4,4-4c2.207,0,4,1.791,4,4S62.207,64,60,64z M64,28c-4.414,0-8-3.582-8-8s3.586-8,8-8
	s8,3.582,8,8S68.414,28,64,28z"/>
</svg>
