<?xml version="1.0" encoding="utf-8"?>
<!-- Generator: Adobe Illustrator 19.1.0, SVG Export Plug-In . SVG Version: 6.00 Build 0)  -->
<svg version="1.1" id="Icon" xmlns="http://www.w3.org/2000/svg" xmlns:xlink="http://www.w3.org/1999/xlink" x="0px" y="0px"
	 width="16px" height="16px" viewBox="0 0 16 16" enable-background="new 0 0 16 16" xml:space="preserve">
<path d="M13,6h-1H9V4.789c0.882-0.386,1.5-1.265,1.5-2.289C10.5,1.119,9.381,0,8,0S5.5,1.119,5.5,2.5c0,1.024,0.618,1.903,1.5,2.289
	V6H6.995C6.446,6,6,6.446,6,6.995V7H4.789C4.403,6.118,3.525,5.5,2.5,5.5C1.119,5.5,0,6.619,0,8s1.119,2.5,2.5,2.5
	c1.025,0,1.903-0.618,2.289-1.5H6v4l3,3V9h7L13,6z M6.5,2.5C6.5,1.673,7.173,1,8,1s1.5,0.673,1.5,1.5S8.827,4,8,4S6.5,3.327,6.5,2.5
	z M2.5,9.5C1.673,9.5,1,8.827,1,8s0.673-1.5,1.5-1.5S4,7.173,4,8S3.327,9.5,2.5,9.5z"/>
</svg>
