<svg xmlns="http://www.w3.org/2000/svg" viewBox="0 0 16 16"><path d="M13 6H9V4.79c.882-.387 1.5-1.266 1.5-2.29C10.5 1.12 9.38 0 8 0S5.5 1.12 5.5 2.5c0 1.024.618 1.903 1.5 2.29V6h-.005C6.445 6 6 6.446 6 6.995V7H4.79c-.387-.882-1.265-1.5-2.29-1.5C1.12 5.5 0 6.62 0 8s1.12 2.5 2.5 2.5c1.025 0 1.903-.618 2.29-1.5H6v4l3 3V9h7l-3-3zM6.5 2.5C6.5 1.673 7.173 1 8 1s1.5.673 1.5 1.5S8.827 4 8 4s-1.5-.673-1.5-1.5zm-4 7C1.673 9.5 1 8.827 1 8s.673-1.5 1.5-1.5S4 7.173 4 8s-.673 1.5-1.5 1.5z" fill="#323232"/></svg>