<svg xmlns="http://www.w3.org/2000/svg" viewBox="0 0 24 24"><path d="M21.432 2.568C20.464 1.6 19.125 1 17.646 1c-1.478 0-2.816.6-3.784 1.568l-2.294 2.294C10.6 5.832 10 7.17 10 8.647c0 .567.106 1.11.263 1.63C9.75 10.11 9.213 10 8.646 10c-1.478 0-2.816.6-3.784 1.568l-2.294 2.294C1.6 14.832 1 16.17 1 17.647c0 1.478.56 2.855 1.53 3.824.968.97 2.345 1.53 3.823 1.53 1.478 0 2.816-.6 3.784-1.568l2.294-2.294c.97-.97 1.57-2.306 1.57-3.784 0-.567-.112-1.103-.275-1.616.52.156 1.062.262 1.63.262 1.477 0 2.815-.6 3.783-1.568l2.294-2.294C22.4 9.168 23 7.832 23 6.354c0-1.48-.6-2.818-1.568-3.786zM11.018 17.724L8.724 20.02c-.634.63-1.476.98-2.37.98-.932 0-1.81-.344-2.41-.943-.6-.6-.944-1.48-.944-2.41 0-.895.35-1.737.982-2.37l2.295-2.294C6.91 12.35 7.75 12 8.647 12c.55 0 1.072.146 1.545.394l-2.9 2.9 1.415 1.413 2.9-2.9c.247.474.393.996.393 1.547 0 .895-.35 1.736-.982 2.37zm9-9l-2.295 2.294c-.633.633-1.475.982-2.37.982-.56 0-1.095-.14-1.57-.37l2.924-2.923-1.414-1.414-2.923 2.923c-.23-.473-.37-1.007-.37-1.57 0-.894.35-1.736.982-2.37l2.294-2.293C15.91 3.35 16.75 3 17.646 3c.896 0 1.738.35 2.372.982.633.633.982 1.476.982 2.372 0 .895-.35 1.736-.982 2.37z" fill="#323232"/></svg>