<svg xmlns="http://www.w3.org/2000/svg" viewBox="0 0 32 32"><path d="M28.95 3.05C27.683 1.784 25.933 1 24 1c-1.933 0-3.683.784-4.95 2.05l-3 3C14.784 7.317 14 9.067 14 11c0 1.206.286 2.36.808 3.364l-.443.443C13.36 14.287 12.205 14 11 14c-1.933 0-3.683.784-4.95 2.05l-3 3C1.784 20.317 1 22.067 1 24s.784 3.683 2.05 4.95C4.317 30.216 6.067 31 8 31c1.933 0 3.683-.784 4.95-2.05l3-3C17.216 24.683 18 22.933 18 21c0-1.206-.286-2.36-.808-3.364l.443-.443c1.006.52 2.16.807 3.365.807 1.933 0 3.683-.784 4.95-2.05l3-3C30.216 11.683 31 9.933 31 8s-.784-3.683-2.05-4.95zM16 21c0 1.335-.52 2.59-1.464 3.536l-3 3C10.59 28.48 9.336 29 8 29c-1.335 0-2.59-.52-3.536-1.464C3.52 26.59 3 25.336 3 24s.52-2.59 1.464-3.536l3-3C8.41 16.52 9.664 16 11 16c.642 0 1.264.122 1.84.332l-4.254 4.254 2.828 2.828 4.254-4.254c.21.576.332 1.198.332 1.84zm11.536-9.464l-3 3C23.59 15.48 22.336 16 21 16c-.642 0-1.264-.122-1.84-.332l4.254-4.254-2.828-2.828-4.254 4.254C16.122 12.264 16 11.642 16 11c0-1.335.52-2.59 1.464-3.536l3-3C21.41 3.52 22.664 3 24 3c1.335 0 2.59.52 3.536 1.464C28.48 5.41 29 6.664 29 8s-.52 2.59-1.464 3.536z"/></svg>