<?xml version="1.0" encoding="utf-8"?>
<!-- Generator: Adobe Illustrator 16.2.1, SVG Export Plug-In . SVG Version: 6.00 Build 0)  -->
<!DOCTYPE svg PUBLIC "-//W3C//DTD SVG 1.1//EN" "http://www.w3.org/Graphics/SVG/1.1/DTD/svg11.dtd">
<svg version="1.1" xmlns="http://www.w3.org/2000/svg" xmlns:xlink="http://www.w3.org/1999/xlink" x="0px" y="0px" width="24px"
	 height="24px" viewBox="0 0 24 24" enable-background="new 0 0 24 24" xml:space="preserve">
<g id="Background" display="none">
	<rect display="inline" fill="#F0F0F0" width="24" height="24"/>
</g>
<g id="Icon">
	<path d="M21.432,2.568C20.464,1.6,19.125,1,17.646,1c-1.478,0-2.816,0.6-3.784,1.568l-2.294,2.294C10.6,5.831,10,7.168,10,8.646
		c0,0.567,0.106,1.109,0.263,1.629C9.75,10.112,9.213,10,8.646,10c-1.478,0-2.816,0.6-3.784,1.568l-2.294,2.294
		C1.6,14.831,1,16.168,1,17.646c0,1.479,0.562,2.855,1.529,3.824C3.498,22.438,4.875,23,6.354,23c1.478,0,2.816-0.6,3.784-1.568
		l2.294-2.294C13.4,18.169,14,16.832,14,15.354c0-0.567-0.112-1.103-0.275-1.616C14.245,13.894,14.787,14,15.354,14
		c1.478,0,2.816-0.6,3.784-1.568l2.294-2.294C22.4,9.169,23,7.832,23,6.354C23,4.875,22.4,3.536,21.432,2.568z M11.018,17.724
		l-2.294,2.294C8.09,20.651,7.249,21,6.354,21c-0.931,0-1.81-0.344-2.409-0.943C3.344,19.457,3,18.578,3,17.646
		c0-0.895,0.349-1.737,0.982-2.37l2.294-2.294C6.91,12.349,7.751,12,8.646,12c0.55,0,1.073,0.146,1.546,0.394l-2.899,2.899
		l1.414,1.414l2.899-2.899C11.854,14.281,12,14.803,12,15.354C12,16.249,11.651,17.09,11.018,17.724z M20.018,8.724l-2.294,2.294
		C17.09,11.651,16.249,12,15.354,12c-0.562,0-1.096-0.139-1.57-0.37l2.923-2.923l-1.414-1.414l-2.923,2.923
		C12.139,9.743,12,9.208,12,8.646c0-0.895,0.349-1.737,0.982-2.37l2.294-2.294C15.91,3.349,16.751,3,17.646,3
		c0.896,0,1.738,0.349,2.372,0.982S21,5.458,21,6.354C21,7.249,20.651,8.09,20.018,8.724z"/>
</g>
<g id="Guide" display="none">
	<g display="inline">
		<path fill="#FFCCCC" d="M23,1v22H1V1H23 M24,0H0v24h24V0L24,0z"/>
	</g>
</g>
</svg>
