<svg xmlns="http://www.w3.org/2000/svg" viewBox="0 0 128 128"><path d="M115.8 12.2C110.73 7.136 103.73 4 96 4c-7.732 0-14.732 3.135-19.8 8.2l-12 12C59.136 29.27 56 36.27 56 44c0 4.822 1.142 9.438 3.23 13.458l-1.773 1.77C53.437 57.143 48.822 56 44 56c-7.732 0-14.732 3.135-19.8 8.2l-12 12C7.136 81.27 4 88.27 4 96s3.135 14.732 8.2 19.8S24.27 124 32 124c7.732 0 14.732-3.135 19.8-8.2l12-12C68.864 98.73 72 91.73 72 84c0-4.822-1.142-9.438-3.23-13.457l1.772-1.77C74.562 70.857 79.178 72 84 72c7.732 0 14.732-3.135 19.8-8.2l12-12C120.864 46.73 124 39.73 124 32s-3.135-14.732-8.2-19.8zM64 84c0 5.342-2.08 10.364-5.858 14.142l-12 12C42.364 113.92 37.342 116 32 116c-5.342 0-10.364-2.08-14.142-5.858C14.08 106.364 12 101.342 12 96s2.08-10.364 5.858-14.142l12-12C33.636 66.08 38.658 64 44 64c2.57 0 5.07.464 7.38 1.306L34.343 82.343l11.313 11.313L62.694 76.62C63.536 78.93 64 81.43 64 84zm46.142-37.858l-12 12C94.364 61.92 89.342 64 84 64c-2.57 0-5.07-.464-7.38-1.306l17.037-17.037-11.314-11.314L65.306 51.38C64.464 49.07 64 46.57 64 44c0-5.342 2.08-10.364 5.858-14.142l12-12C85.636 14.08 90.658 12 96 12c5.342 0 10.364 2.08 14.142 5.858C113.92 21.636 116 26.658 116 32s-2.08 10.364-5.858 14.142z"/></svg>