<svg xmlns="http://www.w3.org/2000/svg" viewBox="0 0 16 16"><path d="M14.86 1.14C14.156.436 13.182 0 12.107 0c-1.075 0-2.048.436-2.752 1.14l-1.67 1.67c-.703.703-1.14 1.676-1.14 2.75 0 .413.078.807.192 1.186-.373-.12-.763-.2-1.175-.2-1.075 0-2.048.436-2.752 1.14L1.14 9.354C.436 10.06 0 11.032 0 12.107c0 1.075.408 2.077 1.112 2.78.705.705 1.706 1.113 2.78 1.113 1.076 0 2.05-.436 2.753-1.14l1.67-1.67c.703-.703 1.14-1.676 1.14-2.75 0-.413-.083-.803-.2-1.176.377.114.77.19 1.184.19 1.074 0 2.047-.435 2.75-1.14l1.67-1.668C15.564 5.94 16 4.968 16 3.893c0-1.075-.436-2.05-1.14-2.753zM7.286 12.163l-1.67 1.67c-.46.46-1.072.713-1.723.713-.677 0-1.316-.25-1.752-.686-.435-.437-.686-1.076-.686-1.753 0-.65.254-1.263.714-1.724l1.67-1.67C4.297 8.254 4.91 8 5.56 8c.4 0 .78.106 1.125.286l-2.11 2.11 1.03 1.027 2.108-2.11c.18.346.287.726.287 1.126 0 .65-.254 1.262-.714 1.723zm6.545-6.546l-1.668 1.67c-.46.46-1.072.713-1.723.713-.41 0-.798-.1-1.143-.27l2.126-2.125-1.028-1.028L8.27 6.703C8.1 6.358 8 5.97 8 5.56c0-.65.254-1.262.714-1.723l1.67-1.67c.46-.46 1.072-.713 1.723-.713.652 0 1.264.254 1.725.714s.714 1.073.714 1.725c0 .65-.254 1.264-.715 1.724z" fill="#323232"/></svg>