<svg xmlns="http://www.w3.org/2000/svg" viewBox="0 0 64 64"><path d="M57.9 6.1C55.365 3.568 51.865 2 48 2c-3.866 0-7.366 1.567-9.9 4.1l-6 6C29.568 14.635 28 18.135 28 22c0 2.41.57 4.718 1.615 6.728l-.887.887C26.718 28.57 24.41 28 22 28c-3.866 0-7.366 1.567-9.9 4.1l-6 6C3.568 40.635 2 44.135 2 48s1.567 7.366 4.1 9.9S12.135 62 16 62c3.866 0 7.366-1.567 9.9-4.1l6-6c2.533-2.534 4.1-6.034 4.1-9.9 0-2.41-.57-4.718-1.615-6.728l.887-.887C37.282 35.43 39.59 36 42 36c3.866 0 7.366-1.567 9.9-4.1l6-6c2.533-2.534 4.1-6.034 4.1-9.9s-1.567-7.366-4.1-9.9zM32 42c0 2.67-1.04 5.182-2.93 7.07l-6 6C21.183 56.96 18.67 58 16 58s-5.182-1.04-7.07-2.93C7.04 53.183 6 50.67 6 48s1.04-5.182 2.93-7.07l6-6C16.817 33.04 19.33 32 22 32c1.286 0 2.536.232 3.69.653l-8.518 8.52 5.657 5.656 8.518-8.52c.42 1.154.652 2.404.652 3.69zm23.07-18.93l-6 6C47.183 30.96 44.67 32 42 32c-1.286 0-2.536-.232-3.69-.653l8.52-8.52-5.658-5.656-8.52 8.52C32.233 24.535 32 23.285 32 22c0-2.67 1.04-5.182 2.93-7.07l6-6C42.817 7.04 45.33 6 48 6s5.182 1.04 7.07 2.93C56.96 10.817 58 13.33 58 16s-1.04 5.182-2.93 7.07z"/></svg>