<?xml version="1.0" encoding="utf-8"?>
<!-- Generator: Adobe Illustrator 19.1.0, SVG Export Plug-In . SVG Version: 6.00 Build 0)  -->
<svg version="1.1" id="Icon" xmlns="http://www.w3.org/2000/svg" xmlns:xlink="http://www.w3.org/1999/xlink" x="0px" y="0px"
	 width="16px" height="16px" viewBox="0 0 16 16" enable-background="new 0 0 16 16" xml:space="preserve">
<path d="M14.86,1.14C14.156,0.436,13.182,0,12.107,0c-1.075,0-2.048,0.436-2.752,1.14L7.686,2.809
	c-0.704,0.704-1.14,1.677-1.14,2.752c0,0.412,0.077,0.806,0.191,1.185c-0.373-0.119-0.763-0.2-1.175-0.2
	c-1.075,0-2.048,0.436-2.752,1.14L1.14,9.354C0.436,10.059,0,11.032,0,12.107c0,1.075,0.408,2.077,1.112,2.781
	C1.817,15.592,2.818,16,3.893,16c1.075,0,2.048-0.436,2.752-1.14l1.669-1.669c0.704-0.704,1.14-1.677,1.14-2.752
	c0-0.412-0.082-0.802-0.2-1.175c0.378,0.114,0.772,0.191,1.185,0.191c1.075,0,2.048-0.436,2.752-1.14l1.669-1.669
	C15.564,5.941,16,4.968,16,3.893C16,2.818,15.564,1.844,14.86,1.14z M7.286,12.163l-1.669,1.669
	c-0.461,0.461-1.073,0.714-1.724,0.714c-0.677,0-1.316-0.25-1.752-0.686c-0.436-0.437-0.687-1.076-0.687-1.753
	c0-0.651,0.254-1.263,0.714-1.724l1.669-1.669C4.298,8.254,4.91,8,5.561,8c0.4,0,0.78,0.106,1.124,0.286l-2.109,2.109l1.028,1.028
	l2.109-2.109C7.894,9.659,8,10.039,8,10.439C8,11.09,7.746,11.702,7.286,12.163z M13.831,5.617l-1.669,1.669
	C11.702,7.746,11.09,8,10.439,8C10.03,8,9.642,7.899,9.297,7.731l2.126-2.126l-1.028-1.028L8.269,6.703C8.101,6.358,8,5.97,8,5.561
	C8,4.91,8.254,4.298,8.714,3.837l1.669-1.669c0.461-0.461,1.073-0.714,1.724-0.714c0.652,0,1.264,0.254,1.725,0.714
	s0.714,1.073,0.714,1.725C14.545,4.544,14.292,5.157,13.831,5.617z"/>
</svg>
