<?xml version="1.0" encoding="iso-8859-1"?>
<!-- Generator: Adobe Illustrator 20.0.0, SVG Export Plug-In . SVG Version: 6.00 Build 0)  -->
<svg version="1.1" id="Layer_1" xmlns="http://www.w3.org/2000/svg" xmlns:xlink="http://www.w3.org/1999/xlink" x="0px" y="0px"
	 viewBox="0 0 24 24" style="enable-background:new 0 0 24 24;" xml:space="preserve">
<g>
	<g>
		<polygon style="fill:#323232;" points="3,2.5 1,2.5 1,3.5 2,3.5 2,6.5 1,6.5 1,7.5 4,7.5 4,6.5 3,6.5 		"/>
		<rect x="3" y="10.5" style="fill:#323232;" width="1" height="1"/>
		<rect x="2" y="11.5" style="fill:#323232;" width="1" height="1"/>
		<polygon style="fill:#323232;" points="1,13.667 1,14.5 4,14.5 4,13.5 2,13.5 2,12.5 1,12.5 		"/>
		<rect x="1" y="9.5" style="fill:#323232;" width="2" height="1"/>
		<rect x="3" y="17.5" style="fill:#323232;" width="1" height="1"/>
		<rect x="2" y="18.5" style="fill:#323232;" width="1" height="1"/>
		<rect x="3" y="19.5" style="fill:#323232;" width="1" height="1"/>
		<rect x="1" y="20.5" style="fill:#323232;" width="2" height="1"/>
		<rect x="1" y="16.5" style="fill:#323232;" width="2" height="1"/>
	</g>
	<rect x="8" y="17.5" style="fill:#323232;" width="15" height="2"/>
	<rect x="8" y="10.5" style="fill:#323232;" width="15" height="2"/>
	<rect x="8" y="3.5" style="fill:#323232;" width="15" height="2"/>
</g>
</svg>
