<?xml version="1.0" encoding="iso-8859-1"?>
<!-- Generator: Adobe Illustrator 20.0.0, SVG Export Plug-In . SVG Version: 6.00 Build 0)  -->
<svg version="1.1" id="Layer_1" xmlns="http://www.w3.org/2000/svg" xmlns:xlink="http://www.w3.org/1999/xlink" x="0px" y="0px"
	 viewBox="0 0 64 64" style="enable-background:new 0 0 64 64;" xml:space="preserve">
<g>
	<rect x="16" y="12" width="46" height="4"/>
	<rect x="16" y="30" width="46" height="4"/>
	<rect x="16" y="48" width="46" height="4"/>
	<polygon points="6,8 4,8 2,8 2,10 4,10 4,18 2,18 2,20 4,20 6,20 8,20 8,18 6,18 	"/>
	<polygon points="6,30 6,32 8,32 8,30 8,28 6,28 	"/>
	<rect x="4" y="32" width="2" height="2"/>
	<polygon points="2,36 2,38 8,38 8,36 4,36 4,34 2,34 	"/>
	<polygon points="4,26 2,26 2,28 4,28 6,28 6,26 	"/>
	<rect x="6" y="46" width="2" height="2"/>
	<rect x="4" y="48" width="2" height="2"/>
	<polygon points="6,54 8,54 8,52 8,50 6,50 6,52 	"/>
	<polygon points="2,54 2,56 4,56 6,56 6,54 4,54 	"/>
	<polygon points="4,44 2,44 2,46 4,46 6,46 6,44 	"/>
</g>
</svg>
