<?xml version="1.0" encoding="utf-8"?>
<!-- Generator: Adobe Illustrator 19.1.0, SVG Export Plug-In . SVG Version: 6.00 Build 0)  -->
<svg version="1.1" id="Icon" xmlns="http://www.w3.org/2000/svg" xmlns:xlink="http://www.w3.org/1999/xlink" x="0px" y="0px"
	 width="24px" height="24px" viewBox="0 0 24 24" enable-background="new 0 0 24 24" xml:space="preserve">
<g>
	<polygon points="3,3 1,3 1,4 2,4 2,7 1,7 1,8 4,8 4,7 3,7 	"/>
	<rect x="3" y="11" width="1" height="1"/>
	<rect x="2" y="12" width="1" height="1"/>
	<polygon points="1,14.167 1,15 4,15 4,14 2,14 2,13 1,13 	"/>
	<rect x="1" y="10" width="2" height="1"/>
	<rect x="3" y="18" width="1" height="1"/>
	<rect x="2" y="19" width="1" height="1"/>
	<rect x="3" y="20" width="1" height="1"/>
	<rect x="1" y="21" width="2" height="1"/>
	<rect x="1" y="17" width="2" height="1"/>
</g>
<rect x="8" y="18" width="15" height="2"/>
<rect x="8" y="11" width="15" height="2"/>
<rect x="8" y="4" width="15" height="2"/>
</svg>
