<?xml version="1.0" encoding="utf-8"?>
<!-- Generator: Adobe Illustrator 17.1.0, SVG Export Plug-In . SVG Version: 6.00 Build 0)  -->
<!DOCTYPE svg PUBLIC "-//W3C//DTD SVG 1.1//EN" "http://www.w3.org/Graphics/SVG/1.1/DTD/svg11.dtd">
<svg version="1.1" id="Layer_1" xmlns="http://www.w3.org/2000/svg" xmlns:xlink="http://www.w3.org/1999/xlink" x="0px" y="0px"
	 width="32px" height="32px" viewBox="0 0 32 32" enable-background="new 0 0 32 32" xml:space="preserve">
<g>
	<rect x="8" y="6" width="23" height="2"/>
	<rect x="8" y="15" width="23" height="2"/>
	<rect x="8" y="24" width="23" height="2"/>
	<polygon points="3,4 2,4 1,4 1,5 2,5 2,9 1,9 1,10 2,10 3,10 4,10 4,9 3,9 	"/>
	<polygon points="3,15 3,16 4,16 4,15 4,14 3,14 	"/>
	<rect x="2" y="16" width="1" height="1"/>
	<polygon points="1,18 1,19 4,19 4,18 2,18 2,17 1,17 	"/>
	<polygon points="2,13 1,13 1,14 2,14 3,14 3,13 	"/>
	<rect x="3" y="23" width="1" height="1"/>
	<rect x="2" y="24" width="1" height="1"/>
	<polygon points="3,27 4,27 4,26 4,25 3,25 3,26 	"/>
	<polygon points="1,27 1,28 2,28 3,28 3,27 2,27 	"/>
	<polygon points="2,22 1,22 1,23 2,23 3,23 3,22 	"/>
</g>
</svg>
