<?xml version="1.0" encoding="utf-8"?>
<!-- Generator: Adobe Illustrator 19.1.0, SVG Export Plug-In . SVG Version: 6.00 Build 0)  -->
<svg version="1.1" id="Icon" xmlns="http://www.w3.org/2000/svg" xmlns:xlink="http://www.w3.org/1999/xlink" x="0px" y="0px"
	 width="16px" height="16px" viewBox="0 0 16 16" enable-background="new 0 0 16 16" xml:space="preserve">
<g>
	<polygon points="2,0 0,0 0,1 1,1 1,3 0,3 0,4 3,4 3,3 2,3 	"/>
	<polygon points="0,6 0,7 2,7 2,8 3,8 3,7 3,6 2,6 	"/>
	<rect y="15" width="2" height="1"/>
	<polygon points="0,13 1,13 1,14 2,14 2,13 3,13 3,12 0,12 	"/>
	<rect x="5" y="13" width="11" height="2"/>
	<rect x="5" y="7" width="11" height="2"/>
	<rect x="5" y="1" width="11" height="2"/>
	<polygon points="1,9 0,9.167 0,10 3,10 3,9 2,9 2,8 1,8 	"/>
	<rect x="2" y="14" width="1" height="1"/>
</g>
</svg>
