<?xml version="1.0" encoding="iso-8859-1"?>
<!-- Generator: Adobe Illustrator 20.0.0, SVG Export Plug-In . SVG Version: 6.00 Build 0)  -->
<svg version="1.1" id="Layer_1" xmlns="http://www.w3.org/2000/svg" xmlns:xlink="http://www.w3.org/1999/xlink" x="0px" y="0px"
	 viewBox="0 0 128 128" style="enable-background:new 0 0 128 128;" xml:space="preserve">
<g>
	<path d="M12,12v104h27.999H88h12l16-16V12H12z M112,98.343L98.343,112H88v-12H39.999v12H16V16h96V98.343z"/>
	<path d="M64,88c13.254,0,24-10.746,24-24S77.254,40,64,40c-13.254,0-24.001,10.746-24.001,24S50.746,88,64,88z M64,56
		c4.414,0,8,3.582,8,8s-3.586,8-8,8c-4.414,0-8-3.582-8-8S59.586,56,64,56z"/>
</g>
</svg>
