<?xml version="1.0" encoding="iso-8859-1"?>
<!-- Generator: Adobe Illustrator 20.0.0, SVG Export Plug-In . SVG Version: 6.00 Build 0)  -->
<svg version="1.1" id="Layer_1" xmlns="http://www.w3.org/2000/svg" xmlns:xlink="http://www.w3.org/1999/xlink" x="0px" y="0px"
	 viewBox="0 0 64 64" style="enable-background:new 0 0 64 64;" xml:space="preserve">
<g>
	<path d="M6,6v52h14h24h6l8-8V6H6z M56,49.171L49.172,56H44v-6H20v6H8V8h48V49.171z"/>
	<path d="M32,44c6.627,0,12-5.373,12-12s-5.373-12-12-12s-12,5.373-12,12S25.373,44,32,44z M32,28c2.207,0,4,1.791,4,4s-1.793,4-4,4
		s-4-1.791-4-4S29.793,28,32,28z"/>
</g>
</svg>
