<?xml version="1.0" encoding="utf-8"?>
<!-- Generator: Adobe Illustrator 17.1.0, SVG Export Plug-In . SVG Version: 6.00 Build 0)  -->
<!DOCTYPE svg PUBLIC "-//W3C//DTD SVG 1.1//EN" "http://www.w3.org/Graphics/SVG/1.1/DTD/svg11.dtd">
<svg version="1.1" id="Layer_1" xmlns="http://www.w3.org/2000/svg" xmlns:xlink="http://www.w3.org/1999/xlink" x="0px" y="0px"
	 width="128px" height="128px" viewBox="0 0 128 128" enable-background="new 0 0 128 128" xml:space="preserve">
<g>
	<path d="M12,12v104h27.999H88h12l16-16V12H12z M112,98.343L98.343,112H88v-12H39.999v12H16V16h96V98.343z"/>
	<path d="M64,88c13.254,0,24-10.746,24-24S77.254,40,64,40S39.999,50.746,39.999,64S50.746,88,64,88z M64,56c4.414,0,8,3.582,8,8
		s-3.586,8-8,8s-8-3.582-8-8S59.586,56,64,56z"/>
</g>
</svg>
