<?xml version="1.0" encoding="iso-8859-1"?>
<!-- Generator: Adobe Illustrator 20.0.0, SVG Export Plug-In . SVG Version: 6.00 Build 0)  -->
<svg version="1.1" id="Layer_1" xmlns="http://www.w3.org/2000/svg" xmlns:xlink="http://www.w3.org/1999/xlink" x="0px" y="0px"
	 viewBox="0 0 32 32" style="enable-background:new 0 0 32 32;" xml:space="preserve">
<g>
	<path d="M6.832,12.404V9.176c0-0.376-0.084-0.678-0.252-0.905C6.412,8.042,6.196,7.864,5.932,7.736
		C5.668,7.608,5.376,7.523,5.056,7.478C4.736,7.435,4.42,7.412,4.108,7.412c-0.344,0-0.686,0.034-1.026,0.103
		c-0.34,0.067-0.646,0.182-0.918,0.342c-0.272,0.16-0.496,0.372-0.672,0.636c-0.176,0.264-0.276,0.596-0.3,0.996h1.704
		c0.032-0.336,0.144-0.576,0.336-0.72c0.192-0.145,0.456-0.217,0.792-0.217c0.152,0,0.294,0.011,0.426,0.03
		c0.132,0.021,0.248,0.061,0.348,0.12c0.1,0.059,0.18,0.144,0.24,0.252c0.06,0.108,0.09,0.254,0.09,0.439
		c0.008,0.176-0.044,0.31-0.156,0.401c-0.112,0.093-0.264,0.162-0.456,0.21c-0.192,0.048-0.412,0.084-0.66,0.108
		c-0.249,0.024-0.5,0.056-0.756,0.096c-0.256,0.04-0.51,0.095-0.762,0.162c-0.252,0.068-0.476,0.17-0.672,0.306
		c-0.196,0.137-0.356,0.318-0.48,0.547C1.062,11.45,1,11.74,1,12.092c0,0.32,0.054,0.597,0.162,0.828
		c0.108,0.233,0.258,0.425,0.45,0.576c0.192,0.152,0.416,0.264,0.672,0.336c0.256,0.072,0.532,0.108,0.828,0.108
		c0.384,0,0.76-0.057,1.128-0.168c0.368-0.112,0.688-0.309,0.96-0.588c0.008,0.104,0.022,0.206,0.042,0.306
		c0.02,0.1,0.046,0.198,0.078,0.294h1.728c-0.08-0.128-0.136-0.32-0.168-0.576C6.848,12.952,6.832,12.685,6.832,12.404z
		 M5.128,11.384c0,0.097-0.01,0.225-0.03,0.385c-0.02,0.16-0.074,0.317-0.162,0.474c-0.088,0.156-0.224,0.29-0.408,0.402
		c-0.184,0.111-0.444,0.168-0.78,0.168c-0.136,0-0.268-0.013-0.396-0.036c-0.128-0.024-0.24-0.066-0.336-0.126
		c-0.096-0.061-0.172-0.143-0.228-0.246c-0.056-0.103-0.084-0.232-0.084-0.384c0-0.16,0.028-0.292,0.084-0.397
		c0.056-0.103,0.13-0.189,0.222-0.258c0.092-0.068,0.2-0.122,0.324-0.162c0.124-0.04,0.25-0.072,0.378-0.096
		c0.136-0.024,0.272-0.044,0.408-0.061c0.136-0.016,0.266-0.036,0.39-0.06c0.124-0.024,0.24-0.054,0.348-0.09
		c0.108-0.036,0.198-0.086,0.27-0.15V11.384z"/>
	<path d="M9.772,12.992h0.024c0.184,0.344,0.456,0.588,0.816,0.732c0.36,0.144,0.768,0.216,1.224,0.216
		c0.312,0,0.62-0.064,0.924-0.192c0.304-0.128,0.578-0.324,0.822-0.588c0.244-0.264,0.442-0.602,0.594-1.014
		c0.152-0.412,0.228-0.902,0.228-1.471c0-0.567-0.076-1.058-0.228-1.47c-0.152-0.412-0.35-0.75-0.594-1.014
		c-0.244-0.265-0.518-0.46-0.822-0.588c-0.304-0.128-0.612-0.192-0.924-0.192c-0.384,0-0.754,0.074-1.11,0.222
		C10.37,7.782,10.088,8.017,9.88,8.336H9.856v-3.12H8.152v8.568h1.62V12.992z M9.88,9.933c0.056-0.24,0.144-0.452,0.264-0.637
		c0.12-0.184,0.272-0.33,0.456-0.438c0.184-0.108,0.4-0.162,0.648-0.162c0.256,0,0.474,0.054,0.654,0.162
		c0.18,0.107,0.33,0.254,0.45,0.438c0.12,0.185,0.208,0.396,0.264,0.637c0.056,0.239,0.084,0.491,0.084,0.756
		c0,0.256-0.028,0.504-0.084,0.744c-0.056,0.239-0.144,0.451-0.264,0.636c-0.12,0.184-0.27,0.33-0.45,0.438
		c-0.18,0.108-0.398,0.162-0.654,0.162c-0.248,0-0.464-0.054-0.648-0.162c-0.184-0.107-0.336-0.254-0.456-0.438
		c-0.12-0.185-0.209-0.397-0.264-0.636c-0.056-0.24-0.084-0.488-0.084-0.744C9.796,10.424,9.824,10.172,9.88,9.933z"/>
	<path d="M16.156,13.052c0.272,0.28,0.602,0.498,0.99,0.654c0.388,0.156,0.814,0.234,1.278,0.234c0.824,0,1.5-0.216,2.028-0.649
		c0.528-0.432,0.848-1.06,0.96-1.884h-1.644c-0.056,0.384-0.194,0.69-0.414,0.918c-0.22,0.228-0.534,0.342-0.942,0.342
		c-0.264,0-0.488-0.06-0.672-0.18c-0.184-0.12-0.33-0.274-0.438-0.462c-0.108-0.188-0.186-0.398-0.234-0.63
		c-0.048-0.232-0.072-0.46-0.072-0.685c0-0.231,0.024-0.466,0.072-0.702c0.048-0.235,0.13-0.451,0.246-0.648
		c0.116-0.196,0.266-0.356,0.45-0.48c0.184-0.124,0.412-0.186,0.684-0.186c0.728,0,1.148,0.356,1.26,1.068h1.668
		c-0.024-0.4-0.12-0.746-0.288-1.038c-0.168-0.292-0.386-0.536-0.654-0.732c-0.268-0.196-0.572-0.342-0.912-0.438
		c-0.34-0.097-0.694-0.145-1.062-0.145c-0.504,0-0.952,0.084-1.344,0.252c-0.392,0.168-0.724,0.402-0.996,0.702
		c-0.272,0.3-0.479,0.656-0.618,1.068c-0.14,0.412-0.21,0.857-0.21,1.338c0,0.464,0.076,0.89,0.228,1.277
		C15.672,12.439,15.884,12.773,16.156,13.052z"/>
	<polygon points="28,9.784 17,20.784 12,15.784 9,18.784 17,26.784 31,12.784 	"/>
</g>
</svg>
