<svg xmlns="http://www.w3.org/2000/svg" viewBox="0 0 32 32"><path d="M6.832 12.404V9.176c0-.376-.084-.678-.252-.905-.168-.228-.384-.406-.648-.534s-.556-.213-.876-.258c-.32-.043-.636-.066-.948-.066-.344 0-.686.034-1.026.103-.34.067-.646.182-.918.342-.272.16-.496.372-.672.636-.176.264-.276.596-.3.996h1.704c.032-.337.144-.577.336-.72.192-.146.456-.218.792-.218.152 0 .294.01.426.03.132.02.248.06.348.12.1.06.18.144.24.252.06.108.09.254.09.44.008.175-.044.31-.156.4-.112.093-.264.162-.456.21-.192.048-.412.084-.66.108-.25.024-.5.056-.756.096s-.51.095-.762.162c-.252.068-.476.17-.672.306-.196.137-.356.318-.48.547-.124.227-.186.517-.186.87 0 .32.054.596.162.827.108.233.258.425.45.576.192.152.416.264.672.336.256.072.532.108.828.108.384 0 .76-.057 1.128-.168.368-.112.688-.31.96-.588.008.104.022.206.042.306.02.1.046.198.078.294h1.728c-.08-.128-.136-.32-.168-.576-.032-.256-.048-.523-.048-.804zm-1.704-1.02c0 .097-.01.225-.03.385-.02.16-.074.316-.162.473-.088.156-.224.29-.408.402-.184.11-.444.168-.78.168-.136 0-.268-.013-.396-.036-.128-.024-.24-.066-.336-.126-.096-.06-.172-.142-.228-.245-.056-.103-.084-.232-.084-.384 0-.16.028-.29.084-.396.056-.103.13-.19.222-.258s.2-.122.324-.162c.124-.04.25-.072.378-.096.136-.024.272-.044.408-.06.136-.017.266-.037.39-.06.124-.025.24-.055.348-.09.108-.037.198-.087.27-.15v.636zM9.772 12.992h.024c.184.344.456.588.816.732.36.144.768.216 1.224.216.312 0 .62-.064.924-.192.304-.128.578-.324.822-.588.244-.264.442-.602.594-1.014.152-.412.228-.902.228-1.47s-.076-1.06-.228-1.47c-.152-.413-.35-.75-.594-1.015-.244-.264-.518-.46-.822-.587-.304-.128-.612-.192-.924-.192-.384 0-.754.075-1.11.223-.356.15-.638.384-.846.703h-.024v-3.12H8.152v8.568h1.62v-.792zm.108-3.06c.056-.24.144-.45.264-.636.12-.184.272-.33.456-.438.184-.108.4-.162.648-.162.256 0 .474.054.654.162.18.107.33.254.45.438.12.185.208.396.264.637.056.24.084.49.084.756 0 .255-.028.503-.084.743-.056.24-.144.45-.264.636-.12.183-.27.33-.45.437-.18.108-.398.162-.654.162-.248 0-.464-.055-.648-.163-.184-.107-.336-.254-.456-.438-.12-.186-.21-.398-.264-.637-.056-.24-.084-.488-.084-.744 0-.266.028-.518.084-.757zM16.156 13.052c.272.28.602.498.99.654.388.156.814.234 1.278.234.824 0 1.5-.216 2.028-.65.528-.43.848-1.06.96-1.883h-1.644c-.056.384-.194.69-.414.918-.22.228-.534.342-.942.342-.264 0-.488-.06-.672-.18-.184-.12-.33-.274-.438-.462-.108-.188-.186-.398-.234-.63-.048-.232-.072-.46-.072-.685 0-.23.024-.466.072-.702.048-.235.13-.45.246-.648.116-.196.266-.356.45-.48s.412-.186.684-.186c.728 0 1.148.356 1.26 1.068h1.668c-.024-.4-.12-.746-.288-1.038-.168-.292-.386-.536-.654-.732-.268-.196-.572-.342-.912-.438-.34-.097-.694-.145-1.062-.145-.504 0-.952.083-1.344.25-.392.17-.724.403-.996.703-.272.3-.48.656-.618 1.068-.14.413-.21.858-.21 1.34 0 .463.076.89.228 1.276.152.393.364.727.636 1.006z"/><path d="M28 9.784l-11 11-5-5-3 3 8 8 14-14"/></svg>