<svg xmlns="http://www.w3.org/2000/svg" viewBox="0 0 128 128"><path d="M27.328 49.616V36.704c0-1.504-.336-2.712-1.008-3.624-.673-.912-1.536-1.624-2.593-2.136-1.056-.512-2.225-.856-3.504-1.032-1.28-.175-2.544-.264-3.792-.264-1.375 0-2.743.136-4.102.408-1.36.272-2.585.73-3.672 1.368-1.09.64-1.985 1.488-2.688 2.544-.704 1.056-1.103 2.384-1.2 3.984h6.816c.127-1.344.576-2.304 1.344-2.88.77-.576 1.824-.864 3.168-.864.607 0 1.176.04 1.704.12.528.08.99.24 1.392.48.4.24.72.576.96 1.008.24.432.36 1.016.36 1.752.03.704-.176 1.24-.624 1.608-.448.368-1.056.648-1.824.84-.768.192-1.648.336-2.64.432-.992.096-2 .224-3.024.384s-2.04.376-3.048.648-1.904.68-2.688 1.224c-.785.544-1.425 1.272-1.92 2.184C4.247 45.8 4 46.96 4 48.368c0 1.28.216 2.384.647 3.312.433.93 1.032 1.697 1.8 2.304.77.608 1.664 1.056 2.688 1.344 1.024.288 2.128.432 3.312.432 1.535 0 3.04-.224 4.512-.672 1.47-.448 2.75-1.23 3.84-2.352.03.416.087.824.167 1.224.08.4.184.792.312 1.176h6.91c-.32-.512-.544-1.28-.672-2.304-.126-1.023-.19-2.095-.19-3.216zm-6.816-4.08c0 .384-.04.896-.12 1.536-.08.64-.296 1.272-.648 1.896-.352.624-.896 1.16-1.632 1.608-.737.45-1.776.672-3.12.672-.545 0-1.073-.048-1.584-.144-.513-.096-.96-.264-1.345-.504-.384-.24-.688-.567-.91-.984-.226-.416-.338-.928-.338-1.536 0-.64.112-1.167.337-1.584.223-.416.52-.76.888-1.032.367-.272.8-.488 1.296-.648.496-.16 1-.288 1.512-.384.544-.096 1.088-.175 1.632-.24.544-.064 1.064-.144 1.56-.24s.96-.216 1.393-.36c.433-.144.792-.344 1.08-.6v2.544zM39.088 51.968h.096c.735 1.376 1.824 2.352 3.264 2.928 1.44.576 3.072.864 4.896.864 1.248 0 2.48-.256 3.696-.768 1.216-.51 2.312-1.296 3.287-2.352.977-1.056 1.77-2.407 2.377-4.056.607-1.648.91-3.608.91-5.88 0-2.27-.303-4.232-.91-5.88-.608-1.648-1.4-3-2.377-4.056-.975-1.056-2.07-1.84-3.287-2.352-1.217-.51-2.448-.768-3.696-.768-1.536 0-3.017.296-4.44.888-1.424.593-2.552 1.53-3.384 2.808h-.096v-12.48h-6.816v34.272h6.48v-3.168zm.43-12.24c.225-.96.577-1.807 1.057-2.544.48-.736 1.088-1.32 1.824-1.752.735-.432 1.6-.648 2.59-.648 1.025 0 1.897.216 2.617.648.72.432 1.32 1.016 1.8 1.752.48.737.832 1.584 1.057 2.544.224.96.336 1.968.336 3.024 0 1.024-.112 2.016-.336 2.976-.225.96-.576 1.81-1.057 2.544-.48.736-1.08 1.32-1.8 1.752-.72.432-1.592.648-2.616.648-.99 0-1.854-.216-2.59-.648-.737-.432-1.345-1.016-1.825-1.752s-.832-1.584-1.056-2.544c-.226-.96-.337-1.95-.337-2.976 0-1.056.112-2.064.336-3.024zM64.623 52.208c1.087 1.12 2.407 1.992 3.96 2.616 1.552.624 3.256.936 5.11.936 3.297 0 6-.864 8.113-2.592 2.112-1.728 3.392-4.24 3.84-7.536H79.07c-.224 1.536-.775 2.76-1.655 3.672-.88.912-2.137 1.368-3.77 1.368-1.055 0-1.95-.24-2.686-.72-.737-.48-1.32-1.096-1.753-1.848-.433-.75-.744-1.59-.937-2.52-.19-.928-.288-1.84-.288-2.736 0-.928.097-1.864.288-2.808.192-.943.52-1.807.984-2.592.464-.784 1.063-1.423 1.8-1.92.735-.496 1.647-.744 2.736-.744 2.91 0 4.59 1.424 5.04 4.272h6.672c-.096-1.6-.48-2.983-1.152-4.152-.672-1.168-1.544-2.144-2.616-2.928-1.072-.784-2.288-1.368-3.647-1.752-1.36-.384-2.776-.576-4.248-.576-2.017 0-3.81.336-5.377 1.008-1.568.672-2.896 1.608-3.984 2.808-1.09 1.2-1.913 2.624-2.473 4.272-.56 1.648-.84 3.432-.84 5.352 0 1.856.304 3.56.912 5.112.606 1.553 1.454 2.888 2.543 4.008z"/><path d="M112 39.136l-44 44-20-20-12 12 32 32 56-56"/></svg>