<svg xmlns="http://www.w3.org/2000/svg" viewBox="0 0 64 64"><path d="M13.664 24.808v-6.456c0-.752-.168-1.356-.504-1.812-.336-.456-.768-.812-1.296-1.068-.528-.255-1.112-.428-1.752-.516-.64-.088-1.27-.132-1.896-.132-.688 0-1.372.068-2.053.204-.68.136-1.292.364-1.836.684-.544.32-.992.744-1.344 1.272-.353.528-.552 1.192-.6 1.992H5.79c.064-.672.288-1.152.673-1.44.384-.288.91-.432 1.584-.432.304 0 .588.02.852.06.263.04.495.12.695.24.2.12.36.288.48.504.12.216.18.508.18.876.016.353-.09.62-.312.804-.225.184-.528.324-.912.42-.383.096-.823.168-1.318.216-.497.048-1 .112-1.513.192-.513.08-1.02.188-1.524.324s-.952.34-1.345.612c-.39.272-.71.636-.96 1.092-.246.456-.37 1.036-.37 1.74 0 .64.108 1.192.324 1.656.216.464.517.848.9 1.152.384.304.832.528 1.344.672.512.144 1.063.216 1.656.216.768 0 1.52-.112 2.256-.336.735-.224 1.376-.616 1.92-1.176.016.208.044.412.084.612.04.2.092.396.156.588h3.456c-.16-.256-.273-.64-.336-1.152-.064-.512-.096-1.048-.096-1.608zm-3.407-2.04c0 .192-.02.448-.06.768-.04.32-.15.636-.325.948s-.448.58-.816.804c-.368.224-.89.336-1.56.336-.272 0-.536-.024-.792-.072-.256-.048-.48-.132-.672-.252-.19-.12-.344-.284-.456-.492s-.168-.464-.168-.768c0-.32.056-.584.168-.792s.26-.38.444-.516.4-.244.648-.324c.248-.08.5-.144.757-.192.272-.048.543-.088.815-.12.273-.032.532-.072.78-.12s.48-.108.696-.18c.216-.072.396-.172.54-.3v1.272zM19.544 25.984h.048c.368.688.912 1.176 1.632 1.464.72.288 1.536.432 2.448.432.624 0 1.24-.128 1.848-.384.608-.256 1.156-.648 1.645-1.176.487-.528.884-1.204 1.188-2.028.304-.824.456-1.804.456-2.94s-.153-2.116-.457-2.94c-.304-.824-.7-1.5-1.188-2.028s-1.036-.92-1.645-1.176c-.608-.256-1.224-.384-1.848-.384-.768 0-1.51.148-2.22.444-.713.296-1.276.764-1.692 1.404h-.048v-6.24h-3.408v17.136h3.24v-1.584zm.216-6.12c.11-.48.288-.904.528-1.272.24-.368.544-.66.912-.876.367-.216.8-.324 1.296-.324.512 0 .947.108 1.308.324.36.216.66.508.9.876s.416.792.527 1.272c.113.48.17.984.17 1.512 0 .512-.057 1.008-.17 1.488-.11.48-.287.904-.526 1.272-.24.368-.54.66-.9.876-.36.216-.796.324-1.308.324-.496 0-.93-.108-1.296-.324-.368-.216-.673-.508-.912-.876-.24-.368-.417-.792-.528-1.272-.112-.48-.168-.976-.168-1.488 0-.528.055-1.032.168-1.512zM32.31 26.104c.545.56 1.205.996 1.982 1.308.775.312 1.628.468 2.556.468 1.648 0 3-.432 4.057-1.296 1.056-.864 1.695-2.12 1.92-3.768h-3.288c-.112.768-.39 1.38-.828 1.836-.44.456-1.07.684-1.885.684-.528 0-.977-.12-1.345-.36s-.66-.548-.876-.924c-.216-.375-.372-.795-.468-1.26-.096-.464-.144-.92-.144-1.368 0-.464.048-.932.144-1.404.096-.472.26-.904.492-1.296.23-.392.53-.712.9-.96.367-.248.823-.372 1.367-.372 1.456 0 2.296.712 2.52 2.136h3.337c-.048-.8-.24-1.492-.576-2.076-.336-.583-.773-1.072-1.308-1.464-.536-.392-1.145-.684-1.824-.876-.68-.192-1.39-.288-2.124-.288-1.008 0-1.904.168-2.688.504-.784.336-1.448.804-1.99 1.404-.546.6-.958 1.312-1.237 2.136-.28.824-.42 1.716-.42 2.676 0 .928.15 1.78.456 2.556.304.776.728 1.444 1.27 2.004z"/><path d="M56 19.568l-22 22-10-10-6 6 16 16 28-28"/></svg>