<?xml version="1.0" encoding="utf-8"?>
<!-- Generator: Adobe Illustrator 19.1.0, SVG Export Plug-In . SVG Version: 6.00 Build 0)  -->
<svg version="1.1" id="Icon" xmlns="http://www.w3.org/2000/svg" xmlns:xlink="http://www.w3.org/1999/xlink" x="0px" y="0px"
	 width="24px" height="24px" viewBox="0 0 24 24" enable-background="new 0 0 24 24" xml:space="preserve">
<path d="M2,2v20h20V2H2z M8,20H4v-4h4V20z M8,14H4v-4h4V14z M8,8H4V4h4V8z M14,20h-4v-4h4V20z M14,14h-4v-4h4V14z M14,8h-4V4h4V8z
	 M20,20h-4v-4h4V20z M20,14h-4v-4h4V14z M20,8h-4V4h4V8z"/>
</svg>
