<?xml version="1.0" encoding="utf-8"?>
<!-- Generator: Adobe Illustrator 17.1.0, SVG Export Plug-In . SVG Version: 6.00 Build 0)  -->
<!DOCTYPE svg PUBLIC "-//W3C//DTD SVG 1.1//EN" "http://www.w3.org/Graphics/SVG/1.1/DTD/svg11.dtd">
<svg version="1.1" id="Layer_1" xmlns="http://www.w3.org/2000/svg" xmlns:xlink="http://www.w3.org/1999/xlink" x="0px" y="0px"
	 width="128px" height="128px" viewBox="0 0 128 128" enable-background="new 0 0 128 128" xml:space="preserve">
<g>
	<path d="M51.862,30C50.875,22.11,44.157,16,36,16s-14.875,6.11-15.862,14H4v4h16.138C21.125,41.89,27.843,48,36,48
		s14.875-6.11,15.862-14H124v-4H51.862z M36,36c-2.209,0-4-1.791-4-4s1.791-4,4-4s4,1.791,4,4S38.209,36,36,36z"/>
	<path d="M92,48c-8.157,0-14.876,6.11-15.862,14H4v4h72.138C77.124,73.89,83.843,80,92,80s14.876-6.11,15.862-14H124v-4h-16.138
		C106.876,54.11,100.157,48,92,48z M92,68c-2.209,0-4-1.791-4-4s1.791-4,4-4s4,1.791,4,4S94.209,68,92,68z"/>
	<path d="M36,80c-8.157,0-14.875,6.11-15.862,14H4v4h16.138c0.986,7.89,7.705,14,15.862,14s14.875-6.11,15.862-14H124v-4H51.862
		C50.875,86.11,44.157,80,36,80z M36,100c-2.209,0-4-1.791-4-4s1.791-4,4-4s4,1.791,4,4S38.209,100,36,100z"/>
</g>
</svg>
