<?xml version="1.0" encoding="utf-8"?>
<!-- Generator: Adobe Illustrator 17.1.0, SVG Export Plug-In . SVG Version: 6.00 Build 0)  -->
<!DOCTYPE svg PUBLIC "-//W3C//DTD SVG 1.1//EN" "http://www.w3.org/Graphics/SVG/1.1/DTD/svg11.dtd">
<svg version="1.1" id="Layer_1" xmlns="http://www.w3.org/2000/svg" xmlns:xlink="http://www.w3.org/1999/xlink" x="0px" y="0px"
	 width="128px" height="128px" viewBox="0 0 128 128" enable-background="new 0 0 128 128" xml:space="preserve">
<path d="M124,60h-8.169C113.887,34.478,93.524,14.113,68,12.168V4h-8v8.168C34.476,14.113,14.113,34.478,12.168,60H4v8h8.168
	C14.113,93.522,34.476,113.887,60,115.831V124h8v-8.169c25.524-1.944,45.887-22.309,47.831-47.831H124V60z M107.81,60H95.742
	C93.935,45.531,82.471,34.064,68,32.258V20.19C89.075,22.099,105.901,38.925,107.81,60z M91.71,68
	C89.95,80.244,80.244,89.95,68,91.71V76h-8v15.71C47.756,89.95,38.05,80.244,36.29,68H52v-8H36.29
	C38.05,47.756,47.756,38.05,60,36.29V52h8V36.29C80.244,38.05,89.95,47.756,91.71,60H76v8H91.71z M60,20.19v12.068
	C45.529,34.064,34.064,45.531,32.258,60H20.19C22.099,38.925,38.925,22.099,60,20.19z M20.19,68h12.068
	C34.064,82.469,45.529,93.936,60,95.742v12.068C38.925,105.901,22.099,89.075,20.19,68z M68,107.81V95.742
	C82.471,93.936,93.935,82.469,95.742,68h12.068C105.901,89.075,89.075,105.901,68,107.81z"/>
</svg>
