<?xml version="1.0" encoding="utf-8"?>
<!-- Generator: Adobe Illustrator 17.1.0, SVG Export Plug-In . SVG Version: 6.00 Build 0)  -->
<!DOCTYPE svg PUBLIC "-//W3C//DTD SVG 1.1//EN" "http://www.w3.org/Graphics/SVG/1.1/DTD/svg11.dtd">
<svg version="1.1" id="Layer_1" xmlns="http://www.w3.org/2000/svg" xmlns:xlink="http://www.w3.org/1999/xlink" x="0px" y="0px"
	 width="64px" height="64px" viewBox="0 0 64 64" enable-background="new 0 0 64 64" xml:space="preserve">
<path d="M62,30h-4.084C56.944,17.239,46.762,7.056,34,6.084V2h-4v4.084C17.238,7.056,7.056,17.239,6.084,30H2v4h4.084
	C7.056,46.761,17.238,56.944,30,57.916V62h4v-4.084C46.762,56.944,56.944,46.761,57.916,34H62V30z M53.905,30h-6.043
	C46.957,22.768,41.233,17.043,34,16.138v-6.044C44.537,11.05,52.95,19.463,53.905,30z M45.84,34
	C44.959,40.118,40.118,44.959,34,45.84V38h-4v7.84C23.882,44.959,19.041,40.118,18.16,34H26v-4h-7.84
	c0.881-6.118,5.722-10.959,11.84-11.84V26h4v-7.84c6.118,0.881,10.959,5.722,11.84,11.84H38v4H45.84z M30,10.095v6.044
	C22.767,17.043,17.043,22.768,16.138,30h-6.044C11.05,19.463,19.463,11.05,30,10.095z M10.095,34h6.044
	C17.043,41.232,22.767,46.957,30,47.862v6.043C19.463,52.95,11.05,44.537,10.095,34z M34,53.905v-6.043
	c7.233-0.905,12.957-6.63,13.862-13.862h6.043C52.95,44.537,44.537,52.95,34,53.905z"/>
</svg>
