<?xml version="1.0" encoding="utf-8"?>
<!-- Generator: Adobe Illustrator 17.1.0, SVG Export Plug-In . SVG Version: 6.00 Build 0)  -->
<!DOCTYPE svg PUBLIC "-//W3C//DTD SVG 1.1//EN" "http://www.w3.org/Graphics/SVG/1.1/DTD/svg11.dtd">
<svg version="1.1" id="Layer_1" xmlns="http://www.w3.org/2000/svg" xmlns:xlink="http://www.w3.org/1999/xlink" x="0px" y="0px"
	 width="64px" height="64px" viewBox="0 0 64 64" enable-background="new 0 0 64 64" xml:space="preserve">
<path d="M62,2H2v8l24,24v28l12-12v-6.72c1.466,1.665,3.607,2.72,6,2.72c4.42,0,8-3.58,8-8s-3.58-8-8-8
	c-0.819,0-1.609,0.124-2.353,0.353L62,10V2z M50,38c0,3.309-2.691,6-6,6c-3.309,0-6-2.691-6-6s2.691-6,6-6
	C47.309,32,50,34.691,50,38z M36.586,32.586L36,33.171V34v15.171l-8,8V34v-0.829l-0.586-0.585L4.829,10h54.343L36.586,32.586z"/>
</svg>
