<?xml version="1.0" encoding="utf-8"?>
<!-- Generator: Adobe Illustrator 17.1.0, SVG Export Plug-In . SVG Version: 6.00 Build 0)  -->
<!DOCTYPE svg PUBLIC "-//W3C//DTD SVG 1.1//EN" "http://www.w3.org/Graphics/SVG/1.1/DTD/svg11.dtd">
<svg version="1.1" id="Layer_1" xmlns="http://www.w3.org/2000/svg" xmlns:xlink="http://www.w3.org/1999/xlink" x="0px" y="0px"
	 width="64px" height="64px" viewBox="0 0 64 64" enable-background="new 0 0 64 64" xml:space="preserve">
<g>
	<g>
		<path d="M55,32c0-1.229-0.124-2.427-0.311-3.604L62,22l-6.211-10.195l-8.719,2.848c-2.084-1.812-4.496-3.246-7.138-4.219L38,2H26
			l-1.933,8.434c-2.642,0.973-5.055,2.406-7.14,4.22l-8.718-2.85L2,22l7.31,6.397C9.124,29.574,9,30.771,9,32
			c0,1.229,0.124,2.427,0.31,3.604L2,42l6.212,10.195l8.716-2.849c2.085,1.813,4.498,3.247,7.14,4.22L26,62h12l1.933-8.434
			c2.642-0.973,5.054-2.406,7.138-4.219l8.718,2.849L62,42l-7.311-6.395C54.876,34.428,55,33.229,55,32z M59.416,42.397
			l-4.512,7.406l-7.213-2.356l-1.078-0.353l-0.855,0.744c-1.921,1.671-4.113,2.966-6.516,3.851l-1.017,0.375l-0.242,1.056L36.406,60
			h-8.812l-1.577-6.88l-0.242-1.056l-1.017-0.375c-2.404-0.885-4.597-2.181-6.518-3.852l-0.855-0.744l-1.078,0.353l-7.211,2.356
			l-4.512-7.406l6.043-5.288l0.83-0.727l-0.172-1.09C11.093,34.075,11,32.998,11,32c0-0.998,0.093-2.074,0.285-3.291l0.172-1.09
			l-0.83-0.727l-6.043-5.29l4.511-7.406l7.212,2.357l1.078,0.353l0.855-0.745c1.921-1.67,4.114-2.966,6.518-3.852l1.017-0.375
			l0.242-1.056L27.594,4h8.812l1.577,6.88l0.242,1.056l1.017,0.375c2.403,0.885,4.595,2.18,6.516,3.851l0.855,0.744l1.078-0.352
			l7.213-2.356l4.511,7.406l-6.043,5.287l-0.832,0.728l0.173,1.091C52.906,29.923,53,31,53,32c0,1.001-0.094,2.078-0.286,3.292
			l-0.173,1.091l0.832,0.727L59.416,42.397z"/>
	</g>
	<g>
		<path d="M32,20c-6.629,0-12,5.369-12,12s5.371,12,12,12c6.631,0,12-5.369,12-12S38.631,20,32,20z M32,36c-2.207,0-4-1.791-4-4
			s1.793-4,4-4s4,1.791,4,4S34.207,36,32,36z"/>
	</g>
</g>
</svg>
