<?xml version="1.0" encoding="utf-8"?>
<!-- Generator: Adobe Illustrator 17.1.0, SVG Export Plug-In . SVG Version: 6.00 Build 0)  -->
<!DOCTYPE svg PUBLIC "-//W3C//DTD SVG 1.1//EN" "http://www.w3.org/Graphics/SVG/1.1/DTD/svg11.dtd">
<svg version="1.1" id="Layer_1" xmlns="http://www.w3.org/2000/svg" xmlns:xlink="http://www.w3.org/1999/xlink" x="0px" y="0px"
	 width="64px" height="64px" viewBox="0 0 64 64" enable-background="new 0 0 64 64" xml:space="preserve">
<g>
	<g>
		<path d="M2,8v8v40h60V16V8H2z M60,54H4V18h56V54z"/>
	</g>
	<g>
		<path d="M32,48c8.969,0,15.801-4.835,20-12c-4.199-7.165-11.031-12-20-12c-8.969,0-15.801,4.835-20,12
			C16.199,43.165,23.031,48,32,48z M32,26c7.253,0,13.48,3.54,17.652,10C45.48,42.46,39.253,46,32,46s-13.48-3.54-17.652-10
			C18.52,29.54,24.747,26,32,26z"/>
	</g>
	<g>
		<path d="M32,43c3.867,0,7-3.133,7-7s-3.133-7-7-7c-3.863,0-7,3.133-7,7S28.137,43,32,43z M32,33.666
			c1.293,0,2.332,1.045,2.332,2.334S33.293,38.334,32,38.334S29.668,37.289,29.668,36S30.707,33.666,32,33.666z"/>
	</g>
</g>
</svg>
