<?xml version="1.0" encoding="utf-8"?>
<!-- Generator: Adobe Illustrator 17.1.0, SVG Export Plug-In . SVG Version: 6.00 Build 0)  -->
<!DOCTYPE svg PUBLIC "-//W3C//DTD SVG 1.1//EN" "http://www.w3.org/Graphics/SVG/1.1/DTD/svg11.dtd">
<svg version="1.1" id="Layer_1" xmlns="http://www.w3.org/2000/svg" xmlns:xlink="http://www.w3.org/1999/xlink" x="0px" y="0px"
	 width="128px" height="128px" viewBox="0 0 128 128" enable-background="new 0 0 128 128" xml:space="preserve">
<g>
	<g>
		<path d="M4,16v16v80h120V32V16H4z M120,108H8V36h112V108z"/>
	</g>
	<g>
		<path d="M64,96c17.938,0,31.602-9.67,40-24c-8.398-14.33-22.062-24-40-24s-31.602,9.67-40,24C32.398,86.33,46.062,96,64,96z
			 M64,52c14.506,0,26.961,7.08,35.305,20C90.961,84.92,78.506,92,64,92s-26.961-7.08-35.305-20C37.039,59.08,49.494,52,64,52z"/>
	</g>
	<g>
		<path d="M64,86c7.734,0,14-6.266,14-14s-6.266-14-14-14c-7.727,0-14,6.266-14,14S56.273,86,64,86z M64,67.332
			c2.586,0,4.664,2.09,4.664,4.668S66.586,76.668,64,76.668s-4.664-2.09-4.664-4.668S61.414,67.332,64,67.332z"/>
	</g>
</g>
</svg>
