<?xml version="1.0" encoding="utf-8"?>
<!-- Generator: Adobe Illustrator 17.1.0, SVG Export Plug-In . SVG Version: 6.00 Build 0)  -->
<!DOCTYPE svg PUBLIC "-//W3C//DTD SVG 1.1//EN" "http://www.w3.org/Graphics/SVG/1.1/DTD/svg11.dtd">
<svg version="1.1" id="Layer_1" xmlns="http://www.w3.org/2000/svg" xmlns:xlink="http://www.w3.org/1999/xlink" x="0px" y="0px"
	 width="32px" height="32px" viewBox="0 0 32 32" enable-background="new 0 0 32 32" xml:space="preserve">
<g>
	<g>
		<path d="M1,4v4v20h30V8V4H1z M29,26H3V10h26V26z"/>
	</g>
	<g>
		<path d="M16,24c4.484,0,7.9-2.417,10-6c-2.1-3.583-5.516-6-10-6s-7.9,2.417-10,6C8.1,21.583,11.516,24,16,24z M16,13
			c3.627,0,6.74,1.77,8.826,5c-2.086,3.23-5.199,5-8.826,5s-6.74-1.77-8.826-5C9.26,14.77,12.373,13,16,13z"/>
	</g>
	<g>
		<path d="M16,21.5c1.934,0,3.5-1.566,3.5-3.5s-1.566-3.5-3.5-3.5c-1.932,0-3.5,1.566-3.5,3.5S14.068,21.5,16,21.5z M16,16.833
			c0.646,0,1.166,0.522,1.166,1.167s-0.52,1.167-1.166,1.167S14.834,18.645,14.834,18S15.354,16.833,16,16.833z"/>
	</g>
</g>
</svg>
