<?xml version="1.0" encoding="utf-8"?>
<!-- Generator: Adobe Illustrator 17.1.0, SVG Export Plug-In . SVG Version: 6.00 Build 0)  -->
<!DOCTYPE svg PUBLIC "-//W3C//DTD SVG 1.1//EN" "http://www.w3.org/Graphics/SVG/1.1/DTD/svg11.dtd">
<svg version="1.1" id="Layer_1" xmlns="http://www.w3.org/2000/svg" xmlns:xlink="http://www.w3.org/1999/xlink" x="0px" y="0px"
	 width="64px" height="64px" viewBox="0 0 64 64" enable-background="new 0 0 64 64" xml:space="preserve">
<g>
	<polygon points="24,34 24,30 10.828,30 15.414,25.414 12.586,22.586 3.172,32 12.586,41.414 15.414,38.586 10.828,34 	"/>
	<polygon points="51.414,22.586 48.586,25.414 53.172,30 40,30 40,34 53.172,34 48.586,38.586 51.414,41.414 60.828,32 	"/>
	<polygon points="34,53.171 34,40 30,40 30,53.171 25.414,48.586 22.586,51.414 32,60.829 41.414,51.414 38.586,48.586 	"/>
	<polygon points="30,10.829 30,24 34,24 34,10.829 38.586,15.414 41.414,12.586 32,3.171 22.586,12.586 25.414,15.414 	"/>
</g>
</svg>
