<?xml version="1.0" encoding="utf-8"?>
<!-- Generator: Adobe Illustrator 17.1.0, SVG Export Plug-In . SVG Version: 6.00 Build 0)  -->
<!DOCTYPE svg PUBLIC "-//W3C//DTD SVG 1.1//EN" "http://www.w3.org/Graphics/SVG/1.1/DTD/svg11.dtd">
<svg version="1.1" id="Layer_1" xmlns="http://www.w3.org/2000/svg" xmlns:xlink="http://www.w3.org/1999/xlink" x="0px" y="0px"
	 width="32px" height="32px" viewBox="0 0 32 32" enable-background="new 0 0 32 32" xml:space="preserve">
<g>
	<polygon points="12,17 12,15 5.414,15 7.707,12.707 6.293,11.293 1.586,16 6.293,20.707 7.707,19.293 5.414,17 	"/>
	<polygon points="25.707,11.293 24.293,12.707 26.586,15 20,15 20,17 26.586,17 24.293,19.293 25.707,20.707 30.414,16 	"/>
	<polygon points="17,26.586 17,20 15,20 15,26.586 12.707,24.293 11.293,25.707 16,30.414 20.707,25.707 19.293,24.293 	"/>
	<polygon points="15,5.414 15,12 17,12 17,5.414 19.293,7.707 20.707,6.293 16,1.586 11.293,6.293 12.707,7.707 	"/>
</g>
</svg>
