<?xml version="1.0" encoding="utf-8"?>
<!-- Generator: Adobe Illustrator 17.1.0, SVG Export Plug-In . SVG Version: 6.00 Build 0)  -->
<!DOCTYPE svg PUBLIC "-//W3C//DTD SVG 1.1//EN" "http://www.w3.org/Graphics/SVG/1.1/DTD/svg11.dtd">
<svg version="1.1" id="Layer_1" xmlns="http://www.w3.org/2000/svg" xmlns:xlink="http://www.w3.org/1999/xlink" x="0px" y="0px"
	 width="64px" height="64px" viewBox="0 0 64 64" enable-background="new 0 0 64 64" xml:space="preserve">
<path d="M48,18c-3.813,0-7.265,1.528-9.789,4h-2.766c-0.693-1.19-1.969-2-3.445-2s-2.752,0.81-3.445,2h-2.766
	c-2.524-2.472-5.976-4-9.789-4C8.266,18,2,24.271,2,32s6.266,14,14,14s14-6.271,14-14h4c0,7.729,6.266,14,14,14s14-6.271,14-14
	S55.734,18,48,18z M16,42c-5.514,0-10-4.486-10-10s4.486-10,10-10s10,4.486,10,10S21.514,42,16,42z M48,42c-5.514,0-10-4.486-10-10
	s4.486-10,10-10s10,4.486,10,10S53.514,42,48,42z"/>
</svg>
