<?xml version="1.0" encoding="utf-8"?>
<!-- Generator: Adobe Illustrator 17.1.0, SVG Export Plug-In . SVG Version: 6.00 Build 0)  -->
<!DOCTYPE svg PUBLIC "-//W3C//DTD SVG 1.1//EN" "http://www.w3.org/Graphics/SVG/1.1/DTD/svg11.dtd">
<svg version="1.1" id="Layer_1" xmlns="http://www.w3.org/2000/svg" xmlns:xlink="http://www.w3.org/1999/xlink" x="0px" y="0px"
	 width="32px" height="32px" viewBox="0 0 32 32" enable-background="new 0 0 32 32" xml:space="preserve">
<path d="M24,9c-1.906,0-3.632,0.764-4.895,2h-1.383c-0.347-0.595-0.984-1-1.723-1s-1.376,0.405-1.723,1h-1.383
	C11.632,9.764,9.906,9,8,9c-3.867,0-7,3.135-7,7s3.133,7,7,7s7-3.135,7-7h2c0,3.865,3.133,7,7,7s7-3.135,7-7S27.867,9,24,9z M8,21
	c-2.757,0-5-2.243-5-5s2.243-5,5-5s5,2.243,5,5S10.757,21,8,21z M24,21c-2.757,0-5-2.243-5-5s2.243-5,5-5s5,2.243,5,5
	S26.757,21,24,21z"/>
</svg>
