<?xml version="1.0" encoding="utf-8"?>
<!-- Generator: Adobe Illustrator 17.1.0, SVG Export Plug-In . SVG Version: 6.00 Build 0)  -->
<!DOCTYPE svg PUBLIC "-//W3C//DTD SVG 1.1//EN" "http://www.w3.org/Graphics/SVG/1.1/DTD/svg11.dtd">
<svg version="1.1" id="Layer_1" xmlns="http://www.w3.org/2000/svg" xmlns:xlink="http://www.w3.org/1999/xlink" x="0px" y="0px"
	 width="64px" height="64px" viewBox="0 0 64 64" enable-background="new 0 0 64 64" xml:space="preserve">
<path d="M36,14.338V2h-8v12.338C16.648,16.243,8,26.107,8,38c0,13.256,10.742,24,24,24c13.258,0,24-10.744,24-24
	C56,26.107,47.352,16.243,36,14.338z M32,60c-12.131,0-22-9.869-22-22c0-10.765,7.773-19.742,18-21.629V38h8V16.371
	C46.227,18.258,54,27.235,54,38C54,50.131,44.131,60,32,60z"/>
</svg>
