<?xml version="1.0" encoding="utf-8"?>
<!-- Generator: Adobe Illustrator 17.1.0, SVG Export Plug-In . SVG Version: 6.00 Build 0)  -->
<!DOCTYPE svg PUBLIC "-//W3C//DTD SVG 1.1//EN" "http://www.w3.org/Graphics/SVG/1.1/DTD/svg11.dtd">
<svg version="1.1" id="Layer_1" xmlns="http://www.w3.org/2000/svg" xmlns:xlink="http://www.w3.org/1999/xlink" x="0px" y="0px"
	 width="128px" height="128px" viewBox="0 0 128 128" enable-background="new 0 0 128 128" xml:space="preserve">
<path d="M72,28.676V4H56v24.676C33.296,32.485,16,52.215,16,76c0,26.512,21.484,48,48,48c26.516,0,48-21.488,48-48
	C112,52.215,94.704,32.485,72,28.676z M64,120c-24.262,0-44-19.738-44-44c0-21.529,15.546-39.483,36-43.258V76h16V32.742
	C92.454,36.517,108,54.471,108,76C108,100.262,88.262,120,64,120z"/>
</svg>
