<?xml version="1.0" encoding="utf-8"?>
<!-- Generator: Adobe Illustrator 17.1.0, SVG Export Plug-In . SVG Version: 6.00 Build 0)  -->
<!DOCTYPE svg PUBLIC "-//W3C//DTD SVG 1.1//EN" "http://www.w3.org/Graphics/SVG/1.1/DTD/svg11.dtd">
<svg version="1.1" id="Layer_1" xmlns="http://www.w3.org/2000/svg" xmlns:xlink="http://www.w3.org/1999/xlink" x="0px" y="0px"
	 width="64px" height="64px" viewBox="0 0 64 64" enable-background="new 0 0 64 64" xml:space="preserve">
<g>
	<path d="M38,8C24.766,8,14,18.766,14,32v17.172l-8.586-8.586l-2.828,2.828L16,56.828l13.414-13.414l-2.828-2.828L18,49.172V32
		c0-11.027,8.972-20,20-20s20,8.973,20,20s-8.972,20-20,20v4c13.234,0,24-10.766,24-24S51.234,8,38,8z"/>
	<polygon points="40.586,37.414 43.414,34.586 40.121,31.293 50.707,20.707 49.293,19.293 38.707,29.879 33.414,24.586 
		30.586,27.414 35.879,32.707 33.293,35.293 34.707,36.707 37.293,34.121 	"/>
</g>
</svg>
