<?xml version="1.0" encoding="utf-8"?>
<!-- Generator: Adobe Illustrator 17.1.0, SVG Export Plug-In . SVG Version: 6.00 Build 0)  -->
<!DOCTYPE svg PUBLIC "-//W3C//DTD SVG 1.1//EN" "http://www.w3.org/Graphics/SVG/1.1/DTD/svg11.dtd">
<svg version="1.1" id="Layer_1" xmlns="http://www.w3.org/2000/svg" xmlns:xlink="http://www.w3.org/1999/xlink" x="0px" y="0px"
	 width="128px" height="128px" viewBox="0 0 128 128" enable-background="new 0 0 128 128" xml:space="preserve">
<g>
	<path d="M44,44c-11.045,0-20,8.955-20,20s8.955,20,20,20c11.045,0,20-8.955,20-20S55.045,44,44,44z M44,72c-4.418,0-8-3.582-8-8
		s3.582-8,8-8s8,3.582,8,8S48.418,72,44,72z"/>
	<path d="M120.484,27.516C118.312,25.348,115.312,24,112,24H44C21.906,24,4,41.906,4,64c0,22.094,17.906,40,40,40
		c11.057,0,21.063-4.485,28.304-11.735c12.045-11.995,48.181-47.78,48.181-47.78C122.658,42.316,124,39.316,124,36
		S122.658,29.684,120.484,27.516z M44,100C24.149,100,8,83.851,8,64s16.149-36,36-36c19.851,0,36,16.149,36,36S63.851,100,44,100z
		 M81.685,77.307C83.158,73.139,84,68.673,84,64c0-15.867-9.26-29.534-22.65-36h41.723c-1.904,2.124-3.072,4.922-3.072,8
		c0,6.389,4.992,11.594,11.287,11.964C103.958,55.225,91.663,67.406,81.685,77.307z M112,44c-4.415,0-8-3.585-8-8s3.585-8,8-8
		s8,3.585,8,8S116.415,44,112,44z"/>
</g>
</svg>
