<?xml version="1.0" encoding="utf-8"?>
<!-- Generator: Adobe Illustrator 17.1.0, SVG Export Plug-In . SVG Version: 6.00 Build 0)  -->
<!DOCTYPE svg PUBLIC "-//W3C//DTD SVG 1.1//EN" "http://www.w3.org/Graphics/SVG/1.1/DTD/svg11.dtd">
<svg version="1.1" id="Layer_1" xmlns="http://www.w3.org/2000/svg" xmlns:xlink="http://www.w3.org/1999/xlink" x="0px" y="0px"
	 width="128px" height="128px" viewBox="0 0 128 128" enable-background="new 0 0 128 128" xml:space="preserve">
<g>
	<g>
		<path d="M110,64c0-2.459-0.248-4.854-0.621-7.209L124,44l-12.422-20.391l-17.438,5.695c-4.168-3.625-8.992-6.492-14.275-8.438
			L76,4H52l-3.865,16.867c-5.283,1.945-10.109,4.812-14.279,8.439L16.42,23.607L4,44l14.619,12.795C18.248,59.148,18,61.543,18,64
			c0,2.459,0.248,4.854,0.619,7.207L4,84l12.424,20.391l17.432-5.697c4.17,3.627,8.996,6.494,14.279,8.439L52,124h24l3.865-16.867
			c5.283-1.945,10.108-4.812,14.275-8.438l17.436,5.697L124,84l-14.621-12.789C109.752,68.855,110,66.459,110,64z M118.832,84.794
			l-9.024,14.812l-14.425-4.713l-2.156-0.705l-1.711,1.489c-3.841,3.341-8.226,5.932-13.032,7.702l-2.033,0.749l-0.484,2.111
			L72.813,120H55.187l-3.153-13.761l-0.484-2.111l-2.033-0.748c-4.809-1.771-9.194-4.363-13.036-7.704l-1.711-1.489l-2.156,0.705
			l-14.421,4.713L9.167,84.794l12.086-10.576l1.661-1.454l-0.344-2.18C22.187,68.15,22,65.997,22,64c0-1.995,0.187-4.148,0.57-6.582
			l0.344-2.18l-1.661-1.453L9.167,43.207l9.021-14.813l14.424,4.715l2.156,0.705l1.711-1.489c3.842-3.341,8.228-5.933,13.036-7.704
			l2.033-0.748l0.484-2.111L55.187,8h17.626l3.153,13.761l0.484,2.111l2.033,0.748c4.806,1.77,9.191,4.361,13.032,7.702l1.711,1.488
			l2.156-0.704l14.427-4.712l9.023,14.811L106.745,53.78l-1.663,1.455l0.346,2.182C105.813,59.846,106,62,106,64
			c0,2.002-0.187,4.156-0.572,6.585l-0.346,2.182l1.663,1.455L118.832,84.794z"/>
	</g>
	<g>
		<path d="M64,40c-13.258,0-24,10.738-24,24s10.742,24,24,24c13.262,0,24-10.738,24-24S77.262,40,64,40z M64,72
			c-4.414,0-8-3.582-8-8s3.586-8,8-8s8,3.582,8,8S68.414,72,64,72z"/>
	</g>
</g>
</svg>
