<?xml version="1.0" encoding="utf-8"?>
<!-- Generator: Adobe Illustrator 17.1.0, SVG Export Plug-In . SVG Version: 6.00 Build 0)  -->
<!DOCTYPE svg PUBLIC "-//W3C//DTD SVG 1.1//EN" "http://www.w3.org/Graphics/SVG/1.1/DTD/svg11.dtd">
<svg version="1.1" id="Layer_1" xmlns="http://www.w3.org/2000/svg" xmlns:xlink="http://www.w3.org/1999/xlink" x="0px" y="0px"
	 width="32px" height="32px" viewBox="0 0 32 32" enable-background="new 0 0 32 32" xml:space="preserve">
<g>
	<g>
		<path d="M27.5,16c0-0.615-0.062-1.213-0.155-1.802L31,11l-3.105-5.098l-4.359,1.424c-1.042-0.906-2.248-1.623-3.569-2.109L19,1h-6
			l-0.966,4.217c-1.321,0.486-2.527,1.203-3.57,2.11L4.105,5.902L1,11l3.655,3.199C4.562,14.787,4.5,15.386,4.5,16
			c0,0.615,0.062,1.213,0.155,1.802L1,21l3.106,5.098l4.358-1.424c1.042,0.907,2.249,1.624,3.57,2.11L13,31h6l0.966-4.217
			c1.321-0.486,2.527-1.203,3.569-2.109l4.359,1.424L31,21l-3.655-3.197C27.438,17.214,27.5,16.615,27.5,16z M28.416,21.397
			l-1.406,2.308l-2.854-0.932l-1.078-0.352l-0.855,0.744c-0.868,0.755-1.86,1.341-2.947,1.742l-1.017,0.375l-0.242,1.056L17.406,29
			h-2.812l-0.61-2.664l-0.242-1.056l-1.017-0.375c-1.088-0.4-2.08-0.986-2.948-1.742L8.921,22.42l-1.078,0.353L4.99,23.705
			l-1.406-2.308l2.388-2.09l0.83-0.727L6.63,17.49C6.543,16.934,6.5,16.446,6.5,16c0-0.446,0.043-0.934,0.13-1.49l0.172-1.09
			l-0.83-0.727l-2.388-2.091l1.406-2.308l2.854,0.933L8.921,9.58l0.855-0.744c0.869-0.756,1.86-1.342,2.948-1.742l1.017-0.375
			l0.242-1.056L14.594,3h2.812l0.61,2.664l0.242,1.056l1.017,0.375c1.087,0.4,2.079,0.986,2.947,1.742l0.855,0.744l1.078-0.352
			l2.854-0.933l1.406,2.308l-2.388,2.089l-0.831,0.727l0.173,1.091C25.457,15.066,25.5,15.553,25.5,16s-0.043,0.935-0.131,1.49
			l-0.173,1.091l0.831,0.727L28.416,21.397z"/>
	</g>
	<g>
		<path d="M16,10c-3.314,0-6,2.685-6,6s2.686,6,6,6c3.315,0,6-2.685,6-6S19.315,10,16,10z M16,18c-1.104,0-2-0.896-2-2s0.896-2,2-2
			s2,0.896,2,2S17.104,18,16,18z"/>
	</g>
</g>
</svg>
