<?xml version="1.0" encoding="utf-8"?>
<!-- Generator: Adobe Illustrator 17.1.0, SVG Export Plug-In . SVG Version: 6.00 Build 0)  -->
<!DOCTYPE svg PUBLIC "-//W3C//DTD SVG 1.1//EN" "http://www.w3.org/Graphics/SVG/1.1/DTD/svg11.dtd">
<svg version="1.1" id="Layer_1" xmlns="http://www.w3.org/2000/svg" xmlns:xlink="http://www.w3.org/1999/xlink" x="0px" y="0px"
	 width="32px" height="32px" viewBox="0 0 32 32" enable-background="new 0 0 32 32" xml:space="preserve">
<g>
	<path d="M16,11c-3.314,0-6,2.685-6,6s2.686,6,6,6c3.315,0,6-2.685,6-6S19.315,11,16,11z M16,19c-1.106,0-2-0.895-2-2s0.894-2,2-2
		s2,0.895,2,2S17.105,19,16,19z"/>
	<path d="M16,8C9.269,8,4.147,11.625,1,17c3.147,5.375,8.269,9,15,9s11.854-3.625,15-9C27.854,11.625,22.73,8,16,8z M16,24
		c-5.164,0-9.612-2.475-12.642-7c3.029-4.525,7.477-7,12.642-7s9.612,2.475,12.642,7C25.612,21.525,21.164,24,16,24z"/>
</g>
</svg>
