<?xml version="1.0" encoding="iso-8859-1"?>
<!-- Generator: Adobe Illustrator 20.0.0, SVG Export Plug-In . SVG Version: 6.00 Build 0)  -->
<svg version="1.1" id="Layer_1" xmlns="http://www.w3.org/2000/svg" xmlns:xlink="http://www.w3.org/1999/xlink" x="0px" y="0px"
	 viewBox="0 0 32 32" style="enable-background:new 0 0 32 32;" xml:space="preserve">
<g>
	<polygon points="17,9 15,9 15,15 9,15 9,17 15,17 15,23 17,23 17,17 23,17 23,15 17,15 	"/>
	<path d="M16,2C8.269,2,2,8.269,2,16s6.269,14,14,14s14-6.269,14-14S23.731,2,16,2z M16,28C9.383,28,4,22.617,4,16S9.383,4,16,4
		s12,5.383,12,12S22.617,28,16,28z"/>
</g>
</svg>
