<svg xmlns="http://www.w3.org/2000/svg" viewBox="0 0 64 64"><path d="M25.93 15c-.493-3.945-3.85-7-7.93-7s-7.438 3.055-7.93 7H2v2h8.07c.492 3.945 3.85 7 7.93 7s7.437-3.055 7.93-7H62v-2H25.93zM18 18c-1.104 0-2-.896-2-2s.896-2 2-2 2 .896 2 2-.896 2-2 2zM46 24c-4.08 0-7.438 3.055-7.93 7H2v2h36.07c.492 3.945 3.85 7 7.93 7s7.437-3.055 7.93-7H62v-2h-8.07c-.493-3.945-3.85-7-7.93-7zm0 10c-1.104 0-2-.896-2-2s.896-2 2-2 2 .896 2 2-.896 2-2 2zM18 40c-4.08 0-7.438 3.055-7.93 7H2v2h8.07c.492 3.945 3.85 7 7.93 7s7.437-3.055 7.93-7H62v-2H25.93c-.493-3.945-3.85-7-7.93-7zm0 10c-1.104 0-2-.896-2-2s.896-2 2-2 2 .896 2 2-.896 2-2 2z"/></svg>