<?xml version="1.0" encoding="iso-8859-1"?>
<!-- Generator: Adobe Illustrator 20.0.0, SVG Export Plug-In . SVG Version: 6.00 Build 0)  -->
<svg version="1.1" id="Layer_1" xmlns="http://www.w3.org/2000/svg" xmlns:xlink="http://www.w3.org/1999/xlink" x="0px" y="0px"
	 viewBox="0 0 32 32" style="enable-background:new 0 0 32 32;" xml:space="preserve">
<g>
	<path d="M12.858,7C12.412,5.278,10.861,4,9,4C7.139,4,5.588,5.278,5.142,7H1v2h4.142C5.588,10.722,7.139,12,9,12
		c1.861,0,3.412-1.278,3.858-3H31V7H12.858z M9,9C8.448,9,8,8.552,8,8s0.448-1,1-1c0.552,0,1,0.448,1,1S9.552,9,9,9z"/>
	<path d="M23,12c-1.861,0-3.412,1.278-3.858,3H1v2h18.142c0.446,1.722,1.997,3,3.858,3c1.861,0,3.412-1.278,3.858-3H31v-2h-4.142
		C26.412,13.278,24.861,12,23,12z M23,17c-0.552,0-1-0.448-1-1s0.448-1,1-1c0.552,0,1,0.448,1,1S23.552,17,23,17z"/>
	<path d="M9,20c-1.861,0-3.412,1.278-3.858,3H1v2h4.142C5.588,26.722,7.139,28,9,28c1.861,0,3.412-1.278,3.858-3H31v-2H12.858
		C12.412,21.278,10.861,20,9,20z M9,25c-0.552,0-1-0.448-1-1s0.448-1,1-1c0.552,0,1,0.448,1,1S9.552,25,9,25z"/>
</g>
</svg>
