<svg xmlns="http://www.w3.org/2000/svg" viewBox="0 0 32 32"><path d="M12.858 7C12.412 5.278 10.86 4 9 4 7.14 4 5.588 5.278 5.142 7H1v2h4.142C5.588 10.722 7.14 12 9 12c1.86 0 3.412-1.278 3.858-3H31V7H12.858zM9 9c-.552 0-1-.448-1-1s.448-1 1-1 1 .448 1 1-.448 1-1 1zM23 12c-1.86 0-3.412 1.278-3.858 3H1v2h18.142c.446 1.722 1.997 3 3.858 3 1.86 0 3.412-1.278 3.858-3H31v-2h-4.142c-.446-1.722-1.997-3-3.858-3zm0 5c-.552 0-1-.448-1-1s.448-1 1-1 1 .448 1 1-.448 1-1 1zM9 20c-1.86 0-3.412 1.278-3.858 3H1v2h4.142C5.588 26.722 7.14 28 9 28c1.86 0 3.412-1.278 3.858-3H31v-2H12.858c-.446-1.722-1.997-3-3.858-3zm0 5c-.552 0-1-.448-1-1s.448-1 1-1 1 .448 1 1-.448 1-1 1z"/></svg>