<?xml version="1.0" encoding="iso-8859-1"?>
<!-- Generator: Adobe Illustrator 20.0.0, SVG Export Plug-In . SVG Version: 6.00 Build 0)  -->
<svg version="1.1" id="Layer_1" xmlns="http://www.w3.org/2000/svg" xmlns:xlink="http://www.w3.org/1999/xlink" x="0px" y="0px"
	 viewBox="0 0 64 64" style="enable-background:new 0 0 64 64;" xml:space="preserve">
<g>
	<path d="M25.931,15C25.437,11.055,22.079,8,18,8s-7.438,3.055-7.931,7H2v2h8.069c0.493,3.945,3.852,7,7.931,7s7.437-3.055,7.931-7
		H62v-2H25.931z M18,18c-1.104,0-2-0.896-2-2s0.896-2,2-2s2,0.896,2,2S19.104,18,18,18z"/>
	<path d="M46,24c-4.079,0-7.438,3.055-7.931,7H2v2h36.069c0.493,3.945,3.852,7,7.931,7s7.437-3.055,7.931-7H62v-2h-8.069
		C53.437,27.055,50.079,24,46,24z M46,34c-1.104,0-2-0.896-2-2s0.896-2,2-2s2,0.896,2,2S47.104,34,46,34z"/>
	<path d="M18,40c-4.079,0-7.438,3.055-7.931,7H2v2h8.069c0.493,3.945,3.852,7,7.931,7s7.437-3.055,7.931-7H62v-2H25.931
		C25.437,43.055,22.079,40,18,40z M18,50c-1.104,0-2-0.896-2-2s0.896-2,2-2s2,0.896,2,2S19.104,50,18,50z"/>
</g>
</svg>
