<svg xmlns="http://www.w3.org/2000/svg" viewBox="0 0 128 128"><path d="M51.862 30C50.875 22.11 44.157 16 36 16s-14.876 6.11-15.862 14H4v4h16.138c.986 7.89 7.705 14 15.862 14s14.875-6.11 15.862-14H124v-4H51.862zM36 36c-2.21 0-4-1.79-4-4s1.79-4 4-4 4 1.79 4 4-1.79 4-4 4zM92 48c-8.157 0-14.876 6.11-15.862 14H4v4h72.138c.986 7.89 7.705 14 15.862 14s14.875-6.11 15.862-14H124v-4h-16.138c-.987-7.89-7.705-14-15.862-14zm0 20c-2.21 0-4-1.79-4-4s1.79-4 4-4 4 1.79 4 4-1.79 4-4 4zM36 80c-8.157 0-14.876 6.11-15.862 14H4v4h16.138c.986 7.89 7.705 14 15.862 14s14.875-6.11 15.862-14H124v-4H51.862C50.875 86.11 44.157 80 36 80zm0 20c-2.21 0-4-1.79-4-4s1.79-4 4-4 4 1.79 4 4-1.79 4-4 4z"/></svg>