<?xml version="1.0" encoding="utf-8"?>
<!-- Generator: Adobe Illustrator 17.1.0, SVG Export Plug-In . SVG Version: 6.00 Build 0)  -->
<!DOCTYPE svg PUBLIC "-//W3C//DTD SVG 1.1//EN" "http://www.w3.org/Graphics/SVG/1.1/DTD/svg11.dtd">
<svg version="1.1" id="Layer_1" xmlns="http://www.w3.org/2000/svg" xmlns:xlink="http://www.w3.org/1999/xlink" x="0px" y="0px"
	 width="32px" height="32px" viewBox="0 0 32 32" enable-background="new 0 0 32 32" xml:space="preserve">
<path d="M31,15h-2.051C28.462,8.621,23.379,3.538,17,3.051V1h-2v2.051C8.621,3.538,3.538,8.621,3.051,15H1v2h2.051
	C3.538,23.379,8.621,28.462,15,28.949V31h2v-2.051c6.379-0.487,11.462-5.57,11.949-11.949H31V15z M26.949,15h-3.018
	C23.479,11.384,20.617,8.521,17,8.069V5.051C22.268,5.528,26.472,9.732,26.949,15z M22.92,17c-0.44,3.059-2.861,5.479-5.92,5.92V19
	h-2v3.92c-3.059-0.44-5.479-2.861-5.92-5.92H13v-2H9.08c0.44-3.059,2.861-5.479,5.92-5.92V13h2V9.08
	c3.059,0.44,5.479,2.861,5.92,5.92H19v2H22.92z M15,5.051v3.018C11.383,8.521,8.521,11.384,8.069,15H5.051
	C5.528,9.732,9.732,5.528,15,5.051z M5.051,17h3.018c0.452,3.616,3.314,6.479,6.931,6.931v3.018C9.732,26.472,5.528,22.268,5.051,17
	z M17,26.949v-3.018c3.617-0.452,6.479-3.315,6.931-6.931h3.018C26.472,22.268,22.268,26.472,17,26.949z"/>
</svg>
