<svg xmlns="http://www.w3.org/2000/svg" viewBox="0 0 24 24"><path d="M23 11h-1.05c-.47-4.724-4.226-8.48-8.95-8.95V1h-2v1.05C6.276 2.52 2.52 6.276 2.05 11H1v2h1.05c.47 4.724 4.225 8.48 8.95 8.95V23h2v-1.05c4.724-.47 8.48-4.225 8.95-8.95H23v-2zm-3.07 0h-2.02c-.422-2.51-2.4-4.488-4.91-4.91V4.07c3.612.453 6.477 3.318 6.93 6.93zm-3.03 2c-.4 1.956-1.944 3.5-3.9 3.9V14h-2v2.9c-1.956-.4-3.5-1.944-3.9-3.9H10v-2H7.1c.4-1.956 1.944-3.5 3.9-3.9V10h2V7.1c1.956.4 3.5 1.944 3.9 3.9H14v2h2.9zM11 4.07v2.02c-2.51.422-4.488 2.4-4.91 4.91H4.07C4.522 7.388 7.387 4.523 11 4.07zM4.07 13h2.02c.422 2.51 2.4 4.488 4.91 4.91v2.02c-3.612-.453-6.477-3.318-6.93-6.93zM13 19.93v-2.02c2.51-.422 4.488-2.4 4.91-4.91h2.02c-.453 3.612-3.318 6.477-6.93 6.93z"/></svg>