<?xml version="1.0" encoding="utf-8"?>
<!-- Generator: Adobe Illustrator 19.1.0, SVG Export Plug-In . SVG Version: 6.00 Build 0)  -->
<svg version="1.1" id="Icon" xmlns="http://www.w3.org/2000/svg" xmlns:xlink="http://www.w3.org/1999/xlink" x="0px" y="0px"
	 width="24px" height="24px" viewBox="0 0 24 24" enable-background="new 0 0 24 24" xml:space="preserve">
<path d="M23,11h-1.05C21.48,6.276,17.724,2.52,13,2.05V1h-2v1.05C6.276,2.52,2.52,6.276,2.05,11H1v2h1.05
	c0.469,4.724,4.225,8.48,8.95,8.95V23h2v-1.05c4.724-0.469,8.48-4.225,8.95-8.95H23V11z M19.931,11H17.91
	C17.488,8.489,15.511,6.512,13,6.09V4.069C16.612,4.523,19.477,7.388,19.931,11z M16.899,13C16.5,14.956,14.956,16.5,13,16.899V14
	h-2v2.899C9.044,16.5,7.5,14.956,7.101,13H10v-2H7.101C7.5,9.044,9.044,7.5,11,7.101V10h2V7.101C14.956,7.5,16.5,9.044,16.899,11H14
	v2H16.899z M11,4.069V6.09C8.489,6.512,6.512,8.489,6.09,11H4.069C4.523,7.388,7.388,4.523,11,4.069z M4.069,13H6.09
	c0.422,2.511,2.399,4.488,4.91,4.91v2.021C7.388,19.477,4.523,16.612,4.069,13z M13,19.931V17.91c2.511-0.422,4.488-2.399,4.91-4.91
	h2.021C19.477,16.612,16.612,19.477,13,19.931z"/>
</svg>
