<?xml version="1.0" encoding="utf-8"?>
<!-- Generator: Adobe Illustrator 19.1.0, SVG Export Plug-In . SVG Version: 6.00 Build 0)  -->
<svg version="1.1" id="Icon" xmlns="http://www.w3.org/2000/svg" xmlns:xlink="http://www.w3.org/1999/xlink" x="0px" y="0px"
	 width="16px" height="16px" viewBox="0 0 16 16" enable-background="new 0 0 16 16" xml:space="preserve">
<path d="M16,7h-1.08C14.481,3.936,12.064,1.519,9,1.08V0H7v1.08C3.936,1.519,1.519,3.936,1.08,7H0v2h1.08
	c0.439,3.064,2.857,5.481,5.92,5.92V16h2v-1.08c3.064-0.439,5.481-2.857,5.92-5.92H16V7z M9,12.899V10H7v2.899
	C5.044,12.5,3.5,10.956,3.101,9H6V7H3.101C3.5,5.044,5.044,3.5,7,3.101V6h2V3.101C10.956,3.5,12.5,5.044,12.899,7H10v2h2.899
	C12.5,10.956,10.956,12.5,9,12.899z"/>
</svg>
