<svg xmlns="http://www.w3.org/2000/svg" viewBox="0 0 32 32"><path d="M31 15h-2.05C28.46 8.62 23.38 3.538 17 3.05V1h-2v2.05C8.62 3.54 3.538 8.62 3.05 15H1v2h2.05C3.54 23.38 8.62 28.462 15 28.95V31h2v-2.05c6.38-.488 11.462-5.57 11.95-11.95H31v-2zm-4.05 0h-3.02c-.45-3.616-3.313-6.48-6.93-6.93V5.05c5.268.478 9.472 4.682 9.95 9.95zm-4.03 2c-.44 3.06-2.86 5.48-5.92 5.92V19h-2v3.92c-3.06-.44-5.48-2.86-5.92-5.92H13v-2H9.08c.44-3.06 2.86-5.48 5.92-5.92V13h2V9.08c3.06.44 5.48 2.86 5.92 5.92H19v2h3.92zM15 5.05v3.02c-3.617.45-6.48 3.314-6.93 6.93H5.05C5.53 9.732 9.733 5.528 15 5.05zM5.05 17h3.02c.45 3.616 3.313 6.48 6.93 6.93v3.02C9.732 26.47 5.528 22.267 5.05 17zM17 26.95v-3.02c3.617-.45 6.48-3.314 6.93-6.93h3.02c-.478 5.268-4.682 9.472-9.95 9.95z"/></svg>