<?xml version="1.0" encoding="utf-8"?>
<!-- Generator: Adobe Illustrator 17.1.0, SVG Export Plug-In . SVG Version: 6.00 Build 0)  -->
<!DOCTYPE svg PUBLIC "-//W3C//DTD SVG 1.1//EN" "http://www.w3.org/Graphics/SVG/1.1/DTD/svg11.dtd">
<svg version="1.1" id="Layer_1" xmlns="http://www.w3.org/2000/svg" xmlns:xlink="http://www.w3.org/1999/xlink" x="0px" y="0px"
	 width="32px" height="32px" viewBox="0 0 32 32" enable-background="new 0 0 32 32" xml:space="preserve">
<path d="M31,1H1v4l12,12v14l6-6v-3.379C19.733,22.459,20.798,23,22,23c2.21,0,4-1.79,4-4s-1.79-4-4-4
	c-0.423,0-0.822,0.083-1.205,0.205L31,5V1z M24,19c0,1.103-0.898,2-2,2c-1.103,0-2-0.897-2-2s0.897-2,2-2C23.102,17,24,17.897,24,19
	z M17.586,15.586L17,16.171V17v7.171l-2,2V17v-0.829l-0.586-0.585L3.829,5h24.343L17.586,15.586z"/>
</svg>
