<?xml version="1.0" encoding="utf-8"?>
<!-- Generator: Adobe Illustrator 17.1.0, SVG Export Plug-In . SVG Version: 6.00 Build 0)  -->
<!DOCTYPE svg PUBLIC "-//W3C//DTD SVG 1.1//EN" "http://www.w3.org/Graphics/SVG/1.1/DTD/svg11.dtd">
<svg version="1.1" id="Layer_1" xmlns="http://www.w3.org/2000/svg" xmlns:xlink="http://www.w3.org/1999/xlink" x="0px" y="0px"
	 width="128px" height="128px" viewBox="0 0 128 128" enable-background="new 0 0 128 128" xml:space="preserve">
<path d="M124,4H4v16l48,48v56l24-24V86.56c2.932,3.33,7.215,5.44,12,5.44c8.84,0,16-7.16,16-16s-7.16-16-16-16
	c-1.638,0-3.218,0.249-4.706,0.706L124,20V4z M100,76c0,6.617-5.383,12-12,12c-6.617,0-12-5.383-12-12s5.383-12,12-12
	C94.617,64,100,69.383,100,76z M73.171,65.171L72,66.343V68v30.343l-16,16V68v-1.657l-1.171-1.172L9.657,20h108.687L73.171,65.171z"
	/>
</svg>
