<?xml version="1.0" encoding="iso-8859-1"?>
<!-- Generator: Adobe Illustrator 20.0.0, SVG Export Plug-In . SVG Version: 6.00 Build 0)  -->
<svg version="1.1" id="Layer_1" xmlns="http://www.w3.org/2000/svg" xmlns:xlink="http://www.w3.org/1999/xlink" x="0px" y="0px"
	 viewBox="0 0 128 128" style="enable-background:new 0 0 128 128;" xml:space="preserve">
<g>
	<polygon points="72,56 48,56 48,64 56,64 56,88 48,88 48,96 80,96 80,88 72,88 	"/>
	<circle cx="64" cy="40" r="8"/>
	<path d="M64,8C33.074,8,8,33.074,8,64s25.074,56,56,56s56-25.074,56-56S94.926,8,64,8z M64,116c-28.673,0-52-23.327-52-52
		s23.327-52,52-52s52,23.327,52,52S92.673,116,64,116z"/>
</g>
</svg>
