<svg xmlns="http://www.w3.org/2000/svg" viewBox="0 0 16 16"><path d="M14.133 8c0-.328-.033-.647-.083-.96L16 5.332l-1.656-2.72-2.325.76c-.557-.484-1.2-.865-1.904-1.125L9.6 0H6.4l-.516 2.25c-.704.258-1.347.64-1.903 1.125l-2.324-.76L0 5.333 1.95 7.04c-.05.313-.083.632-.083.96s.033.647.082.96L0 10.668l1.657 2.72 2.324-.76c.557.484 1.2.866 1.905 1.125L6.4 16h3.2l.515-2.25c.705-.258 1.348-.64 1.903-1.124l2.324.76L16 10.665l-1.95-1.704c.05-.315.083-.634.083-.962zM8 10c-1.103 0-2-.895-2-2s.897-2 2-2 2 .895 2 2-.897 2-2 2z"/></svg>