<svg xmlns="http://www.w3.org/2000/svg" viewBox="0 0 32 32"><path d="M27.5 16c0-.615-.062-1.213-.155-1.802L31 11l-3.106-5.098-4.36 1.424c-1.04-.906-2.247-1.623-3.568-2.11L19 1h-6l-.966 4.217c-1.32.486-2.527 1.203-3.57 2.11l-4.36-1.425L1 11l3.655 3.2c-.093.587-.155 1.186-.155 1.8 0 .615.062 1.213.155 1.802L1 21l3.106 5.098 4.358-1.424c1.042.907 2.25 1.624 3.57 2.11L13 31h6l.966-4.217c1.32-.486 2.527-1.203 3.57-2.11l4.358 1.425L31 21l-3.655-3.197c.093-.59.155-1.188.155-1.803zm.916 5.397l-1.406 2.308-2.853-.932-1.078-.352-.856.745c-.868.755-1.86 1.34-2.947 1.742l-1.017.375-.242 1.056L17.406 29h-2.812l-.61-2.664-.242-1.056-1.017-.375c-1.088-.4-2.08-.986-2.948-1.742l-.856-.743-1.077.353-2.853.932-1.406-2.308 2.388-2.09.83-.727-.172-1.09c-.088-.556-.13-1.044-.13-1.49 0-.446.042-.934.13-1.49l.172-1.09-.83-.727-2.388-2.09 1.406-2.31 2.853.934 1.078.353.856-.744c.87-.756 1.86-1.342 2.948-1.742l1.017-.375.243-1.057.61-2.663h2.813l.61 2.664.242 1.056 1.017.375c1.087.4 2.08.986 2.947 1.742l.855.744 1.078-.35 2.854-.934 1.405 2.308-2.388 2.09-.83.726.172 1.09c.087.556.13 1.043.13 1.49s-.043.935-.13 1.49l-.174 1.09.83.728 2.39 2.09z"/><path d="M16 10c-3.315 0-6 2.685-6 6s2.685 6 6 6 6-2.685 6-6-2.685-6-6-6zm0 8c-1.104 0-2-.896-2-2s.896-2 2-2 2 .896 2 2-.896 2-2 2z"/></svg>