<svg xmlns="http://www.w3.org/2000/svg" viewBox="0 0 24 24"><path d="M20.433 12c0-.45-.045-.89-.114-1.322L23 8.333l-2.277-3.738-3.197 1.044c-.764-.666-1.648-1.19-2.617-1.548L14.2 1H9.8l-.71 3.092c-.967.357-1.852.883-2.616 1.548L3.277 4.595 1 8.333l2.68 2.346c-.068.43-.113.87-.113 1.32s.045.89.113 1.32L1 15.668l2.278 3.738 3.196-1.044c.764.666 1.65 1.192 2.618 1.548L9.8 23h4.4l.708-3.092c.97-.356 1.853-.882 2.617-1.547l3.196 1.045L23 15.667l-2.68-2.345c.068-.432.113-.87.113-1.322zM12 15c-1.655 0-3-1.343-3-3s1.345-3 3-3 3 1.343 3 3-1.345 3-3 3z"/></svg>