<?xml version="1.0" encoding="utf-8"?>
<!-- Generator: Adobe Illustrator 19.1.0, SVG Export Plug-In . SVG Version: 6.00 Build 0)  -->
<svg version="1.1" id="Icon" xmlns="http://www.w3.org/2000/svg" xmlns:xlink="http://www.w3.org/1999/xlink" x="0px" y="0px"
	 width="16px" height="16px" viewBox="0 0 16 16" enable-background="new 0 0 16 16" xml:space="preserve">
<g id="Icon_1_">
	<g>
		<g>
			<path d="M14.133,8c0-0.328-0.033-0.647-0.083-0.961L16,5.333l-1.656-2.719l-2.325,0.759c-0.556-0.484-1.199-0.865-1.903-1.125
				L9.6,0H6.4L5.884,2.249C5.18,2.508,4.537,2.891,3.981,3.375l-2.325-0.76L0,5.333l1.949,1.706C1.9,7.353,1.867,7.672,1.867,8
				S1.9,8.647,1.949,8.961L0,10.667l1.657,2.719l2.324-0.759c0.556,0.484,1.199,0.866,1.904,1.125L6.4,16h3.2l0.515-2.249
				c0.705-0.259,1.348-0.641,1.903-1.125l2.324,0.759L16,10.667l-1.95-1.705C14.1,8.647,14.133,8.328,14.133,8z M8,10
				c-1.103,0-2-0.895-2-2s0.897-2,2-2s2,0.895,2,2S9.103,10,8,10z"/>
		</g>
	</g>
</g>
</svg>
