<svg xmlns="http://www.w3.org/2000/svg" viewBox="0 0 64 64"><path d="M55 32c0-1.23-.124-2.427-.31-3.604L62 22l-6.21-10.195-8.72 2.848c-2.084-1.812-4.496-3.246-7.138-4.22L38 2H26l-1.933 8.434c-2.642.973-5.055 2.406-7.14 4.22l-8.718-2.85L2 22l7.31 6.397C9.124 29.574 9 30.77 9 32c0 1.23.124 2.427.31 3.604L2 42l6.212 10.195 8.716-2.85c2.085 1.814 4.498 3.248 7.14 4.22L26 62h12l1.933-8.434c2.642-.973 5.054-2.406 7.138-4.22l8.72 2.85L62 42l-7.31-6.395c.186-1.177.31-2.376.31-3.605zm4.416 10.397l-4.512 7.406-7.213-2.356-1.077-.353-.855.744c-1.92 1.67-4.113 2.966-6.516 3.85l-1.017.376-.242 1.056L36.406 60h-8.812l-1.577-6.88-.242-1.056-1.017-.375c-2.404-.886-4.597-2.182-6.518-3.853l-.855-.744-1.078.353-7.21 2.356-4.513-7.406 6.043-5.288.83-.727-.172-1.09C11.093 34.076 11 33 11 32c0-.998.093-2.074.285-3.29l.172-1.09-.83-.728-6.043-5.29 4.51-7.406 7.213 2.357 1.078.353.855-.745c1.92-1.67 4.114-2.965 6.518-3.85l1.017-.376.242-1.056L27.594 4h8.812l1.577 6.88.242 1.056 1.017.375c2.403.886 4.595 2.18 6.516 3.852l.855.744 1.078-.352 7.214-2.356 4.51 7.406-6.042 5.287-.832.73.173 1.09C52.906 29.923 53 31 53 32s-.094 2.078-.286 3.292l-.173 1.09.833.728 6.043 5.287z"/><path d="M32 20c-6.63 0-12 5.37-12 12s5.37 12 12 12 12-5.37 12-12-5.37-12-12-12zm0 16c-2.207 0-4-1.79-4-4s1.793-4 4-4 4 1.79 4 4-1.793 4-4 4z"/></svg>