<svg xmlns="http://www.w3.org/2000/svg" viewBox="0 0 128 128"><path d="M110 64c0-2.46-.248-4.854-.62-7.21L124 44l-12.422-20.39-17.438 5.694c-4.168-3.625-8.992-6.492-14.275-8.438L76 4H52l-3.865 16.867c-5.283 1.945-10.11 4.812-14.28 8.44l-17.435-5.7L4 44l14.62 12.795C18.247 59.148 18 61.543 18 64c0 2.46.248 4.854.62 7.207L4 84l12.424 20.39 17.432-5.696c4.17 3.627 8.996 6.494 14.28 8.44L52 124h24l3.865-16.867c5.283-1.945 10.107-4.812 14.275-8.438l17.436 5.697L124 84l-14.62-12.79c.372-2.355.62-4.75.62-7.21zm8.832 20.794l-9.024 14.812-14.425-4.713-2.156-.705-1.71 1.49c-3.842 3.34-8.227 5.93-13.033 7.7l-2.033.75-.483 2.11L72.813 120H55.187l-3.153-13.76-.484-2.112-2.033-.748c-4.81-1.77-9.194-4.363-13.036-7.704l-1.71-1.49-2.156.706-14.42 4.713-9.027-14.81 12.086-10.577 1.66-1.454-.343-2.18C22.186 68.15 22 65.997 22 64c0-1.995.186-4.148.57-6.582l.344-2.18-1.66-1.453L9.166 43.207l9.02-14.813 14.425 4.715 2.156.704 1.71-1.49c3.843-3.34 8.23-5.932 13.037-7.703l2.033-.747.484-2.11L55.187 8h17.626l3.153 13.76.484 2.112 2.033.748c4.806 1.77 9.19 4.36 13.032 7.702l1.71 1.488 2.157-.704 14.427-4.712 9.022 14.81-12.087 10.576-1.663 1.455.346 2.182C105.813 59.847 106 62 106 64c0 2.002-.187 4.156-.572 6.585l-.346 2.182 1.663 1.455 12.087 10.572z"/><path d="M64 40c-13.258 0-24 10.738-24 24s10.742 24 24 24c13.262 0 24-10.738 24-24S77.262 40 64 40zm0 32c-4.414 0-8-3.582-8-8s3.586-8 8-8 8 3.582 8 8-3.586 8-8 8z"/></svg>