<svg xmlns="http://www.w3.org/2000/svg" viewBox="0 0 32 32"><path d="M1 4v24h30V4H1zm28 22H3V10h26v16z"/><path d="M16 24c4.484 0 7.9-2.417 10-6-2.1-3.583-5.516-6-10-6s-7.9 2.417-10 6c2.1 3.583 5.516 6 10 6zm0-11c3.627 0 6.74 1.77 8.826 5-2.086 3.23-5.2 5-8.826 5s-6.74-1.77-8.826-5c2.086-3.23 5.2-5 8.826-5z"/><path d="M16 21.5c1.934 0 3.5-1.566 3.5-3.5s-1.566-3.5-3.5-3.5c-1.932 0-3.5 1.566-3.5 3.5s1.568 3.5 3.5 3.5zm0-4.667c.646 0 1.166.522 1.166 1.167s-.52 1.167-1.166 1.167-1.166-.522-1.166-1.167.52-1.167 1.166-1.167z"/></svg>