<svg xmlns="http://www.w3.org/2000/svg" viewBox="0 0 64 64"><path d="M2 8v48h60V8H2zm58 46H4V18h56v36z"/><path d="M32 48c8.97 0 15.8-4.835 20-12-4.2-7.165-11.03-12-20-12s-15.8 4.835-20 12c4.2 7.165 11.03 12 20 12zm0-22c7.253 0 13.48 3.54 17.652 10C45.48 42.46 39.252 46 32 46c-7.253 0-13.48-3.54-17.652-10 4.17-6.46 10.4-10 17.652-10z"/><path d="M32 43c3.867 0 7-3.133 7-7s-3.133-7-7-7c-3.863 0-7 3.133-7 7s3.137 7 7 7zm0-9.334c1.293 0 2.332 1.045 2.332 2.334s-1.04 2.334-2.332 2.334S29.668 37.29 29.668 36s1.04-2.334 2.332-2.334z"/></svg>