<?xml version="1.0" encoding="utf-8"?>
<!-- Generator: Adobe Illustrator 19.1.0, SVG Export Plug-In . SVG Version: 6.00 Build 0)  -->
<svg version="1.1" id="Icon" xmlns="http://www.w3.org/2000/svg" xmlns:xlink="http://www.w3.org/1999/xlink" x="0px" y="0px"
	 width="24px" height="24px" viewBox="0 0 24 24" enable-background="new 0 0 24 24" xml:space="preserve">
<g>
	<polygon points="9,13 9,11 4,11 6,9 5,8 1,12 5,16 6,15 4,13 	"/>
	<polygon points="19,8 18,9 20,11 15,11 15,13 20,13 18,15 19,16 23,12 	"/>
	<polygon points="13,20 13,15 11,15 11,20 9,18 8,19 12,23 16,19 15,18 	"/>
	<polygon points="11,4 11,9 13,9 13,4 15,6 16,5 12,1 8,5 9,6 	"/>
</g>
</svg>
