<?xml version="1.0" encoding="iso-8859-1"?>
<!-- Generator: Adobe Illustrator 20.0.0, SVG Export Plug-In . SVG Version: 6.00 Build 0)  -->
<svg version="1.1" id="Layer_1" xmlns="http://www.w3.org/2000/svg" xmlns:xlink="http://www.w3.org/1999/xlink" x="0px" y="0px"
	 viewBox="0 0 128 128" style="enable-background:new 0 0 128 128;" xml:space="preserve">
<g>
	<polygon points="48,68 48,60 21.657,60 30.828,50.829 25.172,45.171 6.343,64 25.172,82.829 30.828,77.171 21.657,68 	"/>
	<polygon points="102.828,45.171 97.172,50.829 106.343,60 80,60 80,68 106.343,68 97.172,77.171 102.828,82.829 121.657,64 	"/>
	<polygon points="68,106.343 68,80 60,80 60,106.343 50.828,97.171 45.172,102.829 64,121.657 82.828,102.829 77.172,97.171 	"/>
	<polygon points="60,21.657 60,48 68,48 68,21.657 77.172,30.829 82.828,25.171 64,6.343 45.172,25.171 50.828,30.829 	"/>
</g>
</svg>
