<?xml version="1.0" encoding="iso-8859-1"?>
<!-- Generator: Adobe Illustrator 20.0.0, SVG Export Plug-In . SVG Version: 6.00 Build 0)  -->
<svg version="1.1" id="Layer_1" xmlns="http://www.w3.org/2000/svg" xmlns:xlink="http://www.w3.org/1999/xlink" x="0px" y="0px"
	 viewBox="0 0 128 128" style="enable-background:new 0 0 128 128;" xml:space="preserve">
<path d="M96,36c-7.629,0-14.539,3.054-19.588,8h-5.491c-1.384-2.389-3.962-4-6.921-4s-5.537,1.611-6.921,4h-5.491
	C46.539,39.054,39.629,36,32,36C16.531,36,4,48.541,4,64s12.531,28,28,28c15.469,0,28-12.541,28-28h8c0,15.459,12.531,28,28,28
	c15.469,0,28-12.541,28-28S111.469,36,96,36z M32,84c-11.028,0-20-8.972-20-20s8.972-20,20-20c11.028,0,20,8.972,20,20
	S43.028,84,32,84z M96,84c-11.028,0-20-8.972-20-20s8.972-20,20-20c11.028,0,20,8.972,20,20S107.028,84,96,84z"/>
</svg>
