<?xml version="1.0" encoding="iso-8859-1"?>
<!-- Generator: Adobe Illustrator 20.0.0, SVG Export Plug-In . SVG Version: 6.00 Build 0)  -->
<svg version="1.1" id="Layer_1" xmlns="http://www.w3.org/2000/svg" xmlns:xlink="http://www.w3.org/1999/xlink" x="0px" y="0px"
	 viewBox="0 0 64 64" style="enable-background:new 0 0 64 64;" xml:space="preserve">
<path d="M48,18c-3.813,0-7.265,1.528-9.789,4h-2.766c-0.693-1.19-1.969-2-3.445-2c-1.477,0-2.752,0.81-3.445,2h-2.766
	c-2.524-2.472-5.976-4-9.789-4C8.266,18,2,24.271,2,32s6.266,14,14,14s14-6.271,14-14h4c0,7.729,6.266,14,14,14s14-6.271,14-14
	S55.734,18,48,18z M16,42c-5.514,0-10-4.486-10-10s4.486-10,10-10c5.514,0,10,4.486,10,10S21.514,42,16,42z M48,42
	c-5.514,0-10-4.486-10-10s4.486-10,10-10c5.514,0,10,4.486,10,10S53.514,42,48,42z"/>
</svg>
