<?xml version="1.0" encoding="utf-8"?>
<!-- Generator: Adobe Illustrator 19.1.0, SVG Export Plug-In . SVG Version: 6.00 Build 0)  -->
<svg version="1.1" id="Icon" xmlns="http://www.w3.org/2000/svg" xmlns:xlink="http://www.w3.org/1999/xlink" x="0px" y="0px"
	 width="24px" height="24px" viewBox="0 0 24 24" enable-background="new 0 0 24 24" xml:space="preserve">
<path d="M17.867,7c-1.118,0-2.14,0.38-2.973,1h-1.476C13.221,7.402,12.664,7,12,7s-1.221,0.402-1.419,1H9.106
	C8.273,7.38,7.251,7,6.133,7c-2.761,0-5,2.239-5,5s2.239,5,5,5c2.419,0,4.436-1.718,4.899-4h1.935c0.463,2.282,2.48,4,4.899,4
	c2.761,0,5-2.239,5-5S20.628,7,17.867,7z M6.133,15c-1.654,0-3-1.346-3-3c0-1.654,1.346-3,3-3c1.654,0,3,1.346,3,3
	C9.133,13.654,7.788,15,6.133,15z M17.867,15c-1.654,0-3-1.346-3-3c0-1.654,1.346-3,3-3c1.654,0,3,1.346,3,3
	C20.867,13.654,19.521,15,17.867,15z"/>
</svg>
