<?xml version="1.0" encoding="iso-8859-1"?>
<!-- Generator: Adobe Illustrator 20.0.0, SVG Export Plug-In . SVG Version: 6.00 Build 0)  -->
<svg version="1.1" id="Layer_1" xmlns="http://www.w3.org/2000/svg" xmlns:xlink="http://www.w3.org/1999/xlink" x="0px" y="0px"
	 viewBox="0 0 16 16" style="enable-background:new 0 0 16 16;" xml:space="preserve">
<path d="M12.5,5L12.5,5L9,5c0-0.552-0.448-1-1-1S7,4.448,7,5H3.5l0,0h0C1.567,5,0,6.567,0,8.5S1.567,12,3.5,12S7,10.433,7,8.5
	C7,8.329,6.973,8.165,6.95,8H9.05C9.027,8.165,9,8.329,9,8.5c0,1.933,1.567,3.5,3.5,3.5S16,10.433,16,8.5C16,6.567,14.433,5,12.5,5z
	 M3.5,10C2.673,10,2,9.327,2,8.5S2.673,7,3.5,7S5,7.673,5,8.5S4.327,10,3.5,10z M12.5,10C11.673,10,11,9.327,11,8.5S11.673,7,12.5,7
	S14,7.673,14,8.5S13.327,10,12.5,10z"/>
</svg>
