<?xml version="1.0" encoding="utf-8"?>
<!-- Generator: Adobe Illustrator 19.1.0, SVG Export Plug-In . SVG Version: 6.00 Build 0)  -->
<svg version="1.1" id="Icon" xmlns="http://www.w3.org/2000/svg" xmlns:xlink="http://www.w3.org/1999/xlink" x="0px" y="0px"
	 width="24px" height="24px" viewBox="0 0 24 24" enable-background="new 0 0 24 24" xml:space="preserve">
<path d="M14,5.231V1h-4v4.231C6,6.141,3,9.718,3,14c0,4.971,4.03,9,9,9s9-4.029,9-9C21,9.718,18,6.141,14,5.231z M12,21
	c-3.86,0-7-3.14-7-7c0-3.165,2-5.842,5-6.705V14h4V7.295c3,0.863,5,3.541,5,6.705C19,17.86,15.86,21,12,21z"/>
</svg>
