<?xml version="1.0" encoding="utf-8"?>
<!-- Generator: Adobe Illustrator 17.1.0, SVG Export Plug-In . SVG Version: 6.00 Build 0)  -->
<!DOCTYPE svg PUBLIC "-//W3C//DTD SVG 1.1//EN" "http://www.w3.org/Graphics/SVG/1.1/DTD/svg11.dtd">
<svg version="1.1" id="Layer_1" xmlns="http://www.w3.org/2000/svg" xmlns:xlink="http://www.w3.org/1999/xlink" x="0px" y="0px"
	 width="32px" height="32px" viewBox="0 0 32 32" enable-background="new 0 0 32 32" xml:space="preserve">
<path d="M18,7.18V1h-4v6.18C8.326,8.134,4,13.055,4,19c0,6.628,5.371,12,12,12c6.629,0,12-5.372,12-12
	C28,13.055,23.674,8.134,18,7.18z M16,29c-5.514,0-10-4.486-10-10c0-4.829,3.441-8.869,8-9.798V19h4V9.202
	c4.559,0.929,8,4.969,8,9.798C26,24.514,21.514,29,16,29z"/>
</svg>
