<?xml version="1.0" encoding="utf-8"?>
<!-- Generator: Adobe Illustrator 19.1.0, SVG Export Plug-In . SVG Version: 6.00 Build 0)  -->
<svg version="1.1" id="Icon" xmlns="http://www.w3.org/2000/svg" xmlns:xlink="http://www.w3.org/1999/xlink" x="0px" y="0px"
	 width="16px" height="16px" viewBox="0 0 16 16" enable-background="new 0 0 16 16" xml:space="preserve">
<path d="M10,2.294V0H6v2.294C3.109,3.155,1,5.829,1,9c0,3.866,3.134,7,7,7c3.866,0,7-3.134,7-7C15,5.829,12.891,3.155,10,2.294z
	 M8,14c-2.757,0-5-2.243-5-5c0-2.045,1.237-3.803,3-4.576V9h4V4.424C11.763,5.197,13,6.955,13,9C13,11.757,10.757,14,8,14z"/>
</svg>
