<?xml version="1.0" encoding="iso-8859-1"?>
<!-- Generator: Adobe Illustrator 20.0.0, SVG Export Plug-In . SVG Version: 6.00 Build 0)  -->
<svg version="1.1" id="Layer_1" xmlns="http://www.w3.org/2000/svg" xmlns:xlink="http://www.w3.org/1999/xlink" x="0px" y="0px"
	 viewBox="0 0 64 64" style="enable-background:new 0 0 64 64;" xml:space="preserve">
<g>
	<path d="M32,4C16.537,4,4,16.537,4,32s12.537,28,28,28s28-12.537,28-28S47.463,4,32,4z M32,58C17.664,58,6,46.336,6,32
		S17.664,6,32,6s26,11.664,26,26S46.336,58,32,58z"/>
	<polygon points="33.414,21.414 30.586,18.586 17.171,32 30.586,45.414 33.414,42.586 24.829,34 48,34 48,30 24.829,30 	"/>
</g>
</svg>
