<?xml version="1.0" encoding="utf-8"?>
<!-- Generator: Adobe Illustrator 17.1.0, SVG Export Plug-In . SVG Version: 6.00 Build 0)  -->
<!DOCTYPE svg PUBLIC "-//W3C//DTD SVG 1.1//EN" "http://www.w3.org/Graphics/SVG/1.1/DTD/svg11.dtd">
<svg version="1.1" id="Layer_1" xmlns="http://www.w3.org/2000/svg" xmlns:xlink="http://www.w3.org/1999/xlink" x="0px" y="0px"
	 width="128px" height="128px" viewBox="0 0 128 128" enable-background="new 0 0 128 128" xml:space="preserve">
<g>
	<path d="M76,16c-26.467,0-48,21.533-48,48v34.344L10.829,81.172l-5.657,5.656L32,113.656l26.829-26.828l-5.657-5.656L36,98.344V64
		c0-22.057,17.944-40,40-40s40,17.943,40,40s-17.944,40-40,40v8c26.467,0,48-21.533,48-48S102.467,16,76,16z"/>
	<polygon points="81.171,74.828 86.829,69.172 80.243,62.586 101.414,41.414 98.586,38.586 77.415,59.758 66.829,49.172 
		61.171,54.828 71.757,65.414 66.586,70.586 69.414,73.414 74.585,68.242 	"/>
</g>
</svg>
