<?xml version="1.0" encoding="iso-8859-1"?>
<!-- Generator: Adobe Illustrator 20.0.0, SVG Export Plug-In . SVG Version: 6.00 Build 0)  -->
<svg version="1.1" id="Layer_1" xmlns="http://www.w3.org/2000/svg" xmlns:xlink="http://www.w3.org/1999/xlink" x="0px" y="0px"
	 viewBox="0 0 128 128" style="enable-background:new 0 0 128 128;" xml:space="preserve">
<g>
	<path d="M75.414,15.172c-26.467,0-48,21.533-48,48v34.344L10.242,80.344L4.586,86l26.828,26.828L58.242,86l-5.656-5.656
		L35.414,97.516V63.172c0-22.057,17.943-40,40-40s40,17.943,40,40s-17.943,40-40,40v8c26.467,0,48-21.533,48-48
		S101.881,15.172,75.414,15.172z"/>
	<polygon points="80.586,74 86.242,68.344 79.656,61.758 100.828,40.586 98,37.758 76.828,58.93 66.242,48.344 60.586,54 
		71.172,64.586 66,69.758 68.828,72.586 74,67.414 	"/>
</g>
</svg>
