<?xml version="1.0" encoding="iso-8859-1"?>
<!-- Generator: Adobe Illustrator 20.0.0, SVG Export Plug-In . SVG Version: 6.00 Build 0)  -->
<svg version="1.1" id="Layer_1" xmlns="http://www.w3.org/2000/svg" xmlns:xlink="http://www.w3.org/1999/xlink" x="0px" y="0px"
	 viewBox="0 0 64 64" style="enable-background:new 0 0 64 64;" xml:space="preserve">
<g>
	<path d="M37.707,7.586c-13.234,0-24,10.766-24,24v17.172l-8.586-8.586L2.293,43l13.414,13.414L29.121,43l-2.828-2.828l-8.586,8.586
		V31.586c0-11.027,8.973-20,20-20s20,8.973,20,20s-8.973,20-20,20v4c13.234,0,24-10.766,24-24S50.941,7.586,37.707,7.586z"/>
	<polygon points="40.293,37 43.121,34.172 39.828,30.879 50.414,20.293 49,18.879 38.414,29.465 33.121,24.172 30.293,27 
		35.586,32.293 33,34.879 34.414,36.293 37,33.707 	"/>
</g>
</svg>
