<?xml version="1.0" encoding="utf-8"?>
<!-- Generator: Adobe Illustrator 17.1.0, SVG Export Plug-In . SVG Version: 6.00 Build 0)  -->
<!DOCTYPE svg PUBLIC "-//W3C//DTD SVG 1.1//EN" "http://www.w3.org/Graphics/SVG/1.1/DTD/svg11.dtd">
<svg version="1.1" id="Layer_1" xmlns="http://www.w3.org/2000/svg" xmlns:xlink="http://www.w3.org/1999/xlink" x="0px" y="0px"
	 width="32px" height="32px" viewBox="0 0 32 32" enable-background="new 0 0 32 32" xml:space="preserve">
<g>
	<path d="M19,4C12.383,4,7,9.383,7,16v8.586l-4.293-4.293l-1.414,1.414L8,28.414l6.707-6.707l-1.414-1.414L9,24.586V16
		c0-5.514,4.486-10,10-10s10,4.486,10,10s-4.486,10-10,10v2c6.617,0,12-5.383,12-12S25.617,4,19,4z"/>
	<polygon points="20.293,18.707 21.707,17.293 20.06,15.646 25.354,10.354 24.646,9.646 19.354,14.939 16.707,12.293 15.293,13.707 
		17.94,16.354 16.646,17.646 17.354,18.354 18.646,17.06 	"/>
</g>
</svg>
