<?xml version="1.0" encoding="utf-8"?>
<!-- Generator: Adobe Illustrator 17.1.0, SVG Export Plug-In . SVG Version: 6.00 Build 0)  -->
<!DOCTYPE svg PUBLIC "-//W3C//DTD SVG 1.1//EN" "http://www.w3.org/Graphics/SVG/1.1/DTD/svg11.dtd">
<svg version="1.1" id="Layer_1" xmlns="http://www.w3.org/2000/svg" xmlns:xlink="http://www.w3.org/1999/xlink" x="0px" y="0px"
	 width="64px" height="64px" viewBox="0 0 64 64" enable-background="new 0 0 64 64" xml:space="preserve">
<g>
	<path d="M22,22c-5.523,0-10,4.478-10,10s4.477,10,10,10c5.522,0,10-4.478,10-10S27.522,22,22,22z M22,36c-2.209,0-4-1.791-4-4
		s1.791-4,4-4s4,1.791,4,4S24.209,36,22,36z"/>
	<path d="M60.242,13.758C59.156,12.674,57.656,12,56,12H22C10.953,12,2,20.953,2,32s8.953,20,20,20
		c5.528,0,10.532-2.243,14.152-5.868c6.022-5.998,24.09-23.89,24.09-23.89C61.329,21.158,62,19.658,62,18
		S61.329,14.842,60.242,13.758z M22,50c-9.925,0-18-8.075-18-18s8.075-18,18-18c9.925,0,18,8.075,18,18S31.925,50,22,50z
		 M40.843,38.653C41.579,36.569,42,34.336,42,32c0-7.934-4.63-14.767-11.325-18h20.861C50.584,15.062,50,16.461,50,18
		c0,3.194,2.496,5.797,5.644,5.982C51.979,27.612,45.831,33.703,40.843,38.653z M56,22c-2.208,0-4-1.792-4-4s1.792-4,4-4
		c2.207,0,4,1.792,4,4S58.207,22,56,22z"/>
</g>
</svg>
