<svg xmlns="http://www.w3.org/2000/svg" viewBox="0 0 64 64"><path d="M22 22c-5.523 0-10 4.478-10 10s4.477 10 10 10c5.522 0 10-4.478 10-10s-4.478-10-10-10zm0 14c-2.21 0-4-1.79-4-4s1.79-4 4-4 4 1.79 4 4-1.79 4-4 4z"/><path d="M60.242 13.758C59.156 12.674 57.656 12 56 12H22C10.953 12 2 20.953 2 32s8.953 20 20 20c5.528 0 10.532-2.243 14.152-5.868 6.022-5.998 24.09-23.89 24.09-23.89C61.33 21.158 62 19.658 62 18s-.67-3.158-1.758-4.242zM22 50c-9.925 0-18-8.075-18-18s8.075-18 18-18 18 8.075 18 18-8.075 18-18 18zm18.843-11.347C41.58 36.57 42 34.336 42 32c0-7.934-4.63-14.767-11.325-18h20.86C50.586 15.062 50 16.46 50 18c0 3.194 2.496 5.797 5.644 5.982-3.665 3.63-9.813 9.72-14.8 14.67zM56 22c-2.208 0-4-1.792-4-4s1.792-4 4-4c2.207 0 4 1.792 4 4s-1.793 4-4 4z"/></svg>