<svg xmlns="http://www.w3.org/2000/svg" viewBox="0 0 32 32"><path d="M11 11c-2.76 0-5 2.24-5 5s2.24 5 5 5 5-2.24 5-5-2.24-5-5-5zm0 7c-1.105 0-2-.896-2-2s.895-2 2-2c1.104 0 2 .896 2 2s-.896 2-2 2z"/><path d="M30.12 6.88C29.58 6.336 28.83 6 28 6H11C8.24 6 5.74 7.12 3.93 8.93 2.12 10.737 1 13.237 1 16s1.12 5.262 2.93 7.07C5.74 24.88 8.24 26 11 26c2.76 0 5.257-1.123 7.07-2.93.003 0 .004-.002.005-.004C21.085 20.068 30.12 11.12 30.12 11.12c.545-.54.88-1.29.88-2.12s-.335-1.58-.88-2.12zM16.66 21.65C15.14 23.168 13.13 24 11 24c-2.137 0-4.146-.832-5.657-2.343C3.833 20.147 3 18.137 3 16s.832-4.146 2.343-5.657C6.853 8.833 8.863 8 11 8c2.05 0 4.097.783 5.657 2.343 3.117 3.118 3.118 8.19.004 11.31zm4.222-4.19c.444-3.023-.485-6.207-2.81-8.534-.345-.343-.712-.645-1.09-.928h8.2c-.374 1.056-.148 2.276.697 3.12.245.247.527.43.823.572-1.555 1.54-3.78 3.744-5.82 5.77zM28 10c-.552 0-1-.448-1-1s.448-1 1-1 1 .448 1 1-.448 1-1 1z"/></svg>