<?xml version="1.0" encoding="utf-8"?>
<!-- Generator: Adobe Illustrator 17.1.0, SVG Export Plug-In . SVG Version: 6.00 Build 0)  -->
<!DOCTYPE svg PUBLIC "-//W3C//DTD SVG 1.1//EN" "http://www.w3.org/Graphics/SVG/1.1/DTD/svg11.dtd">
<svg version="1.1" id="Layer_1" xmlns="http://www.w3.org/2000/svg" xmlns:xlink="http://www.w3.org/1999/xlink" x="0px" y="0px"
	 width="64px" height="64px" viewBox="0 0 64 64" enable-background="new 0 0 64 64" xml:space="preserve">
<g>
	<path d="M24,2C11.852,2,2,11.852,2,24c0,12.147,9.852,22,22,22s22-9.853,22-22C46,11.852,36.148,2,24,2z M24,44
		C12.972,44,4,35.028,4,24S12.972,4,24,4s20,8.972,20,20S35.028,44,24,44z"/>
	<rect x="47.757" y="42.101" transform="matrix(0.7071 -0.7071 0.7071 0.7071 -21.5391 52)" width="8.485" height="19.799"/>
	<circle cx="42" cy="42" r="2"/>
</g>
</svg>
