<?xml version="1.0" encoding="utf-8"?>
<!-- Generator: Adobe Illustrator 17.1.0, SVG Export Plug-In . SVG Version: 6.00 Build 0)  -->
<!DOCTYPE svg PUBLIC "-//W3C//DTD SVG 1.1//EN" "http://www.w3.org/Graphics/SVG/1.1/DTD/svg11.dtd">
<svg version="1.1" id="Layer_1" xmlns="http://www.w3.org/2000/svg" xmlns:xlink="http://www.w3.org/1999/xlink" x="0px" y="0px"
	 width="32px" height="32px" viewBox="0 0 32 32" enable-background="new 0 0 32 32" xml:space="preserve">
<g>
	<path d="M12,1C5.926,1,1,5.926,1,12c0,6.074,4.926,11,11,11s11-4.926,11-11C23,5.926,18.074,1,12,1z M12,21c-4.962,0-9-4.038-9-9
		s4.038-9,9-9s9,4.038,9,9S16.962,21,12,21z"/>
	<rect x="23.879" y="21.05" transform="matrix(0.7071 -0.7071 0.7071 0.7071 -10.7696 26)" width="4.243" height="9.899"/>
	<circle cx="21" cy="21" r="1"/>
</g>
</svg>
