<?xml version="1.0" encoding="iso-8859-1"?>
<!-- Generator: Adobe Illustrator 20.0.0, SVG Export Plug-In . SVG Version: 6.00 Build 0)  -->
<svg version="1.1" id="Layer_1" xmlns="http://www.w3.org/2000/svg" xmlns:xlink="http://www.w3.org/1999/xlink" x="0px" y="0px"
	 viewBox="0 0 24 24" style="enable-background:new 0 0 24 24;" xml:space="preserve">
<g>
	<path d="M9,3c3.309,0,6,2.691,6,6c0,3.309-2.691,6-6,6c-3.309,0-6-2.691-6-6C3,5.691,5.691,3,9,3 M9,1C4.582,1,1,4.582,1,9
		c0,4.418,3.582,8,8,8s8-3.582,8-8C17,4.582,13.418,1,9,1L9,1z"/>
	<rect x="16.879" y="15.464" transform="matrix(0.7071 -0.7071 0.7071 0.7071 -7.8701 19)" width="4.243" height="7.071"/>
</g>
</svg>
