<?xml version="1.0" encoding="iso-8859-1"?>
<!-- Generator: Adobe Illustrator 20.0.0, SVG Export Plug-In . SVG Version: 6.00 Build 0)  -->
<svg version="1.1" id="Layer_1" xmlns="http://www.w3.org/2000/svg" xmlns:xlink="http://www.w3.org/1999/xlink" x="0px" y="0px"
	 viewBox="0 0 64 64" style="enable-background:new 0 0 64 64;" xml:space="preserve">
<g>
	<path d="M32,20c-6.627,0-12,5.369-12,12s5.373,12,12,12c6.631,0,12-5.369,12-12S38.631,20,32,20z M32,36c-2.211,0-4-1.79-4-4
		s1.789-4,4-4c2.211,0,4,1.79,4,4S34.211,36,32,36z"/>
	<path d="M32,14C18.539,14,8.293,21.25,2,32c6.293,10.75,16.539,18,30,18c13.461,0,23.707-7.25,30-18C55.707,21.25,45.461,14,32,14z
		 M32,48c-11.443,0-21.226-5.67-27.664-16C10.774,21.67,20.557,16,32,16c11.443,0,21.226,5.67,27.664,16
		C53.226,42.33,43.443,48,32,48z"/>
</g>
</svg>
