<?xml version="1.0" encoding="utf-8"?>
<!-- Generator: Adobe Illustrator 17.1.0, SVG Export Plug-In . SVG Version: 6.00 Build 0)  -->
<!DOCTYPE svg PUBLIC "-//W3C//DTD SVG 1.1//EN" "http://www.w3.org/Graphics/SVG/1.1/DTD/svg11.dtd">
<svg version="1.1" id="Layer_1" xmlns="http://www.w3.org/2000/svg" xmlns:xlink="http://www.w3.org/1999/xlink" x="0px" y="0px"
	 width="128px" height="128px" viewBox="0 0 128 128" enable-background="new 0 0 128 128" xml:space="preserve">
<g>
	<path d="M64,40c-13.254,0-24,10.738-24,24s10.746,24,24,24c13.262,0,24-10.738,24-24S77.262,40,64,40z M64,72c-4.422,0-8-3.58-8-8
		s3.578-8,8-8s8,3.58,8,8S68.422,72,64,72z"/>
	<path d="M64,28C37.078,28,16.586,42.5,4,64c12.586,21.5,33.078,36,60,36s47.414-14.5,60-36C111.414,42.5,90.922,28,64,28z M64,96
		C41.112,96,21.549,84.659,8.673,64C21.549,43.341,41.112,32,64,32s42.451,11.341,55.327,32C106.451,84.659,86.888,96,64,96z"/>
</g>
</svg>
