<?xml version="1.0" encoding="utf-8"?>
<!-- Generator: Adobe Illustrator 19.1.0, SVG Export Plug-In . SVG Version: 6.00 Build 0)  -->
<svg version="1.1" id="Icon" xmlns="http://www.w3.org/2000/svg" xmlns:xlink="http://www.w3.org/1999/xlink" x="0px" y="0px"
	 width="16px" height="16px" viewBox="0 0 16 16" enable-background="new 0 0 16 16" xml:space="preserve">
<g>
	<path d="M8,6C6.895,6,6,6.895,6,8s0.895,2,2,2c1.105,0,2-0.895,2-2S9.105,6,8,6z"/>
	<path d="M8,4.5c3.128,0,5.122,1.942,6.218,3.5c-1.096,1.558-3.09,3.5-6.218,3.5c-3.128,0-5.122-1.942-6.218-3.5
		C2.878,6.442,4.872,4.5,8,4.5 M8,3C4.41,3,1.678,5.133,0,8c1.678,2.867,4.41,5,8,5s6.322-2.133,8-5C14.322,5.133,11.589,3,8,3L8,3z
		"/>
</g>
</svg>
