<?xml version="1.0" encoding="iso-8859-1"?>
<!-- Generator: Adobe Illustrator 20.0.0, SVG Export Plug-In . SVG Version: 6.00 Build 0)  -->
<svg version="1.1" id="Layer_1" xmlns="http://www.w3.org/2000/svg" xmlns:xlink="http://www.w3.org/1999/xlink" x="0px" y="0px"
	 viewBox="0 0 32 32" style="enable-background:new 0 0 32 32;" xml:space="preserve">
<g>
	<path d="M16,10c-3.314,0-6,2.685-6,6s2.686,6,6,6c3.315,0,6-2.685,6-6S19.315,10,16,10z M16,18c-1.106,0-2-0.895-2-2s0.894-2,2-2
		c1.105,0,2,0.895,2,2S17.105,18,16,18z"/>
	<path d="M16,7C9.269,7,4.147,10.625,1,16c3.147,5.375,8.269,9,15,9c6.73,0,11.854-3.625,15-9C27.854,10.625,22.73,7,16,7z M16,23
		c-5.164,0-9.612-2.475-12.642-7C6.388,11.475,10.836,9,16,9c5.164,0,9.612,2.475,12.642,7C25.612,20.525,21.164,23,16,23z"/>
</g>
</svg>
