<?xml version="1.0" encoding="utf-8"?>
<!-- Generator: Adobe Illustrator 19.1.0, SVG Export Plug-In . SVG Version: 6.00 Build 0)  -->
<svg version="1.1" id="Icon" xmlns="http://www.w3.org/2000/svg" xmlns:xlink="http://www.w3.org/1999/xlink" x="0px" y="0px"
	 width="24px" height="24px" viewBox="0 0 24 24" enable-background="new 0 0 24 24" xml:space="preserve">
<g>
	<path d="M9,1.001c-4.418,0-8,3.582-8,8c0,4.417,3.582,8,8,8s8-3.583,8-8C17,4.583,13.418,1.001,9,1.001z M9,15.001
		c-3.309,0-6-2.691-6-6s2.691-6,6-6s6,2.691,6,6S12.309,15.001,9,15.001z"/>
	<rect x="16.878" y="15.464" transform="matrix(0.7071 -0.7071 0.7071 0.7071 -7.8701 18.9998)" width="4.243" height="7.071"/>
	<polygon points="10,5 8,5 8,8 5,8 5,10 8,10 8,13 10,13 10,10 13,10 13,8 10,8 	"/>
</g>
</svg>
