<?xml version="1.0" encoding="utf-8"?>
<!-- Generator: Adobe Illustrator 17.1.0, SVG Export Plug-In . SVG Version: 6.00 Build 0)  -->
<!DOCTYPE svg PUBLIC "-//W3C//DTD SVG 1.1//EN" "http://www.w3.org/Graphics/SVG/1.1/DTD/svg11.dtd">
<svg version="1.1" id="Layer_1" xmlns="http://www.w3.org/2000/svg" xmlns:xlink="http://www.w3.org/1999/xlink" x="0px" y="0px"
	 width="128px" height="128px" viewBox="0 0 128 128" enable-background="new 0 0 128 128" xml:space="preserve">
<g>
	<path d="M48,4C23.703,4,4,23.703,4,48c0,24.295,19.703,44,44,44c24.297,0,44-19.705,44-44C92,23.703,72.297,4,48,4z M48,88
		C25.944,88,8,70.056,8,48S25.944,8,48,8c22.056,0,40,17.944,40,40S70.056,88,48,88z"/>
	<rect x="95.515" y="84.201" transform="matrix(0.7071 -0.7071 0.7071 0.7071 -43.0782 104)" width="16.971" height="39.598"/>
	<circle cx="84" cy="84" r="4"/>
	<polygon points="52,24 44,24 44,44 24,44 24,52 44,52 44,72 52,72 52,52 72,52 72,44 52,44 	"/>
</g>
</svg>
