<?xml version="1.0" encoding="utf-8"?>
<!-- Generator: Adobe Illustrator 19.1.0, SVG Export Plug-In . SVG Version: 6.00 Build 0)  -->
<svg version="1.1" xmlns="http://www.w3.org/2000/svg" xmlns:xlink="http://www.w3.org/1999/xlink" x="0px" y="0px"
	 viewBox="0 0 24 24" style="enable-background:new 0 0 24 24;" xml:space="preserve">
<style type="text/css">
	.st0{fill:#F0F0F0;}
	.st1{fill:#323232;}
</style>
<g id="Guides">
</g>
<g id="Name">
</g>
<g id="Icon">
	<path class="st1" d="M20,12.5l-1.4-1.4c-0.7,0.8-1.5,1.4-2.4,1.9l-1.9-5.8c0.6-0.5,0.9-1.3,0.9-2.2c0-1.3-0.8-2.4-2-2.8V1h-2v1.2
		c-1.2,0.4-2,1.5-2,2.8c0,0.9,0.4,1.6,0.9,2.2L5.2,22l2,1l2.4-7.3c0.8,0.2,1.7,0.3,2.6,0.3c0.9,0,1.7-0.1,2.6-0.3l2.4,7.3l2-1
		l-2.4-7.1C18,14.3,19.1,13.5,20,12.5z M12.2,4c0.6,0,1,0.4,1,1c0,0.6-0.4,1-1,1s-1-0.4-1-1C11.2,4.4,11.7,4,12.2,4z M12.2,14
		c-0.7,0-1.3-0.1-1.9-0.2L12.2,8l1.9,5.8C13.5,13.9,12.9,14,12.2,14z"/>
</g>
</svg>
