<?xml version="1.0" encoding="utf-8"?>
<!-- Generator: Adobe Illustrator 20.0.0, SVG Export Plug-In . SVG Version: 6.00 Build 0)  -->
<svg version="1.1" id="Layer_1" xmlns="http://www.w3.org/2000/svg" xmlns:xlink="http://www.w3.org/1999/xlink" x="0px" y="0px"
	 viewBox="0 0 24 24" style="enable-background:new 0 0 24 24;" xml:space="preserve">
<style type="text/css">
	.st0{display:none;}
	.st1{display:inline;fill:#F0F0F0;}
	.st2{fill:#323232;}
	.st3{display:inline;}
	.st4{fill:#FFCCCC;}
</style>
<g id="Background" class="st0">
	<rect class="st1" width="24" height="24"/>
</g>
<g id="Icon">
	<path class="st2" d="M21,3.7c-1.3-1.3-3-2-4.8-2l0,0c-1.8,0-3.5,0.7-4.8,2l-9,9.3c-2,2.1-2,5.5,0,7.7c1,1,2.3,1.6,3.7,1.6
		c1.4,0,2.8-0.6,3.8-1.6l6.7-6.9c1.5-1.5,1.5-4,0-5.6C16,7.4,15.1,7,14,7l0,0c-1,0-2,0.4-2.7,1.2l-5.1,5.2l1.4,1.4l5.1-5.2
		C13.1,9.2,13.5,9,14,9s1,0.2,1.3,0.6c0.7,0.8,0.7,2,0,2.8l-6.7,6.9c-1.2,1.3-3.4,1.3-4.6,0c-1.3-1.3-1.3-3.5,0-4.9l9-9.3
		c0.9-0.9,2.1-1.4,3.3-1.4l0,0c1.3,0,2.4,0.5,3.3,1.4c1.9,1.9,1.9,5,0,7l-7.3,7.6l1.4,1.4l7.3-7.6C23.6,10.8,23.6,6.4,21,3.7z"/>
</g>
<g id="Guide" class="st0">
	<g class="st3">
		<path class="st4" d="M23,1v22H1V1H23 M24,0H0v24h24V0L24,0z"/>
	</g>
</g>
</svg>
