<?xml version="1.0" encoding="utf-8"?>
<!-- Generator: Adobe Illustrator 19.1.0, SVG Export Plug-In . SVG Version: 6.00 Build 0)  -->
<svg version="1.1" xmlns="http://www.w3.org/2000/svg" xmlns:xlink="http://www.w3.org/1999/xlink" x="0px" y="0px"
	 viewBox="0 0 24 24" style="enable-background:new 0 0 24 24;" xml:space="preserve">
<style type="text/css">
	.st0{fill:#F0F0F0;}
	.st1{fill:#323232;}
</style>
<g id="Guides">
</g>
<g id="Name">
</g>
<g id="Icon">
	<g>
		<path class="st1" d="M8,12c0,0.1,0,0.3,0,0.4V14h8v-1.6c0-0.1,0-0.3,0-0.4H8z"/>
		<path class="st1" d="M8,16.6c0,0.1,0,0.3,0,0.4H16c0-0.1,0-0.3,0-0.4V15H8V16.6z"/>
		<path class="st1" d="M6.4,11.6L5.2,15c-0.1,0.2-0.2,0.4-0.3,0.5c-0.2,0.2-0.3,0.3-0.5,0.4C4.1,16,3.9,16,3.6,16
			c-0.2,0-0.4,0-0.6-0.1c-0.2-0.1-0.4-0.2-0.5-0.4c-0.2-0.2-0.3-0.3-0.4-0.5C2,14.8,2,14.6,2,14.3c0-0.2,0-0.4,0.1-0.6
			c0.1-0.2,0.2-0.4,0.4-0.5C2.6,13,2.8,12.9,3,12.8L6.4,11.6 M8,10l-5.4,1.9C2.3,12,2,12.2,1.8,12.5c-0.3,0.3-0.4,0.5-0.6,0.9
			C1.1,13.7,1,14,1,14.4c0,0.3,0.1,0.7,0.2,1c0.1,0.3,0.3,0.6,0.6,0.9c0.3,0.3,0.5,0.4,0.9,0.6C3,16.9,3.3,17,3.6,17c0,0,0,0,0,0
			c0,0,0,0,0,0c0.3,0,0.7-0.1,1-0.2c0.3-0.1,0.6-0.3,0.9-0.6s0.4-0.5,0.6-0.9L8,10L8,10z"/>
		<path class="st1" d="M17.6,11.6l3.4,1.2c0.2,0.1,0.4,0.2,0.5,0.3c0.2,0.2,0.3,0.3,0.4,0.5c0.1,0.2,0.1,0.4,0.1,0.6
			c0,0.2,0,0.4-0.1,0.6c-0.1,0.2-0.2,0.4-0.4,0.5c-0.2,0.2-0.3,0.3-0.5,0.4C20.8,16,20.6,16,20.3,16c-0.2,0-0.4,0-0.6-0.1
			c-0.2-0.1-0.4-0.2-0.5-0.4c-0.1-0.1-0.3-0.3-0.3-0.5L17.6,11.6 M16,10l1.9,5.4c0.1,0.3,0.3,0.6,0.6,0.9s0.5,0.4,0.9,0.6
			c0.3,0.1,0.7,0.2,1,0.2c0,0,0,0,0,0c0,0,0,0,0,0c0.3,0,0.7-0.1,1-0.2c0.3-0.1,0.6-0.3,0.9-0.6c0.3-0.3,0.4-0.5,0.6-0.9
			c0.1-0.3,0.2-0.7,0.2-1c0-0.3-0.1-0.7-0.2-1c-0.1-0.3-0.3-0.6-0.6-0.9c-0.3-0.3-0.5-0.4-0.9-0.6L16,10L16,10z"/>
		<path class="st1" d="M9.5,6C9.8,6,10,6.2,10,6.5S9.8,7,9.5,7S9,6.8,9,6.5S9.2,6,9.5,6 M9.5,5C8.7,5,8,5.7,8,6.5S8.7,8,9.5,8
			S11,7.3,11,6.5S10.3,5,9.5,5L9.5,5z"/>
		<path class="st1" d="M14.5,6C14.8,6,15,6.2,15,6.5S14.8,7,14.5,7S14,6.8,14,6.5S14.2,6,14.5,6 M14.5,5C13.7,5,13,5.7,13,6.5
			S13.7,8,14.5,8S16,7.3,16,6.5S15.3,5,14.5,5L14.5,5z"/>
	</g>
	<g>
		<path class="st1" d="M8.6,18c0.7,1.2,2,2,3.4,2s2.8-0.8,3.4-2H8.6z"/>
		<path class="st1" d="M15.4,11c-0.7-1.2-2-2-3.4-2s-2.8,0.8-3.4,2H15.4z"/>
	</g>
</g>
</svg>
