<?xml version="1.0" encoding="utf-8"?>
<!-- Generator: Adobe Illustrator 19.1.0, SVG Export Plug-In . SVG Version: 6.00 Build 0)  -->
<svg version="1.1" xmlns="http://www.w3.org/2000/svg" xmlns:xlink="http://www.w3.org/1999/xlink" x="0px" y="0px"
	 viewBox="0 0 24 24" style="enable-background:new 0 0 24 24;" xml:space="preserve">
<style type="text/css">
	.st0{fill:#323232;}
</style>
<g id="Guides">
</g>
<g id="Name">
</g>
<g id="Icon">
	<path class="st0" d="M17.9,12c1.6-1,3.1-2.6,3.1-4.5c0-3-2.2-5.5-5.4-5.5H4.1v20h11.5c3.2,0,5.4-2.5,5.4-5.5
		C21,14.6,19.6,13,17.9,12z M12.4,20H9v-7h3.4c2.1,0,3.5,1.5,3.5,3.5C15.9,18.5,14.5,20,12.4,20z M12.4,11H9V4h3.4
		c2.1,0,3.5,1.5,3.5,3.5C15.9,9.5,14.5,11,12.4,11z"/>
</g>
</svg>
