<?xml version="1.0" encoding="utf-8"?>
<!-- Generator: Adobe Illustrator 19.1.0, SVG Export Plug-In . SVG Version: 6.00 Build 0)  -->
<svg version="1.1" xmlns="http://www.w3.org/2000/svg" xmlns:xlink="http://www.w3.org/1999/xlink" x="0px" y="0px"
	 viewBox="0 0 24 24" style="enable-background:new 0 0 24 24;" xml:space="preserve">
<style type="text/css">
	.st0{fill:#F0F0F0;}
	.st1{fill:#323232;}
</style>
<g id="Guides">
</g>
<g id="Name">
</g>
<g id="Icon">
	<path class="st1" d="M8,5V4H4v1H1v16h22V5H8z M16,18.5c-3,0-5.5-2.5-5.5-5.5S13,7.5,16,7.5c3,0,5.5,2.5,5.5,5.5S19,18.5,16,18.5z"
		/>
	<path class="st1" d="M16,9c-2.2,0-4,1.8-4,4s1.8,4,4,4s4-1.8,4-4S18.2,9,16,9z M16,15c-1.1,0-2-0.9-2-2s0.9-2,2-2c1.1,0,2,0.9,2,2
		S17.1,15,16,15z"/>
</g>
</svg>
