<?xml version="1.0" encoding="utf-8"?>
<!-- Generator: Adobe Illustrator 19.1.0, SVG Export Plug-In . SVG Version: 6.00 Build 0)  -->
<svg version="1.1" xmlns="http://www.w3.org/2000/svg" xmlns:xlink="http://www.w3.org/1999/xlink" x="0px" y="0px"
	 viewBox="0 0 24 24" style="enable-background:new 0 0 24 24;" xml:space="preserve">
<style type="text/css">
	.st0{fill:#F0F0F0;}
	.st1{fill:#323232;}
</style>
<g id="Guides">
</g>
<g id="Name">
</g>
<g id="Icon">
	<g>
		<g>
			<path class="st1" d="M18.4,3.6C16.7,2,14.5,1,12,1C9.5,1,7.3,2,5.6,3.6C4,5.2,3,7.6,3,10s1,4.4,2.6,6c1.6,1.6,3.9,2.6,6.4,2.6V23
				l6.4-6.6C20,14.7,21,12.6,21,10C21,7.6,20,5.2,18.4,3.6z M7.5,12c-1.1,0-2-0.9-2-2c0-1.1,0.9-2,2-2c1.1,0,2,0.9,2,2
				C9.5,11.1,8.6,12,7.5,12z M16.5,12c-1.1,0-2-0.9-2-2c0-1.1,0.9-2,2-2c1.1,0,2,0.9,2,2C18.5,11.1,17.6,12,16.5,12z M12,12
				c-1.1,0-2-0.9-2-2c0-1.1,0.9-2,2-2c1.1,0,2,0.9,2,2C14,11.1,13.1,12,12,12z"/>
		</g>
	</g>
</g>
</svg>
