<?xml version="1.0" encoding="utf-8"?>
<!-- Generator: Adobe Illustrator 20.0.0, SVG Export Plug-In . SVG Version: 6.00 Build 0)  -->
<svg version="1.1" id="Layer_1" xmlns="http://www.w3.org/2000/svg" xmlns:xlink="http://www.w3.org/1999/xlink" x="0px" y="0px"
	 viewBox="0 0 24 24" style="enable-background:new 0 0 24 24;" xml:space="preserve">
<style type="text/css">
	.st0{display:none;}
	.st1{display:inline;fill:#F0F0F0;}
	.st2{fill:#323232;}
	.st3{display:inline;}
	.st4{fill:#FFCCCC;}
</style>
<g id="Background" class="st0">
	<rect class="st1" width="24" height="24"/>
</g>
<g id="Icon">
	<g>
		<g>
			<path class="st2" d="M18.4,3.6C16.7,2,14.5,1,12,1S7.3,2,5.6,3.6C4,5.2,3,7.6,3,10s1,4.4,2.6,6c1.6,1.6,3.9,2.6,6.4,2.6V23
				l6.4-6.6C20,14.7,21,12.6,21,10C21,7.6,20,5.2,18.4,3.6z M7.5,12c-1.1,0-2-0.9-2-2s0.9-2,2-2s2,0.9,2,2S8.6,12,7.5,12z M16.5,12
				c-1.1,0-2-0.9-2-2s0.9-2,2-2s2,0.9,2,2S17.6,12,16.5,12z M12,12c-1.1,0-2-0.9-2-2s0.9-2,2-2s2,0.9,2,2S13.1,12,12,12z"/>
		</g>
	</g>
</g>
<g id="Guide" class="st0">
	<g class="st3">
		<path class="st4" d="M23,1v22H1V1H23 M24,0H0v24h24V0L24,0z"/>
	</g>
</g>
</svg>
