<?xml version="1.0" encoding="utf-8"?>
<!-- Generator: Adobe Illustrator 20.0.0, SVG Export Plug-In . SVG Version: 6.00 Build 0)  -->
<svg version="1.1" id="Layer_1" xmlns="http://www.w3.org/2000/svg" xmlns:xlink="http://www.w3.org/1999/xlink" x="0px" y="0px"
	 viewBox="0 0 24 24" style="enable-background:new 0 0 24 24;" xml:space="preserve">
<style type="text/css">
	.st0{display:none;}
	.st1{display:inline;fill:#F0F0F0;}
	.st2{fill:#323232;}
	.st3{display:inline;}
	.st4{fill:#FFCCCC;}
</style>
<g id="Background" class="st0">
	<rect class="st1" width="24" height="24"/>
</g>
<g id="Icon">
	<g>
		<path class="st2" d="M20,10h-7V6.8c1.2-0.4,2-1.5,2-2.8c0-1.7-1.3-3-3-3c-1.7,0-3,1.3-3,3c0,1.3,0.8,2.4,2,2.8v3.3
			c-0.4,0.2-0.8,0.5-0.9,0.9H6.8C6.4,9.8,5.3,9,4,9c-1.7,0-3,1.3-3,3s1.3,3,3,3c1.3,0,2.4-0.8,2.8-2H10v7l3,3V13h10L20,10z M4,13
			c-0.6,0-1-0.4-1-1s0.4-1,1-1s1,0.4,1,1S4.6,13,4,13z M12,5c-0.6,0-1-0.4-1-1s0.4-1,1-1s1,0.4,1,1S12.6,5,12,5z"/>
	</g>
	<path class="st2" d="M20,10h-7V6.8c1.2-0.4,2-1.5,2-2.8c0-1.7-1.3-3-3-3c-1.7,0-3,1.3-3,3c0,1.3,0.8,2.4,2,2.8v3.3
		c-0.4,0.2-0.8,0.5-0.9,0.9H6.8C6.4,9.8,5.3,9,4,9c-1.7,0-3,1.3-3,3s1.3,3,3,3c1.3,0,2.4-0.8,2.8-2H10v7l3,3V13h10L20,10z M4,13
		c-0.6,0-1-0.4-1-1s0.4-1,1-1s1,0.4,1,1S4.6,13,4,13z M12,5c-0.6,0-1-0.4-1-1s0.4-1,1-1s1,0.4,1,1S12.6,5,12,5z"/>
</g>
<g id="Guide" class="st0">
	<g class="st3">
		<path class="st4" d="M23,1v22H1V1H23 M24,0H0v24h24V0L24,0z"/>
	</g>
</g>
</svg>
