<?xml version="1.0" encoding="utf-8"?>
<!-- Generator: Adobe Illustrator 19.1.0, SVG Export Plug-In . SVG Version: 6.00 Build 0)  -->
<svg version="1.1" xmlns="http://www.w3.org/2000/svg" xmlns:xlink="http://www.w3.org/1999/xlink" x="0px" y="0px"
	 viewBox="0 0 24 24" style="enable-background:new 0 0 24 24;" xml:space="preserve">
<style type="text/css">
	.st0{fill:#323232;}
</style>
<g id="Guides">
</g>
<g id="Name">
</g>
<g id="Icon">
	<path class="st0" d="M23,11h-1.1c-0.5-4.7-4.2-8.5-8.9-8.9V1h-2v1.1C6.3,2.5,2.5,6.3,2.1,11H1v2h1.1c0.5,4.7,4.2,8.5,8.9,8.9V23h2
		v-1.1c4.7-0.5,8.5-4.2,8.9-8.9H23V11z M19.9,11h-2c-0.4-2.5-2.4-4.5-4.9-4.9v-2C16.6,4.5,19.5,7.4,19.9,11z M16.9,13
		c-0.4,2-1.9,3.5-3.9,3.9V14h-2v2.9C9,16.5,7.5,15,7.1,13H10v-2H7.1C7.5,9,9,7.5,11,7.1V10h2V7.1c2,0.4,3.5,1.9,3.9,3.9H14v2H16.9z
		 M11,4.1v2C8.5,6.5,6.5,8.5,6.1,11h-2C4.5,7.4,7.4,4.5,11,4.1z M4.1,13h2c0.4,2.5,2.4,4.5,4.9,4.9v2C7.4,19.5,4.5,16.6,4.1,13z
		 M13,19.9v-2c2.5-0.4,4.5-2.4,4.9-4.9h2C19.5,16.6,16.6,19.5,13,19.9z"/>
</g>
</svg>
