<?xml version="1.0" encoding="utf-8"?>
<!-- Generator: Adobe Illustrator 20.0.0, SVG Export Plug-In . SVG Version: 6.00 Build 0)  -->
<svg version="1.1" id="Layer_1" xmlns="http://www.w3.org/2000/svg" xmlns:xlink="http://www.w3.org/1999/xlink" x="0px" y="0px"
	 viewBox="0 0 24 24" style="enable-background:new 0 0 24 24;" xml:space="preserve">
<style type="text/css">
	.st0{display:none;}
	.st1{display:inline;fill:#F0F0F0;}
	.st2{fill:#323232;}
	.st3{display:inline;}
	.st4{fill:#FFCCCC;}
</style>
<g id="Background" class="st0">
	<rect class="st1" width="24" height="24"/>
</g>
<g id="Icon">
	<g>
		<path class="st2" d="M12,3L1,9v1v11h22V10V9L12,3z M12,17.1l-9.5-5.3l1-1.7l8.5,4.7l8.5-4.7l1,1.7L12,17.1z"/>
	</g>
	<g>
		<path class="st2" d="M12,3L1,9v1v11h22V10V9L12,3z M12,17.1l-9.5-5.3l1-1.7l8.5,4.7l8.5-4.7l1,1.7L12,17.1z"/>
	</g>
</g>
<g id="Guide" class="st0">
	<g class="st3">
		<path class="st4" d="M23,1v22H1V1H23 M24,0H0v24h24V0L24,0z"/>
	</g>
</g>
</svg>
