<?xml version="1.0" encoding="utf-8"?>
<!-- Generator: Adobe Illustrator 19.1.0, SVG Export Plug-In . SVG Version: 6.00 Build 0)  -->
<svg version="1.1" xmlns="http://www.w3.org/2000/svg" xmlns:xlink="http://www.w3.org/1999/xlink" x="0px" y="0px"
	 viewBox="0 0 24 24" style="enable-background:new 0 0 24 24;" xml:space="preserve">
<style type="text/css">
	.st0{fill:#F0F0F0;}
	.st1{fill:#323232;}
</style>
<g id="Guides">
</g>
<g id="Name">
</g>
<g id="Icon">
	<path class="st1" d="M18,14c-1.9,0-3.4,1.3-3.9,3H9.9c-0.1-0.4-0.2-0.7-0.4-1.1l6.5-6.5C16.5,9.8,17.2,10,18,10c2.2,0,4-1.8,4-4
		c0-2.2-1.8-4-4-4c-1.9,0-3.4,1.3-3.9,3H9.9C9.4,3.3,7.9,2,6,2C3.8,2,2,3.8,2,6c0,2.2,1.8,4,4,4c1.9,0,3.4-1.3,3.9-3h4.3
		c0.1,0.3,0.2,0.7,0.4,1L8,14.6C7.4,14.2,6.7,14,6,14c-2.2,0-4,1.8-4,4c0,2.2,1.8,4,4,4c1.9,0,3.4-1.3,3.9-3h4.3c0.4,1.7,2,3,3.9,3
		c2.2,0,4-1.8,4-4C22,15.8,20.2,14,18,14z M6,8C4.9,8,4,7.1,4,6c0-1.1,0.9-2,2-2c1.1,0,2,0.9,2,2C8,7.1,7.1,8,6,8z M18,4
		c1.1,0,2,0.9,2,2c0,1.1-0.9,2-2,2c-1.1,0-2-0.9-2-2C16,4.9,16.9,4,18,4z M6,20c-1.1,0-2-0.9-2-2c0-1.1,0.9-2,2-2c1.1,0,2,0.9,2,2
		C8,19.1,7.1,20,6,20z"/>
</g>
</svg>
