<?xml version="1.0" encoding="utf-8"?>
<!-- Generator: Adobe Illustrator 19.1.0, SVG Export Plug-In . SVG Version: 6.00 Build 0)  -->
<svg version="1.1" xmlns="http://www.w3.org/2000/svg" xmlns:xlink="http://www.w3.org/1999/xlink" x="0px" y="0px"
	 viewBox="0 0 24 24" style="enable-background:new 0 0 24 24;" xml:space="preserve">
<style type="text/css">
	.st0{fill:#F0F0F0;}
	.st1{fill:#323232;}
</style>
<g id="Guides">
</g>
<g id="Name">
</g>
<g id="Icon">
	<g>
		<path class="st1" d="M20.4,3.6C18.7,2,16.5,1,14,1S9.3,2,7.6,3.6C6,5.2,5,7.6,5,10c0,0.4,0,0.7,0.1,1.1c-1,0.2-1.9,0.6-2.6,1.3
			C1.5,13.3,1,14.6,1,15.9c0,1.4,0.5,2.6,1.4,3.5L6,23v-2.4c1.4,0,2.5-0.5,3.4-1.4c0.4-0.4,0.7-0.8,0.9-1.2c1.1,0.6,2.4,1,3.7,1v4
			l6.4-6.6C22,14.7,23,12.6,23,10C23,7.6,22,5.2,20.4,3.6z M18.9,15L16,18v-1h-2c-1.1,0-2.2-0.3-3.2-0.7c0-0.1,0-0.2,0-0.3
			c0-1.3-0.5-2.6-1.4-3.5c-0.6-0.6-1.4-1-2.3-1.2C7,10.8,7,10.4,7,10c0-1.9,0.8-3.8,2-5c1.3-1.3,3.1-2,5-2s3.6,0.7,5,2
			c1.3,1.2,2,3.1,2,5C21,11.9,20.3,13.6,18.9,15z"/>
	</g>
</g>
</svg>
