<?xml version="1.0" encoding="utf-8"?>
<!-- Generator: Adobe Illustrator 20.0.0, SVG Export Plug-In . SVG Version: 6.00 Build 0)  -->
<svg version="1.1" id="Icon" xmlns="http://www.w3.org/2000/svg" xmlns:xlink="http://www.w3.org/1999/xlink" x="0px" y="0px"
	 viewBox="0 0 24 24" style="enable-background:new 0 0 24 24;" xml:space="preserve">
<style type="text/css">
	.st0{fill:#323232;}
</style>
<title>glasses_24</title>
<path class="st0" d="M23,11h-1.3c-0.8-2.3-3.4-3.6-5.7-2.7c-1.1,0.4-1.9,1.1-2.5,2.1c-1-0.5-2.1-0.5-3.1,0c-1.2-2.2-3.9-3-6.1-1.8
	C3.4,9.1,2.6,10,2.3,11H1v2h1c0.3,2.5,2.5,4.2,5,3.9c2.3-0.3,4-2.2,4-4.4c0-0.1,0-0.1,0-0.2c0.6-0.4,1.4-0.4,2,0c0,0.1,0,0.1,0,0.2
	c0,2.5,2,4.5,4.5,4.5c2.3,0,4.2-1.7,4.4-4h1V11z M6.5,15C5.1,15,4,13.9,4,12.5S5.1,10,6.5,10S9,11.1,9,12.5S7.9,15,6.5,15z M17.5,15
	c-1.4,0-2.5-1.1-2.5-2.5s1.1-2.5,2.5-2.5s2.5,1.1,2.5,2.5S18.9,15,17.5,15z"/>
</svg>
