<?xml version="1.0" encoding="utf-8"?>
<!-- Generator: Adobe Illustrator 19.1.0, SVG Export Plug-In . SVG Version: 6.00 Build 0)  -->
<svg version="1.1" xmlns="http://www.w3.org/2000/svg" xmlns:xlink="http://www.w3.org/1999/xlink" x="0px" y="0px"
	 viewBox="0 0 24 24" style="enable-background:new 0 0 24 24;" xml:space="preserve">
<style type="text/css">
	.st0{fill:#F0F0F0;}
	.st1{fill:#323232;}
</style>
<g id="Guides">
</g>
<g id="Name">
</g>
<g id="Icon">
	<g>
		<path class="st1" d="M14,14c0,2.2,1.8,4,4,4s4-1.8,4-4s-1.8-4-4-4S14,11.8,14,14z"/>
		<path class="st1" d="M9.5,19h-7C1.7,19,1,19.7,1,20.5V23h10v-2.5C11,19.7,10.3,19,9.5,19z"/>
		<path class="st1" d="M21.5,19h-7c-0.8,0-1.5,0.7-1.5,1.5V23h10v-2.5C23,19.7,22.3,19,21.5,19z"/>
	</g>
	<path class="st1" d="M2,14c0,2.2,1.8,4,4,4s4-1.8,4-4s-1.8-4-4-4S2,11.8,2,14z"/>
	<path class="st1" d="M8,5c0,2.2,1.8,4,4,4s4-1.8,4-4s-1.8-4-4-4S8,2.8,8,5z"/>
</g>
</svg>
