<?xml version="1.0" encoding="utf-8"?>
<!-- Generator: Adobe Illustrator 20.0.0, SVG Export Plug-In . SVG Version: 6.00 Build 0)  -->
<svg version="1.1" id="Layer_1" xmlns="http://www.w3.org/2000/svg" xmlns:xlink="http://www.w3.org/1999/xlink" x="0px" y="0px"
	 viewBox="0 0 24 24" style="enable-background:new 0 0 24 24;" xml:space="preserve">
<style type="text/css">
	.st0{display:none;}
	.st1{display:inline;fill:#F0F0F0;}
	.st2{fill:#323232;}
	.st3{display:inline;}
	.st4{fill:#FFCCCC;}
</style>
<g id="Background" class="st0">
	<rect class="st1" width="24" height="24"/>
</g>
<g id="Icon">
	<path class="st2" d="M12,1C5.9,1,1,5.9,1,12s4.9,11,11,11c6.1,0,11-4.9,11-11S18.1,1,12,1z M21,12c0,1.7-0.5,3.2-1.3,4.6l-2.2-2.2
		c0.3-0.7,0.5-1.5,0.5-2.4s-0.2-1.6-0.5-2.4l2.2-2.2C20.5,8.8,21,10.3,21,12z M4.3,16.6C3.5,15.2,3,13.7,3,12s0.5-3.2,1.3-4.6
		l2.2,2.2C6.2,10.4,6,11.2,6,12s0.2,1.6,0.5,2.4L4.3,16.6z M8,12c0-2.2,1.8-4,4-4c2.2,0,4,1.8,4,4s-1.8,4-4,4C9.8,16,8,14.2,8,12z
		 M16.6,4.3l-2.2,2.2C13.6,6.2,12.8,6,12,6s-1.6,0.2-2.4,0.5L7.4,4.3C8.8,3.5,10.3,3,12,3C13.7,3,15.2,3.5,16.6,4.3z M7.4,19.7
		l2.2-2.2c0.7,0.3,1.5,0.5,2.4,0.5s1.6-0.2,2.4-0.5l2.2,2.2C15.2,20.5,13.7,21,12,21C10.3,21,8.8,20.5,7.4,19.7z"/>
	<path class="st2" d="M12,1C5.9,1,1,5.9,1,12s4.9,11,11,11c6.1,0,11-4.9,11-11S18.1,1,12,1z M21,12c0,1.7-0.5,3.2-1.3,4.6l-2.2-2.2
		c0.3-0.7,0.5-1.5,0.5-2.4s-0.2-1.6-0.5-2.4l2.2-2.2C20.5,8.8,21,10.3,21,12z M4.3,16.6C3.5,15.2,3,13.7,3,12s0.5-3.2,1.3-4.6
		l2.2,2.2C6.2,10.4,6,11.2,6,12s0.2,1.6,0.5,2.4L4.3,16.6z M8,12c0-2.2,1.8-4,4-4c2.2,0,4,1.8,4,4s-1.8,4-4,4C9.8,16,8,14.2,8,12z
		 M16.6,4.3l-2.2,2.2C13.6,6.2,12.8,6,12,6s-1.6,0.2-2.4,0.5L7.4,4.3C8.8,3.5,10.3,3,12,3C13.7,3,15.2,3.5,16.6,4.3z M7.4,19.7
		l2.2-2.2c0.7,0.3,1.5,0.5,2.4,0.5s1.6-0.2,2.4-0.5l2.2,2.2C15.2,20.5,13.7,21,12,21C10.3,21,8.8,20.5,7.4,19.7z"/>
</g>
<g id="Guide" class="st0">
	<g class="st3">
		<path class="st4" d="M23,1v22H1V1H23 M24,0H0v24h24V0L24,0z"/>
	</g>
</g>
</svg>
