<?xml version="1.0" encoding="utf-8"?>
<!-- Generator: Adobe Illustrator 16.2.1, SVG Export Plug-In . SVG Version: 6.00 Build 0)  -->
<!DOCTYPE svg PUBLIC "-//W3C//DTD SVG 1.1//EN" "http://www.w3.org/Graphics/SVG/1.1/DTD/svg11.dtd">
<svg version="1.1" xmlns="http://www.w3.org/2000/svg" xmlns:xlink="http://www.w3.org/1999/xlink" x="0px" y="0px" width="24px"
	 height="24px" viewBox="0 0 24 24" enable-background="new 0 0 24 24" xml:space="preserve">
<g id="Background" display="none">
	<rect display="inline" fill="#F0F0F0" width="24" height="24"/>
</g>
<g id="Icon">
	<path d="M12,1C5.924,1,1,5.924,1,12s4.924,11,11,11c6.074,0,11-4.924,11-11S18.074,1,12,1z M21,12c0,1.677-0.469,3.242-1.271,4.587
		l-2.219-2.218C17.824,13.642,18,12.841,18,12s-0.176-1.642-0.489-2.369l2.219-2.218C20.531,8.758,21,10.323,21,12z M4.271,16.587
		C3.469,15.242,3,13.676,3,12s0.469-3.242,1.271-4.587l2.219,2.219C6.175,10.359,6,11.159,6,12s0.175,1.641,0.489,2.368
		L4.271,16.587z M8,12c0-2.209,1.791-4,4-4c2.207,0,4,1.791,4,4s-1.793,4-4,4C9.791,16,8,14.209,8,12z M16.587,4.271l-2.219,2.219
		C13.641,6.175,12.841,6,12,6s-1.641,0.175-2.368,0.489L7.413,4.271C8.758,3.469,10.324,3,12,3C13.677,3,15.241,3.469,16.587,4.271z
		 M7.413,19.729l2.219-2.219C10.359,17.825,11.159,18,12,18s1.641-0.175,2.368-0.489l2.219,2.218C15.241,20.531,13.677,21,12,21
		C10.324,21,8.758,20.531,7.413,19.729z"/>
	<path d="M12,1C5.924,1,1,5.924,1,12s4.924,11,11,11c6.074,0,11-4.924,11-11S18.074,1,12,1z M21,12c0,1.677-0.469,3.242-1.271,4.587
		l-2.219-2.218C17.824,13.642,18,12.841,18,12s-0.176-1.642-0.489-2.369l2.219-2.218C20.531,8.758,21,10.323,21,12z M4.271,16.587
		C3.469,15.242,3,13.676,3,12s0.469-3.242,1.271-4.587l2.219,2.219C6.175,10.359,6,11.159,6,12s0.175,1.641,0.489,2.368
		L4.271,16.587z M8,12c0-2.209,1.791-4,4-4c2.207,0,4,1.791,4,4s-1.793,4-4,4C9.791,16,8,14.209,8,12z M16.587,4.271l-2.219,2.219
		C13.641,6.175,12.841,6,12,6s-1.641,0.175-2.368,0.489L7.413,4.271C8.758,3.469,10.324,3,12,3C13.677,3,15.241,3.469,16.587,4.271z
		 M7.413,19.729l2.219-2.219C10.359,17.825,11.159,18,12,18s1.641-0.175,2.368-0.489l2.219,2.218C15.241,20.531,13.677,21,12,21
		C10.324,21,8.758,20.531,7.413,19.729z"/>
</g>
<g id="Guide" display="none">
	<g display="inline">
		<path fill="#FFCCCC" d="M23,1v22H1V1H23 M24,0H0v24h24V0L24,0z"/>
	</g>
</g>
</svg>
