<?xml version="1.0" encoding="utf-8"?>
<!-- Generator: Adobe Illustrator 20.0.0, SVG Export Plug-In . SVG Version: 6.00 Build 0)  -->
<svg version="1.1" id="Layer_1" xmlns="http://www.w3.org/2000/svg" xmlns:xlink="http://www.w3.org/1999/xlink" x="0px" y="0px"
	 viewBox="0 0 24 24" style="enable-background:new 0 0 24 24;" xml:space="preserve">
<style type="text/css">
	.st0{display:none;}
	.st1{display:inline;fill:#F0F0F0;}
	.st2{fill:#323232;}
	.st3{display:inline;}
	.st4{fill:#FFCCCC;}
</style>
<g id="Background" class="st0">
	<rect class="st1" width="24" height="24"/>
</g>
<g id="Icon">
	<path class="st2" d="M12,1L1,12l3,3l0.1,8H20v-8l3-3L12,1z M18,21H6v-8l6-6l6,6V21z"/>
	<path class="st2" d="M12,1L1,12l3,3l0.1,8H20v-8l3-3L12,1z M18,21H6v-8l6-6l6,6V21z"/>
</g>
<g id="Guide" class="st0">
	<g class="st3">
		<path class="st4" d="M23,1v22H1V1H23 M24,0H0v24h24V0L24,0z"/>
	</g>
</g>
</svg>
