<?xml version="1.0" encoding="utf-8"?>
<!-- Generator: Adobe Illustrator 20.0.0, SVG Export Plug-In . SVG Version: 6.00 Build 0)  -->
<svg version="1.1" id="Layer_1" xmlns="http://www.w3.org/2000/svg" xmlns:xlink="http://www.w3.org/1999/xlink" x="0px" y="0px"
	 viewBox="0 0 24 24" style="enable-background:new 0 0 24 24;" xml:space="preserve">
<style type="text/css">
	.st0{display:none;}
	.st1{display:inline;fill:#F0F0F0;}
	.st2{fill:#323232;}
	.st3{display:inline;}
	.st4{fill:#FFCCCC;}
</style>
<g id="Background" class="st0">
	<rect class="st1" width="24" height="24"/>
</g>
<g id="Icon">
	<g>
		<path class="st2" d="M12,7c-1.5,0-2.8,0.4-4,1.1V7c0-2.1,1.9-4,4-4c1.1,0,2.1,0.5,2.8,1.2c0.5-0.5,1-1,1.4-1.4
			C15.1,1.7,13.6,1,12,1C8.8,1,6,3.8,6,7v2.7C4.8,11.1,4,13,4,15c0,4.4,3.6,8,8,8s8-3.6,8-8C20,10.6,16.4,7,12,7z M15.7,17.3
			l-1.4,1.4L12,16.4l-2.3,2.3l-1.4-1.4l2.3-2.3l-2.3-2.3l1.4-1.4l2.3,2.3l2.3-2.3l1.4,1.4L13.4,15L15.7,17.3z"/>
	</g>
</g>
<g id="Guide" class="st0">
	<g class="st3">
		<path class="st4" d="M23,1v22H1V1H23 M24,0H0v24h24V0L24,0z"/>
	</g>
</g>
</svg>
