<?xml version="1.0" encoding="utf-8"?>
<!-- Generator: Adobe Illustrator 20.0.0, SVG Export Plug-In . SVG Version: 6.00 Build 0)  -->
<svg version="1.1" id="Layer_1" xmlns="http://www.w3.org/2000/svg" xmlns:xlink="http://www.w3.org/1999/xlink" x="0px" y="0px"
	 viewBox="0 0 24 24" style="enable-background:new 0 0 24 24;" xml:space="preserve">
<style type="text/css">
	.st0{display:none;}
	.st1{display:inline;fill:#F0F0F0;}
	.st2{fill:#323232;}
	.st3{display:inline;}
	.st4{fill:#FFCCCC;}
</style>
<g id="Background" class="st0">
	<rect class="st1" width="24" height="24"/>
</g>
<g id="Icon">
	<g>
		<path class="st2" d="M17.1,2c-2.2,0-4,1.3-5.1,3c-1-1.7-2.9-3-5.1-3C3.7,2,1,4.6,1,7.8c0,1.6,0.6,3.1,1.7,4.2
			C5.1,14.4,12,22,12,22s6.9-7.6,9.3-10c1-1.1,1.7-2.6,1.7-4.2C23,4.6,20.3,2,17.1,2z"/>
	</g>
</g>
<g id="Guide" class="st0">
	<g class="st3">
		<path class="st4" d="M23,1v22H1V1H23 M24,0H0v24h24V0L24,0z"/>
	</g>
</g>
</svg>
