<?xml version="1.0" encoding="utf-8"?>
<!-- Generator: Adobe Illustrator 20.0.0, SVG Export Plug-In . SVG Version: 6.00 Build 0)  -->
<svg version="1.1" id="Layer_1" xmlns="http://www.w3.org/2000/svg" xmlns:xlink="http://www.w3.org/1999/xlink" x="0px" y="0px"
	 viewBox="0 0 24 24" style="enable-background:new 0 0 24 24;" xml:space="preserve">
<style type="text/css">
	.st0{display:none;}
	.st1{display:inline;fill:#F0F0F0;}
	.st2{fill:#323232;}
	.st3{display:inline;}
	.st4{fill:#FFCCCC;}
</style>
<g id="Background" class="st0">
	<rect class="st1" width="24" height="24"/>
</g>
<g id="Icon">
	<path class="st2" d="M21.4,2.6c-1-1-2.3-1.6-3.8-1.6c-1.5,0-2.8,0.6-3.8,1.6l-2.3,2.3c-1,1-1.6,2.3-1.6,3.8c0,0.6,0.1,1.1,0.3,1.6
		C9.8,10.1,9.2,10,8.6,10c-1.5,0-2.8,0.6-3.8,1.6l-2.3,2.3c-1,1-1.6,2.3-1.6,3.8c0,1.5,0.6,2.9,1.5,3.8c1,1,2.3,1.5,3.8,1.5
		c1.5,0,2.8-0.6,3.8-1.6l2.3-2.3c1-1,1.6-2.3,1.6-3.8c0-0.6-0.1-1.1-0.3-1.6c0.5,0.2,1.1,0.3,1.6,0.3c1.5,0,2.8-0.6,3.8-1.6l2.3-2.3
		c1-1,1.6-2.3,1.6-3.8C23,4.9,22.4,3.5,21.4,2.6z M11,17.7L8.7,20c-0.6,0.6-1.5,1-2.4,1c-0.9,0-1.8-0.3-2.4-0.9
		C3.3,19.5,3,18.6,3,17.6c0-0.9,0.3-1.7,1-2.4L6.3,13c0.6-0.6,1.5-1,2.4-1c0.6,0,1.1,0.1,1.5,0.4l-2.9,2.9l1.4,1.4l2.9-2.9
		c0.2,0.5,0.4,1,0.4,1.5C12,16.2,11.7,17.1,11,17.7z M20,8.7L17.7,11c-0.6,0.6-1.5,1-2.4,1c-0.6,0-1.1-0.1-1.6-0.4l2.9-2.9l-1.4-1.4
		l-2.9,2.9c-0.2-0.5-0.4-1-0.4-1.6c0-0.9,0.3-1.7,1-2.4L15.3,4c0.6-0.6,1.5-1,2.4-1c0.9,0,1.7,0.3,2.4,1s1,1.5,1,2.4
		C21,7.2,20.7,8.1,20,8.7z"/>
</g>
<g id="Guide" class="st0">
	<g class="st3">
		<path class="st4" d="M23,1v22H1V1H23 M24,0H0v24h24V0L24,0z"/>
	</g>
</g>
</svg>
