<?xml version="1.0" encoding="utf-8"?>
<!-- Generator: Adobe Illustrator 20.0.0, SVG Export Plug-In . SVG Version: 6.00 Build 0)  -->
<svg version="1.1" id="Layer_1" xmlns="http://www.w3.org/2000/svg" xmlns:xlink="http://www.w3.org/1999/xlink" x="0px" y="0px"
	 viewBox="0 0 24 24" style="enable-background:new 0 0 24 24;" xml:space="preserve">
<style type="text/css">
	.st0{display:none;}
	.st1{display:inline;fill:#F0F0F0;}
	.st2{fill:#323232;}
	.st3{display:inline;}
	.st4{fill:#FFCCCC;}
</style>
<g id="Background" class="st0">
	<rect class="st1" width="24" height="24"/>
</g>
<g id="Icon">
	<g>
		<g>
			<path class="st2" d="M18.4,3.6C16.7,2,14.5,1,12,1S7.3,2,5.6,3.6C4,5.2,3,7.4,3,9.8c0,2.6,1,4.9,2.6,6.6L12,23l6.4-6.6
				c1.6-1.7,2.6-4,2.6-6.6C21,7.4,20,5.2,18.4,3.6z M12,13c-1.7,0-3-1.3-3-3c0-1.7,1.3-3,3-3s3,1.3,3,3C15,11.7,13.7,13,12,13z"/>
		</g>
	</g>
</g>
<g id="Guide" class="st0">
	<g class="st3">
		<path class="st4" d="M23,1v22H1V1H23 M24,0H0v24h24V0L24,0z"/>
	</g>
</g>
</svg>
