<?xml version="1.0" encoding="utf-8"?>
<!-- Generator: Adobe Illustrator 19.1.0, SVG Export Plug-In . SVG Version: 6.00 Build 0)  -->
<svg version="1.1" xmlns="http://www.w3.org/2000/svg" xmlns:xlink="http://www.w3.org/1999/xlink" x="0px" y="0px"
	 viewBox="0 0 24 24" style="enable-background:new 0 0 24 24;" xml:space="preserve">
<style type="text/css">
	.st0{fill:#323232;}
</style>
<g id="Guides">
</g>
<g id="Name">
</g>
<g id="Icon">
	<g id="Icon_3_">
		<g>
			<g>
				<path class="st0" d="M20.4,12c0-0.5,0-0.9-0.1-1.3L23,8.3l-2.3-3.7l-3.2,1c-0.8-0.7-1.6-1.2-2.6-1.5L14.2,1H9.8L9.1,4.1
					C8.1,4.4,7.2,5,6.5,5.6l-3.2-1L1,8.3l2.7,2.3c-0.1,0.4-0.1,0.9-0.1,1.3s0,0.9,0.1,1.3L1,15.7l2.3,3.7l3.2-1
					c0.8,0.7,1.6,1.2,2.6,1.5L9.8,23h4.4l0.7-3.1c1-0.4,1.9-0.9,2.6-1.5l3.2,1l2.3-3.7l-2.7-2.3C20.4,12.9,20.4,12.5,20.4,12z
					 M12,15c-1.7,0-3-1.3-3-3s1.3-3,3-3s3,1.3,3,3S13.7,15,12,15z"/>
			</g>
		</g>
	</g>
</g>
</svg>
