<?xml version="1.0" encoding="utf-8"?>
<!-- Generator: Adobe Illustrator 19.1.0, SVG Export Plug-In . SVG Version: 6.00 Build 0)  -->
<svg version="1.1" xmlns="http://www.w3.org/2000/svg" xmlns:xlink="http://www.w3.org/1999/xlink" x="0px" y="0px"
	 viewBox="0 0 24 24" style="enable-background:new 0 0 24 24;" xml:space="preserve">
<style type="text/css">
	.st0{fill:#323232;}
</style>
<g id="Guides">
</g>
<g id="Name">
</g>
<g id="Icon">
	<g>
		<polygon class="st0" points="3,3 1,3 1,4 2,4 2,7 1,7 1,8 4,8 4,7 3,7 		"/>
		<rect x="3" y="11" class="st0" width="1" height="1"/>
		<rect x="2" y="12" class="st0" width="1" height="1"/>
		<polygon class="st0" points="1,14.2 1,15 4,15 4,14 2,14 2,13 1,13 		"/>
		<rect x="1" y="10" class="st0" width="2" height="1"/>
		<rect x="3" y="18" class="st0" width="1" height="1"/>
		<rect x="2" y="19" class="st0" width="1" height="1"/>
		<rect x="3" y="20" class="st0" width="1" height="1"/>
		<rect x="1" y="21" class="st0" width="2" height="1"/>
		<rect x="1" y="17" class="st0" width="2" height="1"/>
	</g>
	<rect x="8" y="18" class="st0" width="15" height="2"/>
	<rect x="8" y="11" class="st0" width="15" height="2"/>
	<rect x="8" y="4" class="st0" width="15" height="2"/>
</g>
</svg>
