<?xml version="1.0" encoding="utf-8"?>
<!-- Generator: Adobe Illustrator 19.1.0, SVG Export Plug-In . SVG Version: 6.00 Build 0)  -->
<svg version="1.1" xmlns="http://www.w3.org/2000/svg" xmlns:xlink="http://www.w3.org/1999/xlink" x="0px" y="0px"
	 viewBox="0 0 24 24" style="enable-background:new 0 0 24 24;" xml:space="preserve">
<style type="text/css">
	.st0{fill:#323232;}
</style>
<g id="Guides">
</g>
<g id="Name">
</g>
<g id="Icon">
	<path class="st0" d="M17.9,7c-1.1,0-2.1,0.4-3,1h-1.5c-0.2-0.6-0.8-1-1.4-1s-1.2,0.4-1.4,1H9.1c-0.8-0.6-1.9-1-3-1
		c-2.8,0-5,2.2-5,5s2.2,5,5,5c2.4,0,4.4-1.7,4.9-4H13c0.5,2.3,2.5,4,4.9,4c2.8,0,5-2.2,5-5S20.6,7,17.9,7z M6.1,15c-1.7,0-3-1.3-3-3
		c0-1.7,1.3-3,3-3c1.7,0,3,1.3,3,3C9.1,13.7,7.8,15,6.1,15z M17.9,15c-1.7,0-3-1.3-3-3c0-1.7,1.3-3,3-3c1.7,0,3,1.3,3,3
		C20.9,13.7,19.5,15,17.9,15z"/>
</g>
</svg>
