<?xml version="1.0" encoding="utf-8"?>
<!-- Generator: Adobe Illustrator 19.1.0, SVG Export Plug-In . SVG Version: 6.00 Build 0)  -->
<svg version="1.1" xmlns="http://www.w3.org/2000/svg" xmlns:xlink="http://www.w3.org/1999/xlink" x="0px" y="0px"
	 viewBox="0 0 24 24" style="enable-background:new 0 0 24 24;" xml:space="preserve">
<style type="text/css">
	.st0{fill:#F0F0F0;}
	.st1{fill:#323232;}
</style>
<g id="Guides">
</g>
<g id="Name">
</g>
<g id="Icon">
	<path class="st1" d="M10,1.2C5.5,2,2,5.5,1.2,10H10V1.2z"/>
	<path class="st1" d="M12,1v11H1c0,6.1,4.9,11,11,11c5.4,0,9.9-3.9,10.8-9l0,0c0.1-0.3,0.1-0.6,0.1-1c0-0.3,0.1-0.7,0.1-1
		C23,5.9,18.1,1,12,1z M11.8,21c-4.3,0-7.9-3-8.8-7h18C20.1,18,16.1,21,11.8,21z M14,12V3.2c4,0.9,7,4.5,7,8.8H14z"/>
</g>
</svg>
