<?xml version="1.0" encoding="utf-8"?>
<!-- Generator: Adobe Illustrator 19.1.0, SVG Export Plug-In . SVG Version: 6.00 Build 0)  -->
<svg version="1.1" xmlns="http://www.w3.org/2000/svg" xmlns:xlink="http://www.w3.org/1999/xlink" x="0px" y="0px"
	 viewBox="0 0 24 24" style="enable-background:new 0 0 24 24;" xml:space="preserve">
<style type="text/css">
	.st0{fill:#323232;}
</style>
<g id="Guides">
</g>
<g id="Name">
</g>
<g id="Icon">
	<path class="st0" d="M23,11.1c-0.1-0.7-0.2-1.5-0.4-2.2c-0.2-0.7-0.5-1.4-0.8-2c-0.3-0.6-0.7-1.2-1.2-1.8c-0.4-0.5-0.9-1.1-1.5-1.5
		c-0.5-0.5-1.1-0.9-1.7-1.2c-0.6-0.3-1.3-0.6-1.9-0.9c-0.7-0.2-1.4-0.4-2.1-0.5C12.6,1,11.8,1,11.1,1c-0.7,0.1-1.5,0.2-2.2,0.4
		c-0.7,0.2-1.4,0.5-2,0.8C6.3,2.6,5.7,3,5.1,3.4C4.6,3.8,4.1,4.3,3.6,4.9C3.2,5.4,2.8,6,2.4,6.6C2.1,7.2,1.8,7.9,1.6,8.6
		c-0.2,0.7-0.4,1.4-0.5,2.1C1,11.4,1,12.2,1,12.9c0.1,0.7,0.2,1.5,0.4,2.2c0.1,0.2,0.2,0.5,0.2,0.7c-0.4,0.4-0.7,1-0.7,1.7
		C1,18.9,2.1,20,3.5,20c0.3,0,0.6-0.1,0.8-0.1c0.2,0.2,0.4,0.4,0.6,0.5c0.5,0.5,1.1,0.9,1.7,1.2c0.2,0.1,0.4,0.2,0.6,0.3l-0.3,1
		l3.9-0.9L8.1,19l-0.3,0.9c-0.1,0-0.1-0.1-0.2-0.1c-0.5-0.3-1-0.6-1.4-1c-0.1-0.1-0.2-0.3-0.4-0.4c0.1-0.3,0.2-0.6,0.2-1
		C6,16.1,4.9,15,3.5,15c-0.1-0.2-0.1-0.3-0.2-0.5c-0.2-0.6-0.3-1.2-0.3-1.8c0-0.6,0-1.2,0-1.8c0.1-0.6,0.2-1.2,0.4-1.7
		c0.2-0.6,0.4-1.1,0.7-1.6c0.3-0.5,0.6-1,1-1.4C5.5,5.7,5.9,5.3,6.4,5c0.5-0.4,0.9-0.7,1.5-1c0.5-0.3,1.1-0.5,1.6-0.7
		c0.6-0.2,1.2-0.3,1.8-0.3c0.6,0,1.2,0,1.8,0c0.6,0.1,1.2,0.2,1.7,0.4c0.6,0.2,1.1,0.4,1.6,0.7c0.5,0.3,1,0.6,1.4,1
		c0.4,0.4,0.8,0.8,1.2,1.2c0.4,0.5,0.7,0.9,1,1.5c0.3,0.5,0.5,1.1,0.7,1.6c0.2,0.6,0.3,1.2,0.3,1.8c0,0.6,0,1.2,0,1.8
		c-0.1,0.6-0.2,1.2-0.4,1.7c-0.2,0.6-0.4,1.1-0.7,1.6c-0.3,0.5-0.6,1-1,1.4c-0.4,0.4-0.8,0.8-1.2,1.2c-0.5,0.4-0.9,0.7-1.5,1
		c-0.5,0.3-1.1,0.5-1.6,0.7c-0.6,0.2-1.2,0.3-1.8,0.3l0.2,2c0.7-0.1,1.5-0.2,2.2-0.4c0.7-0.2,1.4-0.5,2-0.8c0.6-0.3,1.2-0.7,1.8-1.2
		c0.5-0.4,1.1-0.9,1.5-1.5c0.5-0.5,0.9-1.1,1.2-1.7c0.3-0.6,0.6-1.3,0.9-1.9c0.2-0.7,0.4-1.4,0.5-2.1C23,12.6,23,11.8,23,11.1z
		 M5,17.5C5,18.3,4.3,19,3.5,19S2,18.3,2,17.5S2.7,16,3.5,16S5,16.7,5,17.5z"/>
	<path class="st0" d="M15.4,16.9c0.6-0.4,1.2-1,1.6-1.7c0.4-0.7,0.7-1.4,0.9-2.1c0.2-0.8,0.1-1.6,0-2.4c-0.1-0.3-0.2-0.6-0.3-0.9
		C17.8,9.5,18,9,18,8.5C18,7.1,16.9,6,15.5,6c-0.5,0-1,0.2-1.4,0.4c-0.3-0.1-0.7-0.2-1-0.3c-0.8-0.2-1.6-0.1-2.4,0
		c-0.8,0.2-1.5,0.5-2.2,1C8.4,7.2,8.2,7.4,8,7.6L7.1,7.1l0,4l3.5-2L9.8,8.7c0.4-0.3,0.9-0.5,1.3-0.6c0.5-0.1,1.1-0.1,1.6,0
		c0.1,0,0.2,0.1,0.3,0.1c0,0.1,0,0.2,0,0.4c0,1.4,1.1,2.5,2.5,2.5c0.1,0,0.2,0,0.4,0c0,0.1,0,0.1,0.1,0.2c0.1,0.5,0.1,1.1,0,1.6
		c-0.1,0.5-0.3,1-0.6,1.4c-0.3,0.4-0.6,0.8-1.1,1.1c-0.4,0.3-0.9,0.5-1.5,0.6c-0.5,0.1-1.1,0.1-1.6,0c-0.5-0.1-1-0.3-1.4-0.6
		c-0.4-0.3-0.8-0.6-1.1-1.1c-0.3-0.4-0.5-0.9-0.6-1.5l-2,0.4c0.2,0.8,0.5,1.5,1,2.2c0.4,0.6,1,1.2,1.7,1.6c0.7,0.4,1.4,0.7,2.1,0.9
		C11.2,18,11.6,18,12,18c0.4,0,0.8,0,1.3-0.1C14,17.7,14.8,17.4,15.4,16.9z M14,8.5C14,7.7,14.7,7,15.5,7S17,7.7,17,8.5
		S16.3,10,15.5,10S14,9.3,14,8.5z"/>
	<circle class="st0" cx="12" cy="12" r="1.5"/>
</g>
</svg>
