<?xml version="1.0" encoding="utf-8"?>
<!-- Generator: Adobe Illustrator 19.1.0, SVG Export Plug-In . SVG Version: 6.00 Build 0)  -->
<svg version="1.1" xmlns="http://www.w3.org/2000/svg" xmlns:xlink="http://www.w3.org/1999/xlink" x="0px" y="0px"
	 viewBox="0 0 24 24" style="enable-background:new 0 0 24 24;" xml:space="preserve">
<style type="text/css">
	.st0{fill:#323232;}
</style>
<g id="Guides">
</g>
<g id="Name">
</g>
<g id="Icon">
	<g>
		<path class="st0" d="M19.5,12h-2c0,3-2.5,5.5-5.5,5.5S6.5,15,6.5,12h-2c0,3.8,2.8,6.9,6.5,7.4V21H9v2h6v-2h-2v-1.6
			C16.7,18.9,19.5,15.8,19.5,12z"/>
		<path class="st0" d="M12,16c2.2,0,4-1.8,4-4V5c0-2.2-1.8-4-4-4S8,2.8,8,5v7C8,14.2,9.8,16,12,16z"/>
	</g>
</g>
</svg>
