<?xml version="1.0" encoding="utf-8"?>
<!-- Generator: Adobe Illustrator 20.0.0, SVG Export Plug-In . SVG Version: 6.00 Build 0)  -->
<svg version="1.1" id="Icon" xmlns="http://www.w3.org/2000/svg" xmlns:xlink="http://www.w3.org/1999/xlink" x="0px" y="0px"
	 viewBox="0 0 24 24" style="enable-background:new 0 0 24 24;" xml:space="preserve">
<style type="text/css">
	.st0{fill:#323232;}
</style>
<title>relationship_24</title>
<path class="st0" d="M21,8h-6l-3,4L9,8H3C2.4,8,2,8.4,2,9v7l2,2v4c0,0.6,0.4,1,1,1h3c0.6,0,1-0.4,1-1V12l3,4l3-4v10c0,0.6,0.4,1,1,1
	h3c0.6,0,1-0.4,1-1v-4l2-2V9C22,8.4,21.6,8,21,8z"/>
<circle class="st0" cx="7" cy="4" r="3"/>
<circle class="st0" cx="17" cy="4" r="3"/>
</svg>
