<?xml version="1.0" encoding="utf-8"?>
<!-- Generator: Adobe Illustrator 20.0.0, SVG Export Plug-In . SVG Version: 6.00 Build 0)  -->
<svg version="1.1" id="Layer_1" xmlns="http://www.w3.org/2000/svg" xmlns:xlink="http://www.w3.org/1999/xlink" x="0px" y="0px"
	 viewBox="0 0 24 24" style="enable-background:new 0 0 24 24;" xml:space="preserve">
<style type="text/css">
	.st0{display:none;}
	.st1{display:inline;fill:#F0F0F0;}
	.st2{fill:#323232;}
	.st3{display:inline;}
	.st4{fill:#FFCCCC;}
</style>
<g id="Background" class="st0">
	<rect class="st1" width="24" height="24"/>
</g>
<g id="Icon">
	<path class="st2" d="M9,3c3.3,0,6,2.7,6,6s-2.7,6-6,6s-6-2.7-6-6S5.7,3,9,3 M9,1C4.6,1,1,4.6,1,9c0,4.4,3.6,8,8,8s8-3.6,8-8
		C17,4.6,13.4,1,9,1L9,1z"/>
	<rect x="16.9" y="15.5" transform="matrix(0.7071 -0.7071 0.7071 0.7071 -7.8696 18.9996)" class="st2" width="4.2" height="7.1"/>
	<path class="st2" d="M9,3c3.3,0,6,2.7,6,6s-2.7,6-6,6s-6-2.7-6-6S5.7,3,9,3 M9,1C4.6,1,1,4.6,1,9c0,4.4,3.6,8,8,8s8-3.6,8-8
		C17,4.6,13.4,1,9,1L9,1z"/>
	<rect x="16.9" y="15.5" transform="matrix(0.7071 -0.7071 0.7071 0.7071 -7.8696 18.9996)" class="st2" width="4.2" height="7.1"/>
</g>
<g id="Guide" class="st0">
	<g class="st3">
		<path class="st4" d="M23,1v22H1V1H23 M24,0H0v24h24V0L24,0z"/>
	</g>
</g>
</svg>
