<?xml version="1.0" encoding="utf-8"?>
<!-- Generator: Adobe Illustrator 19.1.0, SVG Export Plug-In . SVG Version: 6.00 Build 0)  -->
<svg version="1.1" xmlns="http://www.w3.org/2000/svg" xmlns:xlink="http://www.w3.org/1999/xlink" x="0px" y="0px"
	 viewBox="0 0 24 24" style="enable-background:new 0 0 24 24;" xml:space="preserve">
<style type="text/css">
	.st0{fill:#F0F0F0;}
	.st1{fill:#323232;}
</style>
<g id="Guides">
</g>
<g id="Name">
</g>
<g id="Icon">
	<path class="st1" d="M22.5,4.5L19,8c-0.8,0.8-2.2,0.8-3,0s-0.8-2.2,0-3l3.5-3.5C18.7,1.2,17.9,1,17,1c-3.3,0-6,2.7-6,6
		c0,0.6,0.1,1.2,0.3,1.7l-9.4,9.4c-1.1,1.1-1.1,2.9,0,4s2.9,1.1,4,0l9.4-9.4c0.6,0.2,1.1,0.3,1.7,0.3c3.3,0,6-2.7,6-6
		C23,6.1,22.8,5.3,22.5,4.5z M4,21c-0.6,0-1-0.4-1-1s0.4-1,1-1s1,0.4,1,1S4.6,21,4,21z"/>
</g>
</svg>
