<?xml version="1.0" encoding="utf-8"?>
<!-- Generator: Adobe Illustrator 16.2.1, SVG Export Plug-In . SVG Version: 6.00 Build 0)  -->
<!DOCTYPE svg PUBLIC "-//W3C//DTD SVG 1.1//EN" "http://www.w3.org/Graphics/SVG/1.1/DTD/svg11.dtd">
<svg version="1.1" xmlns="http://www.w3.org/2000/svg" xmlns:xlink="http://www.w3.org/1999/xlink" x="0px" y="0px" width="24px"
	 height="24px" viewBox="0 0 24 24" enable-background="new 0 0 24 24" xml:space="preserve">
<g id="Background" display="none">
	<rect display="inline" fill="#F0F0F0" width="24" height="24"/>
</g>
<g id="Icon">
	<g>
		<g>
			<path d="M4,1v22h16V1H4z M12,4c1.104,0,2,0.896,2,2.001C14,7.105,13.104,8,12,8s-2-0.895-2-1.999C10,4.896,10.896,4,12,4z M12,20
				c-2.76,0-5-2.236-5-4.999C7,12.237,9.24,10,12,10s5,2.237,5,5.001C17,17.764,14.76,20,12,20z"/>
		</g>
		<circle cx="12" cy="15" r="2"/>
	</g>
</g>
<g id="Guide" display="none">
	<g display="inline">
		<path fill="#FFCCCC" d="M23,1v22H1V1H23 M24,0H0v24h24V0L24,0z"/>
	</g>
</g>
</svg>
