<?xml version="1.0" encoding="utf-8"?>
<!-- Generator: Adobe Illustrator 19.1.0, SVG Export Plug-In . SVG Version: 6.00 Build 0)  -->
<svg version="1.1" xmlns="http://www.w3.org/2000/svg" xmlns:xlink="http://www.w3.org/1999/xlink" x="0px" y="0px"
	 viewBox="0 0 24 24" style="enable-background:new 0 0 24 24;" xml:space="preserve">
<style type="text/css">
	.st0{fill:#F0F0F0;}
	.st1{fill:#323232;}
</style>
<g id="Guides">
</g>
<g id="Name">
</g>
<g id="Icon">
	<g>
		<polygon class="st1" points="13,6 11,6 11,11 8,11 8,13 11,13 11,14 13,14 13,13 14,13 14,11 13,11 		"/>
		<path class="st1" d="M22,11h-1.1c-0.2-2.3-1.3-4.3-2.9-5.7V1H6v4.3C4.2,7,3,9.3,3,12s1.2,5,3,6.7V23h12v-4.3
			c1.6-1.4,2.7-3.4,2.9-5.7H22V11z M12,19c-3.9,0-7-3.1-7-7s3.1-7,7-7s7,3.1,7,7S15.9,19,12,19z"/>
	</g>
</g>
</svg>
