<?xml version="1.0" encoding="utf-8"?>
<!-- Generator: Adobe Illustrator 19.1.0, SVG Export Plug-In . SVG Version: 6.00 Build 0)  -->
<svg version="1.1" xmlns="http://www.w3.org/2000/svg" xmlns:xlink="http://www.w3.org/1999/xlink" x="0px" y="0px"
	 viewBox="0 0 24 24" style="enable-background:new 0 0 24 24;" xml:space="preserve">
<style type="text/css">
	.st0{fill:#F0F0F0;}
	.st1{fill:#323232;}
</style>
<g id="Guides">
</g>
<g id="Name">
</g>
<g id="Icon">
	<path class="st1" d="M21,5.6C21,5.6,20.9,5.6,21,5.6c-0.7-1-1.6-1.9-2.6-2.6c0,0,0,0,0,0c-1.8-1.3-4-2-6.4-2C5.9,1,1,5.9,1,12
		c0,2.4,0.8,4.6,2,6.4c0,0,0,0,0,0c0.7,1,1.6,1.8,2.5,2.5c0,0,0,0,0,0c1.8,1.3,4,2,6.4,2c6.1,0,11-4.9,11-11C23,9.6,22.2,7.4,21,5.6
		z M18.5,7.5c0,2.8-1,5.3-2.7,7.3L13,12l5.5-5.5C18.5,6.9,18.5,7.2,18.5,7.5z M5.5,16.5c0-2.8,1-5.3,2.7-7.3L11,12l-5.5,5.5
		C5.5,17.1,5.5,16.8,5.5,16.5z M12,11L9.2,8.2c1.9-1.7,4.5-2.7,7.3-2.7c0.3,0,0.6,0,1,0L12,11z M12,13l2.8,2.8
		c-1.9,1.7-4.5,2.7-7.3,2.7c-0.3,0-0.6,0-1,0L12,13z M17,4c-0.2,0-0.3,0-0.5,0c-3.2,0-6.1,1.2-8.3,3.2L5.9,4.9
		C7.5,3.4,9.7,2.6,12,2.6C13.8,2.6,15.5,3.1,17,4z M4.9,5.9l2.3,2.3c-2,2.2-3.2,5.1-3.2,8.3c0,0.2,0,0.3,0,0.5
		c-0.9-1.5-1.5-3.2-1.5-5C2.6,9.7,3.4,7.5,4.9,5.9z M7,20c0.2,0,0.3,0,0.5,0c3.2,0,6.1-1.2,8.3-3.2l2.3,2.3
		c-1.7,1.4-3.8,2.3-6.1,2.3C10.2,21.4,8.5,20.9,7,20z M19.1,18.1l-2.3-2.3c2-2.2,3.2-5.1,3.2-8.3c0-0.2,0-0.3,0-0.5
		c0.9,1.5,1.5,3.2,1.5,5C21.4,14.3,20.6,16.5,19.1,18.1z"/>
</g>
</svg>
