<?xml version="1.0" encoding="utf-8"?>
<!-- Generator: Adobe Illustrator 19.1.0, SVG Export Plug-In . SVG Version: 6.00 Build 0)  -->
<svg version="1.1" xmlns="http://www.w3.org/2000/svg" xmlns:xlink="http://www.w3.org/1999/xlink" x="0px" y="0px"
	 viewBox="0 0 24 24" style="enable-background:new 0 0 24 24;" xml:space="preserve">
<style type="text/css">
	.st0{fill:#F0F0F0;}
	.st1{fill:#323232;}
</style>
<g id="Guides">
</g>
<g id="Name">
</g>
<g id="Icon">
	<path class="st1" d="M19.8,16.8c4.2-4.2,4.3-10.9,0.3-15.2L19.5,1l-2.9,2.7C15.4,2.6,13.8,2,12,2C8.1,2,5,5.1,5,9
		c0,1.8,0.6,3.4,1.7,4.6l-2.8,2.8l0.4,0.4l0,0c1.9,1.9,4.3,2.9,6.8,3.2v1H9v2h7v-2h-2v-1.2C16.1,19.4,18.1,18.4,19.8,16.8z M19,9
		c0-1.8-0.6-3.4-1.7-4.6L18.7,3c3.2,3.5,3.1,9-0.3,12.4S9.5,18.9,6,15.7l1.4-1.4C8.6,15.4,10.2,16,12,16C15.9,16,19,12.9,19,9z"/>
</g>
</svg>
