<?xml version="1.0" encoding="utf-8"?>
<!-- Generator: Adobe Illustrator 19.1.0, SVG Export Plug-In . SVG Version: 6.00 Build 0)  -->
<svg version="1.1" xmlns="http://www.w3.org/2000/svg" xmlns:xlink="http://www.w3.org/1999/xlink" x="0px" y="0px"
	 viewBox="0 0 24 24" style="enable-background:new 0 0 24 24;" xml:space="preserve">
<style type="text/css">
	.st0{fill:#323232;}
</style>
<g id="Guides">
</g>
<g id="Name">
</g>
<g id="Icon">
	<g id="Icon_13_">
		<path class="st0" d="M9,3c3.3,0,6,2.7,6,6s-2.7,6-6,6s-6-2.7-6-6S5.7,3,9,3 M9,1C4.6,1,1,4.6,1,9c0,4.4,3.6,8,8,8s8-3.6,8-8
			C17,4.6,13.4,1,9,1L9,1z"/>
		
			<rect x="16.9" y="15.5" transform="matrix(-0.7071 0.7071 -0.7071 -0.7071 45.8699 18.9999)" class="st0" width="4.2" height="7.1"/>
		<path class="st0" d="M9,3c3.3,0,6,2.7,6,6s-2.7,6-6,6s-6-2.7-6-6S5.7,3,9,3 M9,1C4.6,1,1,4.6,1,9c0,4.4,3.6,8,8,8s8-3.6,8-8
			C17,4.6,13.4,1,9,1L9,1z"/>
	</g>
	<rect x="5" y="8" class="st0" width="8" height="2"/>
</g>
</svg>
